<svg xmlns="http://www.w3.org/2000/svg" viewBox="0 0 341.69 380.53"><defs><style>.cls-1{fill:#1f2c41;}.cls-2{fill:#4eb4e3;}.cls-3{fill:#27aee1;}.cls-4{fill:#00a3d7;}.cls-5{fill:#73bce5;}.cls-6{fill:#64b8e4;}.cls-7{fill:#a1cae9;}.cls-8{fill:#96abbf;}.cls-9{fill:#8ca5ba;}.cls-10{fill:#7c9bb1;}.cls-11{fill:#abb7c8;}.cls-12,.cls-13{fill:#fff;}.cls-12{opacity:0.1;}.cls-13{opacity:0.2;}.cls-14{fill:#93a9bd;}.cls-15{fill:#5794c3;}.cls-16{fill:#378ec1;}.cls-17{fill:#1880b1;}.cls-18{fill:#191414;}</style></defs><g id="Capa_2" data-name="Capa 2"><g id="Capa_1-2" data-name="Capa 1"><ellipse class="cls-1" cx="51.18" cy="321.36" rx="51.18" ry="16.27"/><path class="cls-1" d="M341.69,321.36c0,9-22.92,16.27-51.18,16.27s-51.18-7.28-51.18-16.27,22.91-16.26,51.18-16.26S341.69,312.38,341.69,321.36Z"/><path class="cls-1" d="M234,363.05c0,9.65-28.72,17.48-64.15,17.48s-64.14-7.83-64.14-17.48,28.72-17.49,64.14-17.49S234,353.39,234,363.05Z"/><path class="cls-2" d="M238.88,10.69V2.52A2.38,2.38,0,0,0,236.67,0H199.22C198,0,197.68.92,197,2.52l-3.19,8h-114c-5.12,0-9.27,4.75-9.27,10.62V130.43c0,5.87,4.15,10.62,9.27,10.62H237.45c5.12,0,9.27-4.75,9.27-10.62V21.15C246.72,15.84,243.31,11.48,238.88,10.69Z"/><path class="cls-3" d="M238.88,10.66V2.52A2.38,2.38,0,0,0,236.67,0h-20.5a76.52,76.52,0,0,1-2.9,10.53Z"/><path class="cls-4" d="M236.67,0H226.54c0,.14,0,.27.05.42a90.76,90.76,0,0,1-1,10.11l13.26.13V2.52A2.38,2.38,0,0,0,236.67,0Z"/><path class="cls-3" d="M237.45,10.53H213.27C194.74,62.34,150,99.62,98.69,99.62a105.9,105.9,0,0,1-28.12-3.86v34.67c0,5.87,4.15,10.62,9.27,10.62H237.45c5.12,0,9.27-4.75,9.27-10.62V21.15C246.72,15.28,242.57,10.53,237.45,10.53Z"/><path class="cls-4" d="M237.45,10.53H225.62c-13,62.23-62.53,109.66-120.36,109.66a106.34,106.34,0,0,1-34.69-5.87v16.11c0,5.87,4.15,10.62,9.27,10.62H237.45c5.12,0,9.27-4.75,9.27-10.62V21.15C246.72,15.28,242.57,10.53,237.45,10.53Z"/><path class="cls-5" d="M264.71,23l1.62-7.4a1.74,1.74,0,0,0-1.7-2.28H227.18c-1.22,0-1.72.82-2.71,2.28l-4.78,7.25h-114c-5.12,0-10.22,4.31-11.38,9.63l-21.72,99c-1.17,5.31,2,9.62,7.16,9.62H237.38c5.12,0,10.22-4.31,11.38-9.62l21.72-99C271.54,27.63,269,23.68,264.71,23Z"/><path class="cls-6" d="M264.37,22.93h.34l1.62-7.37a1.74,1.74,0,0,0-1.7-2.28h-20.5a80.87,80.87,0,0,1-5,9.53c-28.83,46.94-81,80.71-132.29,80.71A107.32,107.32,0,0,1,79.5,100l-6.89,31.4c-1.17,5.31,2,9.62,7.16,9.62H237.38c5.12,0,10.22-4.31,11.38-9.62l21.72-99C271.56,27.5,268.85,23.49,264.37,22.93Z"/><path class="cls-7" d="M191.88,30.39h-79.2c-5.12,0-10.22,4.31-11.38,9.62L92.44,80.37C119.59,52.28,155.6,33.21,191.88,30.39Z"/><path class="cls-2" d="M264.35,22.92h.36l1.62-7.37a1.74,1.74,0,0,0-1.7-2.28H254.5c0,.12,0,.24,0,.37a83.84,83.84,0,0,1-3,9.16c-25.31,56.38-84.32,99.35-142.15,99.35a105.61,105.61,0,0,1-33.52-5.32l-3.2,14.59c-1.17,5.31,2,9.62,7.16,9.62H237.38c5.12,0,10.22-4.31,11.38-9.62l21.72-99C271.56,27.5,268.85,23.48,264.35,22.92Z"/><path class="cls-8" d="M93.21,319.71c0,3.88-18.7,7-41.78,7s-41.77-3.16-41.77-7v-17H93.21Z"/><path class="cls-9" d="M79,302.72v9.95c0,3.89-18.7,7-41.78,7A195.18,195.18,0,0,1,9.66,318v1.75c0,3.88,18.7,7,41.77,7s41.78-3.16,41.78-7v-17Z"/><path class="cls-10" d="M86.44,302.72v13.5c0,3.89-18.7,7-41.78,7-14.62,0-27.49-1.27-34.95-3.19,1.15,3.71,19.39,6.67,41.72,6.67,23.08,0,41.78-3.16,41.78-7v-17Z"/><path class="cls-11" d="M93.21,302.72c0,3.89-18.7,7-41.78,7s-41.77-3.15-41.77-7,18.7-7,41.77-7S93.21,298.83,93.21,302.72Z"/><path class="cls-12" d="M68.5,301.05c0,2-11.36,3.56-25.37,3.56S17.76,303,17.76,301.05s11.36-3.55,25.37-3.55S68.5,299.09,68.5,301.05Z"/><path class="cls-13" d="M48.63,301.05c0,1.33-5.13,2.4-11.45,2.4s-11.44-1.07-11.44-2.4,5.12-2.39,11.44-2.39S48.63,299.73,48.63,301.05Z"/><path class="cls-14" d="M50,295.69H47.84c18.82.17,33.75,2.55,33.75,5.47s-16.06,5.5-35.87,5.5c-18.5,0-33.72-2.15-35.66-4.9a1.35,1.35,0,0,0-.21.7c0,3.75,18,6.78,40.17,6.78s40.18-3,40.18-6.78S72.21,295.69,50,295.69Z"/><path class="cls-15" d="M90.39,298.53c0,3.63-17.44,6.57-39,6.57s-38.95-2.94-38.95-6.57V282.69H90.39Z"/><path class="cls-16" d="M77.1,282.69V292c0,3.63-17.44,6.56-39,6.56a183.28,183.28,0,0,1-25.66-1.62v1.62c0,3.63,17.44,6.57,39,6.57s39-2.94,39-6.57V282.69Z"/><path class="cls-17" d="M84.08,282.69v12.59c0,3.63-17.44,6.57-39,6.57-13.63,0-25.62-1.18-32.59-3,1.08,3.46,18.08,6.22,38.9,6.22,21.52,0,39-2.94,39-6.57V282.69Z"/><path class="cls-11" d="M90.39,282.69c0,3.63-17.44,6.57-39,6.57s-38.95-2.94-38.95-6.57,17.44-6.56,39-6.56S90.39,279.07,90.39,282.69Z"/><path class="cls-12" d="M67.35,281.14c0,1.83-10.59,3.32-23.66,3.32S20,283,20,281.14s10.6-3.32,23.66-3.32S67.35,279.31,67.35,281.14Z"/><path class="cls-13" d="M48.82,281.14c0,1.23-4.78,2.23-10.68,2.23s-10.67-1-10.67-2.23,4.78-2.23,10.67-2.23S48.82,279.9,48.82,281.14Z"/><path class="cls-14" d="M50.12,276.14h-2c17.55.15,31.47,2.38,31.47,5.1s-15,5.12-33.45,5.12c-17.24,0-31.44-2-33.24-4.56a1.23,1.23,0,0,0-.2.65c0,3.49,16.77,6.33,37.46,6.33s37.46-2.84,37.46-6.33S70.8,276.14,50.12,276.14Z"/><path class="cls-8" d="M93.21,290.74c0,3.89-18.7,7-41.78,7s-41.77-3.15-41.77-7v-17H93.21Z"/><path class="cls-9" d="M79,273.76v9.95c0,3.89-18.7,7-41.78,7A195.18,195.18,0,0,1,9.66,289v1.74c0,3.89,18.7,7,41.77,7s41.78-3.15,41.78-7v-17Z"/><path class="cls-10" d="M86.44,273.76v13.5c0,3.89-18.7,7-41.78,7C30,294.3,17.17,293,9.71,291.11c1.15,3.72,19.39,6.67,41.72,6.67,23.08,0,41.78-3.15,41.78-7v-17Z"/><path class="cls-11" d="M93.21,273.76c0,3.89-18.7,7-41.78,7s-41.77-3.15-41.77-7,18.7-7,41.77-7S93.21,269.87,93.21,273.76Z"/><path class="cls-12" d="M68.5,272.09c0,2-11.36,3.56-25.37,3.56s-25.37-1.6-25.37-3.56,11.36-3.56,25.37-3.56S68.5,270.12,68.5,272.09Z"/><path class="cls-13" d="M48.63,272.09c0,1.32-5.13,2.39-11.45,2.39s-11.44-1.07-11.44-2.39,5.12-2.4,11.44-2.4S48.63,270.77,48.63,272.09Z"/><path class="cls-14" d="M50,266.72H47.84c18.82.17,33.75,2.56,33.75,5.48s-16.06,5.49-35.87,5.49c-18.5,0-33.72-2.14-35.66-4.89a1.32,1.32,0,0,0-.21.7c0,3.74,18,6.78,40.17,6.78s40.18-3,40.18-6.78S72.21,266.72,50,266.72Z"/><path class="cls-15" d="M90.39,269.57c0,3.62-17.44,6.56-39,6.56s-38.95-2.94-38.95-6.56V253.73H90.39Z"/><path class="cls-16" d="M77.1,253.73V263c0,3.62-17.44,6.56-39,6.56a183.12,183.12,0,0,1-25.66-1.63v1.63c0,3.62,17.44,6.56,39,6.56s39-2.94,39-6.56V253.73Z"/><path class="cls-17" d="M84.08,253.73v12.59c0,3.62-17.44,6.56-39,6.56-13.63,0-25.62-1.18-32.59-3,1.08,3.47,18.08,6.22,38.9,6.22,21.52,0,39-2.94,39-6.56V253.73Z"/><path class="cls-11" d="M90.39,253.73c0,3.63-17.44,6.56-39,6.56s-38.95-2.93-38.95-6.56,17.44-6.56,39-6.56S90.39,250.11,90.39,253.73Z"/><path class="cls-12" d="M67.35,252.17c0,1.84-10.59,3.32-23.66,3.32S20,254,20,252.17s10.6-3.31,23.66-3.31S67.35,250.34,67.35,252.17Z"/><path class="cls-13" d="M48.82,252.17c0,1.24-4.78,2.24-10.68,2.24s-10.67-1-10.67-2.24,4.78-2.23,10.67-2.23S48.82,250.94,48.82,252.17Z"/><path class="cls-14" d="M50.12,247.17h-2c17.55.16,31.47,2.39,31.47,5.11s-15,5.12-33.45,5.12c-17.24,0-31.44-2-33.24-4.57a1.3,1.3,0,0,0-.2.66c0,3.49,16.77,6.32,37.46,6.32S87.58,257,87.58,253.5,70.8,247.17,50.12,247.17Z"/><path class="cls-8" d="M93.21,263c0,3.89-18.7,7-41.78,7s-41.77-3.15-41.77-7V246H93.21Z"/><path class="cls-9" d="M79,246v10c0,3.88-18.7,7-41.78,7a195.18,195.18,0,0,1-27.52-1.75V263c0,3.89,18.7,7,41.77,7s41.78-3.15,41.78-7V246Z"/><path class="cls-10" d="M86.44,246v13.5c0,3.89-18.7,7-41.78,7-14.62,0-27.49-1.27-34.95-3.19C10.86,267.08,29.1,270,51.43,270c23.08,0,41.78-3.15,41.78-7V246Z"/><path class="cls-11" d="M93.21,246c0,3.89-18.7,7-41.78,7S9.66,249.9,9.66,246s18.7-7,41.77-7S93.21,242.12,93.21,246Z"/><path class="cls-12" d="M68.5,244.34c0,2-11.36,3.56-25.37,3.56s-25.37-1.6-25.37-3.56,11.36-3.56,25.37-3.56S68.5,242.38,68.5,244.34Z"/><path class="cls-13" d="M48.63,244.34c0,1.32-5.13,2.39-11.45,2.39s-11.44-1.07-11.44-2.39,5.12-2.4,11.44-2.4S48.63,243,48.63,244.34Z"/><path class="cls-14" d="M50,239H47.84c18.82.17,33.75,2.56,33.75,5.48S65.53,250,45.72,250c-18.5,0-33.72-2.14-35.66-4.89a1.32,1.32,0,0,0-.21.7c0,3.74,18,6.78,40.17,6.78s40.18-3,40.18-6.78S72.21,239,50,239Z"/><path class="cls-15" d="M90.39,243.6c0,3.63-17.44,6.57-39,6.57s-38.95-2.94-38.95-6.57V227.77H90.39Z"/><path class="cls-16" d="M77.1,227.77V237c0,3.63-17.44,6.57-39,6.57A183.12,183.12,0,0,1,12.48,242v1.62c0,3.63,17.44,6.57,39,6.57s39-2.94,39-6.57V227.77Z"/><path class="cls-17" d="M84.08,227.77v12.58c0,3.63-17.44,6.57-39,6.57-13.63,0-25.62-1.18-32.59-3,1.08,3.46,18.08,6.22,38.9,6.22,21.52,0,39-2.94,39-6.57V227.77Z"/><path class="cls-11" d="M90.39,227.77c0,3.62-17.44,6.56-39,6.56s-38.95-2.94-38.95-6.56,17.44-6.57,39-6.57S90.39,224.14,90.39,227.77Z"/><path class="cls-12" d="M67.35,226.21c0,1.83-10.59,3.32-23.66,3.32S20,228,20,226.21s10.6-3.31,23.66-3.31S67.35,224.38,67.35,226.21Z"/><path class="cls-13" d="M48.82,226.21c0,1.24-4.78,2.23-10.68,2.23s-10.67-1-10.67-2.23S32.25,224,38.14,224,48.82,225,48.82,226.21Z"/><path class="cls-14" d="M50.12,221.21h-2c17.55.16,31.47,2.38,31.47,5.11s-15,5.12-33.45,5.12c-17.24,0-31.44-2-33.24-4.57a1.23,1.23,0,0,0-.2.65c0,3.5,16.77,6.33,37.46,6.33s37.46-2.83,37.46-6.33S70.8,221.21,50.12,221.21Z"/><path class="cls-8" d="M93.21,237c0,3.89-18.7,7-41.78,7s-41.77-3.15-41.77-7v-17H93.21Z"/><path class="cls-9" d="M79,220.05V230c0,3.89-18.7,7-41.78,7a196.86,196.86,0,0,1-27.52-1.74V237c0,3.89,18.7,7,41.77,7s41.78-3.15,41.78-7v-17Z"/><path class="cls-10" d="M86.44,220.05v13.5c0,3.88-18.7,7-41.78,7-14.62,0-27.49-1.27-34.95-3.19,1.15,3.72,19.39,6.67,41.72,6.67,23.08,0,41.78-3.15,41.78-7v-17Z"/><path class="cls-11" d="M93.21,220.05c0,3.89-18.7,7-41.78,7s-41.77-3.15-41.77-7,18.7-7,41.77-7S93.21,216.16,93.21,220.05Z"/><path class="cls-12" d="M68.5,218.38c0,2-11.36,3.55-25.37,3.55s-25.37-1.59-25.37-3.55,11.36-3.56,25.37-3.56S68.5,216.41,68.5,218.38Z"/><path class="cls-13" d="M48.63,218.38c0,1.32-5.13,2.39-11.45,2.39s-11.44-1.07-11.44-2.39,5.12-2.4,11.44-2.4S48.63,217.05,48.63,218.38Z"/><path class="cls-14" d="M50,213H47.84c18.82.17,33.75,2.56,33.75,5.48S65.53,224,45.72,224c-18.5,0-33.72-2.14-35.66-4.89a1.29,1.29,0,0,0-.21.69c0,3.75,18,6.79,40.17,6.79s40.18-3,40.18-6.79S72.21,213,50,213Z"/><path class="cls-8" d="M331.64,319.71c0,3.88-18.71,7-41.78,7s-41.78-3.16-41.78-7v-17h83.56Z"/><path class="cls-9" d="M317.38,302.72v9.95c0,3.89-18.7,7-41.77,7A195.34,195.34,0,0,1,248.08,318v1.75c0,3.88,18.7,7,41.78,7s41.78-3.16,41.78-7v-17Z"/><path class="cls-10" d="M324.87,302.72v13.5c0,3.89-18.71,7-41.78,7-14.63,0-27.49-1.27-34.95-3.19,1.15,3.71,19.38,6.67,41.72,6.67,23.07,0,41.78-3.16,41.78-7v-17Z"/><path class="cls-11" d="M331.64,302.72c0,3.89-18.71,7-41.78,7s-41.78-3.15-41.78-7,18.7-7,41.78-7S331.64,298.83,331.64,302.72Z"/><path class="cls-12" d="M306.92,301.05c0,2-11.35,3.56-25.36,3.56s-25.38-1.59-25.38-3.56,11.36-3.55,25.38-3.55S306.92,299.09,306.92,301.05Z"/><path class="cls-13" d="M287.05,301.05c0,1.33-5.12,2.4-11.44,2.4s-11.45-1.07-11.45-2.4,5.13-2.39,11.45-2.39S287.05,299.73,287.05,301.05Z"/><path class="cls-14" d="M288.45,295.69h-2.19c18.83.17,33.75,2.55,33.75,5.47s-16.06,5.5-35.87,5.5c-18.49,0-33.72-2.15-35.65-4.9a1.37,1.37,0,0,0-.22.7c0,3.75,18,6.78,40.18,6.78s40.17-3,40.17-6.78S310.64,295.69,288.45,295.69Z"/><path class="cls-15" d="M328.81,298.53c0,3.63-17.44,6.57-38.95,6.57s-39-2.94-39-6.57V282.69h77.9Z"/><path class="cls-16" d="M315.52,282.69V292c0,3.63-17.44,6.56-38.95,6.56a183.18,183.18,0,0,1-25.66-1.62v1.62c0,3.63,17.43,6.57,39,6.57s38.95-2.94,38.95-6.57V282.69Z"/><path class="cls-17" d="M322.5,282.69v12.59c0,3.63-17.44,6.57-38.95,6.57-13.64,0-25.63-1.18-32.59-3,1.07,3.46,18.08,6.22,38.9,6.22,21.51,0,38.95-2.94,38.95-6.57V282.69Z"/><path class="cls-11" d="M328.81,282.69c0,3.63-17.44,6.57-38.95,6.57s-39-2.94-39-6.57,17.43-6.56,39-6.56S328.81,279.07,328.81,282.69Z"/><path class="cls-12" d="M305.77,281.14c0,1.83-10.59,3.32-23.65,3.32s-23.66-1.49-23.66-3.32,10.59-3.32,23.66-3.32S305.77,279.31,305.77,281.14Z"/><path class="cls-13" d="M287.24,281.14c0,1.23-4.78,2.23-10.67,2.23s-10.67-1-10.67-2.23,4.78-2.23,10.67-2.23S287.24,279.9,287.24,281.14Z"/><path class="cls-14" d="M288.55,276.14h-2c17.55.15,31.46,2.38,31.46,5.1s-15,5.12-33.44,5.12c-17.25,0-31.44-2-33.24-4.56a1.17,1.17,0,0,0-.21.65c0,3.49,16.78,6.33,37.47,6.33S326,286,326,282.46,309.23,276.14,288.55,276.14Z"/><path class="cls-8" d="M331.64,290.74c0,3.89-18.71,7-41.78,7s-41.78-3.15-41.78-7v-17h83.56Z"/><path class="cls-9" d="M317.38,273.76v9.95c0,3.89-18.7,7-41.77,7A195.34,195.34,0,0,1,248.08,289v1.74c0,3.89,18.7,7,41.78,7s41.78-3.15,41.78-7v-17Z"/><path class="cls-10" d="M324.87,273.76v13.5c0,3.89-18.71,7-41.78,7-14.63,0-27.49-1.27-34.95-3.19,1.15,3.72,19.38,6.67,41.72,6.67,23.07,0,41.78-3.15,41.78-7v-17Z"/><path class="cls-11" d="M331.64,273.76c0,3.89-18.71,7-41.78,7s-41.78-3.15-41.78-7,18.7-7,41.78-7S331.64,269.87,331.64,273.76Z"/><path class="cls-12" d="M306.92,272.09c0,2-11.35,3.56-25.36,3.56s-25.38-1.6-25.38-3.56,11.36-3.56,25.38-3.56S306.92,270.12,306.92,272.09Z"/><path class="cls-13" d="M287.05,272.09c0,1.32-5.12,2.39-11.44,2.39s-11.45-1.07-11.45-2.39,5.13-2.4,11.45-2.4S287.05,270.77,287.05,272.09Z"/><path class="cls-14" d="M288.45,266.72h-2.19c18.83.17,33.75,2.56,33.75,5.48S304,277.7,284.14,277.7c-18.49,0-33.72-2.14-35.65-4.89a1.34,1.34,0,0,0-.22.7c0,3.74,18,6.78,40.18,6.78s40.17-3,40.17-6.78S310.64,266.72,288.45,266.72Z"/><path class="cls-15" d="M328.81,269.57c0,3.62-17.44,6.56-38.95,6.56s-39-2.94-39-6.56V253.73h77.9Z"/><path class="cls-16" d="M315.52,253.73V263c0,3.62-17.44,6.56-38.95,6.56a183,183,0,0,1-25.66-1.63v1.63c0,3.62,17.43,6.56,39,6.56s38.95-2.94,38.95-6.56V253.73Z"/><path class="cls-17" d="M322.5,253.73v12.59c0,3.62-17.44,6.56-38.95,6.56-13.64,0-25.63-1.18-32.59-3,1.07,3.47,18.08,6.22,38.9,6.22,21.51,0,38.95-2.94,38.95-6.56V253.73Z"/><path class="cls-11" d="M328.81,253.73c0,3.63-17.44,6.56-38.95,6.56s-39-2.93-39-6.56,17.43-6.56,39-6.56S328.81,250.11,328.81,253.73Z"/><path class="cls-12" d="M305.77,252.17c0,1.84-10.59,3.32-23.65,3.32s-23.66-1.48-23.66-3.32,10.59-3.31,23.66-3.31S305.77,250.34,305.77,252.17Z"/><path class="cls-13" d="M287.24,252.17c0,1.24-4.78,2.24-10.67,2.24s-10.67-1-10.67-2.24,4.78-2.23,10.67-2.23S287.24,250.94,287.24,252.17Z"/><path class="cls-14" d="M288.55,247.17h-2c17.55.16,31.46,2.39,31.46,5.11s-15,5.12-33.44,5.12c-17.25,0-31.44-2-33.24-4.57a1.22,1.22,0,0,0-.21.66c0,3.49,16.78,6.32,37.47,6.32S326,257,326,253.5,309.23,247.17,288.55,247.17Z"/><path class="cls-8" d="M331.64,263c0,3.89-18.71,7-41.78,7s-41.78-3.15-41.78-7V246h83.56Z"/><path class="cls-9" d="M317.38,246v10c0,3.88-18.7,7-41.77,7a195.34,195.34,0,0,1-27.53-1.75V263c0,3.89,18.7,7,41.78,7s41.78-3.15,41.78-7V246Z"/><path class="cls-10" d="M324.87,246v13.5c0,3.89-18.71,7-41.78,7-14.63,0-27.49-1.27-34.95-3.19,1.15,3.72,19.38,6.67,41.72,6.67,23.07,0,41.78-3.15,41.78-7V246Z"/><path class="cls-11" d="M331.64,246c0,3.89-18.71,7-41.78,7s-41.78-3.15-41.78-7,18.7-7,41.78-7S331.64,242.12,331.64,246Z"/><path class="cls-12" d="M306.92,244.34c0,2-11.35,3.56-25.36,3.56s-25.38-1.6-25.38-3.56,11.36-3.56,25.38-3.56S306.92,242.38,306.92,244.34Z"/><path class="cls-13" d="M287.05,244.34c0,1.32-5.12,2.39-11.44,2.39s-11.45-1.07-11.45-2.39,5.13-2.4,11.45-2.4S287.05,243,287.05,244.34Z"/><path class="cls-14" d="M288.45,239h-2.19c18.83.17,33.75,2.56,33.75,5.48S304,250,284.14,250c-18.49,0-33.72-2.14-35.65-4.89a1.34,1.34,0,0,0-.22.7c0,3.74,18,6.78,40.18,6.78s40.17-3,40.17-6.78S310.64,239,288.45,239Z"/><path class="cls-15" d="M328.81,243.6c0,3.63-17.44,6.57-38.95,6.57s-39-2.94-39-6.57V227.77h77.9Z"/><path class="cls-16" d="M315.52,227.77V237c0,3.63-17.44,6.57-38.95,6.57A183,183,0,0,1,250.91,242v1.62c0,3.63,17.43,6.57,39,6.57s38.95-2.94,38.95-6.57V227.77Z"/><path class="cls-17" d="M322.5,227.77v12.58c0,3.63-17.44,6.57-38.95,6.57-13.64,0-25.63-1.18-32.59-3,1.07,3.46,18.08,6.22,38.9,6.22,21.51,0,38.95-2.94,38.95-6.57V227.77Z"/><path class="cls-11" d="M328.81,227.77c0,3.62-17.44,6.56-38.95,6.56s-39-2.94-39-6.56,17.43-6.57,39-6.57S328.81,224.14,328.81,227.77Z"/><path class="cls-12" d="M305.77,226.21c0,1.83-10.59,3.32-23.65,3.32s-23.66-1.49-23.66-3.32,10.59-3.31,23.66-3.31S305.77,224.38,305.77,226.21Z"/><path class="cls-13" d="M287.24,226.21c0,1.24-4.78,2.23-10.67,2.23s-10.67-1-10.67-2.23,4.78-2.23,10.67-2.23S287.24,225,287.24,226.21Z"/><path class="cls-14" d="M288.55,221.21h-2c17.55.16,31.46,2.38,31.46,5.11s-15,5.12-33.44,5.12c-17.25,0-31.44-2-33.24-4.57a1.17,1.17,0,0,0-.21.65c0,3.5,16.78,6.33,37.47,6.33S326,231,326,227.53,309.23,221.21,288.55,221.21Z"/><path class="cls-8" d="M331.64,237c0,3.89-18.71,7-41.78,7s-41.78-3.15-41.78-7v-17h83.56Z"/><path class="cls-9" d="M317.38,220.05V230c0,3.89-18.7,7-41.77,7a197,197,0,0,1-27.53-1.74V237c0,3.89,18.7,7,41.78,7s41.78-3.15,41.78-7v-17Z"/><path class="cls-10" d="M324.87,220.05v13.5c0,3.88-18.71,7-41.78,7-14.63,0-27.49-1.27-34.95-3.19,1.15,3.72,19.38,6.67,41.72,6.67,23.07,0,41.78-3.15,41.78-7v-17Z"/><path class="cls-11" d="M331.64,220.05c0,3.89-18.71,7-41.78,7s-41.78-3.15-41.78-7,18.7-7,41.78-7S331.64,216.16,331.64,220.05Z"/><path class="cls-12" d="M306.92,218.38c0,2-11.35,3.55-25.36,3.55s-25.38-1.59-25.38-3.55,11.36-3.56,25.38-3.56S306.92,216.41,306.92,218.38Z"/><path class="cls-13" d="M287.05,218.38c0,1.32-5.12,2.39-11.44,2.39s-11.45-1.07-11.45-2.39,5.13-2.4,11.45-2.4S287.05,217.05,287.05,218.38Z"/><path class="cls-14" d="M288.45,213h-2.19c18.83.17,33.75,2.56,33.75,5.48S304,224,284.14,224c-18.49,0-33.72-2.14-35.65-4.89a1.31,1.31,0,0,0-.22.69c0,3.75,18,6.79,40.18,6.79s40.17-3,40.17-6.79S310.64,213,288.45,213Z"/><path class="cls-8" d="M226.05,357c0,5.16-24.81,9.34-55.41,9.34s-55.4-4.18-55.4-9.34V334.48H226.05Z"/><path class="cls-9" d="M207.15,334.48v13.2c0,5.15-24.81,9.33-55.4,9.33a261.63,261.63,0,0,1-36.51-2.31V357c0,5.16,24.81,9.34,55.4,9.34s55.41-4.18,55.41-9.34V334.48Z"/><path class="cls-10" d="M217.07,334.48v17.91c0,5.15-24.8,9.33-55.4,9.33-19.4,0-36.46-1.68-46.35-4.22,1.52,4.92,25.71,8.84,55.32,8.84,30.6,0,55.41-4.18,55.41-9.34V334.48Z"/><path class="cls-11" d="M226.05,334.48c0,5.16-24.81,9.34-55.41,9.34s-55.4-4.18-55.4-9.34,24.81-9.34,55.4-9.34S226.05,329.33,226.05,334.48Z"/><path class="cls-12" d="M193.28,332.27c0,2.6-15.07,4.72-33.64,4.72S126,334.87,126,332.27s15.07-4.72,33.66-4.72S193.28,329.66,193.28,332.27Z"/><path class="cls-13" d="M166.92,332.27c0,1.75-6.79,3.17-15.17,3.17s-15.18-1.42-15.18-3.17,6.79-3.18,15.18-3.18S166.92,330.51,166.92,332.27Z"/><path class="cls-14" d="M168.78,325.15h-2.9c25,.23,44.75,3.4,44.75,7.27s-21.29,7.28-47.57,7.28c-24.52,0-44.71-2.84-47.28-6.49a1.85,1.85,0,0,0-.28.93c0,5,23.85,9,53.28,9s53.27-4,53.27-9S198.2,325.15,168.78,325.15Z"/><path class="cls-15" d="M222.3,328.93c0,4.8-23.13,8.7-51.66,8.7s-51.65-3.9-51.65-8.7v-21H222.3Z"/><path class="cls-16" d="M204.68,307.92v12.3c0,4.81-23.13,8.71-51.66,8.71a242.68,242.68,0,0,1-34-2.16v2.16c0,4.8,23.13,8.7,51.65,8.7s51.66-3.9,51.66-8.7v-21Z"/><path class="cls-17" d="M213.93,307.92v16.7c0,4.8-23.13,8.7-51.66,8.7-18.08,0-34-1.56-43.21-3.94,1.42,4.6,24,8.25,51.58,8.25,28.53,0,51.66-3.9,51.66-8.7v-21Z"/><path class="cls-11" d="M222.3,307.92c0,4.81-23.13,8.71-51.66,8.71S119,312.73,119,307.92s23.13-8.7,51.65-8.7S222.3,303.12,222.3,307.92Z"/><path class="cls-12" d="M191.75,305.86c0,2.43-14.05,4.4-31.37,4.4s-31.37-2-31.37-4.4,14-4.4,31.37-4.4S191.75,303.43,191.75,305.86Z"/><path class="cls-13" d="M167.18,305.86c0,1.64-6.34,3-14.16,3s-14.15-1.32-14.15-3,6.34-3,14.15-3S167.18,304.22,167.18,305.86Z"/><path class="cls-14" d="M168.9,299.23h-2.7c23.27.2,41.73,3.16,41.73,6.77s-19.86,6.79-44.35,6.79c-22.87,0-41.7-2.65-44.09-6.05a1.65,1.65,0,0,0-.26.86c0,4.63,22.24,8.39,49.67,8.39s49.67-3.76,49.67-8.39S196.34,299.23,168.9,299.23Z"/><path class="cls-8" d="M226.05,318.59c0,5.16-24.81,9.34-55.41,9.34s-55.4-4.18-55.4-9.34V296.07H226.05Z"/><path class="cls-9" d="M207.15,296.07v13.2c0,5.15-24.81,9.33-55.4,9.33a261.63,261.63,0,0,1-36.51-2.31v2.3c0,5.16,24.81,9.34,55.4,9.34s55.41-4.18,55.41-9.34V296.07Z"/><path class="cls-10" d="M217.07,296.07V314c0,5.15-24.8,9.33-55.4,9.33-19.4,0-36.46-1.68-46.35-4.22,1.52,4.93,25.71,8.84,55.32,8.84,30.6,0,55.41-4.18,55.41-9.34V296.07Z"/><path class="cls-11" d="M226.05,296.07c0,5.16-24.81,9.34-55.41,9.34s-55.4-4.18-55.4-9.34,24.81-9.34,55.4-9.34S226.05,290.91,226.05,296.07Z"/><path class="cls-12" d="M193.28,293.86c0,2.6-15.07,4.71-33.64,4.71S126,296.46,126,293.86s15.07-4.72,33.66-4.72S193.28,291.25,193.28,293.86Z"/><path class="cls-13" d="M166.92,293.86c0,1.75-6.79,3.17-15.17,3.17s-15.18-1.42-15.18-3.17,6.79-3.18,15.18-3.18S166.92,292.1,166.92,293.86Z"/><path class="cls-14" d="M168.78,286.74h-2.9c25,.23,44.75,3.39,44.75,7.27s-21.29,7.28-47.57,7.28c-24.52,0-44.71-2.84-47.28-6.49a1.8,1.8,0,0,0-.28.93c0,5,23.85,9,53.28,9s53.27-4,53.27-9S198.2,286.74,168.78,286.74Z"/><path class="cls-15" d="M222.3,290.51c0,4.81-23.13,8.71-51.66,8.71S119,295.32,119,290.51v-21H222.3Z"/><path class="cls-16" d="M204.68,269.51v12.3c0,4.81-23.13,8.71-51.66,8.71a242.68,242.68,0,0,1-34-2.16v2.15c0,4.81,23.13,8.71,51.65,8.71s51.66-3.9,51.66-8.71v-21Z"/><path class="cls-17" d="M213.93,269.51V286.2c0,4.81-23.13,8.71-51.66,8.71-18.08,0-34-1.57-43.21-3.94,1.42,4.6,24,8.25,51.58,8.25,28.53,0,51.66-3.9,51.66-8.71v-21Z"/><path class="cls-11" d="M222.3,269.51c0,4.81-23.13,8.71-51.66,8.71S119,274.32,119,269.51s23.13-8.7,51.65-8.7S222.3,264.71,222.3,269.51Z"/><path class="cls-12" d="M191.75,267.45c0,2.43-14.05,4.4-31.37,4.4s-31.37-2-31.37-4.4,14-4.4,31.37-4.4S191.75,265,191.75,267.45Z"/><path class="cls-13" d="M167.18,267.45c0,1.63-6.34,3-14.16,3s-14.15-1.33-14.15-3,6.34-3,14.15-3S167.18,265.81,167.18,267.45Z"/><path class="cls-14" d="M168.9,260.81l-2.7,0c23.27.2,41.73,3.15,41.73,6.77s-19.86,6.79-44.35,6.79c-22.87,0-41.7-2.65-44.09-6.06a1.72,1.72,0,0,0-.26.87c0,4.63,22.24,8.39,49.67,8.39s49.67-3.76,49.67-8.39S196.34,260.81,168.9,260.81Z"/><path class="cls-8" d="M226.05,281.8c0,5.15-24.81,9.33-55.41,9.33s-55.4-4.18-55.4-9.33V259.27H226.05Z"/><path class="cls-9" d="M207.15,259.27v13.2c0,5.15-24.81,9.33-55.4,9.33a260.11,260.11,0,0,1-36.51-2.31v2.31c0,5.15,24.81,9.33,55.4,9.33s55.41-4.18,55.41-9.33V259.27Z"/><path class="cls-10" d="M217.07,259.27v17.91c0,5.15-24.8,9.33-55.4,9.33-19.4,0-36.46-1.68-46.35-4.22,1.52,4.93,25.71,8.84,55.32,8.84,30.6,0,55.41-4.18,55.41-9.33V259.27Z"/><path class="cls-11" d="M226.05,259.27c0,5.16-24.81,9.34-55.41,9.34s-55.4-4.18-55.4-9.34,24.81-9.33,55.4-9.33S226.05,254.11,226.05,259.27Z"/><path class="cls-12" d="M193.28,257.06c0,2.6-15.07,4.71-33.64,4.71S126,259.66,126,257.06s15.07-4.72,33.66-4.72S193.28,254.45,193.28,257.06Z"/><path class="cls-13" d="M166.92,257.06c0,1.75-6.79,3.17-15.17,3.17s-15.18-1.42-15.18-3.17,6.79-3.18,15.18-3.18S166.92,255.3,166.92,257.06Z"/><path class="cls-14" d="M168.78,249.94l-2.9,0c25,.22,44.75,3.39,44.75,7.26s-21.29,7.28-47.57,7.28c-24.52,0-44.71-2.84-47.28-6.49a1.83,1.83,0,0,0-.28.93c0,5,23.85,9,53.28,9s53.27-4,53.27-9S198.2,249.94,168.78,249.94Z"/><path class="cls-15" d="M222.3,256.08c0,4.81-23.13,8.71-51.66,8.71S119,260.89,119,256.08v-21H222.3Z"/><path class="cls-16" d="M204.68,235.08v12.3c0,4.81-23.13,8.71-51.66,8.71a242.68,242.68,0,0,1-34-2.16v2.15c0,4.81,23.13,8.71,51.65,8.71s51.66-3.9,51.66-8.71v-21Z"/><path class="cls-17" d="M213.93,235.08v16.7c0,4.8-23.13,8.7-51.66,8.7-18.08,0-34-1.57-43.21-3.94,1.42,4.6,24,8.25,51.58,8.25,28.53,0,51.66-3.9,51.66-8.71v-21Z"/><path class="cls-11" d="M222.3,235.08c0,4.81-23.13,8.71-51.66,8.71S119,239.89,119,235.08s23.13-8.7,51.65-8.7S222.3,230.27,222.3,235.08Z"/><path class="cls-12" d="M191.75,233c0,2.43-14.05,4.39-31.37,4.39S129,235.45,129,233s14-4.4,31.37-4.4S191.75,230.59,191.75,233Z"/><path class="cls-13" d="M167.18,233c0,1.64-6.34,3-14.16,3s-14.15-1.32-14.15-3,6.34-3,14.15-3S167.18,231.38,167.18,233Z"/><path class="cls-14" d="M168.9,226.38l-2.7,0c23.27.2,41.73,3.16,41.73,6.77S188.07,240,163.58,240c-22.87,0-41.7-2.65-44.09-6.05a1.65,1.65,0,0,0-.26.86c0,4.63,22.24,8.39,49.67,8.39s49.67-3.76,49.67-8.39S196.34,226.38,168.9,226.38Z"/><path class="cls-8" d="M226.05,247.36c0,5.16-24.81,9.34-55.41,9.34s-55.4-4.18-55.4-9.34V224.84H226.05Z"/><path class="cls-9" d="M207.15,224.84V238c0,5.15-24.81,9.33-55.4,9.33a260.11,260.11,0,0,1-36.51-2.31v2.3c0,5.16,24.81,9.34,55.4,9.34s55.41-4.18,55.41-9.34V224.84Z"/><path class="cls-10" d="M217.07,224.84v17.91c0,5.15-24.8,9.33-55.4,9.33-19.4,0-36.46-1.68-46.35-4.22,1.52,4.93,25.71,8.84,55.32,8.84,30.6,0,55.41-4.18,55.41-9.34V224.84Z"/><path class="cls-11" d="M226.05,224.84c0,5.16-24.81,9.34-55.41,9.34s-55.4-4.18-55.4-9.34,24.81-9.33,55.4-9.33S226.05,219.69,226.05,224.84Z"/><path class="cls-12" d="M193.28,222.63c0,2.6-15.07,4.71-33.64,4.71S126,225.23,126,222.63s15.07-4.72,33.66-4.72S193.28,220,193.28,222.63Z"/><path class="cls-13" d="M166.92,222.63c0,1.75-6.79,3.17-15.17,3.17s-15.18-1.42-15.18-3.17,6.79-3.18,15.18-3.18S166.92,220.87,166.92,222.63Z"/><path class="cls-14" d="M168.78,215.51h-2.9c25,.23,44.75,3.4,44.75,7.27,0,4-21.29,7.28-47.57,7.28-24.52,0-44.71-2.84-47.28-6.49a1.83,1.83,0,0,0-.28.93c0,5,23.85,9,53.28,9s53.27-4,53.27-9S198.2,215.51,168.78,215.51Z"/><polygon class="cls-18" points="50.77 203.47 49.08 203.47 49.08 181.23 49.92 181.23 160.97 181.14 160.97 141.05 162.65 141.05 162.65 182.82 161.81 182.82 50.77 182.91 50.77 203.47"/><polygon class="cls-18" points="289.26 203.47 287.57 203.47 287.57 182.91 178.64 182.82 178.64 141.05 180.32 141.05 180.32 181.14 289.26 181.23 289.26 203.47"/><rect class="cls-18" x="169.8" y="141.05" width="1.68" height="62.42"/><path class="cls-18" d="M52,204.4a2.06,2.06,0,1,0-2.06,2.06A2.05,2.05,0,0,0,52,204.4Z"/><path class="cls-18" d="M172.71,204.4a2.06,2.06,0,1,0-2.06,2.06A2.05,2.05,0,0,0,172.71,204.4Z"/><path class="cls-18" d="M290.51,204.4a2.07,2.07,0,1,0-2.06,2.06A2.05,2.05,0,0,0,290.51,204.4Z"/></g></g></svg>