<svg width="60" height="60" viewBox="0 0 60 60" fill="none" xmlns="http://www.w3.org/2000/svg">
<path d="M44.7092 60H15.1247C6.8144 60 0 53.1856 0 44.8754V15.1247C0 6.8144 6.8144 0 15.1247 0H44.7092C53.0194 0 59.8338 6.8144 59.8338 15.1247V44.7092C60 53.1856 53.1856 60 44.7092 60Z" fill="white"/>
<path d="M39.5 17C38.0417 17 37 18.0417 37 19.5001C37 20.9584 38.0417 22 39.5 22C40.9583 22 42 20.9584 42 19.5001C42 18.0417 40.75 17 39.5 17Z" fill="#201F22"/>
<path d="M29.4972 20C24.2831 20 20 24.2844 20 29.4999C20 34.7156 24.2831 39 29.4972 39C34.7111 39 38.9942 34.7156 38.9942 29.4999C39.1804 24.2844 34.8973 20 29.4972 20ZM29.4972 35.8332C26.1452 35.8332 23.352 33.0392 23.352 29.6862C23.352 26.3333 26.1452 23.5393 29.4972 23.5393C32.849 23.5393 35.6424 26.3333 35.6424 29.6862C35.6424 33.0392 32.849 35.8332 29.4972 35.8332Z" fill="#201F22"/>
<path d="M37.2441 49H21.7561C15.2249 49 10 43.7753 10 37.2441V21.7561C10 15.2249 15.2249 10 21.7561 10H37.2441C43.7753 10 49 15.2249 49 21.7561V37.2441C49 43.7753 43.7753 49 37.2441 49ZM21.7561 13.7321C17.2775 13.7321 13.7321 17.2775 13.7321 21.7561V37.2441C13.7321 41.7225 17.2775 45.268 21.7561 45.268H37.2441C41.7225 45.268 45.268 41.7225 45.268 37.2441V21.7561C45.268 17.2775 41.7225 13.7321 37.2441 13.7321H21.7561Z" fill="#201F22"/>
</svg>
