<svg id="Capa_1" data-name="Capa 1" xmlns="http://www.w3.org/2000/svg" viewBox="0 0 36.07 36.07"><defs><style>.cls-1{fill:#fff;}.cls-2{fill-rule:evenodd;}</style></defs><g id="Capa_2" data-name="Capa 2"><g id="ELEMENTS"><rect class="cls-1" width="36.07" height="36.07" rx="9.13"/><path d="M5.36,31.48l1.92-7.17a13.29,13.29,0,1,1,5.32,5.24Zm7.57-4.62.46.27A10.79,10.79,0,1,0,9.7,23.48l.27.45L8.9,28Z"/><path class="cls-2" d="M22.65,19.36A1.73,1.73,0,0,0,21.18,19c-.38.15-.62.75-.87,1a.36.36,0,0,1-.47.11,6.66,6.66,0,0,1-3.31-2.84.39.39,0,0,1,0-.55,2.19,2.19,0,0,0,.6-1,2.05,2.05,0,0,0-.27-1.16A2.71,2.71,0,0,0,16,13.28a1.16,1.16,0,0,0-1.27.18,2.58,2.58,0,0,0-.89,2,2.36,2.36,0,0,0,.08.65,4.92,4.92,0,0,0,.62,1.43,9.51,9.51,0,0,0,.65,1A10,10,0,0,0,18,21.15a8.13,8.13,0,0,0,1.76.84,3.93,3.93,0,0,0,2,.32,2.5,2.5,0,0,0,1.86-1.38,1.2,1.2,0,0,0,.08-.7C23.7,19.88,23,19.59,22.65,19.36Z"/></g></g></svg>