<svg width="60" height="60" viewBox="0 0 60 60" fill="none" xmlns="http://www.w3.org/2000/svg">
<path d="M44.7092 60H34.5706L29.9168 58.338L25.2632 59.8338H15.1247C6.8144 59.8338 0 53.0194 0 44.7092V15.1247C0 6.8144 6.8144 0 15.1247 0H44.7092C53.0194 0 59.8338 6.8144 59.8338 15.1247V44.7092C60 53.1856 53.1856 60 44.7092 60Z" fill="white"/>
<path d="M25.2632 23.435V29.917H17.7839V38.3934H25.2632V59.8338H34.5706V38.5596H41.5512L42.8808 30.0832H34.7368V24.5984C34.7368 22.2716 35.9002 19.9446 39.5568 19.9446H43.2132V12.4654C43.2132 12.4654 39.8892 11.9668 36.565 11.9668C29.7506 11.9668 25.2632 15.9557 25.2632 23.435Z" fill="#201F22"/>
</svg>
