<?xml version="1.0" encoding="utf-8"?>
<!-- Generator: Adobe Illustrator 25.0.1, SVG Export Plug-In . SVG Version: 6.00 Build 0)  -->
<svg version="1.1" id="Capa_1" xmlns="http://www.w3.org/2000/svg" xmlns:xlink="http://www.w3.org/1999/xlink" x="0px" y="0px"
	 viewBox="0 0 66.9 71.3" style="enable-background:new 0 0 66.9 71.3;" xml:space="preserve">
<style type="text/css">
	.st0{fill:#FFFFFF;}
	.st1{fill:#202124;}
</style>
<g id="Capa_2_1_">
	<g id="Capa_1-2">
		<path class="st0" d="M4.9,0H62c2.7,0,4.9,2.2,4.9,4.9v50.6c0,2.7-2.2,4.9-4.9,4.9H4.9c-2.7,0-4.9-2.2-4.9-4.9V4.9
			C0,2.2,2.2,0,4.9,0z"/>
		<path class="st1" d="M48.6,23.9c-3.1-6.9-10.3-9-10.8-9.1c-9.2-2-15.3,2.6-17.4,5.7S15.9,28.2,17,34s3.8,8.2,6.3,10.5
			s7.6,3.2,9.5,3.3c1.9,0.1,7.4-1.1,9.4-2.5l-3-5.2c-3,2-6.8,2.3-10.1,0.7c-4.1-2-6-4.3-6.3-8.9c-0.2-3.5,1.1-6.9,3.7-9.3
			c2.5-2,5.7-2.9,8.9-2.4c2,0.2,3.9,1,5.5,2.3c0.7,0.7,1.4,1.4,1.9,2.2c1,1.4,2,2.9,2,4.8c0,0.4-0.1,2.4-1.2,2.9
			c-1.1,0.5-2.7-0.6-2.6-0.9l0,0c0-0.1,0-0.1,0-0.2c0-4.1-3.4-7.4-7.6-7.4c-4.1,0-7.4,3.4-7.4,7.6c0,4.1,3.4,7.4,7.5,7.4
			c2,0,3.9-0.8,5.3-2.2c1.6,1.1,3.6,1.5,5.5,1.2c2.1-0.5,3.8-1.9,4.8-3.8C51.4,30.1,49.3,25.4,48.6,23.9z"/>
		<path class="st0" d="M25.7,60.1c0,0-1.8,7.5-3.7,9.3s0,2.1,1.9,1.7c5.9-1.5,16.7-7.3,17.2-11S25.7,60.1,25.7,60.1z"/>
	</g>
</g>
</svg>
