<svg width="53" height="52" viewBox="0 0 53 52" fill="none" xmlns="http://www.w3.org/2000/svg">
<path d="M52.6666 25.6668C52.6666 24.01 51.3235 22.6668 49.6666 22.6668H19.3426C16.6699 22.6668 15.3314 19.4354 17.2213 17.5455L28.6045 6.16233C29.779 4.98782 29.7756 3.08255 28.597 1.9122L28.1213 1.43985C26.9485 0.275342 25.0548 0.278687 23.8861 1.44733L1.45463 23.8788C0.283058 25.0504 0.283061 26.9499 1.45463 28.1215L23.8787 50.5455C25.0502 51.7171 26.9497 51.7171 28.1213 50.5455L28.5806 50.0862C29.7514 48.9154 29.7522 47.0174 28.5825 45.8455L17.2102 34.4529C15.323 32.5622 16.662 29.3335 19.3335 29.3335H49.6666C51.3235 29.3335 52.6666 27.9903 52.6666 26.3335V25.6668Z" fill="#3B3A54"/>
</svg>
