<svg xmlns="http://www.w3.org/2000/svg" xmlns:xlink="http://www.w3.org/1999/xlink" viewBox="0 0 249.17 118.27"><defs><style>.cls-1{isolation:isolate;}.cls-2{fill:#d3d3e0;}.cls-2,.cls-39{mix-blend-mode:multiply;}.cls-3{fill:#ffbd95;}.cls-4{fill:#ffa47c;}.cls-5{fill:#00233f;}.cls-6{fill:#cee0ff;}.cls-7{fill:#191919;}.cls-8{fill:#002d56;}.cls-9{fill:#8d3b26;}.cls-10{fill:#b8d1ff;}.cls-11{fill:#5a5a5a;}.cls-12{fill:#8e8e8e;}.cls-13{fill:#757575;}.cls-14{fill:#7f7f7f;}.cls-15{fill:#494f4f;}.cls-16{fill:#c2d6ff;}.cls-16,.cls-20,.cls-25,.cls-34,.cls-37,.cls-44{mix-blend-mode:soft-light;}.cls-17{fill:#596273;}.cls-18{fill:#9ba4ab;}.cls-19{fill:#24292e;opacity:0.4;}.cls-20{fill:url(#linear-gradient);}.cls-21{fill:#454545;}.cls-22{fill:#545454;}.cls-23{fill:#909090;}.cls-24{fill:#393939;}.cls-25{fill:url(#linear-gradient-2);}.cls-26{fill:#001e33;}.cls-27{fill:#262626;}.cls-28{fill:#898d8d;}.cls-29{fill:#b12400;}.cls-30{fill:#005885;}.cls-31{fill:#505962;}.cls-32,.cls-44{fill:#99a2a9;}.cls-33{fill:#c6c3c3;}.cls-34{fill:url(#linear-gradient-3);}.cls-35{fill:#747979;}.cls-36{fill:#292929;}.cls-37{fill:url(#linear-gradient-4);}.cls-38{fill:#79858e;}.cls-39{fill:#b9b9bd;}.cls-40{fill:#303030;}.cls-41{fill:#ff9566;}.cls-42{fill:#a3a6a6;}.cls-43{fill:#c0c5ca;}.cls-45{fill:#6d6965;}.cls-46{fill:#595959;}.cls-47{fill:#00b000;}</style><linearGradient id="linear-gradient" x1="111.21" y1="46.38" x2="97" y2="38.32" gradientUnits="userSpaceOnUse"><stop offset="0.03" stop-color="#fff"/><stop offset="1"/></linearGradient><linearGradient id="linear-gradient-2" x1="162.05" y1="39.71" x2="184.12" y2="39.71" gradientUnits="userSpaceOnUse"><stop offset="0" stop-color="#9ba9a9"/><stop offset="0.17" stop-color="#a1aeae"/><stop offset="0.39" stop-color="#b2bcbc"/><stop offset="0.65" stop-color="#cdd4d4"/><stop offset="0.92" stop-color="#f3f5f5"/><stop offset="1" stop-color="#fff"/></linearGradient><linearGradient id="linear-gradient-3" x1="123.45" y1="86" x2="153.64" y2="86" gradientUnits="userSpaceOnUse"><stop offset="0" stop-color="#867f7f"/><stop offset="0.21" stop-color="#8b8585"/><stop offset="0.5" stop-color="#999596"/><stop offset="0.82" stop-color="#b1afb1"/><stop offset="1" stop-color="#c1c1c4"/></linearGradient><linearGradient id="linear-gradient-4" x1="43.2" y1="35.93" x2="62.9" y2="35.93" xlink:href="#linear-gradient-2"/></defs><g class="cls-1"><g id="Capa_2" data-name="Capa 2"><g id="Background"><ellipse class="cls-2" cx="136.06" cy="108.55" rx="43.93" ry="9.72"/><ellipse class="cls-2" cx="53.94" cy="97.5" rx="53.94" ry="7.07"/><path class="cls-2" d="M226.06,100.09c-12.77,0-23.11,2.74-23.11,6.11s10.34,6.1,23.11,6.1,23.11-2.73,23.11-6.1S238.82,100.09,226.06,100.09Z"/><path class="cls-3" d="M234.14,21.73c-2.92-1.79-11.35-2.89-11.35-2.89V19s-8.5.71-11.43,2.49c-2.25,1.36,1.65,9.61,3.13,14.2.35,1.1.3,6,.16,10.42,0,1.08-.91,6-.77,8.09.05.62,6.92,4.42,8.85,4.52v-.15c1.93-.09,8.82-3.87,8.87-4.48.15-2.06-.72-7-.75-8.1-.13-4.38-.16-9.32.2-10.42C232.54,31,236.39,23.1,234.14,21.73Z"/><path class="cls-3" d="M232.11,21.33c-1.56.76-1.8,3.59-.27,6.44s2.9,4.61,3.31,5.34,2.6,5.3,3.38,6.42S241,41.65,242.2,41c1-.54,2.15-1,1.45-3.25S237,18.94,232.11,21.33Z"/><path class="cls-3" d="M226.35,17.48c-.19-.87-.67-5.2-.67-5.2h-2.86v.15H220s-.49,4.32-.69,5.2-2.55,2.18-2.55,2.18h6.09v-.14h6.09S226.55,18.36,226.35,17.48Z"/><path class="cls-4" d="M225.52,12.28h-2.7v.15H220s-.49,4.32-.69,5.2-2.55,2.18-2.55,2.18H217c2.72-.73,5.43-1.44,5.79-1.55a25.25,25.25,0,0,0,3.37-2h0c-.18-1.32-.39-3.21-.46-3.79Z"/><path class="cls-3" d="M218.2,49.37c-3.49,0-4.85,2.42-4.77,9.9S214.62,74.85,215.1,76s5.44,1.2,5.93.52,1.72-16.19,1.72-18.62S222,49.39,218.2,49.37Z"/><rect class="cls-3" x="213.98" y="74.94" width="8.16" height="5.97" rx="2.52" transform="translate(134.59 293.91) rotate(-88.53)"/><path class="cls-3" d="M217.92,77.43c-1.07,0-3.69.35-3.55,7.32s3.08,16.52,3.08,16.52H220s1.25-12.91,1.26-15.38C221.25,80.26,221.29,77.44,217.92,77.43Z"/><path class="cls-3" d="M227.42,49.43c-3.78.41-3.9,6.56-3.64,9s3.66,17.71,4.21,18.34,5.48.08,5.84-1.13,0-9.39-.65-16.83S230.89,49.06,227.42,49.43Z"/><path class="cls-3" d="M233.84,75.88A2.51,2.51,0,0,0,231,73.71l-.93.12a2.53,2.53,0,0,0-2.18,2.82l.4,3.1a2.51,2.51,0,0,0,2.82,2.17l.91-.12A2.53,2.53,0,0,0,234.24,79Z"/><path class="cls-3" d="M231.17,77.31c-3.35.36-3,3.17-2.42,8.77.27,2.46,3.64,15.17,3.64,15.17l2.51-.27s1.14-9.8.56-16.75S232.24,77.2,231.17,77.31Z"/><path class="cls-3" d="M212.27,21.6c-5.2-1.71-8.83,15.5-9.22,17.81s.79,2.63,1.87,3c1.29.49,2.83-.72,3.44-1.94s2.16-6,2.48-6.82,1.43-2.71,2.56-5.74S213.92,22.14,212.27,21.6Z"/><path class="cls-5" d="M213,57.37c-.2,3.35,1.42,18,1.42,19.61s-.11,6.57,0,11.42,1.34,14.42,1.34,14.42l6.21-.15s0-20.53,0-23.75.81-20.22.81-20.22l0-10.56-8.36-.27A92.29,92.29,0,0,0,213,57.37Z"/><path class="cls-6" d="M230.63,20.06a20,20,0,0,1-3-1.23l-1,.57a7.55,7.55,0,0,1-7.5,0l-.9-.52A33.62,33.62,0,0,1,215,20c-1.9.58-4,1.07-4.35,1.74s3.06,13.76,3.44,14.87-.61,8.89.35,11.22l8.34.27h0l8.33-.25c.77-2.66,0-10.25.38-11.36s4.14-13.64,3.49-14.71C234.59,21.18,232.53,20.65,230.63,20.06Z"/><path class="cls-5" d="M234.65,76.65c-.16-1.6-.64-16.34-1.18-19.65A93.78,93.78,0,0,0,231,47.69l-8.26.45,0,11.09s4.25,16.92,4.59,20.13S230.6,103,230.6,103l6.19-.49s-.54-9.64-.94-14.48S234.82,78.25,234.65,76.65Z"/><path class="cls-7" d="M214.33,105.94a3,3,0,0,0,2.58,1.82c1.24.08,3.26-1.05,3.57-1.08.73-.08.73-4,.73-4l-4.87.11S214.22,105.28,214.33,105.94Z"/><path class="cls-7" d="M235.92,102.56l-4.85.39s.4,3.89,1.13,3.89c.32,0,2.44.92,3.66.71a3,3,0,0,0,2.38-2.08C238.29,104.81,235.92,102.56,235.92,102.56Z"/><path class="cls-8" d="M234.65,76.65c-.16-1.6-.64-16.34-1.18-19.65A93.78,93.78,0,0,0,231,47.69l-4.92.35s3.84,10,4.19,12.21,1.33,16.94,1.39,17.78,3,23.57,3.06,24.62l2-.16s-.54-9.64-.94-14.48S234.82,78.25,234.65,76.65Z"/><path class="cls-8" d="M217.35,55.6a21,21,0,0,0,0,5.15c.52,2.77,1.27,16.33,1.17,16.68s0,25.25,0,25.25l.11.07,3.35-.08s0-20.53,0-23.75.81-20.22.81-20.22v-.92l.07-1.34-1-1.83A2.38,2.38,0,0,0,217.35,55.6Z"/><path class="cls-6" d="M210.65,21.52s-2.18.51-4.05,4.4-3.51,11.93-3.51,11.93a9.59,9.59,0,0,0,3.28,1.63,7.62,7.62,0,0,0,3.1.48l2.81-8.28S213.33,21.79,210.65,21.52Z"/><path class="cls-6" d="M233.58,21c-2.64.55-.56,10.28-.56,10.28l4.31,7.88a8.73,8.73,0,0,0,3.08-.85,9.49,9.49,0,0,0,3.08-2A106.86,106.86,0,0,0,238.07,25C235.8,21.28,233.58,21,233.58,21Z"/><path class="cls-3" d="M220.64,2.42c-2.83.2-5.15,3.4-4.47,7.13s2.83,7,5.18,6.78,5.84-4.07,5.49-7.73S224,2.19,220.64,2.42Z"/><path class="cls-9" d="M219.27,2.3a4.79,4.79,0,0,0-3.15,4.57,5.77,5.77,0,0,1,6.54-.19c.82.47.56,3.36.78,3.56s.56-2.33.74-2.06c1.33,1.93,1.21,4.76,1.49,4.71.84-.14,2.37-5.12.27-8.33A5.79,5.79,0,0,0,219.27,2.3Z"/><path class="cls-3" d="M224.67,8c-.55,0-.83.32-.89,1.37s.12,2.41.67,2.44,1.05-.79,1.11-1.84S225.22,8,224.67,8Z"/><path class="cls-10" d="M235,23.21s-3.93,11.85-4.72,12.48-5.74.1-6.39,0-7.75,1.17-7.09,3.15c.36,1.1,3,.82,4.39,1.35s4.58,3.57,3.44,5.47c-.75,1.24-9,2.24-9,2.24l7.76.24h0l7.76-.26c.9-2.25,0-9.76.34-10.84C231.67,36.37,234.1,27.19,235,23.21Z"/><path class="cls-4" d="M203.18,40c-1.12,3.51,1.65,3.48,2.61,3.63a27.75,27.75,0,0,0,4.89-.72l.69-2.17A32.28,32.28,0,0,0,206,38.09C204.27,37.65,203.61,38.63,203.18,40Z"/><path class="cls-3" d="M239.45,36c-3.9-.67-13.12-1.06-13.12-1.06l-.27,2.27s7.41,3.14,9.51,3.6,7.77,2.17,8.21-1.5C243.94,37.87,243.34,36.63,239.45,36Z"/><path class="cls-3" d="M224.19,34.61c-1.05,0-3.53,1.88-3.53,1.88s-1.77,2.42-1.67,3,2-1.17,2.91-1.2c.53,0,2.92.29,3.57.19a19.57,19.57,0,0,0,2.71-1l-1-2.52S225.23,34.65,224.19,34.61Z"/><path class="cls-4" d="M213.87,40.79c-.53-.09-2.81-.85-3.47-.89a19.76,19.76,0,0,0-2.85.47l.5,2.67s1.88.2,2.93.27a13,13,0,0,0,3.43-.36s3.09-1.11,3.11-1.7S214.74,40.94,213.87,40.79Z"/><polygon class="cls-11" points="200.29 40.52 218.03 40.52 225.02 39.51 209.43 39.56 200.29 40.52"/><polygon class="cls-12" points="197.77 26.82 199.82 40.52 218.03 40.52 215.98 26.82 197.77 26.82"/><polygon class="cls-12" points="218.03 41.57 225.02 40.56 225.02 39.51 218.03 40.52 218.03 41.57"/><rect class="cls-13" x="199.83" y="40.52" width="18.19" height="1.05"/><polygon class="cls-14" points="199.83 40.52 218.03 40.52 215.98 26.82 199.83 40.52"/><path class="cls-4" d="M213.79,39.9a3.44,3.44,0,0,1-1.49.25,4,4,0,0,0-2.37,0,1.63,1.63,0,0,0-1,1.59c0,.32,1.69,1.4,2.29.85,0,0,2-.55,2-.92s2.11-1.44,2.19-1.66S214.53,39.6,213.79,39.9Z"/><path class="cls-15" d="M174.19,51.48a.43.43,0,0,0-.47.41.46.46,0,0,0,.43.48.45.45,0,1,0,0-.89Z"/><path class="cls-15" d="M174,54.15a.47.47,0,0,0-.52.38.45.45,0,0,0,.38.5.44.44,0,0,0,.51-.38A.43.43,0,0,0,174,54.15Z"/><path class="cls-15" d="M173.56,56.8a.47.47,0,0,0-.55.33.43.43,0,0,0,.32.53.46.46,0,0,0,.55-.33A.42.42,0,0,0,173.56,56.8Z"/><path class="cls-15" d="M172.89,59.4a.42.42,0,0,0-.54.3.47.47,0,0,0,.3.56.44.44,0,0,0,.56-.3A.46.46,0,0,0,172.89,59.4Z"/><path class="cls-15" d="M172,61.94a.45.45,0,0,0-.58.25.48.48,0,0,0,.27.59.44.44,0,0,0,.57-.26A.44.44,0,0,0,172,61.94Z"/><path class="cls-15" d="M171,64.41a.45.45,0,1,0,.21.6A.45.45,0,0,0,171,64.41Z"/><path class="cls-15" d="M169.8,66.8a.46.46,0,0,0-.62.16.44.44,0,0,0,.16.61.45.45,0,0,0,.62-.16A.43.43,0,0,0,169.8,66.8Z"/><path class="cls-15" d="M167.79,69.21a.43.43,0,0,0,.1.61.46.46,0,0,0,.64-.1.44.44,0,0,0-.12-.62A.46.46,0,0,0,167.79,69.21Z"/><path class="cls-15" d="M166.2,71.33a.47.47,0,0,0,.08.64.43.43,0,0,0,.62-.07.47.47,0,0,0-.08-.64A.43.43,0,0,0,166.2,71.33Z"/><path class="cls-15" d="M164.45,73.32a.47.47,0,0,0,0,.64.44.44,0,0,0,.63,0,.45.45,0,0,0-.66-.61Z"/><path class="cls-15" d="M162.57,75.17a.47.47,0,0,0,0,.64.44.44,0,0,0,.63,0,.44.44,0,0,0,0-.63A.45.45,0,0,0,162.57,75.17Z"/><path class="cls-15" d="M160.56,76.89a.44.44,0,0,0-.08.62.45.45,0,0,0,.63.09.43.43,0,0,0,.08-.62A.46.46,0,0,0,160.56,76.89Z"/><path class="cls-15" d="M158.43,78.46a.44.44,0,0,0-.14.61.47.47,0,0,0,.63.14.44.44,0,0,0,.12-.63A.45.45,0,0,0,158.43,78.46Z"/><path class="cls-15" d="M156.16,79.84a.47.47,0,0,0-.16.62.42.42,0,0,0,.6.16.46.46,0,0,0,.17-.62A.44.44,0,0,0,156.16,79.84Z"/><path class="cls-15" d="M153.8,81a.46.46,0,0,0-.21.6.43.43,0,0,0,.59.21.44.44,0,0,0,.21-.6A.44.44,0,0,0,153.8,81Z"/><path class="cls-15" d="M151.36,82a.45.45,0,0,0,.32.85.45.45,0,0,0,.26-.58A.46.46,0,0,0,151.36,82Z"/><path class="cls-15" d="M148.85,82.89a.43.43,0,0,0-.3.54.45.45,0,0,0,.55.32.42.42,0,0,0,.31-.54A.47.47,0,0,0,148.85,82.89Z"/><path class="cls-15" d="M146.29,83.55a.42.42,0,0,0-.35.51.47.47,0,0,0,.53.37.46.46,0,0,0,.34-.55A.42.42,0,0,0,146.29,83.55Z"/><path class="cls-15" d="M143.68,84a.47.47,0,0,0-.39.51.43.43,0,0,0,.5.38.44.44,0,0,0,.38-.51A.43.43,0,0,0,143.68,84Z"/><path class="cls-15" d="M141,84.17a.45.45,0,0,0-.42.47.45.45,0,0,0,.47.43.43.43,0,0,0,.42-.47A.46.46,0,0,0,141,84.17Z"/><path class="cls-15" d="M138.4,84.22a.43.43,0,0,0-.46.42.46.46,0,0,0,.43.48.43.43,0,0,0,.46-.43A.46.46,0,0,0,138.4,84.22Z"/><path class="cls-15" d="M135.75,84.08a.42.42,0,0,0-.48.38.47.47,0,0,0,.39.52.47.47,0,0,0,.49-.43A.42.42,0,0,0,135.75,84.08Z"/><path class="cls-15" d="M133.14,83.68a.47.47,0,0,0-.52.38.43.43,0,0,0,.36.51.45.45,0,0,0,.52-.38A.44.44,0,0,0,133.14,83.68Z"/><path class="cls-15" d="M130.56,83.11a.46.46,0,0,0-.55.32.45.45,0,0,0,.32.55.46.46,0,0,0,.55-.33A.45.45,0,0,0,130.56,83.11Z"/><path class="cls-15" d="M128,82.35a.43.43,0,0,0-.56.27.46.46,0,0,0,.27.58.45.45,0,0,0,.57-.27A.47.47,0,0,0,128,82.35Z"/><path class="cls-15" d="M125.55,81.41a.42.42,0,0,0-.58.22.48.48,0,0,0,.22.61.44.44,0,0,0,.59-.23A.48.48,0,0,0,125.55,81.41Z"/><path class="cls-15" d="M123.17,80.26a.48.48,0,0,0-.61.2.42.42,0,0,0,.19.6.46.46,0,0,0,.61-.21A.43.43,0,0,0,123.17,80.26Z"/><path class="cls-15" d="M120.89,78.92a.47.47,0,0,0-.63.15.43.43,0,0,0,.15.61.45.45,0,0,0,.62-.15A.45.45,0,0,0,120.89,78.92Z"/><path class="cls-15" d="M118.08,77.51a.45.45,0,0,0,.72.54.47.47,0,0,0-.09-.63A.46.46,0,0,0,118.08,77.51Z"/><path class="cls-15" d="M116,75.81a.46.46,0,0,0,0,.64.44.44,0,0,0,.63,0,.47.47,0,0,0,0-.64A.42.42,0,0,0,116,75.81Z"/><path class="cls-15" d="M114.08,74a.46.46,0,0,0,0,.64.42.42,0,0,0,.63,0,.45.45,0,0,0,0-.63A.43.43,0,0,0,114.08,74Z"/><path class="cls-15" d="M112.27,72a.42.42,0,0,0,0,.62.45.45,0,0,0,.64,0,.43.43,0,0,0,0-.62A.48.48,0,0,0,112.27,72Z"/><path class="cls-15" d="M110.67,69.82a.45.45,0,1,0,.53.72.44.44,0,0,0,.1-.62A.46.46,0,0,0,110.67,69.82Z"/><path class="cls-15" d="M109.22,67.57a.45.45,0,0,0-.15.62.43.43,0,0,0,.61.14.44.44,0,1,0-.46-.76Z"/><path class="cls-15" d="M107.94,65.22a.45.45,0,0,0-.21.6.43.43,0,0,0,.6.2.46.46,0,0,0,.2-.61A.43.43,0,0,0,107.94,65.22Z"/><path class="cls-15" d="M106.83,62.78a.46.46,0,0,0-.26.59.43.43,0,0,0,.59.23.45.45,0,0,0,.24-.58A.42.42,0,0,0,106.83,62.78Z"/><path class="cls-15" d="M105.91,60.26a.43.43,0,0,0-.28.56.47.47,0,0,0,.58.28.44.44,0,0,0,.28-.56A.47.47,0,0,0,105.91,60.26Z"/><path class="cls-15" d="M105.22,57.66a.44.44,0,0,0-.32.54.45.45,0,1,0,.87-.21A.47.47,0,0,0,105.22,57.66Z"/><path class="cls-15" d="M104.73,55a.45.45,0,0,0-.38.52.43.43,0,0,0,.51.36.46.46,0,0,0,.38-.51A.45.45,0,0,0,104.73,55Z"/><path class="cls-15" d="M104.41,52.37a.45.45,0,0,0-.42.49.41.41,0,0,0,.47.4.47.47,0,0,0,.42-.48A.43.43,0,0,0,104.41,52.37Z"/><path class="cls-15" d="M104.28,49.69a.43.43,0,0,0-.43.45.46.46,0,0,0,.47.44.43.43,0,0,0,.43-.45A.48.48,0,0,0,104.28,49.69Z"/><path class="cls-15" d="M104.41,47a.43.43,0,0,0-.47.42.45.45,0,0,0,.43.47.44.44,0,0,0,.47-.41A.46.46,0,0,0,104.41,47Z"/><path class="cls-15" d="M104.73,44.35a.45.45,0,0,0-.52.38.44.44,0,0,0,.38.5.45.45,0,0,0,.51-.38A.44.44,0,0,0,104.73,44.35Z"/><path class="cls-15" d="M105.22,41.72a.46.46,0,0,0-.55.33.43.43,0,0,0,.33.53.47.47,0,0,0,.55-.33A.43.43,0,0,0,105.22,41.72Z"/><path class="cls-15" d="M105.91,39.12a.44.44,0,0,0-.56.3.46.46,0,0,0,.32.56.42.42,0,0,0,.54-.3A.48.48,0,0,0,105.91,39.12Z"/><path class="cls-15" d="M106.83,36.6a.43.43,0,0,0-.57.26.45.45,0,0,0,.83.33A.47.47,0,0,0,106.83,36.6Z"/><path class="cls-15" d="M107.94,34.16a.45.45,0,0,0-.6.21.45.45,0,0,0,.21.6.46.46,0,0,0,.6-.21A.45.45,0,0,0,107.94,34.16Z"/><path class="cls-15" d="M109.22,31.81a.45.45,0,0,0-.62.16.44.44,0,0,0,.16.61.47.47,0,0,0,.62-.16A.45.45,0,0,0,109.22,31.81Z"/><path class="cls-15" d="M110,29.66a.42.42,0,0,0,.12.62.46.46,0,0,0,.62-.11.43.43,0,0,0-.1-.61A.46.46,0,0,0,110,29.66Z"/><path class="cls-15" d="M111.66,27.48a.46.46,0,0,0,.08.64.43.43,0,0,0,.62-.07.48.48,0,0,0-.09-.64A.41.41,0,0,0,111.66,27.48Z"/><path class="cls-15" d="M113.45,25.45a.45.45,0,0,0,.65.61.46.46,0,0,0,0-.64A.44.44,0,0,0,113.45,25.45Z"/><path class="cls-15" d="M115.38,23.54a.45.45,0,0,0,0,.63.45.45,0,1,0,.67-.6A.46.46,0,0,0,115.38,23.54Z"/><path class="cls-15" d="M117.45,21.78a.43.43,0,0,0-.08.62.47.47,0,0,0,.63.09.44.44,0,0,0,.08-.62A.45.45,0,0,0,117.45,21.78Z"/><path class="cls-15" d="M119.63,20.17a.45.45,0,0,0-.12.63.47.47,0,0,0,.62.12.43.43,0,0,0,.13-.61A.46.46,0,0,0,119.63,20.17Z"/><path class="cls-15" d="M122,18.76a.47.47,0,0,0-.16.62.43.43,0,0,0,.6.16.47.47,0,0,0,.17-.62A.43.43,0,0,0,122,18.76Z"/><path class="cls-15" d="M124.38,17.54a.45.45,0,1,0,.38.81.46.46,0,0,0,.21-.6A.43.43,0,0,0,124.38,17.54Z"/><path class="cls-15" d="M126.88,16.49a.45.45,0,1,0,.58.27A.46.46,0,0,0,126.88,16.49Z"/><path class="cls-15" d="M129.45,15.63a.43.43,0,0,0-.31.54.48.48,0,0,0,.56.32A.43.43,0,0,0,130,16,.46.46,0,0,0,129.45,15.63Z"/><path class="cls-15" d="M132.08,15a.47.47,0,0,0-.34.55.43.43,0,0,0,.53.33.44.44,0,0,0,.35-.51A.47.47,0,0,0,132.08,15Z"/><path class="cls-15" d="M134.77,14.54a.46.46,0,0,0-.39.51.44.44,0,0,0,.5.38.48.48,0,0,0,.39-.52A.43.43,0,0,0,134.77,14.54Z"/><path class="cls-15" d="M137.47,14.31a.43.43,0,0,0-.42.47.45.45,0,0,0,.47.43.45.45,0,0,0,.42-.47A.45.45,0,0,0,137.47,14.31Z"/><path class="cls-15" d="M140.18,14.26a.44.44,0,0,0-.46.43.47.47,0,0,0,.44.47.44.44,0,0,0,.46-.42A.47.47,0,0,0,140.18,14.26Z"/><path class="cls-15" d="M142.89,14.4a.47.47,0,0,0-.49.43.45.45,0,0,0,.89.08A.47.47,0,0,0,142.89,14.4Z"/><path class="cls-15" d="M145.58,14.81a.45.45,0,0,0-.52.37.45.45,0,0,0,.36.52.48.48,0,0,0,.52-.38A.43.43,0,0,0,145.58,14.81Z"/><path class="cls-15" d="M148.23,15.4a.45.45,0,0,0-.55.33.44.44,0,0,0,.32.54.45.45,0,1,0,.23-.87Z"/><path class="cls-15" d="M150.83,16.18a.45.45,0,0,0-.57.27.45.45,0,1,0,.84.31A.46.46,0,0,0,150.83,16.18Z"/><path class="cls-15" d="M153.36,17.14a.42.42,0,0,0-.58.23.47.47,0,0,0,.23.6.43.43,0,0,0,.58-.22A.47.47,0,0,0,153.36,17.14Z"/><path class="cls-15" d="M155.81,18.32a.46.46,0,0,0-.61.21.43.43,0,0,0,.19.59.48.48,0,0,0,.61-.2A.43.43,0,0,0,155.81,18.32Z"/><path class="cls-15" d="M158.15,19.7a.45.45,0,0,0-.62.15.44.44,0,0,0,.14.61.45.45,0,0,0,.62-.15A.43.43,0,0,0,158.15,19.7Z"/><path class="cls-15" d="M159.76,21.33a.45.45,0,0,0,.09.63.46.46,0,0,0,.63-.09.45.45,0,0,0-.72-.54Z"/><path class="cls-15" d="M161.88,23a.47.47,0,0,0,0,.64.44.44,0,0,0,.63,0,.45.45,0,0,0,0-.64A.42.42,0,0,0,161.88,23Z"/><path class="cls-15" d="M163.86,24.78a.46.46,0,0,0,0,.63.43.43,0,0,0,.62,0,.46.46,0,0,0,0-.64A.43.43,0,0,0,163.86,24.78Z"/><path class="cls-15" d="M165.68,26.75a.43.43,0,0,0,0,.62.47.47,0,0,0,.64,0,.43.43,0,0,0,.05-.62A.46.46,0,0,0,165.68,26.75Z"/><path class="cls-15" d="M167.35,28.84a.45.45,0,0,0-.09.62.46.46,0,0,0,.63.1.45.45,0,0,0,.1-.63A.46.46,0,0,0,167.35,28.84Z"/><path class="cls-15" d="M168.87,31.05a.44.44,0,0,0-.15.61.45.45,0,0,0,.77-.47A.44.44,0,0,0,168.87,31.05Z"/><path class="cls-15" d="M170.23,33.36A.47.47,0,0,0,170,34a.45.45,0,0,0,.8-.41A.42.42,0,0,0,170.23,33.36Z"/><path class="cls-15" d="M171.39,35.78a.45.45,0,0,0-.23.58.42.42,0,0,0,.57.24A.46.46,0,0,0,172,36,.44.44,0,0,0,171.39,35.78Z"/><path class="cls-15" d="M172.34,38.28a.44.44,0,0,0-.27.56.46.46,0,0,0,.58.28.42.42,0,0,0,.27-.56A.46.46,0,0,0,172.34,38.28Z"/><path class="cls-15" d="M173.11,40.85a.44.44,0,0,0-.32.54.46.46,0,0,0,.54.33.44.44,0,0,0,.33-.54A.45.45,0,0,0,173.11,40.85Z"/><path class="cls-15" d="M173.7,43.47a.44.44,0,1,0,.13.88.46.46,0,0,0,.38-.52A.43.43,0,0,0,173.7,43.47Z"/><path class="cls-15" d="M174.1,46.12a.47.47,0,0,0-.43.48.44.44,0,0,0,.48.41.47.47,0,0,0,.42-.49A.41.41,0,0,0,174.1,46.12Z"/><path class="cls-15" d="M174.24,48.8a.43.43,0,0,0-.43.45.47.47,0,0,0,.47.44.43.43,0,0,0,.43-.45A.47.47,0,0,0,174.24,48.8Z"/><path class="cls-6" d="M151.84,9C148,9,148.48,0,139.3,0A12.84,12.84,0,0,0,129,5.76c-.86,1.27-2.59,1.84-4.58,1.82-3.86,0-8.3,3.11-8.3,7.38,0,5.61,4.81,8.85,9.3,8.85H155.9c5.2,0,7.15-4.84,6.71-7.72C161.85,11,156.47,9,151.84,9Z"/><path class="cls-16" d="M149.65,11c-2.77-.68-4-8.59-9.81-8.59-6.12,0-10.33,4-10.31,7.78,0,1.8,2.13,3.35,4.81,1.8,2.25-1.3,9.88-2.15,13,2.08,6.15,8.39,11.22,5.5,11.87,5.07a3.79,3.79,0,0,0-.08-5.59C156.7,11,152.41,11.69,149.65,11Z"/><path class="cls-16" d="M122.18,10.27c-2.39.59-4,2.32-3.65,3.87s2.63,2.34,5,1.75,4-2.32,3.64-3.87S124.57,9.69,122.18,10.27Z"/><path class="cls-17" d="M110.54,32.53H100.11a.94.94,0,0,0-.91.95V52.6a.94.94,0,0,0,.91,1h10.43a.93.93,0,0,0,.9-1V33.48A.93.93,0,0,0,110.54,32.53Z"/><rect class="cls-10" x="100.12" y="34.86" width="10.41" height="16.52"/><path class="cls-18" d="M106.74,33.38h-2.83a.38.38,0,0,0,0,.75h2.83a.38.38,0,0,0,0-.75Z"/><path class="cls-18" d="M105.32,51.85a.59.59,0,1,0,.59.58A.58.58,0,0,0,105.32,51.85Z"/><path class="cls-19" d="M106.49,33.5h-2.37a.28.28,0,0,0-.31.26.29.29,0,0,0,.31.26h2.37a.29.29,0,0,0,.31-.26A.28.28,0,0,0,106.49,33.5Z"/><path class="cls-20" d="M100.11,32.53a.94.94,0,0,0-.91.95V52.6a1,1,0,0,0,.38.78l11.58-20.59a.9.9,0,0,0-.62-.26Z"/><rect class="cls-21" x="171" y="37.74" width="5.45" height="16.18"/><rect class="cls-22" x="168.59" y="53.11" width="10.1" height="1.02"/><rect class="cls-23" x="161.1" y="31.97" width="23.97" height="16.82"/><rect class="cls-10" x="162.05" y="33" width="22.07" height="13.43"/><polygon class="cls-24" points="171 51.77 173.25 51.77 176.45 48.78 171 48.78 171 51.77"/><polygon class="cls-25" points="184.12 46.42 184.12 33 162.05 33 184.12 46.42"/><path class="cls-3" d="M151.63,62.74c-3.3-2-12.79-3.25-12.79-3.25v.17s-9.58.78-12.88,2.78c-2.54,1.53,1.86,10.77,3.52,15.91.4,1.24.35,6.77.19,11.67,0,1.21-1,6.77-.87,9.07.05.69,7.8,5,10,5.06V104c2.17-.11,9.94-4.34,10-5,.17-2.3-.8-7.86-.84-9.07-.14-4.91-.18-10.44.22-11.67C149.82,73.08,154.16,64.27,151.63,62.74Z"/><path class="cls-3" d="M149.78,62.72c-1.67,1-1.67,4.18.31,7.21s3.67,4.88,4.2,5.65,3.41,5.67,4.38,6.85,3,2.13,4.24,1.28c1.08-.7,2.29-1.33,1.3-3.77S155.06,59.58,149.78,62.72Z"/><path class="cls-3" d="M142.81,58c-.22-1-.76-5.83-.76-5.83h-3.2v.16h-3.21s-.55,4.84-.77,5.82S132,60.58,132,60.58h6.82v-.16h6.83S143,59,142.81,58Z"/><path class="cls-4" d="M141.87,52.15h-3v.16h-3.21s-.55,4.84-.77,5.82S132,60.58,132,60.58h.32c3-.81,6.08-1.61,6.49-1.73a27.58,27.58,0,0,0,3.77-2.24h0c-.2-1.48-.44-3.6-.51-4.25Z"/><path class="cls-3" d="M128.22,62.62c-5.42-2.9-12.77,15.37-13.64,17.85s.36,3,1.47,3.71c1.33.79,3.26-.25,4.18-1.47s3.54-6.22,4.06-7,2.1-2.72,3.94-5.84S129.93,63.53,128.22,62.62Z"/><path class="cls-6" d="M147.59,60.87a23.68,23.68,0,0,1-3.39-1.38l-1.18.63a8.43,8.43,0,0,1-8.39,0l-1-.58s-1.68.73-3.56,1.31c-2.13.66-4.51,1.21-4.87,2S128.6,78.21,129,79.45s-.68,10,.4,12.57l9.34.3h0l9.33-.28c.86-3,0-11.48.43-12.72s4.63-15.29,3.91-16.48C152,62.12,149.72,61.53,147.59,60.87Z"/><path class="cls-3" d="M138.76,42c-3.12,0-5.66,3.27-5.66,7.32s3.16,8.08,5.64,8.09,5.66-4,5.66-8.07S141.88,42,138.76,42Z"/><path class="cls-9" d="M142.84,43.16c-.37-.74-2-1.36-2.9-1.51a11.77,11.77,0,0,0-2.53,0,12.07,12.07,0,0,0-3.71,2,17,17,0,0,0-1.51,3.23c-.18.85.66,2.72.91,3.16a10.2,10.2,0,0,1,1.54-2.41c.48-.25,8.18-.13,8.22.23a17.29,17.29,0,0,0,1.46,2.5,3,3,0,0,0,.3-.56c0-.15.45-2,.52-2.2a8.22,8.22,0,0,0-.73-2.31C144.11,44.74,143.2,43.89,142.84,43.16Z"/><path class="cls-6" d="M126.44,62.21s-2.51.14-5.33,4.07-5.72,11-5.72,11a10.68,10.68,0,0,0,3.31,2.44A8.38,8.38,0,0,0,122,80.8l5.32-8.64S129.34,63,126.44,62.21Z"/><path class="cls-6" d="M151.39,62.21c-2.89.87-.9,9.9-.9,9.9l6.08,8.46a9.72,9.72,0,0,0,3.36-1.24,10.72,10.72,0,0,0,3.26-2.48,102,102,0,0,0-6.42-10.65C153.9,62.31,151.39,62.21,151.39,62.21Z"/><path class="cls-10" d="M152.41,64.78s-4.33,13.11-5.21,13.81-6.33.12-7.06,0-5.35,1.3-6.07,1.3-2.37,1.07-1.75,2.2,3.3.9,4.84,1.49,3.84,2.19,3.83,3,.72,2.52,0,3-2,1-2.81,1.56-3.76.16-4.53.4a23.78,23.78,0,0,1-2.64.52l8.57.27h0l8.57-.29c1-2.49,0-10.81.37-12C148.76,79.35,151.44,69.18,152.41,64.78Z"/><path class="cls-26" d="M129.43,92s-2.47,8.31-1.33,10.66a7.07,7.07,0,0,0,6.05,3.72c2.29.06,3.89-1.15,4.29-1.15s2.81,1,3.95,1.21c1.72.22,6.3-1.15,7-4.53S148.12,92,148.12,92Z"/><path class="cls-26" d="M131.66,93.83c-7.11-4.27-14.78-7.49-16.16-7.68-2.58-.36-4.81,3.76-3.87,5.3.48.8,13.53,10.64,15.82,12.06s8.49,4.26,10.75.64C140.27,100.83,138.77,98.11,131.66,93.83Z"/><path class="cls-26" d="M161.81,88.57a75.18,75.18,0,0,0-16,5.53c-6.86,3.31-8.41,5.79-6.65,9.29,1.92,3.81,7.87,1.78,10.08.67s15.8-9.37,16.13-10.19C166.16,91.82,164.32,88.29,161.81,88.57Z"/><path class="cls-3" d="M155,81.64c-2.08,1.19-8.94,7-8.94,7L147.14,91s9.72-3.53,13.66-5.56,4.15-3.57,3.5-5C162.59,76.68,157.11,80.44,155,81.64Z"/><path class="cls-3" d="M143.75,87.27a6.81,6.81,0,0,0-2.05,1.2s.17.94.27,1.6a8.1,8.1,0,0,0,1.12,2.12,5.5,5.5,0,0,0,2.36-.21A17.7,17.7,0,0,0,148,90.7l.23-3A36.45,36.45,0,0,0,143.75,87.27Z"/><path class="cls-3" d="M114.69,80.59c-2.06,3.59,4.19,5.83,6.39,6.82s11,3.12,11,3.12l1.27-2.22s-8.56-5.81-12.51-7.81S115.47,79.22,114.69,80.59Z"/><path class="cls-3" d="M130.63,87.15l.22,3a18.18,18.18,0,0,0,2.58,1.29,5.63,5.63,0,0,0,2.35.21,8.37,8.37,0,0,0,1.13-2.12c.09-.66.27-1.61.27-1.61a6.81,6.81,0,0,0-2.05-1.2A38.32,38.32,0,0,0,130.63,87.15Z"/><path class="cls-7" d="M136.28,103.19c-1.61,1.89-5.33,4-6,4.61s-2.72,2.65-2.19,3.18,3.3-.54,5.07-1,9.11-2.76,9.11-2.76l-2.7-4.62S137,102.31,136.28,103.19Z"/><path class="cls-8" d="M162.38,88.57c-2-.37-8.23,3.84-11.48,6s-11.53,7.88-11.53,7.88l3.32,6.23s13.66-6.37,17-9,5.69-4.54,5.93-5.72S165.59,89.18,162.38,88.57Z"/><path class="cls-27" d="M141.63,107c-.9-.52-5.16-2.24-7.3-3.07-.27-.1-1.13.28-1.13.28l-1.94,4.3s5.54,2.48,7.59,2.64,6.34.27,6.66-.71C145.91,109.25,142.53,107.53,141.63,107Z"/><path class="cls-8" d="M115.61,86.12c-3.26-.06-4.29,3.33-4.29,4.53S113.09,94,116,97.47s15,11.68,15,11.68l4-5.43-9.42-9.4C122.88,91.57,117.61,86.16,115.61,86.12Z"/><path class="cls-28" d="M199.44,41.06A6.76,6.76,0,0,0,197,43c-1.78,2-3.55,5.5-5.31,9.76-3.55,8.53-7.05,20.36-11.53,31.8-1.13,2.86-2.33,5.69-3.66,8.4a49.49,49.49,0,0,1-4.47,7.62,15.19,15.19,0,0,1-6.09,5.3,7.08,7.08,0,0,1-1.82.47,3.85,3.85,0,0,1-.88,0,1.13,1.13,0,0,1-.67-.35,6.5,6.5,0,0,1-1.22-3.15c-.41-2.25-.52-4.37-1-6.24a5.67,5.67,0,0,0-.51-1.35,1.9,1.9,0,0,0-.49-.59c-.2-.14-.39-.23-.58-.34a9.57,9.57,0,0,0-2.2-.7,20.73,20.73,0,0,0-3.15-.36c-.73,0-1.12,0-1.12,0h0a.35.35,0,0,0-.34.35.36.36,0,0,0,.36.34s.37,0,1.08,0a21.29,21.29,0,0,1,3,.34,8.85,8.85,0,0,1,2.05.63c.16.09.34.18.49.28a1.67,1.67,0,0,1,.32.39,5.36,5.36,0,0,1,.45,1.19c.46,1.77.59,3.9,1,6.19a12.68,12.68,0,0,0,.44,1.74,4.19,4.19,0,0,0,1,1.7,1.76,1.76,0,0,0,1,.49,4.84,4.84,0,0,0,1,0,8.26,8.26,0,0,0,1.95-.52,15.67,15.67,0,0,0,6.27-5.51,50.34,50.34,0,0,0,4.47-7.72c1.31-2.74,2.49-5.58,3.61-8.45,4.41-11.5,7.82-23.34,11.31-31.89C193.51,48.51,195.26,45,197,43a6.58,6.58,0,0,1,2.42-1.92,3.61,3.61,0,0,1,.79-.23l.28,0-.28,0A3.47,3.47,0,0,0,199.44,41.06Z"/><path class="cls-29" d="M199.36,41A5,5,0,0,0,197,43.27c-1.48,2.49-2.51,6.53-3.37,11.37s-1.53,10.56-2.27,16.67S189.83,84,188.56,90.39a59.26,59.26,0,0,1-2.57,9.4,20.81,20.81,0,0,1-2.14,4.24,7.69,7.69,0,0,1-3.37,2.94,7.28,7.28,0,0,1-4.31,0,11.19,11.19,0,0,1-3.81-1.82,31.19,31.19,0,0,1-5.49-5.61A23.82,23.82,0,0,0,162,94.78,10,10,0,0,0,157,93.23a24.84,24.84,0,0,0-3.38,0c-.77,0-1.19.11-1.19.11h0a.36.36,0,1,0,.1.71s.39,0,1.15-.11a24.42,24.42,0,0,1,3.28,0,9.32,9.32,0,0,1,4.75,1.41,22.79,22.79,0,0,1,4.72,4.6,31.84,31.84,0,0,0,5.65,5.67,11.72,11.72,0,0,0,4,1.87,12.3,12.3,0,0,0,2.27.33,5.57,5.57,0,0,0,2.34-.38,8.07,8.07,0,0,0,3.58-3.14,20.81,20.81,0,0,0,2.15-4.33,58.81,58.81,0,0,0,2.53-9.5c1.24-6.46,2-13,2.67-19.11s1.33-11.83,2.15-16.68,1.83-8.88,3.29-11.37A4.94,4.94,0,0,1,199.36,41a3.19,3.19,0,0,1,.85-.2h0A3,3,0,0,0,199.36,41Z"/><path class="cls-30" d="M221.43,41.34a2.37,2.37,0,0,0-1.44-.53,2.32,2.32,0,0,1,1.43.54,6.73,6.73,0,0,1,1.89,3.89c.77,3.73.63,9.22-.2,15.66a141.58,141.58,0,0,1-4.71,21.71,116.74,116.74,0,0,1-4.2,11.8A54,54,0,0,1,208,105.69a16.44,16.44,0,0,1-4.67,4.36,26.38,26.38,0,0,1-5.86,2.52,42.94,42.94,0,0,1-12.31,1.69,32.19,32.19,0,0,1-11.4-2,15.23,15.23,0,0,1-2.42-1.22,8.87,8.87,0,0,1-2-1.66A8.18,8.18,0,0,1,168,107.3c-.35-.75-.67-1.52-1-2.27a64.18,64.18,0,0,0-3.56-8.18,11.42,11.42,0,0,0-2.34-3,8.15,8.15,0,0,0-2.86-1.55,11.23,11.23,0,0,0-4.5-.37,9.73,9.73,0,0,0-1.58.29h0a.34.34,0,0,0-.22.43.34.34,0,0,0,.43.22,9.55,9.55,0,0,1,1.47-.27,10.25,10.25,0,0,1,4.23.32,7.48,7.48,0,0,1,2.64,1.41A10.67,10.67,0,0,1,163,97.16a63,63,0,0,1,3.57,8.08c.31.76.63,1.53,1,2.3a8.39,8.39,0,0,0,1.41,2.25,9.2,9.2,0,0,0,2.11,1.75,15.4,15.4,0,0,0,2.5,1.26,32.86,32.86,0,0,0,11.6,1.94A42.93,42.93,0,0,0,197.59,113a26,26,0,0,0,5.94-2.59,16.63,16.63,0,0,0,4.76-4.47,54.58,54.58,0,0,0,6.19-11.4,119.55,119.55,0,0,0,4.15-11.85,140.9,140.9,0,0,0,4.59-21.75c.8-6.46.91-12,.12-15.69A6.73,6.73,0,0,0,221.43,41.34Z"/><path class="cls-28" d="M125.26,93.34h0a10.74,10.74,0,0,0-1.46,0,12.53,12.53,0,0,0-4,.9,5.34,5.34,0,0,0-2.34,1.89c-.57,1-1,2-1.52,3.09a26.33,26.33,0,0,1-1.9,3.31,15.88,15.88,0,0,1-2.76,3.15,14.23,14.23,0,0,1-8.59,3.46A51,51,0,0,1,92,109a5.53,5.53,0,0,1-2.49-.94c-.73-.53-.49-1.54,0-2.29a28.6,28.6,0,0,1,3.9-4.23c.7-.68,1.4-1.38,2-2.13A6,6,0,0,0,97,96.73a2.21,2.21,0,0,0,0-.81,2.07,2.07,0,0,0-.4-.71c-.1-.1-.16-.18-.3-.31l-.32-.19a7.31,7.31,0,0,0-.75-.27,23.06,23.06,0,0,0-3-.47c-4-.35-8-.37-11.87-.39s-7.76,0-11.48.12l-20.36.5c-3,.06-5.71.11-8.13.09-1.21,0-2.34-.06-3.39-.15a6.41,6.41,0,0,1-2.75-.69.44.44,0,0,1-.12-.55,1.51,1.51,0,0,1,.39-.44,5.49,5.49,0,0,1,.92-.57,16.66,16.66,0,0,1,1.57-.7c.87-.33,1.34-.48,1.34-.48s-.47.14-1.34.47a15.26,15.26,0,0,0-1.57.69,5.82,5.82,0,0,0-.93.57,1.44,1.44,0,0,0-.4.45.47.47,0,0,0,.12.58,6.23,6.23,0,0,0,2.77.71c1,.1,2.18.15,3.39.18,2.42,0,5.15,0,8.13,0l20.36-.39c3.72,0,7.57-.08,11.48-.06s7.89.08,11.83.46a20.06,20.06,0,0,1,2.91.47c.89.16,1.75,1,1.51,1.89a5.68,5.68,0,0,1-1.43,2.43c-.64.74-1.33,1.42-2,2.1a28,28,0,0,0-4,4.29,3.14,3.14,0,0,0-.54,1.42,1.75,1.75,0,0,0,.11.81,2.05,2.05,0,0,0,.49.63,5.88,5.88,0,0,0,2.71,1.06,50.9,50.9,0,0,0,10.77.27,14.65,14.65,0,0,0,8.94-3.55,16.71,16.71,0,0,0,2.88-3.24,29.17,29.17,0,0,0,2-3.37c.54-1.07,1-2.17,1.48-3A4.52,4.52,0,0,1,120,94.88a11.61,11.61,0,0,1,3.81-.83,12.12,12.12,0,0,1,1.39,0h0a.34.34,0,1,0,0-.68Z"/><path class="cls-29" d="M90.8,97.82h0S90.82,97.8,90.8,97.82Z"/><path class="cls-29" d="M125.42,92.17h0s-.59-.09-1.69-.15a15.81,15.81,0,0,0-4.77.42A26.79,26.79,0,0,0,112.5,96c-2.33,1.6-4.9,3.48-7.8,5.37-1.45.94-3,1.88-4.63,2.74a23.11,23.11,0,0,1-5.32,2.09,10.62,10.62,0,0,1-2.92.3c-1-.08-2-.31-3-.48-2.06-.37-4.15-.77-6.26-1.26-1.05-.25-2.1-.53-3.14-.86a14.17,14.17,0,0,1-1.54-.56,4,4,0,0,1-1.3-.83c-.31-.34.1-.71.57-1a8.54,8.54,0,0,1,1.53-.6c1.07-.33,2.17-.58,3.28-.81,2.23-.47,4.5-.82,6.76-1.3a14.64,14.64,0,0,0,1.7-.44,2.6,2.6,0,0,0,.42-.19A1.35,1.35,0,0,0,91,98.1a.83.83,0,0,0,.11-.15.45.45,0,0,0,0-.23c-.13-.28-.3-.28-.44-.37l-.43-.15c-1.15-.28-2.27-.47-3.43-.66a107,107,0,0,0-13.78-1c-4.56-.1-9,0-13.39.09-8.68.23-16.77.7-23.71.64-1.74,0-3.4-.08-5-.24a18.1,18.1,0,0,1-2.28-.35,4.66,4.66,0,0,1-2-.84,1.08,1.08,0,0,1-.41-.89,1.25,1.25,0,0,1,.43-.85,4.69,4.69,0,0,1,1.65-.9,19.94,19.94,0,0,1,3.26-.74c2-.29,3.6-.37,4.68-.43L38,90.93l-1.66,0c-1.08,0-2.67.13-4.68.41a18.77,18.77,0,0,0-3.27.73,4.74,4.74,0,0,0-1.68.9,1.31,1.31,0,0,0-.45.89,1.15,1.15,0,0,0,.42.94,4.85,4.85,0,0,0,2,.86,20.64,20.64,0,0,0,2.29.37c1.58.16,3.24.23,5,.26,7,.09,15-.34,23.72-.53,4.33-.1,8.82-.15,13.37,0a106.14,106.14,0,0,1,13.74,1.1c1.13.19,2.29.39,3.38.67l.39.13a.76.76,0,0,1,.22.14s0,0,0,0h0a.42.42,0,0,1-.15.1,2.06,2.06,0,0,1-.37.16,15,15,0,0,1-1.66.43c-2.24.46-4.52.8-6.76,1.26-1.12.23-2.23.47-3.32.8a8.85,8.85,0,0,0-1.61.64,2,2,0,0,0-.73.57.82.82,0,0,0-.18.52,1,1,0,0,0,.19.51,4,4,0,0,0,1.47,1,16,16,0,0,0,1.58.6c1,.34,2.12.62,3.18.87,2.11.51,4.21.92,6.27,1.3,1,.18,2,.4,3.08.5a11.23,11.23,0,0,0,3.08-.29,23.48,23.48,0,0,0,5.45-2.12c1.67-.86,3.23-1.8,4.7-2.75,2.92-1.88,5.5-3.75,7.84-5.33a25.77,25.77,0,0,1,6.27-3.49,14.91,14.91,0,0,1,4.56-.37c1.07.06,1.62.15,1.62.15h0a.34.34,0,1,0,.11-.68Z"/><rect class="cls-31" x="125.53" y="93.96" width="26.27" height="1.26"/><path class="cls-32" d="M152.73,77.51H124.36a.91.91,0,0,0-.91.91l.93,15.16a.9.9,0,0,0,.91.9H152a.9.9,0,0,0,.91-.9l.7-15.16A.91.91,0,0,0,152.73,77.51Z"/><path class="cls-33" d="M138.66,84.76a1.7,1.7,0,0,0-1.7,1.69,1.75,1.75,0,0,0,1.7,1.7,1.81,1.81,0,0,0,1.69-1.7A1.69,1.69,0,0,0,138.66,84.76Z"/><path class="cls-34" d="M152.73,77.51H124.36a.91.91,0,0,0-.91.91l.93,15.16a.9.9,0,0,0,.91.9l28.35-16.06A.91.91,0,0,0,152.73,77.51Z"/><path class="cls-30" d="M44.11,55.94c-.83-3.31-1.25-4.91-1.76-5.19-1.06-.59-7.23-.17-7.92-.13a.27.27,0,0,0-.24.28.25.25,0,0,0,.27.23c2.69-.19,6.94-.33,7.65.06.34.21,1,2.69,1.5,4.87,1,3.84,2.16,8.61,3.83,11.35,5.56,9.11,5.63,12,5.18,12.93a1,1,0,0,1-.87.56,2.47,2.47,0,0,1-2.09-.6,4.66,4.66,0,0,1-1-3.19.26.26,0,0,0-.24-.27.28.28,0,0,0-.27.24,5.17,5.17,0,0,0,1.15,3.59,2.88,2.88,0,0,0,2,.76l.46,0a1.54,1.54,0,0,0,1.27-.84c.89-1.8-.86-6.32-5.19-13.42C46.24,64.47,45,59.54,44.11,55.94Z"/><path class="cls-35" d="M55.49,90.7a15.78,15.78,0,0,1-3.58-.07l-.18-.08c.55-.36,1-.7,1-1.11.05-.56-1.3-1.19-3-1.76a18.92,18.92,0,0,1-.81-1.81.29.29,0,0,0-.53.21c.06.15.28.69.6,1.37-.83-.25-1.71-.48-2.54-.69a.28.28,0,1,0-.13.54c1,.26,2.07.56,3,.86a11.79,11.79,0,0,0,1.5,2.31c-.68.42-1.25.79-1.34,1.24a.58.58,0,0,0,.11.47c.29.41,2.42.57,4.75.57a42.49,42.49,0,0,0,5.74-.34c1.22-.21,1.46-.45,1.52-.68a.45.45,0,0,0-.15-.48C60.63,90.5,58,90.6,55.49,90.7Zm-5.42-2.28a5.69,5.69,0,0,1,2.1,1c0,.19-.46.51-.9.78A9.16,9.16,0,0,1,50.07,88.42ZM50,91.82c0-.24.75-.66,1.21-.95h0a1.89,1.89,0,0,0,.51.29,14.94,14.94,0,0,0,3.78.1c2-.08,4.67-.18,5.45.34C59.79,92.24,50.8,92.47,50,91.82Z"/><path class="cls-28" d="M47.81,67.08C44.31,64.41,42.44,56.6,42.22,53c-.09-1.56.12-1.82.12-1.82h0c8.38-4,7.77-8.62,7.74-8.81a.24.24,0,0,0-.29-.21.25.25,0,0,0-.21.28s.55,4.48-7.46,8.28c-.22.11-.35.39-.4.91-.28,2.72,1.6,12.64,5.79,15.83C54.84,73.07,56.2,79,55.32,81.57a2.18,2.18,0,0,1-2,1.69,4.38,4.38,0,0,1-4.43-2.73.26.26,0,0,0-.32-.16.25.25,0,0,0-.16.32,4.94,4.94,0,0,0,4.91,3.08,2.67,2.67,0,0,0,2.52-2C56.91,78.45,54.88,72.46,47.81,67.08Z"/><path class="cls-29" d="M49.72,67.14c-.85-2-1.7-4.08-2.52-6.09-2.57-6.29-4.06-9.86-4.85-10.3-1.06-.59-7.23-.17-7.92-.13a.27.27,0,0,0-.24.28.25.25,0,0,0,.27.23c2.69-.19,6.94-.33,7.65.06s2.67,5.29,4.62,10.05c.82,2,1.67,4.09,2.52,6.1L50,69.09c3.26,7.66,7,16.33,5.23,19.52a2.43,2.43,0,0,1-1.86,1.24c-3.33.57-4.47-3.79-4.52-4a.25.25,0,0,0-.31-.18.26.26,0,0,0-.18.31s1.15,4.41,4.43,4.41a3.88,3.88,0,0,0,.67-.06,2.92,2.92,0,0,0,2.21-1.49c1.86-3.41-1.73-11.83-5.21-20Z"/><rect class="cls-21" x="51.19" y="34.17" width="4.86" height="14.45"/><rect class="cls-22" x="49.03" y="47.89" width="9.02" height="0.91"/><rect class="cls-23" x="42.35" y="29.01" width="21.4" height="15.02"/><rect class="cls-36" x="43.2" y="29.93" width="19.71" height="11.99"/><polygon class="cls-24" points="51.19 46.69 53.2 46.69 56.05 44.03 51.19 44.03 51.19 46.69"/><polygon class="cls-37" points="62.9 41.92 62.9 29.93 43.2 29.93 62.9 41.92"/><rect class="cls-38" x="34.45" y="49.83" width="2.63" height="42.75"/><rect class="cls-38" x="80.52" y="50.06" width="2.63" height="42.75"/><rect class="cls-38" x="34.98" y="49.83" width="47.6" height="6.97"/><polygon class="cls-39" points="34.44 55.24 83.15 54.55 83.15 52.95 34.44 52.93 34.44 55.24"/><rect class="cls-32" x="31.38" y="48.8" width="54.93" height="4.32"/><path class="cls-4" d="M69,64.26c-6.57-2.28-7.5-2.5-7.5-2.5l-.87,2.15a26.71,26.71,0,0,0,4.53,3.71c1.91,1.07,5.09,2.6,5.73.57S69.55,64.46,69,64.26Z"/><rect class="cls-7" x="100.71" y="88.21" width="0.63" height="3.4" transform="translate(-18.61 26.86) rotate(-13.88)"/><path class="cls-7" d="M100.34,88.46c-.1-.43-1.57-.48-2.2-.27A6,6,0,0,0,96,89.53a31,31,0,0,0,.92,3.33s0,.63,2.95,2.58c1.17.77-1.58.74-1.66,2.29,0,.4,4.24.59,4.53-.35.48-1.57-.7-3.71-1.19-4.95A34,34,0,0,1,100.34,88.46Z"/><path class="cls-5" d="M83.27,70.86c-.81.55-8.36,20.08-9.09,23.2s1.18,3.85,3.78,3.4S90.62,81,91.21,75.58,83.27,70.86,83.27,70.86Z"/><path class="cls-5" d="M81.37,90.3c-4.32,1.11-7.57,4.4-7.34,5.63.68,3.68,6.17,1.84,12.15.19,5.22-1.44,11.07-2.52,11.07-2.52A9.15,9.15,0,0,0,98.11,91a7.75,7.75,0,0,0-1-2.7S85.69,89.2,81.37,90.3Z"/><path class="cls-4" d="M76.13,53.21c-2.34-.69-3.68,1.23-4.53,2.71s-4.47,9.9-4.43,10.85,2.76,2.16,3.39,2,6.25-9.27,7-11.18S78.11,53.8,76.13,53.21Z"/><path class="cls-10" d="M76.07,54.43a3.11,3.11,0,0,0-3.53.06c-1.26.82-4.62,8.7-4.62,8.7a5.43,5.43,0,0,0,2.37,2.24,6,6,0,0,0,3.56.4S76.3,61,77.11,58.7A3.55,3.55,0,0,0,76.07,54.43Z"/><path class="cls-3" d="M87.53,63.15c-.46-2.86.88-12.6-.66-14-1.27-1.19-5.19-.42-6.53-.86-.43-.13-2.91-5.58-2.91-5.58l-3.87,3.49s1.53,5,1.62,5.35-2.56,2.49-2.82,3.4c-.14.46.26,1.36.38,1.94a12.5,12.5,0,0,0,1.81,5.24c.23.36,3,6.09,3.67,7.77s2.84,8.45,3.67,9.09a10.82,10.82,0,0,0,4.4,1c.3-.12,7.43-5.54,6-8S88,66,87.53,63.15Z"/><path class="cls-4" d="M75.93,54.05s1.82-6.68,2.08-7.32a15.71,15.71,0,0,0,.42-2.15l-4.17,3.93Z"/><path class="cls-6" d="M87.85,50.47a2.85,2.85,0,0,0-2.41-2.2c-1.15-.09-5.1,0-5.1,0s-.47,4.53-3.7,4.87c-1,.11-1.46-1.61-1.46-1.61s-2.69,2.54-2.82,3.4a12.72,12.72,0,0,0,.35,3,28.2,28.2,0,0,0,2.16,5.36c.66,1.25,1.32,3,2.41,5.13.94,1.83,2.63,6.65,2.63,6.65s1.85-.66,4.6-1.93c3.19-1.47,7.2-2.49,7.3-2.67.42-.77-3.4-6.27-3.51-6.87S88.29,51.76,87.85,50.47Z"/><path class="cls-10" d="M87.91,50.75c-.38-1-3.43-2.19-3.43-2.19a6.88,6.88,0,0,1,0,3.32c-.45,1.8-4.71,8-5.92,8.61-3.87,2,1.17,7.66,1.17,7.66s6.62.61,7.43,1.13-8.58,2.21-8.58,2.21,13,.05,13.28-1.1-3.52-6-3.52-7C88.34,61.84,88.29,51.78,87.91,50.75Z"/><path class="cls-3" d="M75.4,37.2c-2.88-1.34-5.66,1.53-6.19,3.24-.62,2,1.14,3.69,1.32,3.84s.87,2.13,1.06,2.42a.5.5,0,0,0,.57.12c.09-.06,1.75,2.31,2.15,2.23a12.39,12.39,0,0,0,3-2.2A6.42,6.42,0,0,0,78.7,43,5.69,5.69,0,0,0,75.4,37.2Z"/><path class="cls-9" d="M76.77,38a4.82,4.82,0,0,0-5.87-.3,3.88,3.88,0,0,0-1.75,4.29s1.26-2.14,4.79-1.27c.76.19.93,2.72,1.16,2.82s1-2.5,1.08-2.24c.62,2.7,2.06,3.55,2.27,3.45C79.09,44.39,79.19,40.05,76.77,38Z"/><path class="cls-3" d="M75.78,41.08c-.45.1-.59.45-.4,1.31s.64,1.9,1.09,1.8.66-.87.47-1.73S76.23,41,75.78,41.08Z"/><polygon class="cls-7" points="68.34 99.15 68.38 99.81 71.77 99.59 71.73 98.94 68.34 99.15"/><path class="cls-40" d="M71.31,94.37c-.09-.12-4.57.78-4.57.78s-.56.22-3,2.85c-1,1-4.12,2-4.15,2.39s1.77.38,2.76.33c3.38-.19,3.82-1,5.14-1.27A32.59,32.59,0,0,1,71.59,99c.44,0,.75-1.5.66-2.19A6.18,6.18,0,0,0,71.31,94.37Z"/><path class="cls-8" d="M78.57,71.49s-.22.47-.61.43c-4.27-.41-9.63-1.31-11.07-.77-3,1.11-2.52,2.78-.7,4.71s19.5,6.55,24.36,4,1.26-9.36,1.26-9.36A57.72,57.72,0,0,0,78.57,71.49Z"/><path class="cls-8" d="M66.67,71.56C63,71.89,63.79,77.84,64.86,84a82,82,0,0,1,1,11.37,24,24,0,0,0,3.48.69,11,11,0,0,0,2.84-.5s.08-11.7-.61-16.11S67.91,71.45,66.67,71.56Z"/><path class="cls-3" d="M85.41,48.58c-2.42-.26-3.4,1.88-4,3.48S78.83,62.61,79,63.54a2.34,2.34,0,0,0,3.88,1.05c.49-.44,4.29-10,4.64-12S87.47,48.8,85.41,48.58Z"/><path class="cls-3" d="M80.08,61c-6.73-.56-12.25-1.09-12.25-1.09l-.38,2.22s6.33,2.17,8.55,2.71,6.81,1.43,7-.62S80.73,61.08,80.08,61Z"/><path class="cls-6" d="M86.51,48.62a3.8,3.8,0,0,0-3.93.37c-1.17,1-3.19,9.23-3.19,9.23a5.41,5.41,0,0,0,2.6,2,6,6,0,0,0,3.58,0s1.89-5.13,2.45-7.45A3.52,3.52,0,0,0,86.51,48.62Z"/><path class="cls-4" d="M57.86,58.74a13.93,13.93,0,0,0-2.15,1.19c-.23.13-.43.45-.34.55a2.47,2.47,0,0,1,1.86.66,12.12,12.12,0,0,0,2,2c1.4.81,3.08-.41,3.08-.41L60.2,59.15A12.42,12.42,0,0,0,57.86,58.74Z"/><path class="cls-41" d="M58.61,60.11a5.91,5.91,0,0,0-1.4,0,6.81,6.81,0,0,0-1.1.23c-.24.06-.62.26-.5.48a1,1,0,0,0,.77.11,6.61,6.61,0,0,1,.95-.24,9,9,0,0,1,1.38.25S58.84,60.2,58.61,60.11Z"/><path class="cls-41" d="M58.75,60.22a5.47,5.47,0,0,0-1.25.38,2.19,2.19,0,0,0-.84.69c-.13.18-.39.51-.17.6s.55-.11.75-.3.28-.41.53-.51a7.81,7.81,0,0,1,1.29-.15S59,60.24,58.75,60.22Z"/><path class="cls-41" d="M58.84,60.45a5,5,0,0,0-1,.5,1.8,1.8,0,0,0-.59.7c-.08.17-.25.48-.05.52s.44-.17.57-.36.17-.38.36-.5A6.63,6.63,0,0,1,59.21,61S59,60.43,58.84,60.45Z"/><path class="cls-42" d="M62.38,57.77c-.2,0-4.74,1-6,3.16-.45.81-.62,2.81-.82,5.35-.35,4.2-.82,10-2.93,13.25-1.25,2-4.1,1.39-4.13,1.39a.28.28,0,1,0-.11.55,5.6,5.6,0,0,0,1.09.1,4.16,4.16,0,0,0,3.63-1.73c2.18-3.41,2.66-9.25,3-13.52.19-2.37.36-4.41.75-5.12,1.08-1.93,5.53-2.87,5.57-2.88a.28.28,0,0,0-.11-.55Z"/><path class="cls-4" d="M60.23,61.28s-1.31-1.21-1.61-1.09-2.09.51-2.3.54-.47.09.09.51,1.37.16,1.5.36.32,1.28,1.09,1.77a4.79,4.79,0,0,0,2.79.46C62,63.66,60.91,61.49,60.23,61.28Z"/><rect class="cls-43" x="62.03" y="57.54" width="1.35" height="0.74" transform="matrix(0.94, -0.35, 0.35, 0.94, -16.34, 25.72)"/><path class="cls-29" d="M65.19,62.46A5.16,5.16,0,0,1,64.43,60a.27.27,0,0,0-.27-.27h0a.27.27,0,0,0-.26.27,5.53,5.53,0,0,0,.84,2.77,6.53,6.53,0,0,0,2.3,2,.27.27,0,0,0,.12,0,.28.28,0,0,0,.24-.15.27.27,0,0,0-.13-.36A6.12,6.12,0,0,1,65.19,62.46Z"/><polygon class="cls-32" points="63.26 58.93 63.87 60.02 64.64 60.09 63.68 58.65 63.26 58.93"/><polygon class="cls-32" points="63.22 58.3 62.7 57.18 62.56 57.27 62.86 58.76 63.41 59.16 63.83 58.88 63.6 58.53 63.22 58.3"/><path class="cls-29" d="M64.82,59.36a.27.27,0,1,0-.2.5,5,5,0,0,1,2,1.66,6.12,6.12,0,0,1,.84,2.61.26.26,0,0,0,.26.26h0A.26.26,0,0,0,68,64.1a6.45,6.45,0,0,0-.93-2.88A5.65,5.65,0,0,0,64.82,59.36Z"/><polygon class="cls-32" points="63.68 58.65 64.64 60.09 64.87 59.35 64.11 58.37 63.68 58.65"/><polygon class="cls-32" points="62.85 57.08 62.7 57.18 63.54 58.09 63.6 58.53 63.83 58.88 64.26 58.59 64.1 57.93 62.85 57.08"/><path class="cls-3" d="M65.1,60a4,4,0,0,0-1.2,2.09A10.51,10.51,0,0,0,65,64c.17.09.52.26.62,0s-.31-.73-.17-.75a4.87,4.87,0,0,0,1.8-.66A2.38,2.38,0,0,1,68,62l-.14-2.1A11.37,11.37,0,0,0,65.1,60Z"/><rect class="cls-32" x="17.45" y="67.91" width="3.05" height="2.39"/><rect class="cls-32" x="20.75" y="72.59" width="3.03" height="21.54"/><circle class="cls-40" cx="30.05" cy="96.64" r="1.76"/><circle class="cls-40" cx="14.07" cy="96.64" r="1.76"/><path class="cls-32" d="M31.3,94.14H13.22a1.48,1.48,0,0,0-1.48,1.48h21A1.49,1.49,0,0,0,31.3,94.14Z"/><rect class="cls-44" x="21.24" y="74.47" width="0.76" height="19.66"/><rect class="cls-40" x="10.65" y="70.17" width="23.23" height="4.35" rx="1.69"/><path class="cls-7" d="M18.84,41.38a9.07,9.07,0,0,0-9,9V64.06a4.12,4.12,0,0,0,4.12,4.11h9.85a4.13,4.13,0,0,0,4.12-4.11V50.43A9.07,9.07,0,0,0,18.84,41.38Z"/><path class="cls-40" d="M20.06,43a7.07,7.07,0,0,0-7,7V63.39a3.22,3.22,0,0,0,3.21,3.21H23.9a3.22,3.22,0,0,0,3.21-3.21V50A7.07,7.07,0,0,0,20.06,43Z"/><rect class="cls-45" x="38.03" y="68.35" width="11" height="24.13"/><rect class="cls-40" x="38.95" y="82.47" width="9.13" height="9.06"/><rect class="cls-46" x="39.3" y="69.68" width="8.43" height="1.01"/><rect class="cls-46" x="39.3" y="72.05" width="8.43" height="1.01"/><path class="cls-47" d="M47.36,70.85a.33.33,0,1,0,.33.33A.33.33,0,0,0,47.36,70.85Z"/><path class="cls-47" d="M46.45,70.88a.32.32,0,0,0-.33.32.33.33,0,0,0,.66,0A.32.32,0,0,0,46.45,70.88Z"/><path class="cls-47" d="M47.49,90.38a.33.33,0,1,0,.33.33A.33.33,0,0,0,47.49,90.38Z"/><path class="cls-47" d="M46.58,90.41a.32.32,0,0,0-.33.32.33.33,0,0,0,.33.33.32.32,0,0,0,.32-.33A.32.32,0,0,0,46.58,90.41Z"/></g></g></g></svg>