<svg xmlns="http://www.w3.org/2000/svg" xmlns:xlink="http://www.w3.org/1999/xlink" viewBox="0 0 499 475.76"><defs><style>.cls-1,.cls-16{fill:none;}.cls-2{fill:#fea938;}.cls-2,.cls-6{opacity:0.3;}.cls-3{fill:#9fb4ff;}.cls-4{fill:#8195fa;}.cls-5{fill:#fff0f8;}.cls-17,.cls-6,.cls-7{fill:#2d2563;}.cls-8{fill:#1d194c;}.cls-9{clip-path:url(#clip-path);}.cls-10,.cls-20{fill:#fff;}.cls-11{clip-path:url(#clip-path-2);}.cls-12{clip-path:url(#clip-path-3);}.cls-13{clip-path:url(#clip-path-4);}.cls-14,.cls-19{fill:#f68;}.cls-15{clip-path:url(#clip-path-5);}.cls-16{stroke:#fce7f1;stroke-width:0.52px;}.cls-16,.cls-19{stroke-miterlimit:10;}.cls-17{opacity:0.4;}.cls-18{fill:#647edd;}.cls-19{stroke:#fff;stroke-width:4.75px;}.cls-20{font-size:61.78px;font-family:BebasNeueBold;}</style><clipPath id="clip-path"><rect class="cls-1" x="105.69" y="264.96" width="82.99" height="86.8"/></clipPath><clipPath id="clip-path-2"><rect class="cls-1" x="105.69" y="85.53" width="82.99" height="86.8"/></clipPath><clipPath id="clip-path-3"><rect class="cls-1" x="269.14" y="85.53" width="41.37" height="86.8"/></clipPath><clipPath id="clip-path-4"><rect class="cls-1" x="269.9" y="265.21" width="41.37" height="16.75"/></clipPath><clipPath id="clip-path-5"><polygon class="cls-1" points="238.43 387.55 190.46 387.55 190.46 256.97 78.16 257.35 78.16 181.21 190.46 181.59 190.46 49.49 238.43 49.49 238.43 387.55"/></clipPath></defs><g id="Capa_2" data-name="Capa 2"><g id="BACKGROUND"><path class="cls-2" d="M425.36,242.82c-76.22-9.42,22-173-125-228-133.91-50.1-240.75,34.27-272,142-38,131,47.72,255.6,47.72,255.6s302.35,91.32,372.28,21.4C514,368.23,514.36,253.82,425.36,242.82Z"/><path class="cls-3" d="M499,395.44c-71.72-5.15-157.42-8.14-249.5-8.14s-177.78,3-249.5,8.14v80.32H499Z"/><ellipse class="cls-4" cx="249.5" cy="413.61" rx="239.79" ry="26.31"/></g><g id="OBJECTS"><rect class="cls-5" x="78.54" y="54.06" width="112.69" height="333.49"/><rect class="cls-5" x="223.71" y="54.06" width="112.69" height="333.49"/><polygon class="cls-6" points="336.39 70.81 336.39 54.06 324.21 54.06 223.71 54.06 223.71 70.81 235.38 70.81 235.38 177.4 238.68 177.4 238.68 180.7 324.21 180.7 324.21 234.51 238.43 234.51 238.43 240.34 235.38 240.34 235.38 387.04 248.33 387.04 248.81 248.21 336.39 248.21 336.39 234.51 336.39 176.39 248.33 176.39 248.82 70.81 336.39 70.81"/><rect class="cls-7" x="221.42" y="51.86" width="124.11" height="10.49"/><rect class="cls-8" x="221.42" y="51.86" width="34.77" height="10.49"/><rect class="cls-7" x="76.25" y="51.86" width="124.11" height="10.49"/><rect class="cls-8" x="175.99" y="51.86" width="24.36" height="10.49"/><rect class="cls-5" x="238.05" y="387.17" width="105.83" height="12.56"/><rect class="cls-6" x="238.05" y="391.16" width="105.83" height="8.57"/><rect class="cls-5" x="238.05" y="398.97" width="111.16" height="12.56"/><rect class="cls-6" x="238.05" y="402.97" width="111.16" height="8.57"/><rect class="cls-2" x="105.69" y="264.96" width="82.99" height="86.8"/><g class="cls-9"><rect class="cls-10" x="155.38" y="234.51" width="24.35" height="123.73" transform="translate(-160.49 205.28) rotate(-45)"/><rect class="cls-10" x="140.18" y="236.66" width="2.22" height="143.7" transform="translate(-176.77 190.27) rotate(-45)"/><rect class="cls-10" x="115.06" y="259.89" width="2.22" height="143.7" transform="translate(-200.55 179.3) rotate(-45)"/><rect class="cls-10" x="167.97" y="204.68" width="2.22" height="143.7" transform="translate(-146.02 200.56) rotate(-45)"/><rect class="cls-10" x="128.14" y="245.13" width="11.64" height="143.7" transform="translate(-184.9 187.57) rotate(-45)"/></g><path class="cls-7" d="M104.17,263.44v89.85h86V263.44Zm83,9.52H148.71v-6.47h38.45Zm-41.5-6.47V273H107.21v-6.47ZM107.21,276h38.45v74.24H107.21Zm41.5,74.24V276h38.45v74.24Z"/><rect class="cls-10" x="106.7" y="83.75" width="82.99" height="86.8"/><rect class="cls-2" x="105.69" y="85.53" width="82.99" height="86.8"/><g class="cls-11"><rect class="cls-10" x="155.38" y="55.07" width="24.35" height="123.73" transform="translate(-33.61 152.73) rotate(-45)"/><rect class="cls-10" x="140.18" y="57.23" width="2.22" height="143.7" transform="translate(-49.89 137.71) rotate(-45)"/><rect class="cls-10" x="115.06" y="80.45" width="2.22" height="143.7" transform="translate(-73.67 126.75) rotate(-45)"/><rect class="cls-10" x="167.97" y="25.25" width="2.22" height="143.7" transform="translate(-19.13 148) rotate(-45)"/><rect class="cls-10" x="128.14" y="65.7" width="11.64" height="143.7" transform="translate(-58.02 135.01) rotate(-45)"/></g><path class="cls-7" d="M104.17,84v89.85h86V84Zm83,9.52H148.71V87.05h38.45Zm-41.5-6.47v6.47H107.21V87.05Zm-38.45,9.52h38.45V170.8H107.21Zm41.5,74.23V96.57h38.45V170.8Z"/><rect class="cls-10" x="270.15" y="83.75" width="40.86" height="86.8"/><rect class="cls-2" x="269.14" y="85.53" width="40.86" height="86.8"/><g class="cls-12"><rect class="cls-10" x="318.83" y="55.07" width="24.35" height="123.73" transform="translate(14.26 268.3) rotate(-45)"/><rect class="cls-10" x="303.63" y="57.23" width="2.22" height="143.7" transform="translate(-2.01 253.3) rotate(-45)"/><rect class="cls-10" x="278.5" y="80.45" width="2.22" height="143.7" transform="translate(-25.79 242.32) rotate(-45)"/><rect class="cls-10" x="331.42" y="25.25" width="2.22" height="143.7" transform="translate(28.74 263.58) rotate(-45)"/><rect class="cls-10" x="291.59" y="65.7" width="11.64" height="143.7" transform="translate(-10.15 250.58) rotate(-45)"/></g><path class="cls-7" d="M267.61,84v89.85h43.91V84Zm41.5,3v6.47H270.66V87.05Zm-38.45,9.52h38.45V170.8H270.66Z"/><rect class="cls-2" x="268.5" y="263.44" width="41.5" height="27.41"/><g class="cls-13"><rect class="cls-10" x="319.59" y="207.35" width="24.35" height="123.73" transform="translate(-93.19 313.44) rotate(-45)"/><rect class="cls-10" x="304.39" y="209.5" width="2.22" height="143.7" transform="translate(-109.47 298.43) rotate(-45)"/><rect class="cls-10" x="279.27" y="232.73" width="2.22" height="143.7" transform="translate(-133.25 287.47) rotate(-45)"/><rect class="cls-10" x="332.18" y="177.52" width="2.22" height="143.7" transform="translate(-78.71 308.71) rotate(-45)"/><rect class="cls-10" x="292.35" y="217.97" width="11.64" height="143.7" transform="translate(-117.6 295.72) rotate(-45)"/></g><path class="cls-7" d="M267.61,263.69V387.17h43.91V263.69Zm41.5,3.05v13.7H270.66v-13.7Z"/><polygon class="cls-14" points="238.43 387.55 190.46 387.55 190.46 256.97 78.16 257.35 78.16 181.21 190.46 181.59 190.46 49.49 238.43 49.49 238.43 387.55"/><g class="cls-15"><rect class="cls-16" x="184.12" y="56.13" width="17.62" height="5.18"/><rect class="cls-16" x="201.73" y="56.13" width="17.62" height="5.18"/><rect class="cls-16" x="219.44" y="56.13" width="17.62" height="5.18"/><rect class="cls-16" x="237.05" y="56.13" width="17.62" height="5.18"/><rect class="cls-16" x="191.48" y="61.26" width="17.62" height="5.18"/><rect class="cls-16" x="209.1" y="61.26" width="17.62" height="5.18"/><rect class="cls-16" x="226.8" y="61.26" width="17.62" height="5.18"/><rect class="cls-16" x="244.42" y="61.26" width="17.62" height="5.18"/><rect class="cls-16" x="184.12" y="66.43" width="17.62" height="5.18"/><rect class="cls-16" x="201.73" y="66.43" width="17.62" height="5.18"/><rect class="cls-16" x="219.44" y="66.43" width="17.62" height="5.18"/><rect class="cls-16" x="237.05" y="66.43" width="17.62" height="5.18"/><rect class="cls-16" x="191.48" y="71.68" width="17.62" height="5.18"/><rect class="cls-16" x="209.1" y="71.68" width="17.62" height="5.18"/><rect class="cls-16" x="226.8" y="71.68" width="17.62" height="5.18"/><rect class="cls-16" x="244.42" y="71.68" width="17.62" height="5.18"/><rect class="cls-16" x="184.12" y="77.08" width="17.62" height="5.18"/><rect class="cls-16" x="201.73" y="77.08" width="17.62" height="5.18"/><rect class="cls-16" x="219.44" y="77.08" width="17.62" height="5.18"/><rect class="cls-16" x="237.05" y="77.08" width="17.62" height="5.18"/><rect class="cls-16" x="191.48" y="82.21" width="17.62" height="5.18"/><rect class="cls-16" x="209.1" y="82.21" width="17.62" height="5.18"/><rect class="cls-16" x="226.8" y="82.21" width="17.62" height="5.18"/><rect class="cls-16" x="244.42" y="82.21" width="17.62" height="5.18"/><rect class="cls-16" x="184.12" y="87.38" width="17.62" height="5.18"/><rect class="cls-16" x="201.73" y="87.38" width="17.62" height="5.18"/><rect class="cls-16" x="219.44" y="87.38" width="17.62" height="5.18"/><rect class="cls-16" x="237.05" y="87.38" width="17.62" height="5.18"/><rect class="cls-16" x="191.48" y="92.62" width="17.62" height="5.18"/><rect class="cls-16" x="209.1" y="92.62" width="17.62" height="5.18"/><rect class="cls-16" x="226.8" y="92.62" width="17.62" height="5.18"/><rect class="cls-16" x="244.42" y="92.62" width="17.62" height="5.18"/><rect class="cls-16" x="184.12" y="97.79" width="17.62" height="5.18"/><rect class="cls-16" x="201.73" y="97.79" width="17.62" height="5.18"/><rect class="cls-16" x="219.44" y="97.79" width="17.62" height="5.18"/><rect class="cls-16" x="237.05" y="97.79" width="17.62" height="5.18"/><rect class="cls-16" x="191.48" y="102.92" width="17.62" height="5.18"/><rect class="cls-16" x="209.1" y="102.92" width="17.62" height="5.18"/><rect class="cls-16" x="226.8" y="102.92" width="17.62" height="5.18"/><rect class="cls-16" x="244.42" y="102.92" width="17.62" height="5.18"/><rect class="cls-16" x="184.12" y="108.09" width="17.62" height="5.18"/><rect class="cls-16" x="201.73" y="108.09" width="17.62" height="5.18"/><rect class="cls-16" x="219.44" y="108.09" width="17.62" height="5.18"/><rect class="cls-16" x="237.05" y="108.09" width="17.62" height="5.18"/><rect class="cls-16" x="191.48" y="113.33" width="17.62" height="5.18"/><rect class="cls-16" x="209.1" y="113.33" width="17.62" height="5.18"/><rect class="cls-16" x="226.8" y="113.33" width="17.62" height="5.18"/><rect class="cls-16" x="244.42" y="113.33" width="17.62" height="5.18"/><rect class="cls-16" x="184.12" y="118.73" width="17.62" height="5.18"/><rect class="cls-16" x="201.73" y="118.73" width="17.62" height="5.18"/><rect class="cls-16" x="219.44" y="118.73" width="17.62" height="5.18"/><rect class="cls-16" x="237.05" y="118.73" width="17.62" height="5.18"/><rect class="cls-16" x="191.48" y="123.86" width="17.62" height="5.18"/><rect class="cls-16" x="209.1" y="123.86" width="17.62" height="5.18"/><rect class="cls-16" x="226.8" y="123.86" width="17.62" height="5.18"/><rect class="cls-16" x="244.42" y="123.86" width="17.62" height="5.18"/><rect class="cls-16" x="184.12" y="129.03" width="17.62" height="5.18"/><rect class="cls-16" x="201.73" y="129.03" width="17.62" height="5.18"/><rect class="cls-16" x="219.44" y="129.03" width="17.62" height="5.18"/><rect class="cls-16" x="237.05" y="129.03" width="17.62" height="5.18"/><rect class="cls-16" x="191.48" y="134.28" width="17.62" height="5.18"/><rect class="cls-16" x="209.1" y="134.28" width="17.62" height="5.18"/><rect class="cls-16" x="226.8" y="134.28" width="17.62" height="5.18"/><rect class="cls-16" x="244.42" y="134.28" width="17.62" height="5.18"/><rect class="cls-16" x="184.12" y="139.58" width="17.62" height="5.18"/><rect class="cls-16" x="201.73" y="139.58" width="17.62" height="5.18"/><rect class="cls-16" x="219.44" y="139.58" width="17.62" height="5.18"/><rect class="cls-16" x="237.05" y="139.58" width="17.62" height="5.18"/><rect class="cls-16" x="191.48" y="144.71" width="17.62" height="5.18"/><rect class="cls-16" x="209.1" y="144.71" width="17.62" height="5.18"/><rect class="cls-16" x="226.8" y="144.71" width="17.62" height="5.18"/><rect class="cls-16" x="244.42" y="144.71" width="17.62" height="5.18"/><rect class="cls-16" x="184.12" y="149.88" width="17.62" height="5.18"/><rect class="cls-16" x="201.73" y="149.88" width="17.62" height="5.18"/><rect class="cls-16" x="219.44" y="149.88" width="17.62" height="5.18"/><rect class="cls-16" x="237.05" y="149.88" width="17.62" height="5.18"/><rect class="cls-16" x="191.48" y="155.13" width="17.62" height="5.18"/><rect class="cls-16" x="209.1" y="155.13" width="17.62" height="5.18"/><rect class="cls-16" x="226.8" y="155.13" width="17.62" height="5.18"/><rect class="cls-16" x="244.42" y="155.13" width="17.62" height="5.18"/><rect class="cls-16" x="184.12" y="160.52" width="17.62" height="5.18"/><rect class="cls-16" x="201.73" y="160.52" width="17.62" height="5.18"/><rect class="cls-16" x="219.44" y="160.52" width="17.62" height="5.18"/><rect class="cls-16" x="237.05" y="160.52" width="17.62" height="5.18"/><rect class="cls-16" x="191.48" y="165.65" width="17.62" height="5.18"/><rect class="cls-16" x="209.1" y="165.65" width="17.62" height="5.18"/><rect class="cls-16" x="226.8" y="165.65" width="17.62" height="5.18"/><rect class="cls-16" x="244.42" y="165.65" width="17.62" height="5.18"/><rect class="cls-16" x="184.12" y="170.82" width="17.62" height="5.18"/><rect class="cls-16" x="201.73" y="170.82" width="17.62" height="5.18"/><rect class="cls-16" x="219.44" y="170.82" width="17.62" height="5.18"/><rect class="cls-16" x="237.05" y="170.82" width="17.62" height="5.18"/><rect class="cls-16" x="191.48" y="176.07" width="17.62" height="5.18"/><rect class="cls-16" x="209.1" y="176.07" width="17.62" height="5.18"/><rect class="cls-16" x="226.8" y="176.07" width="17.62" height="5.18"/><rect class="cls-16" x="244.42" y="176.07" width="17.62" height="5.18"/><rect class="cls-16" x="184.12" y="181.24" width="17.62" height="5.18"/><rect class="cls-16" x="201.73" y="181.24" width="17.62" height="5.18"/><rect class="cls-16" x="219.44" y="181.24" width="17.62" height="5.18"/><rect class="cls-16" x="237.05" y="181.24" width="17.62" height="5.18"/><rect class="cls-16" x="191.48" y="186.37" width="17.62" height="5.18"/><rect class="cls-16" x="209.1" y="186.37" width="17.62" height="5.18"/><rect class="cls-16" x="226.8" y="186.37" width="17.62" height="5.18"/><rect class="cls-16" x="244.42" y="186.37" width="17.62" height="5.18"/><rect class="cls-16" x="184.12" y="191.54" width="17.62" height="5.18"/><rect class="cls-16" x="201.73" y="191.54" width="17.62" height="5.18"/><rect class="cls-16" x="219.44" y="191.54" width="17.62" height="5.18"/><rect class="cls-16" x="237.05" y="191.54" width="17.62" height="5.18"/><rect class="cls-16" x="191.48" y="196.78" width="17.62" height="5.18"/><rect class="cls-16" x="209.1" y="196.78" width="17.62" height="5.18"/><rect class="cls-16" x="226.8" y="196.78" width="17.62" height="5.18"/><rect class="cls-16" x="244.42" y="196.78" width="17.62" height="5.18"/><rect class="cls-16" x="184.12" y="202.18" width="17.62" height="5.18"/><rect class="cls-16" x="201.73" y="202.18" width="17.62" height="5.18"/><rect class="cls-16" x="219.44" y="202.18" width="17.62" height="5.18"/><rect class="cls-16" x="237.05" y="202.18" width="17.62" height="5.18"/><rect class="cls-16" x="191.48" y="207.31" width="17.62" height="5.18"/><rect class="cls-16" x="209.1" y="207.31" width="17.62" height="5.18"/><rect class="cls-16" x="226.8" y="207.31" width="17.62" height="5.18"/><rect class="cls-16" x="244.42" y="207.31" width="17.62" height="5.18"/><rect class="cls-16" x="184.12" y="212.48" width="17.62" height="5.18"/><rect class="cls-16" x="201.73" y="212.48" width="17.62" height="5.18"/><rect class="cls-16" x="219.44" y="212.48" width="17.62" height="5.18"/><rect class="cls-16" x="237.05" y="212.48" width="17.62" height="5.18"/><rect class="cls-16" x="191.48" y="217.72" width="17.62" height="5.18"/><rect class="cls-16" x="209.1" y="217.72" width="17.62" height="5.18"/><rect class="cls-16" x="226.8" y="217.72" width="17.62" height="5.18"/><rect class="cls-16" x="244.42" y="217.72" width="17.62" height="5.18"/><rect class="cls-16" x="184.12" y="223.03" width="17.62" height="5.18"/><rect class="cls-16" x="201.73" y="223.03" width="17.62" height="5.18"/><rect class="cls-16" x="219.44" y="223.03" width="17.62" height="5.18"/><rect class="cls-16" x="237.05" y="223.03" width="17.62" height="5.18"/><rect class="cls-16" x="191.48" y="228.16" width="17.62" height="5.18"/><rect class="cls-16" x="209.1" y="228.16" width="17.62" height="5.18"/><rect class="cls-16" x="226.8" y="228.16" width="17.62" height="5.18"/><rect class="cls-16" x="244.42" y="228.16" width="17.62" height="5.18"/><rect class="cls-16" x="184.12" y="233.33" width="17.62" height="5.18"/><rect class="cls-16" x="201.73" y="233.33" width="17.62" height="5.18"/><rect class="cls-16" x="219.44" y="233.33" width="17.62" height="5.18"/><rect class="cls-16" x="237.05" y="233.33" width="17.62" height="5.18"/><rect class="cls-16" x="191.48" y="238.57" width="17.62" height="5.18"/><rect class="cls-16" x="209.1" y="238.57" width="17.62" height="5.18"/><rect class="cls-16" x="226.8" y="238.57" width="17.62" height="5.18"/><rect class="cls-16" x="244.42" y="238.57" width="17.62" height="5.18"/><rect class="cls-16" x="184.12" y="243.97" width="17.62" height="5.18"/><rect class="cls-16" x="201.73" y="243.97" width="17.62" height="5.18"/><rect class="cls-16" x="219.44" y="243.97" width="17.62" height="5.18"/><rect class="cls-16" x="237.05" y="243.97" width="17.62" height="5.18"/><rect class="cls-16" x="191.48" y="249.1" width="17.62" height="5.18"/><rect class="cls-16" x="209.1" y="249.1" width="17.62" height="5.18"/><rect class="cls-16" x="226.8" y="249.1" width="17.62" height="5.18"/><rect class="cls-16" x="244.42" y="249.1" width="17.62" height="5.18"/><rect class="cls-16" x="184.12" y="254.27" width="17.62" height="5.18"/><rect class="cls-16" x="201.73" y="254.27" width="17.62" height="5.18"/><rect class="cls-16" x="219.44" y="254.27" width="17.62" height="5.18"/><rect class="cls-16" x="237.05" y="254.27" width="17.62" height="5.18"/><rect class="cls-16" x="191.48" y="259.52" width="17.62" height="5.18"/><rect class="cls-16" x="209.1" y="259.52" width="17.62" height="5.18"/><rect class="cls-16" x="226.8" y="259.52" width="17.62" height="5.18"/><rect class="cls-16" x="244.42" y="259.52" width="17.62" height="5.18"/><rect class="cls-16" x="113.31" y="181.24" width="17.62" height="5.18"/><rect class="cls-16" x="130.92" y="181.24" width="17.62" height="5.18"/><rect class="cls-16" x="148.63" y="181.24" width="17.62" height="5.18"/><rect class="cls-16" x="166.24" y="181.24" width="17.62" height="5.18"/><rect class="cls-16" x="120.67" y="186.37" width="17.62" height="5.18"/><rect class="cls-16" x="138.29" y="186.37" width="17.62" height="5.18"/><rect class="cls-16" x="155.99" y="186.37" width="17.62" height="5.18"/><rect class="cls-16" x="173.61" y="186.37" width="17.62" height="5.18"/><rect class="cls-16" x="113.31" y="191.54" width="17.62" height="5.18"/><rect class="cls-16" x="130.92" y="191.54" width="17.62" height="5.18"/><rect class="cls-16" x="148.63" y="191.54" width="17.62" height="5.18"/><rect class="cls-16" x="166.24" y="191.54" width="17.62" height="5.18"/><rect class="cls-16" x="120.67" y="196.78" width="17.62" height="5.18"/><rect class="cls-16" x="138.29" y="196.78" width="17.62" height="5.18"/><rect class="cls-16" x="155.99" y="196.78" width="17.62" height="5.18"/><rect class="cls-16" x="173.61" y="196.78" width="17.62" height="5.18"/><rect class="cls-16" x="113.31" y="202.18" width="17.62" height="5.18"/><rect class="cls-16" x="130.92" y="202.18" width="17.62" height="5.18"/><rect class="cls-16" x="148.63" y="202.18" width="17.62" height="5.18"/><rect class="cls-16" x="166.24" y="202.18" width="17.62" height="5.18"/><rect class="cls-16" x="120.67" y="207.31" width="17.62" height="5.18"/><rect class="cls-16" x="138.29" y="207.31" width="17.62" height="5.18"/><rect class="cls-16" x="155.99" y="207.31" width="17.62" height="5.18"/><rect class="cls-16" x="173.61" y="207.31" width="17.62" height="5.18"/><rect class="cls-16" x="113.31" y="212.48" width="17.62" height="5.18"/><rect class="cls-16" x="130.92" y="212.48" width="17.62" height="5.18"/><rect class="cls-16" x="148.63" y="212.48" width="17.62" height="5.18"/><rect class="cls-16" x="166.24" y="212.48" width="17.62" height="5.18"/><rect class="cls-16" x="120.67" y="217.72" width="17.62" height="5.18"/><rect class="cls-16" x="138.29" y="217.72" width="17.62" height="5.18"/><rect class="cls-16" x="155.99" y="217.72" width="17.62" height="5.18"/><rect class="cls-16" x="173.61" y="217.72" width="17.62" height="5.18"/><rect class="cls-16" x="113.31" y="223.03" width="17.62" height="5.18"/><rect class="cls-16" x="130.92" y="223.03" width="17.62" height="5.18"/><rect class="cls-16" x="148.63" y="223.03" width="17.62" height="5.18"/><rect class="cls-16" x="166.24" y="223.03" width="17.62" height="5.18"/><rect class="cls-16" x="120.67" y="228.16" width="17.62" height="5.18"/><rect class="cls-16" x="138.29" y="228.16" width="17.62" height="5.18"/><rect class="cls-16" x="155.99" y="228.16" width="17.62" height="5.18"/><rect class="cls-16" x="173.61" y="228.16" width="17.62" height="5.18"/><rect class="cls-16" x="113.31" y="233.33" width="17.62" height="5.18"/><rect class="cls-16" x="130.92" y="233.33" width="17.62" height="5.18"/><rect class="cls-16" x="148.63" y="233.33" width="17.62" height="5.18"/><rect class="cls-16" x="166.24" y="233.33" width="17.62" height="5.18"/><rect class="cls-16" x="120.67" y="238.57" width="17.62" height="5.18"/><rect class="cls-16" x="138.29" y="238.57" width="17.62" height="5.18"/><rect class="cls-16" x="155.99" y="238.57" width="17.62" height="5.18"/><rect class="cls-16" x="173.61" y="238.57" width="17.62" height="5.18"/><rect class="cls-16" x="113.31" y="243.97" width="17.62" height="5.18"/><rect class="cls-16" x="130.92" y="243.97" width="17.62" height="5.18"/><rect class="cls-16" x="148.63" y="243.97" width="17.62" height="5.18"/><rect class="cls-16" x="166.24" y="243.97" width="17.62" height="5.18"/><rect class="cls-16" x="120.67" y="249.1" width="17.62" height="5.18"/><rect class="cls-16" x="138.29" y="249.1" width="17.62" height="5.18"/><rect class="cls-16" x="155.99" y="249.1" width="17.62" height="5.18"/><rect class="cls-16" x="173.61" y="249.1" width="17.62" height="5.18"/><rect class="cls-16" x="113.31" y="254.27" width="17.62" height="5.18"/><rect class="cls-16" x="130.92" y="254.27" width="17.62" height="5.18"/><rect class="cls-16" x="148.63" y="254.27" width="17.62" height="5.18"/><rect class="cls-16" x="166.24" y="254.27" width="17.62" height="5.18"/><rect class="cls-16" x="120.67" y="259.52" width="17.62" height="5.18"/><rect class="cls-16" x="138.29" y="259.52" width="17.62" height="5.18"/><rect class="cls-16" x="155.99" y="259.52" width="17.62" height="5.18"/><rect class="cls-16" x="173.61" y="259.52" width="17.62" height="5.18"/><rect class="cls-16" x="42.88" y="181.24" width="17.62" height="5.18"/><rect class="cls-16" x="60.49" y="181.24" width="17.62" height="5.18"/><rect class="cls-16" x="78.2" y="181.24" width="17.62" height="5.18"/><rect class="cls-16" x="95.81" y="181.24" width="17.62" height="5.18"/><rect class="cls-16" x="50.24" y="186.37" width="17.62" height="5.18"/><rect class="cls-16" x="67.86" y="186.37" width="17.62" height="5.18"/><rect class="cls-16" x="85.56" y="186.37" width="17.62" height="5.18"/><rect class="cls-16" x="103.18" y="186.37" width="17.62" height="5.18"/><rect class="cls-16" x="42.88" y="191.54" width="17.62" height="5.18"/><rect class="cls-16" x="60.49" y="191.54" width="17.62" height="5.18"/><rect class="cls-16" x="78.2" y="191.54" width="17.62" height="5.18"/><rect class="cls-16" x="95.81" y="191.54" width="17.62" height="5.18"/><rect class="cls-16" x="50.24" y="196.78" width="17.62" height="5.18"/><rect class="cls-16" x="67.86" y="196.78" width="17.62" height="5.18"/><rect class="cls-16" x="85.56" y="196.78" width="17.62" height="5.18"/><rect class="cls-16" x="103.18" y="196.78" width="17.62" height="5.18"/><rect class="cls-16" x="42.88" y="202.18" width="17.62" height="5.18"/><rect class="cls-16" x="60.49" y="202.18" width="17.62" height="5.18"/><rect class="cls-16" x="78.2" y="202.18" width="17.62" height="5.18"/><rect class="cls-16" x="95.81" y="202.18" width="17.62" height="5.18"/><rect class="cls-16" x="50.24" y="207.31" width="17.62" height="5.18"/><rect class="cls-16" x="67.86" y="207.31" width="17.62" height="5.18"/><rect class="cls-16" x="85.56" y="207.31" width="17.62" height="5.18"/><rect class="cls-16" x="103.18" y="207.31" width="17.62" height="5.18"/><rect class="cls-16" x="42.88" y="212.48" width="17.62" height="5.18"/><rect class="cls-16" x="60.49" y="212.48" width="17.62" height="5.18"/><rect class="cls-16" x="78.2" y="212.48" width="17.62" height="5.18"/><rect class="cls-16" x="95.81" y="212.48" width="17.62" height="5.18"/><rect class="cls-16" x="50.24" y="217.72" width="17.62" height="5.18"/><rect class="cls-16" x="67.86" y="217.72" width="17.62" height="5.18"/><rect class="cls-16" x="85.56" y="217.72" width="17.62" height="5.18"/><rect class="cls-16" x="103.18" y="217.72" width="17.62" height="5.18"/><rect class="cls-16" x="42.88" y="223.03" width="17.62" height="5.18"/><rect class="cls-16" x="60.49" y="223.03" width="17.62" height="5.18"/><rect class="cls-16" x="78.2" y="223.03" width="17.62" height="5.18"/><rect class="cls-16" x="95.81" y="223.03" width="17.62" height="5.18"/><rect class="cls-16" x="50.24" y="228.16" width="17.62" height="5.18"/><rect class="cls-16" x="67.86" y="228.16" width="17.62" height="5.18"/><rect class="cls-16" x="85.56" y="228.16" width="17.62" height="5.18"/><rect class="cls-16" x="103.18" y="228.16" width="17.62" height="5.18"/><rect class="cls-16" x="42.88" y="233.33" width="17.62" height="5.18"/><rect class="cls-16" x="60.49" y="233.33" width="17.62" height="5.18"/><rect class="cls-16" x="78.2" y="233.33" width="17.62" height="5.18"/><rect class="cls-16" x="95.81" y="233.33" width="17.62" height="5.18"/><rect class="cls-16" x="50.24" y="238.57" width="17.62" height="5.18"/><rect class="cls-16" x="67.86" y="238.57" width="17.62" height="5.18"/><rect class="cls-16" x="85.56" y="238.57" width="17.62" height="5.18"/><rect class="cls-16" x="103.18" y="238.57" width="17.62" height="5.18"/><rect class="cls-16" x="42.88" y="243.97" width="17.62" height="5.18"/><rect class="cls-16" x="60.49" y="243.97" width="17.62" height="5.18"/><rect class="cls-16" x="78.2" y="243.97" width="17.62" height="5.18"/><rect class="cls-16" x="95.81" y="243.97" width="17.62" height="5.18"/><rect class="cls-16" x="50.24" y="249.1" width="17.62" height="5.18"/><rect class="cls-16" x="67.86" y="249.1" width="17.62" height="5.18"/><rect class="cls-16" x="85.56" y="249.1" width="17.62" height="5.18"/><rect class="cls-16" x="103.18" y="249.1" width="17.62" height="5.18"/><rect class="cls-16" x="42.88" y="254.27" width="17.62" height="5.18"/><rect class="cls-16" x="60.49" y="254.27" width="17.62" height="5.18"/><rect class="cls-16" x="78.2" y="254.27" width="17.62" height="5.18"/><rect class="cls-16" x="95.81" y="254.27" width="17.62" height="5.18"/><rect class="cls-16" x="50.24" y="259.52" width="17.62" height="5.18"/><rect class="cls-16" x="67.86" y="259.52" width="17.62" height="5.18"/><rect class="cls-16" x="85.56" y="259.52" width="17.62" height="5.18"/><rect class="cls-16" x="103.18" y="259.52" width="17.62" height="5.18"/><rect class="cls-16" x="184.12" y="264.68" width="17.62" height="5.18"/><rect class="cls-16" x="201.73" y="264.68" width="17.62" height="5.18"/><rect class="cls-16" x="219.44" y="264.68" width="17.62" height="5.18"/><rect class="cls-16" x="237.05" y="264.68" width="17.62" height="5.18"/><rect class="cls-16" x="191.48" y="269.82" width="17.62" height="5.18"/><rect class="cls-16" x="209.1" y="269.82" width="17.62" height="5.18"/><rect class="cls-16" x="226.8" y="269.82" width="17.62" height="5.18"/><rect class="cls-16" x="244.42" y="269.82" width="17.62" height="5.18"/><rect class="cls-16" x="184.12" y="274.99" width="17.62" height="5.18"/><rect class="cls-16" x="201.73" y="274.99" width="17.62" height="5.18"/><rect class="cls-16" x="219.44" y="274.99" width="17.62" height="5.18"/><rect class="cls-16" x="237.05" y="274.99" width="17.62" height="5.18"/><rect class="cls-16" x="191.48" y="280.23" width="17.62" height="5.18"/><rect class="cls-16" x="209.1" y="280.23" width="17.62" height="5.18"/><rect class="cls-16" x="226.8" y="280.23" width="17.62" height="5.18"/><rect class="cls-16" x="244.42" y="280.23" width="17.62" height="5.18"/><rect class="cls-16" x="184.12" y="285.63" width="17.62" height="5.18"/><rect class="cls-16" x="201.73" y="285.63" width="17.62" height="5.18"/><rect class="cls-16" x="219.44" y="285.63" width="17.62" height="5.18"/><rect class="cls-16" x="237.05" y="285.63" width="17.62" height="5.18"/><rect class="cls-16" x="191.48" y="290.76" width="17.62" height="5.18"/><rect class="cls-16" x="209.1" y="290.76" width="17.62" height="5.18"/><rect class="cls-16" x="226.8" y="290.76" width="17.62" height="5.18"/><rect class="cls-16" x="244.42" y="290.76" width="17.62" height="5.18"/><rect class="cls-16" x="184.12" y="295.93" width="17.62" height="5.18"/><rect class="cls-16" x="201.73" y="295.93" width="17.62" height="5.18"/><rect class="cls-16" x="219.44" y="295.93" width="17.62" height="5.18"/><rect class="cls-16" x="237.05" y="295.93" width="17.62" height="5.18"/><rect class="cls-16" x="191.48" y="301.17" width="17.62" height="5.18"/><rect class="cls-16" x="209.1" y="301.17" width="17.62" height="5.18"/><rect class="cls-16" x="226.8" y="301.17" width="17.62" height="5.18"/><rect class="cls-16" x="244.42" y="301.17" width="17.62" height="5.18"/><rect class="cls-16" x="184.12" y="306.48" width="17.62" height="5.18"/><rect class="cls-16" x="201.73" y="306.48" width="17.62" height="5.18"/><rect class="cls-16" x="219.44" y="306.48" width="17.62" height="5.18"/><rect class="cls-16" x="237.05" y="306.48" width="17.62" height="5.18"/><rect class="cls-16" x="191.48" y="311.61" width="17.62" height="5.18"/><rect class="cls-16" x="209.1" y="311.61" width="17.62" height="5.18"/><rect class="cls-16" x="226.8" y="311.61" width="17.62" height="5.18"/><rect class="cls-16" x="244.42" y="311.61" width="17.62" height="5.18"/><rect class="cls-16" x="184.12" y="316.78" width="17.62" height="5.18"/><rect class="cls-16" x="201.73" y="316.78" width="17.62" height="5.18"/><rect class="cls-16" x="219.44" y="316.78" width="17.62" height="5.18"/><rect class="cls-16" x="237.05" y="316.78" width="17.62" height="5.18"/><rect class="cls-16" x="191.48" y="322.02" width="17.62" height="5.18"/><rect class="cls-16" x="209.1" y="322.02" width="17.62" height="5.18"/><rect class="cls-16" x="226.8" y="322.02" width="17.62" height="5.18"/><rect class="cls-16" x="244.42" y="322.02" width="17.62" height="5.18"/><rect class="cls-16" x="184.12" y="327.42" width="17.62" height="5.18"/><rect class="cls-16" x="201.73" y="327.42" width="17.62" height="5.18"/><rect class="cls-16" x="219.44" y="327.42" width="17.62" height="5.18"/><rect class="cls-16" x="237.05" y="327.42" width="17.62" height="5.18"/><rect class="cls-16" x="191.48" y="332.55" width="17.62" height="5.18"/><rect class="cls-16" x="209.1" y="332.55" width="17.62" height="5.18"/><rect class="cls-16" x="226.8" y="332.55" width="17.62" height="5.18"/><rect class="cls-16" x="244.42" y="332.55" width="17.62" height="5.18"/><rect class="cls-16" x="184.12" y="337.72" width="17.62" height="5.18"/><rect class="cls-16" x="201.73" y="337.72" width="17.62" height="5.18"/><rect class="cls-16" x="219.44" y="337.72" width="17.62" height="5.18"/><rect class="cls-16" x="237.05" y="337.72" width="17.62" height="5.18"/><rect class="cls-16" x="191.48" y="342.96" width="17.62" height="5.18"/><rect class="cls-16" x="209.1" y="342.96" width="17.62" height="5.18"/><rect class="cls-16" x="226.8" y="342.96" width="17.62" height="5.18"/><rect class="cls-16" x="244.42" y="342.96" width="17.62" height="5.18"/><rect class="cls-16" x="184.12" y="348.13" width="17.62" height="5.18"/><rect class="cls-16" x="201.73" y="348.13" width="17.62" height="5.18"/><rect class="cls-16" x="219.44" y="348.13" width="17.62" height="5.18"/><rect class="cls-16" x="237.05" y="348.13" width="17.62" height="5.18"/><rect class="cls-16" x="191.48" y="353.26" width="17.62" height="5.18"/><rect class="cls-16" x="209.1" y="353.26" width="17.62" height="5.18"/><rect class="cls-16" x="226.8" y="353.26" width="17.62" height="5.18"/><rect class="cls-16" x="244.42" y="353.26" width="17.62" height="5.18"/><rect class="cls-16" x="184.12" y="358.43" width="17.62" height="5.18"/><rect class="cls-16" x="201.73" y="358.43" width="17.62" height="5.18"/><rect class="cls-16" x="219.44" y="358.43" width="17.62" height="5.18"/><rect class="cls-16" x="237.05" y="358.43" width="17.62" height="5.18"/><rect class="cls-16" x="191.48" y="363.68" width="17.62" height="5.18"/><rect class="cls-16" x="209.1" y="363.68" width="17.62" height="5.18"/><rect class="cls-16" x="226.8" y="363.68" width="17.62" height="5.18"/><rect class="cls-16" x="244.42" y="363.68" width="17.62" height="5.18"/><rect class="cls-16" x="184.12" y="369.07" width="17.62" height="5.18"/><rect class="cls-16" x="201.73" y="369.07" width="17.62" height="5.18"/><rect class="cls-16" x="219.44" y="369.07" width="17.62" height="5.18"/><rect class="cls-16" x="237.05" y="369.07" width="17.62" height="5.18"/><rect class="cls-16" x="191.48" y="374.2" width="17.62" height="5.18"/><rect class="cls-16" x="209.1" y="374.2" width="17.62" height="5.18"/><rect class="cls-16" x="226.8" y="374.2" width="17.62" height="5.18"/><rect class="cls-16" x="244.42" y="374.2" width="17.62" height="5.18"/><rect class="cls-16" x="184.12" y="379.37" width="17.62" height="5.18"/><rect class="cls-16" x="201.73" y="379.37" width="17.62" height="5.18"/><rect class="cls-16" x="219.44" y="379.37" width="17.62" height="5.18"/><rect class="cls-16" x="237.05" y="379.37" width="17.62" height="5.18"/><rect class="cls-16" x="191.48" y="384.62" width="17.62" height="5.18"/><rect class="cls-16" x="209.1" y="384.62" width="17.62" height="5.18"/><rect class="cls-16" x="226.8" y="384.62" width="17.62" height="5.18"/><rect class="cls-16" x="244.42" y="384.62" width="17.62" height="5.18"/></g><rect class="cls-17" x="190.46" y="49.49" width="47.97" height="13.71"/><polygon class="cls-6" points="238.43 234.51 191.22 234.51 191.22 70.81 191.22 54.06 179.04 54.06 78.54 54.06 78.54 70.81 179.04 70.81 179.04 173.34 104.67 173.34 104.67 177.66 179.04 177.66 179.04 234.51 172.69 234.51 172.69 248.21 179.04 248.21 179.04 352.78 104.67 352.78 104.67 357.09 179.04 357.09 179.04 387.58 191.22 387.58 191.22 248.21 238.43 248.21 238.43 234.51"/><rect class="cls-5" x="169.14" y="183.59" width="188.06" height="56.24"/><rect class="cls-7" x="166.86" y="179.69" width="194.16" height="9.37"/><rect class="cls-7" x="184.37" y="45" width="58.63" height="10.49"/><path class="cls-18" d="M77.49,353.28s7.29,18.39,2.62,42.89l-5.83-1.45S71.65,370.21,77.49,353.28Z"/><path class="cls-4" d="M80.7,393.84s-1.46-27.43,10.21-36.76c0,0-2.34,28-3.8,38.8Z"/><path class="cls-4" d="M77.66,396.17s1.4-27.42-9.8-36.76c0,0,2.24,28,3.64,38.81Z"/><path class="cls-3" d="M82.45,397.63S80.7,374,96.74,365c0,0-8.46,21.29-7.58,30.34S82.45,397.63,82.45,397.63Z"/><path class="cls-3" d="M75.92,398.87s1.7-20.1-13.9-27.79c0,0,8.23,18.11,7.37,25.8S75.92,398.87,75.92,398.87Z"/><path class="cls-18" d="M123.51,353.28s7.29,18.39,2.62,42.89l-5.83-1.45S117.67,370.21,123.51,353.28Z"/><path class="cls-4" d="M126.72,393.84s-1.46-27.43,10.21-36.76c0,0-2.33,28-3.79,38.8Z"/><path class="cls-4" d="M123.69,396.17s1.4-27.42-9.81-36.76c0,0,2.24,28,3.64,38.81Z"/><path class="cls-3" d="M128.47,397.63S126.72,374,142.76,365c0,0-8.46,21.29-7.58,30.34S128.47,397.63,128.47,397.63Z"/><path class="cls-3" d="M121.94,398.87s1.7-20.1-13.9-27.79c0,0,8.23,18.11,7.38,25.8S121.94,398.87,121.94,398.87Z"/><path class="cls-18" d="M169.53,353.28s7.29,18.39,2.63,42.89l-5.84-1.45S163.69,370.21,169.53,353.28Z"/><path class="cls-4" d="M172.74,393.84s-1.46-27.43,10.21-36.76c0,0-2.33,28-3.79,38.8Z"/><path class="cls-4" d="M169.71,396.17s1.4-27.42-9.81-36.76c0,0,2.24,28,3.64,38.81Z"/><path class="cls-3" d="M174.49,397.63S172.74,374,188.79,365c0,0-8.46,21.29-7.59,30.34S174.49,397.63,174.49,397.63Z"/><path class="cls-3" d="M168,398.87s1.7-20.1-13.89-27.79c0,0,8.22,18.11,7.37,25.8S168,398.87,168,398.87Z"/><path class="cls-18" d="M215.55,353.28s7.3,18.39,2.63,42.89l-5.84-1.45S209.72,370.21,215.55,353.28Z"/><path class="cls-4" d="M218.76,393.84S217.3,366.41,229,357.08c0,0-2.33,28-3.79,38.8Z"/><path class="cls-4" d="M215.73,396.17s1.4-27.42-9.81-36.76c0,0,2.25,28,3.65,38.81Z"/><path class="cls-3" d="M220.51,397.63S218.76,374,234.81,365c0,0-8.46,21.29-7.59,30.34S220.51,397.63,220.51,397.63Z"/><path class="cls-3" d="M214,398.87s1.7-20.1-13.89-27.79c0,0,8.22,18.11,7.37,25.8S214,398.87,214,398.87Z"/><rect class="cls-7" x="54.93" y="385.01" width="184.26" height="27.41"/><rect class="cls-10" x="374.19" y="274.56" width="8.08" height="132.6"/><rect class="cls-6" x="374.19" y="279.11" width="8.08" height="98.63"/><rect class="cls-10" x="445.01" y="274.08" width="8.08" height="133.07"/><rect class="cls-6" x="445.01" y="278.65" width="8.08" height="98.98"/><rect class="cls-19" x="355.9" y="283.67" width="115.48" height="86.97"/><text class="cls-20" transform="translate(364.09 346.46)">sale</text></g></g></svg>