<svg xmlns="http://www.w3.org/2000/svg" viewBox="0 0 575.64 335.38"><defs><style>.cls-1{fill:#ffcb96;}.cls-2{fill:#ff7d84;}.cls-3{fill:#ffd4a8;}.cls-4{fill:#d96369;}.cls-5{fill:#fff;}.cls-6{fill:#211915;}.cls-7{fill:#4d4d59;}.cls-8{fill:#625e6e;}.cls-21,.cls-9{fill:none;}.cls-9{stroke:#8b879d;stroke-miterlimit:10;stroke-width:3.26px;}.cls-10{fill:#7b7689;}.cls-11{fill:#585461;}.cls-12{fill:#8f4e79;}.cls-13{fill:#6e3b5d;}.cls-14{fill:#82476e;}.cls-15,.cls-26{fill:#ff3833;}.cls-16{fill:#dfaa8f;}.cls-17{fill:#290920;}.cls-18{fill:#440f36;}.cls-19{fill:#df946d;}.cls-20{fill:#ecedef;}.cls-21{stroke:#b76565;stroke-linecap:round;stroke-linejoin:round;stroke-width:1.37px;}.cls-22{fill:#fdfefe;}.cls-23{fill:#510800;}.cls-24{fill:#d17e7c;}.cls-25{fill:#37173c;}.cls-26{font-size:22.66px;font-family:OpenSans-Extrabold, Open Sans;font-weight:800;}.cls-27{fill:#feffff;}.cls-28{fill:#3c163d;}.cls-29{fill:#3a1740;}</style></defs><g id="Capa_2" data-name="Capa 2"><g id="OBJECTS"><rect class="cls-1" x="375.63" y="93.48" width="2.03" height="20.08"/><rect class="cls-1" x="370.91" y="97.49" width="2.03" height="12.05"/><rect class="cls-1" x="366.19" y="97.49" width="2.03" height="12.05"/><rect class="cls-1" x="361.47" y="97.49" width="2.03" height="12.05"/><rect class="cls-1" x="380.35" y="85.52" width="2.03" height="36"/><rect class="cls-1" x="385.07" y="80.02" width="2.03" height="47"/><rect class="cls-1" x="389.8" y="74.03" width="2.03" height="58.98"/><rect class="cls-1" x="394.52" y="74.03" width="2.03" height="58.98"/><rect class="cls-1" x="399.24" y="80.02" width="2.03" height="47"/><rect class="cls-1" x="403.96" y="85.52" width="2.03" height="36"/><rect class="cls-1" x="408.68" y="93.48" width="2.03" height="20.08"/><rect class="cls-1" x="413.27" y="97.49" width="2.03" height="12.05"/><rect class="cls-1" x="417.87" y="97.49" width="2.03" height="12.05"/><rect class="cls-1" x="422.46" y="97.49" width="2.03" height="12.05"/><rect class="cls-1" x="467.96" y="227.03" width="1.29" height="12.82"/><rect class="cls-1" x="464.94" y="229.59" width="1.29" height="7.69"/><rect class="cls-1" x="461.93" y="229.59" width="1.29" height="7.69"/><rect class="cls-1" x="458.92" y="229.59" width="1.29" height="7.69"/><rect class="cls-1" x="470.97" y="221.95" width="1.29" height="22.98"/><rect class="cls-1" x="473.98" y="218.44" width="1.29" height="30.01"/><rect class="cls-1" x="477" y="214.62" width="1.29" height="37.65"/><rect class="cls-1" x="480.01" y="214.62" width="1.29" height="37.65"/><rect class="cls-1" x="483.02" y="218.44" width="1.29" height="30.01"/><rect class="cls-1" x="486.04" y="221.95" width="1.29" height="22.98"/><rect class="cls-1" x="489.05" y="227.03" width="1.29" height="12.82"/><rect class="cls-1" x="491.98" y="229.59" width="1.29" height="7.69"/><rect class="cls-1" x="494.92" y="229.59" width="1.29" height="7.69"/><rect class="cls-1" x="497.85" y="229.59" width="1.29" height="7.69"/><rect class="cls-1" x="219.25" y="257.98" width="1.29" height="12.82"/><rect class="cls-1" x="216.23" y="260.54" width="1.29" height="7.69"/><rect class="cls-1" x="213.22" y="260.54" width="1.29" height="7.69"/><rect class="cls-1" x="210.21" y="260.54" width="1.29" height="7.69"/><rect class="cls-1" x="222.26" y="252.9" width="1.29" height="22.98"/><rect class="cls-1" x="225.27" y="249.39" width="1.29" height="30.01"/><rect class="cls-1" x="228.29" y="245.56" width="1.29" height="37.65"/><rect class="cls-1" x="231.3" y="245.56" width="1.29" height="37.65"/><rect class="cls-1" x="234.31" y="249.39" width="1.29" height="30.01"/><rect class="cls-1" x="237.33" y="252.9" width="1.29" height="22.98"/><rect class="cls-1" x="240.34" y="257.98" width="1.29" height="12.82"/><rect class="cls-1" x="243.27" y="260.54" width="1.29" height="7.69"/><rect class="cls-1" x="246.21" y="260.54" width="1.29" height="7.69"/><rect class="cls-1" x="249.14" y="260.54" width="1.29" height="7.69"/><rect class="cls-1" x="42.97" y="210.56" width="1.29" height="12.82"/><rect class="cls-1" x="39.96" y="213.12" width="1.29" height="7.69"/><rect class="cls-1" x="36.94" y="213.12" width="1.29" height="7.69"/><rect class="cls-1" x="33.93" y="213.12" width="1.29" height="7.69"/><rect class="cls-1" x="45.98" y="205.47" width="1.29" height="22.98"/><rect class="cls-1" x="49" y="201.96" width="1.29" height="30.01"/><rect class="cls-1" x="52.01" y="198.14" width="1.29" height="37.65"/><rect class="cls-1" x="55.02" y="198.14" width="1.29" height="37.65"/><rect class="cls-1" x="58.04" y="201.96" width="1.29" height="30.01"/><rect class="cls-1" x="61.05" y="205.47" width="1.29" height="22.98"/><rect class="cls-1" x="64.06" y="210.56" width="1.29" height="12.82"/><rect class="cls-1" x="67" y="213.12" width="1.29" height="7.69"/><rect class="cls-1" x="69.93" y="213.12" width="1.29" height="7.69"/><rect class="cls-1" x="72.86" y="213.12" width="1.29" height="7.69"/><rect class="cls-2" x="11.85" y="306.78" width="551.93" height="28.6"/><path class="cls-3" d="M561.34,292.19c0-151.06-122.46-273.52-273.52-273.52S14.3,141.13,14.3,292.19c0,1,0,2,0,3h547C561.31,294.17,561.34,293.18,561.34,292.19Z"/><rect class="cls-4" y="295.16" width="575.64" height="11.62" rx="5.81"/><path class="cls-4" d="M290.21,0C267.44,0,249,12.91,249,28.84c0,6.44,3,12.39,8.13,17.19L244.21,69.17,270,54a55.38,55.38,0,0,0,20.21,3.7c22.76,0,41.22-12.91,41.22-28.83S313,0,290.21,0Z"/><ellipse class="cls-5" cx="274.1" cy="28.13" rx="4.19" ry="4.25"/><ellipse class="cls-5" cx="290.08" cy="28.13" rx="4.19" ry="4.25"/><path class="cls-5" d="M310.24,28.13a4.19,4.19,0,1,1-4.19-4.25A4.21,4.21,0,0,1,310.24,28.13Z"/><path class="cls-6" d="M234.78,109.64l11.45,4.47a3.22,3.22,0,0,1,1.82,4.16l-5.14,13.15a9.36,9.36,0,0,1-12.12,5.3h0a9.36,9.36,0,0,1-5.31-12.12l5.14-13.14A3.21,3.21,0,0,1,234.78,109.64Z"/><polygon class="cls-7" points="251.28 75.78 257.06 78.04 246.22 114.11 234.77 109.63 251.28 75.78"/><rect class="cls-8" x="239.9" y="85.96" width="14.89" height="17.86" transform="translate(443.15 273.35) rotate(-158.64)"/><rect class="cls-7" x="253.63" y="97.64" width="19.07" height="6.88" transform="translate(54.88 -88.89) rotate(21.36)"/><polygon class="cls-9" points="365.04 83.59 370.9 74.43 465.03 134.88 459.18 144.04 365.04 83.59"/><polygon class="cls-9" points="366.52 73.81 369.47 84.28 276.77 110.31 273.82 99.85 366.52 73.81"/><circle class="cls-10" cx="276.61" cy="106.19" r="9.74" transform="translate(115.02 354.55) rotate(-77.95)"/><path class="cls-11" d="M272.81,108.68A4.54,4.54,0,1,1,279.1,110,4.55,4.55,0,0,1,272.81,108.68Z"/><rect class="cls-9" x="456.67" y="139.46" width="10.87" height="143.8"/><circle class="cls-10" cx="462.1" cy="139.46" r="11.9" transform="translate(-2.5 270.37) rotate(-32.53)"/><circle class="cls-11" cx="462.1" cy="139.46" r="5.55"/><path class="cls-10" d="M462.1,270.25a24.91,24.91,0,0,0-24.91,24.91h13a11.91,11.91,0,0,1,23.81,0h13A24.92,24.92,0,0,0,462.1,270.25Z"/><path class="cls-11" d="M462.1,283.26a11.9,11.9,0,0,0-11.9,11.9H474A11.9,11.9,0,0,0,462.1,283.26Z"/><circle class="cls-10" cx="367.06" cy="80.16" r="11.9" transform="translate(176.1 403.72) rotate(-71.77)"/><path class="cls-11" d="M372.61,80.16a5.55,5.55,0,1,1-5.55-5.55A5.54,5.54,0,0,1,372.61,80.16Z"/><path class="cls-5" d="M207.89,139.69l5.33-14.06a1.83,1.83,0,0,1,3.42,1.3,2.59,2.59,0,0,1-.14.29l-7.72,12.9a.5.5,0,0,1-.68.18A.51.51,0,0,1,207.89,139.69Z"/><path class="cls-5" d="M212.5,153.65l14,5.41a1.83,1.83,0,1,1-1.32,3.41l-.28-.14-12.87-7.79a.49.49,0,0,1-.16-.68A.5.5,0,0,1,212.5,153.65Z"/><path class="cls-5" d="M209.88,144.93l14.63-3.49a1.83,1.83,0,0,1,.85,3.56,1.77,1.77,0,0,1-.32.05l-15,.86a.51.51,0,0,1-.53-.47A.49.49,0,0,1,209.88,144.93Z"/><path class="cls-12" d="M148.91,106,47.37,112.53l2.48,38.79,101.54-6.49c7.89-.5,13.72-9.59,13-20.31S156.8,105.54,148.91,106Z"/><path class="cls-13" d="M63.07,133.92c-.79-12.32-7.82-21.89-15.7-21.39s-13.64,10.9-12.86,23.21a29.63,29.63,0,0,0,5.22,15.53L49.94,295H70.26L60,149.67A29.88,29.88,0,0,0,63.07,133.92Z"/><polygon class="cls-14" points="70.27 294.99 160.99 294.99 151.39 144.83 60.1 150.67 70.27 294.99"/><path class="cls-15" d="M191.6,203.48a81.22,81.22,0,0,0-7.92-6,39.35,39.35,0,0,0-9.06-4.52,13.69,13.69,0,0,0-15.74,20.41,39.5,39.5,0,0,0,6.67,7.61,80.88,80.88,0,0,0,7.82,6.14q5.79,4.2,11.66,8.3l15.34-24.64Q196,207.09,191.6,203.48Z"/><path class="cls-16" d="M248.39,149.63a86.13,86.13,0,0,0-5.11,12.79,3.28,3.28,0,0,1-.91,1.7,2.27,2.27,0,0,1-2.42.11,6.78,6.78,0,0,1-1.91-1.68L234,157.89a1.25,1.25,0,0,0-.58-.44.85.85,0,0,0-.92.75,2.45,2.45,0,0,0,.27,1.29c2.62,6.39,8.28,13.88,6.35,21-.81,3-2.44,5.77-3.29,8.8-2.38,8.51-4.71,17-7.07,25.56q-2.31,8.35-4.61,16.71c-.78-.71-1.55-1.43-2.33-2.13q-3.69-3.36-7.43-6.64c-2.49-2.2-5-4.39-7.51-6.55q-3.22-2.76-6.47-5.49L185,235.41q2.28,1.6,4.57,3.2c2.73,1.89,5.48,3.74,8.24,5.6s5.51,3.69,8.31,5.5c5.56,3.63,11.19,7.18,17,10.55l1.9,1.1a10.23,10.23,0,0,0,15.25-7.45q.93-6.71,1.88-13.4L246,213.05c1.49-10.65,2-21.53,6-31.51,2-4.85,3.43-9.84,5.62-14.57,1.18-2.55,3.45-4.58,5.54-6.41a17.5,17.5,0,0,0,2.32-2.23,4.56,4.56,0,0,0,1.11-3c0-.18-.06-.4-.23-.46a.53.53,0,0,0-.38.09c-1.21.69-2.34,1.47-3.55,2.14-1,.55-3.62,1.82-4.14,2.76,2-3.6,4.28-7.09,6.41-10.63.46-.76.77-2-.07-2.3a59,59,0,0,0-9.26,9.29c1.61-2,2.09-5.71,2.93-8.12a46.61,46.61,0,0,0,2.13-7.41c.07-.38.06-.88-.3-1s-.69.21-.91.52c-1.67,2.39-2.85,5.12-4.32,7.64l-2.4,4.12c-.5.86-2.21,2.85-2.22,3.8l2.67-9.23c.17-.56,2.35-7.52.11-5.95a2.3,2.3,0,0,0-.65.8C250.93,144,249.72,146.92,248.39,149.63Z"/><path class="cls-11" d="M154.36,95.71s24.84,1.78,33.38,26.77h-28Z"/><circle class="cls-17" cx="144.46" cy="177.87" r="38.92"/><path class="cls-5" d="M152.13,190c-9.75-1.62-20.4.24-29.22,3.43l-.08,0a27.9,27.9,0,0,0-16.46,16.88L87.49,295H197q-3.94-17.55-7.9-35.09-3.88-17.19-7.75-34.39c-2.7-11.95-5.14-23-15.76-30.31A33.36,33.36,0,0,0,152.13,190Z"/><circle class="cls-11" cx="184.51" cy="156.48" r="17.02" transform="translate(-54.36 194.83) rotate(-49.42)"/><path class="cls-15" d="M117.68,235.39a86.83,86.83,0,0,0,5.18-9.35,42.46,42.46,0,0,0,3.44-10.34,14.72,14.72,0,0,0-24.13-13.64,41.8,41.8,0,0,0-7.09,8.27,85.15,85.15,0,0,0-5.34,9.26c-2.4,4.53-4.74,9.1-7.06,13.68l28.58,12.56C113.42,242.36,115.57,238.89,117.68,235.39Z"/><path class="cls-18" d="M182,136.4a40.27,40.27,0,0,0-4-11.63,53.25,53.25,0,0,1-24.16,12.61c-4,1-7.42,2.49-11.52,2.9-4.82.48-9.71.29-14.45,1.42-9.07,2.14-10.13,12.48-8.81,20.18.88,5.2,4.16,8.7,6.44,13.37a37.66,37.66,0,0,1,4.19,18.37c-1.33,25-35,30.84-48,11.16-7.61-11.49-4.42-25.41,2.68-36.31,3.7-5.67,8.58-10.53,13.09-15.55a7.49,7.49,0,0,0,1.64-2.4,8.07,8.07,0,0,0,.16-3.14c-.93-12.84,3.19-26.94,11.7-36.72,10.39-11.93,26.6-16,42-14.2,8.78,1,17.36,6.69,20.91,14.93a3.2,3.2,0,0,0,.9,1.39,3.48,3.48,0,0,0,1.43.45c8.22,1.42,13.62,9.94,13.62,17.82a4.13,4.13,0,0,0,.09,1.11,4.05,4.05,0,0,0,.56,1.07c3.74,5.77,4.6,13,4.88,19.68a42.9,42.9,0,0,1-5,21.35,2.3,2.3,0,0,0-.37,1.15,2.39,2.39,0,0,0,.52,1.2c5.27,7.85,8,15.87,5.68,25.07-1.95,7.68-8.69,12.61-16.74,11.11a15.66,15.66,0,0,1-11.66-9.4c-3.39-8.83.84-22.17,3.68-30.71a7,7,0,0,1,.95-2.07,12.45,12.45,0,0,1,1.83-1.64c4.28-3.7,6.33-11.63,7.46-16.89A40.37,40.37,0,0,0,182,136.4Z"/><path class="cls-16" d="M137.59,183.86l-1.05,5.75c-.89,4.85-4.72,8.45-5.95,13.28-1.37,5.41.51,9.68,4.29,13.46,3.59,3.59,9.08,4.53,14.15,4.3a22.57,22.57,0,0,0,9.94-2.46,12.26,12.26,0,0,0,6.26-7.83c1.63-7.55-5.43-11.65-6.53-18.21-.45-2.67-.89-5.35-1.34-8a36.25,36.25,0,0,1-6.87,1.15A36.7,36.7,0,0,1,137.59,183.86Z"/><path class="cls-19" d="M148.55,172.41a9.51,9.51,0,0,0-10.33,8l-.63,3.43a36.7,36.7,0,0,0,12.9,1.42,36.25,36.25,0,0,0,6.87-1.15c-.2-1.18-.4-2.36-.59-3.54A9.68,9.68,0,0,0,148.55,172.41Z"/><path class="cls-20" d="M108.49,143s-3-46,42.93-47.41a35.19,35.19,0,0,1,4.91.31,33.57,33.57,0,0,1,4.31.87,35.56,35.56,0,0,1,10.69,4.88c-4.38-.76-9.42-1.71-13.87-1.58a56.22,56.22,0,0,0-9.77,1.1,46.37,46.37,0,0,0-17.33,7.25s-15.2,9-15.61,35"/><path class="cls-16" d="M177.5,123.11a26.36,26.36,0,0,1-6,4.7,62.5,62.5,0,0,1-15.66,6.81,128.51,128.51,0,0,1-16.54,3.1q-4.92.71-9.86,1.33l-1.72.22a7.83,7.83,0,0,0-6.53,5.18,78.31,78.31,0,0,0-3.82,20.26,36.57,36.57,0,1,0,60.12-41.6Z"/><path class="cls-21" d="M162.72,143.41l.87,8.65a2.19,2.19,0,0,0,.43,1.31,2.53,2.53,0,0,0,1,.53c1.57.55,3.16,1.8,3.15,3.47a3.53,3.53,0,0,1-2.83,3.1,10.17,10.17,0,0,1-4.48-.25"/><path class="cls-22" d="M164.83,166.7l-16.3-2.11a10.49,10.49,0,0,0,1.09,2.2l13.92,1.8A7.36,7.36,0,0,0,164.83,166.7Z"/><path class="cls-23" d="M157.06,168.68a9.07,9.07,0,0,1,4,1.73,8.38,8.38,0,0,0,2.5-1.82l-13.92-1.8a10.55,10.55,0,0,0,2.5,2.66A8.44,8.44,0,0,1,157.06,168.68Z"/><path class="cls-24" d="M161,170.41a9.07,9.07,0,0,0-4-1.73,8.44,8.44,0,0,0-4.94.77,9.17,9.17,0,0,0,4,1.73A8.42,8.42,0,0,0,161,170.41Z"/><path class="cls-25" d="M152.16,150.48a2.8,2.8,0,1,1-2.8-2.8A2.8,2.8,0,0,1,152.16,150.48Z"/><path class="cls-25" d="M175.39,150.48a2.81,2.81,0,1,1-2.81-2.8A2.8,2.8,0,0,1,175.39,150.48Z"/><circle class="cls-11" cx="111.9" cy="156.31" r="17.02" transform="translate(-71.64 99.14) rotate(-37.1)"/><circle class="cls-20" cx="108.2" cy="156.31" r="13.33"/><circle class="cls-10" cx="106.99" cy="156.27" r="7.53"/><path class="cls-18" d="M142.49,144.2a8.75,8.75,0,0,1,3.68-3.42,9.62,9.62,0,0,1,5-1.13,1.19,1.19,0,0,1,.13,2.36h0a24.73,24.73,0,0,0-4.07,1,27.78,27.78,0,0,0-4,1.85h0a.5.5,0,0,1-.68-.21A.48.48,0,0,1,142.49,144.2Z"/><path class="cls-18" d="M177.79,145a27.78,27.78,0,0,0-4-1.85,24.73,24.73,0,0,0-4.07-1h0a1.18,1.18,0,0,1-1-1.37,1.2,1.2,0,0,1,1.09-1,9.62,9.62,0,0,1,5,1.13,8.75,8.75,0,0,1,3.68,3.42.51.51,0,0,1-.68.69Z"/><path class="cls-24" d="M144.46,160.87a3.4,3.4,0,1,1-3.39-3.39A3.39,3.39,0,0,1,144.46,160.87Z"/><path class="cls-24" d="M178.14,161.44a3.16,3.16,0,1,1-3.16-3.16A3.16,3.16,0,0,1,178.14,161.44Z"/><path class="cls-16" d="M182.28,292.48l-6.8-4c-5.11-3-11.25-4.11-17-5.26-6.27-1.25-12.61-2.15-18.95-3l-28.31-3.62-18.49-2.37c.64-.93,1.28-1.86,1.91-2.8,2-3,4-5.93,5.93-8.93s3.92-6,5.83-9q2.44-3.85,4.86-7.74L82.68,233.27,80,238.63c-1.6,3.18-3.15,6.4-4.7,9.62s-3.09,6.43-4.59,9.68c-3,6.48-5.94,13-8.64,19.68l-.88,2.18a11,11,0,0,0,10.26,15.1L86,294.84l29.82-.09c8.45,0,16.9.19,25.34,0,5.42-.14,10.74-1.66,16.18-1.38,2.59.13,4.78,1.18,7.22,1.6,3,.53,6.6-.05,9.65-.05h7.45A1.29,1.29,0,0,0,182.28,292.48Z"/><rect class="cls-15" x="423.54" y="57.34" width="115.52" height="40.83" rx="6.52"/><rect class="cls-5" x="465.4" y="26.51" width="31.81" height="102.48" rx="2.76" transform="translate(559.06 -403.55) rotate(90)"/><text class="cls-26" transform="translate(439 87.01)">ON AIR</text><rect class="cls-1" x="204.97" y="71.02" width="1.64" height="16.23"/><rect class="cls-1" x="201.16" y="74.27" width="1.64" height="9.74"/><rect class="cls-1" x="197.34" y="74.27" width="1.64" height="9.74"/><rect class="cls-1" x="193.53" y="74.27" width="1.64" height="9.74"/><rect class="cls-1" x="208.79" y="64.59" width="1.64" height="29.1"/><rect class="cls-1" x="212.6" y="60.14" width="1.64" height="37.99"/><rect class="cls-1" x="216.42" y="55.3" width="1.64" height="47.67"/><rect class="cls-1" x="220.23" y="55.3" width="1.64" height="47.67"/><rect class="cls-1" x="224.05" y="60.14" width="1.64" height="37.99"/><rect class="cls-1" x="227.86" y="64.59" width="1.64" height="29.1"/><rect class="cls-1" x="231.68" y="71.02" width="1.64" height="16.23"/><rect class="cls-1" x="235.39" y="74.27" width="1.64" height="9.74"/><rect class="cls-1" x="239.1" y="74.27" width="1.64" height="9.74"/><rect class="cls-1" x="242.81" y="74.27" width="1.64" height="9.74"/><path class="cls-27" d="M500.78,182.31a22.78,22.78,0,0,1,.58,3.61c.12,1.2.17,2.41.18,3.61s0,2.41-.16,3.61a20.76,20.76,0,0,1-.6,3.61.25.25,0,0,1-.48,0,21.76,21.76,0,0,1-.6-3.61,33.53,33.53,0,0,1-.15-3.61c0-1.2.06-2.41.17-3.61a25.33,25.33,0,0,1,.58-3.61.25.25,0,0,1,.48,0Z"/><path class="cls-27" d="M507.76,189.77a22.6,22.6,0,0,1-3.61.58c-1.2.11-2.4.17-3.61.17a33.63,33.63,0,0,1-3.61-.15,21.47,21.47,0,0,1-3.6-.6.25.25,0,0,1,0-.48,21.47,21.47,0,0,1,3.6-.6,33.63,33.63,0,0,1,3.61-.15c1.21,0,2.41.06,3.61.17a22.6,22.6,0,0,1,3.61.58.25.25,0,0,1,.18.3A.24.24,0,0,1,507.76,189.77Z"/><path class="cls-27" d="M423.7,143.44a23.63,23.63,0,0,1,.57,3.6c.12,1.21.17,2.41.18,3.61s0,2.41-.16,3.61a21.56,21.56,0,0,1-.59,3.61.25.25,0,0,1-.49,0,21.59,21.59,0,0,1-.6-3.61,33.42,33.42,0,0,1-.15-3.61c0-1.2.06-2.4.17-3.61a25,25,0,0,1,.58-3.6.25.25,0,0,1,.31-.18A.25.25,0,0,1,423.7,143.44Z"/><path class="cls-27" d="M430.67,150.9a23.56,23.56,0,0,1-3.61.57c-1.2.12-2.4.17-3.61.18s-2.4,0-3.6-.16a21.39,21.39,0,0,1-3.61-.59.25.25,0,0,1-.18-.31.24.24,0,0,1,.18-.18,21.42,21.42,0,0,1,3.61-.6,33.34,33.34,0,0,1,3.6-.15c1.21,0,2.41.06,3.61.17a24.89,24.89,0,0,1,3.61.58.25.25,0,0,1,0,.49Z"/><path class="cls-27" d="M225,189.53a25.11,25.11,0,0,1,.58,3.61c.11,1.2.16,2.4.17,3.61s0,2.4-.16,3.61A20.47,20.47,0,0,1,225,204a.25.25,0,0,1-.49,0,21.44,21.44,0,0,1-.59-3.6c-.12-1.21-.16-2.41-.16-3.61s.06-2.41.18-3.61a23.76,23.76,0,0,1,.57-3.61.26.26,0,0,1,.31-.18A.24.24,0,0,1,225,189.53Z"/><path class="cls-27" d="M232,197a24.89,24.89,0,0,1-3.61.58c-1.2.11-2.4.17-3.6.17a33.42,33.42,0,0,1-3.61-.15,21.42,21.42,0,0,1-3.61-.6.25.25,0,0,1-.18-.31.23.23,0,0,1,.18-.17,20.46,20.46,0,0,1,3.61-.6c1.2-.12,2.4-.16,3.61-.16s2.4.06,3.6.18a22.42,22.42,0,0,1,3.61.58.25.25,0,0,1,0,.48Z"/><path class="cls-27" d="M338.48,108.71a23.76,23.76,0,0,1,.57,3.61c.12,1.2.17,2.41.18,3.61s0,2.4-.16,3.61a21.73,21.73,0,0,1-.59,3.61.25.25,0,0,1-.31.17.24.24,0,0,1-.18-.17,21.76,21.76,0,0,1-.6-3.61,33.63,33.63,0,0,1-.15-3.61c0-1.2.06-2.41.17-3.61a25.11,25.11,0,0,1,.58-3.61.26.26,0,0,1,.31-.18A.27.27,0,0,1,338.48,108.71Z"/><path class="cls-27" d="M345.45,116.17a22.42,22.42,0,0,1-3.61.58c-1.2.11-2.4.17-3.61.17a33.34,33.34,0,0,1-3.6-.15,21.42,21.42,0,0,1-3.61-.6.24.24,0,0,1-.18-.31.24.24,0,0,1,.18-.17,21.42,21.42,0,0,1,3.61-.6,33.34,33.34,0,0,1,3.6-.15c1.21,0,2.41.06,3.61.17a22.42,22.42,0,0,1,3.61.58.24.24,0,0,1,.18.3A.24.24,0,0,1,345.45,116.17Z"/><path class="cls-27" d="M351.61,44a22.48,22.48,0,0,1,.58,3.6c.12,1.21.17,2.41.18,3.61s0,2.41-.16,3.61a20.61,20.61,0,0,1-.6,3.61.25.25,0,0,1-.3.18.27.27,0,0,1-.18-.18,21.59,21.59,0,0,1-.6-3.61,33.42,33.42,0,0,1-.15-3.61c0-1.2.06-2.4.17-3.61a23.66,23.66,0,0,1,.58-3.6.24.24,0,0,1,.3-.18A.22.22,0,0,1,351.61,44Z"/><path class="cls-27" d="M358.59,51.43A22.6,22.6,0,0,1,355,52c-1.2.12-2.4.17-3.61.18s-2.4,0-3.61-.16a20.5,20.5,0,0,1-3.6-.6.25.25,0,0,1,0-.48,21.47,21.47,0,0,1,3.6-.6,33.63,33.63,0,0,1,3.61-.15c1.21,0,2.41.06,3.61.17a25.11,25.11,0,0,1,3.61.58.26.26,0,0,1,.18.3A.22.22,0,0,1,358.59,51.43Z"/><path class="cls-27" d="M229.7,40.37a16.34,16.34,0,0,1,.38,3.61,14.23,14.23,0,0,1-.38,3.6.11.11,0,0,1-.15.09.12.12,0,0,1-.09-.09,14.68,14.68,0,0,1-.37-3.6,15.75,15.75,0,0,1,.37-3.61.12.12,0,0,1,.15-.09A.11.11,0,0,1,229.7,40.37Z"/><path class="cls-27" d="M233.19,44.1a15.81,15.81,0,0,1-3.61.37A14.81,14.81,0,0,1,226,44.1a.14.14,0,0,1-.09-.15.15.15,0,0,1,.09-.1,14.81,14.81,0,0,1,3.61-.37,16.39,16.39,0,0,1,3.61.37.12.12,0,0,1,.09.15A.13.13,0,0,1,233.19,44.1Z"/><path class="cls-27" d="M304.59,64.65a15.75,15.75,0,0,1,.37,3.61,14.68,14.68,0,0,1-.37,3.6.14.14,0,0,1-.15.1.17.17,0,0,1-.1-.1,14.68,14.68,0,0,1-.37-3.6,16.33,16.33,0,0,1,.37-3.61.12.12,0,0,1,.15-.09A.12.12,0,0,1,304.59,64.65Z"/><path class="cls-27" d="M308.07,68.38a15.73,15.73,0,0,1-3.6.37,14.71,14.71,0,0,1-3.61-.37.12.12,0,0,1-.09-.15.11.11,0,0,1,.09-.09,14.26,14.26,0,0,1,3.61-.38,15.74,15.74,0,0,1,3.6.38.13.13,0,0,1,.1.15A.13.13,0,0,1,308.07,68.38Z"/><path class="cls-27" d="M365.16,144.24a16.41,16.41,0,0,1,.38,3.61,15.28,15.28,0,0,1-.38,3.61.12.12,0,0,1-.24,0,14.3,14.3,0,0,1-.38-3.61,16.41,16.41,0,0,1,.38-3.61.11.11,0,0,1,.15-.09A.12.12,0,0,1,365.16,144.24Z"/><path class="cls-27" d="M368.65,148a16.41,16.41,0,0,1-3.61.38,15.28,15.28,0,0,1-3.61-.38.12.12,0,0,1,0-.24,14.3,14.3,0,0,1,3.61-.38,16.41,16.41,0,0,1,3.61.38.12.12,0,0,1,.09.15A.12.12,0,0,1,368.65,148Z"/><path class="cls-27" d="M521,253.22a15.87,15.87,0,0,1,.37,3.61,14.71,14.71,0,0,1-.37,3.61.12.12,0,0,1-.15.09.12.12,0,0,1-.09-.09,14.26,14.26,0,0,1-.38-3.61,16.47,16.47,0,0,1,.38-3.61.13.13,0,0,1,.15-.09A.14.14,0,0,1,521,253.22Z"/><path class="cls-27" d="M524.48,257a16.47,16.47,0,0,1-3.61.38,14.3,14.3,0,0,1-3.61-.38.11.11,0,0,1-.09-.15.14.14,0,0,1,.09-.09,14.76,14.76,0,0,1,3.61-.37,15.87,15.87,0,0,1,3.61.37.14.14,0,0,1,.09.15A.12.12,0,0,1,524.48,257Z"/><path class="cls-27" d="M437.31,246a16.34,16.34,0,0,1,.38,3.61,14.23,14.23,0,0,1-.38,3.6.11.11,0,0,1-.15.09.11.11,0,0,1-.09-.09,14.68,14.68,0,0,1-.37-3.6,15.75,15.75,0,0,1,.37-3.61.12.12,0,0,1,.15-.09A.11.11,0,0,1,437.31,246Z"/><path class="cls-27" d="M440.8,249.74a15.81,15.81,0,0,1-3.61.37,14.81,14.81,0,0,1-3.61-.37.14.14,0,0,1-.09-.15.15.15,0,0,1,.09-.1,14.81,14.81,0,0,1,3.61-.37,16.39,16.39,0,0,1,3.61.37.12.12,0,0,1,.09.15A.13.13,0,0,1,440.8,249.74Z"/><path class="cls-27" d="M299.53,135.39a12.56,12.56,0,0,1,.26,2.5,10.46,10.46,0,0,1-.06,1.25,7.92,7.92,0,0,1-.2,1.25.1.1,0,0,1-.11.06.12.12,0,0,1-.06-.06,7.92,7.92,0,0,1-.2-1.25,10.46,10.46,0,0,1-.06-1.25,11.24,11.24,0,0,1,.26-2.5.09.09,0,0,1,.1-.06A.09.09,0,0,1,299.53,135.39Z"/><path class="cls-27" d="M301.94,138a11.12,11.12,0,0,1-2.5.26c-.41,0-.83,0-1.24,0A7.59,7.59,0,0,1,297,138a.07.07,0,0,1-.06-.1.06.06,0,0,1,.06-.06,7.59,7.59,0,0,1,1.25-.21c.41,0,.83,0,1.24,0a11.12,11.12,0,0,1,2.5.26.08.08,0,0,1,.06.1A.06.06,0,0,1,301.94,138Z"/><path class="cls-27" d="M405.2,54.84a12.56,12.56,0,0,1,.26,2.5,10.46,10.46,0,0,1-.06,1.25,7.92,7.92,0,0,1-.2,1.25.1.1,0,0,1-.11.06.12.12,0,0,1-.06-.06,7.92,7.92,0,0,1-.2-1.25,10.46,10.46,0,0,1-.06-1.25,11.24,11.24,0,0,1,.26-2.5.09.09,0,0,1,.1-.06A.09.09,0,0,1,405.2,54.84Z"/><path class="cls-27" d="M407.61,57.42a11.12,11.12,0,0,1-2.5.26c-.41,0-.83,0-1.24,0a8.82,8.82,0,0,1-1.25-.21.07.07,0,0,1-.06-.1.06.06,0,0,1,.06-.06,7.59,7.59,0,0,1,1.25-.21c.41,0,.83,0,1.24,0a11.12,11.12,0,0,1,2.5.26.08.08,0,0,1,.06.1A.06.06,0,0,1,407.61,57.42Z"/><path class="cls-27" d="M162.8,66.42a22.78,22.78,0,0,1,.58,3.61c.12,1.2.17,2.41.18,3.61s0,2.41-.16,3.61a20.76,20.76,0,0,1-.6,3.61.25.25,0,0,1-.48,0,21.76,21.76,0,0,1-.6-3.61,33.53,33.53,0,0,1-.15-3.61c0-1.2.06-2.41.17-3.61a25.33,25.33,0,0,1,.58-3.61.25.25,0,0,1,.48,0Z"/><path class="cls-27" d="M169.78,73.88a22.6,22.6,0,0,1-3.61.58c-1.2.11-2.4.17-3.61.17a33.63,33.63,0,0,1-3.61-.15,21.47,21.47,0,0,1-3.6-.6.25.25,0,0,1,0-.48,21.47,21.47,0,0,1,3.6-.6,33.63,33.63,0,0,1,3.61-.15c1.21,0,2.41.06,3.61.17a22.6,22.6,0,0,1,3.61.58.25.25,0,0,1,.18.3A.24.24,0,0,1,169.78,73.88Z"/><path class="cls-27" d="M28.41,242.23a15.73,15.73,0,0,1,.37,3.6,14.71,14.71,0,0,1-.37,3.61.12.12,0,0,1-.15.09.11.11,0,0,1-.09-.09,14.26,14.26,0,0,1-.38-3.61,16.32,16.32,0,0,1,.38-3.6.13.13,0,0,1,.15-.1A.13.13,0,0,1,28.41,242.23Z"/><path class="cls-27" d="M31.9,246a15.88,15.88,0,0,1-3.61.38,14.26,14.26,0,0,1-3.61-.38.11.11,0,0,1-.09-.15.14.14,0,0,1,.09-.09,14.71,14.71,0,0,1,3.61-.37,15.87,15.87,0,0,1,3.61.37.14.14,0,0,1,.09.15A.12.12,0,0,1,31.9,246Z"/><rect class="cls-14" x="271.47" y="162.69" width="143.04" height="104.84" rx="7.39"/><rect class="cls-28" x="280.42" y="162.69" width="143.04" height="104.84" rx="7.39"/><rect class="cls-12" x="327.01" y="198.36" width="48.73" height="43.52" rx="3.07"/><rect class="cls-13" x="330.72" y="198.36" width="48.73" height="43.52" rx="3.07"/><rect class="cls-14" x="349.76" y="241.89" width="11.37" height="53.28"/><rect class="cls-12" x="344.07" y="241.89" width="5.69" height="53.28"/><path class="cls-28" d="M384.09,289.21h-60.4a6,6,0,0,0-5.95,6H390A6,6,0,0,0,384.09,289.21Z"/><rect class="cls-29" x="197.1" y="289.21" width="110.26" height="5.95"/><rect class="cls-13" x="293.05" y="240.51" width="3.91" height="19.95"/><rect class="cls-13" x="300.56" y="240.51" width="3.91" height="19.95"/><rect class="cls-13" x="308.06" y="240.51" width="3.91" height="19.95"/><rect class="cls-13" x="315.57" y="240.51" width="3.91" height="19.95"/></g></g></svg>