<svg xmlns="http://www.w3.org/2000/svg" viewBox="0 0 441 418.73"><defs><style>.cls-1{fill:#ebebeb;}.cls-2{fill:#263238;}.cls-3{fill:#e8505b;}.cls-4{fill:#ffbe9d;}.cls-5{fill:#eb996e;}.cls-6{fill:#455a64;}.cls-7{opacity:0.7;}.cls-8{fill:#fff;}.cls-10,.cls-9{opacity:0.4;}.cls-11{fill:#f5f5f5;}.cls-12{fill:#fafafa;}.cls-13{fill:#e0e0e0;}</style></defs><g id="Capa_2" data-name="Capa 2"><g id="Background_Simple" data-name="Background Simple"><path class="cls-1" d="M394.71,79.84l-2.43-4c-19.52-31.77-54.67-51-91.91-49.12a101,101,0,0,0-15.58,2C250.54,36,220.74,61.61,208.38,94.36c-7.26,19.27-9.29,41.45-23.08,56.74-17.94,19.89-48.4,20.52-75.18,19.7S52.86,170.67,35,190.65C23.82,203.16,20.27,221,21.17,237.71c2.39,44.36,33.69,84,73.5,103.75s86.69,21.48,130.26,12.81c61-12.15,119.08-45.52,154-97.06S422.63,135.47,394.71,79.84Z"/></g><g id="Table"><path class="cls-2" d="M441,352c0,.15-98.73.26-220.49.26S0,352.13,0,352s98.71-.26,220.51-.26S441,351.84,441,352Z"/></g><g id="Character"><path class="cls-3" d="M294.42,205.77c-.4,1.71-8.91,79.19-8.91,79.19l-7.7,11-2.09,16.76,16,39.58H173.35s-1.88-20.91-1.72-26.51,3-26.1,3-26.1l-.27-20.82L169.89,188,210,175.09c24.23-4.17,59.89,14,59.89,14Z"/><path class="cls-2" d="M279,148c5.27-.33,9.31-4.74,12.21-9.15,2.72-4.11,5-8.74,5.06-13.67,0-4.28-1.68-8.36-3.36-12.29s-3.49-8.16-6.2-11.64S280.2,95,275.82,94.45"/><path class="cls-4" d="M217.44,168.67l.06-1.31,3.09-75.64,1.71-4.3,37.84-5.23a21.79,21.79,0,0,1,23.46,21c.48,13.77.54,30.61-1.38,40.82-3.84,20.53-19.72,22.72-19.72,22.72s-.27,5.37-.57,13.14c-.22,5.87-5.4,22.77-11.27,22.94-2.52.07-9.4-2.11-12.68-2.59C217.29,197.16,217.44,168.67,217.44,168.67Z"/><path class="cls-2" d="M276.61,115.16a2.64,2.64,0,0,1-2.62,2.6,2.54,2.54,0,0,1-2.66-2.46,2.64,2.64,0,0,1,2.62-2.6A2.53,2.53,0,0,1,276.61,115.16Z"/><path class="cls-2" d="M279.71,111.8c-.34.34-2.3-1.2-5.15-1.27s-5,1.29-5.27.94c-.15-.16.2-.77,1.13-1.41a7.21,7.21,0,0,1,4.23-1.18,7,7,0,0,1,4.09,1.44C279.59,111,279.87,111.65,279.71,111.8Z"/><path class="cls-2" d="M248.76,114.88a2.64,2.64,0,0,1-2.62,2.6,2.53,2.53,0,0,1-2.66-2.46,2.64,2.64,0,0,1,2.62-2.6A2.53,2.53,0,0,1,248.76,114.88Z"/><path class="cls-2" d="M251.72,111.56c-.34.34-2.31-1.2-5.15-1.27s-5,1.29-5.27.94c-.15-.16.2-.78,1.13-1.41a7.19,7.19,0,0,1,4.23-1.18,7,7,0,0,1,4.09,1.44C251.6,110.78,251.88,111.41,251.72,111.56Z"/><path class="cls-2" d="M261.46,133c0-.16,1.77-.41,4.65-.7.73-.06,1.42-.18,1.56-.68a3.72,3.72,0,0,0-.43-2.16c-.63-1.78-1.3-3.64-2-5.6-2.76-8-4.75-14.5-4.42-14.61s2.82,6.26,5.59,14.22c.66,2,1.3,3.84,1.9,5.63a4.16,4.16,0,0,1,.3,2.86,1.8,1.8,0,0,1-1.22,1,4.85,4.85,0,0,1-1.24.14C263.26,133.15,261.47,133.12,261.46,133Z"/><path class="cls-5" d="M262.5,166.69a52.52,52.52,0,0,1-27.42-8.13s6.31,14.35,27,13Z"/><path class="cls-5" d="M260.07,139.78a5.14,5.14,0,0,0-4.54-2,4.72,4.72,0,0,0-3.29,1.64,3,3,0,0,0-.31,3.39,3.45,3.45,0,0,0,3.7,1.05,10.85,10.85,0,0,0,3.7-2.07,3.45,3.45,0,0,0,.84-.82,1,1,0,0,0,0-1.06"/><path class="cls-2" d="M253,134.69c.47,0,.39,3.08,3,5.34s5.88,2,5.9,2.45c0,.2-.75.58-2.15.58a7.66,7.66,0,0,1-4.92-1.87,6.68,6.68,0,0,1-2.29-4.47C252.46,135.42,252.82,134.67,253,134.69Z"/><path class="cls-2" d="M252.76,100.43c-.3.76-3.13.32-6.48.63s-6.08,1.15-6.5.44c-.19-.34.3-1,1.41-1.77a11.33,11.33,0,0,1,9.89-.82C252.29,99.44,252.89,100.06,252.76,100.43Z"/><path class="cls-2" d="M278.89,103.54c-.52.63-2.46-.1-4.82-.19s-4.36.31-4.81-.38c-.19-.33.14-1,1-1.56a6.76,6.76,0,0,1,3.95-1,6.65,6.65,0,0,1,3.81,1.41C278.86,102.55,279.12,103.23,278.89,103.54Z"/><path class="cls-2" d="M217.24,114.83a38,38,0,0,0-10.39,9.4c-3.28,4.12-5.41,9.44-4.59,14.64,1.13,7.2,7.38,12.33,13.19,16.74,3.34.49,5.83-3.21,6.35-6.55s.06-6.95,1.64-9.94c1.42-2.68,4.22-4.32,6.09-6.71,3.48-4.44,3.25-10.69,2.4-16.27s0-14,7.17-22C239.1,94.19,221.66,101,217.24,114.83Z"/><path class="cls-2" d="M211.06,133.41c3-4.33,2.24-10.69-1.22-14.7s-9.08-5.75-14.36-5.29c-3.84.33-7.73,1.83-10.21,4.79S182,125.7,184.1,129c1.14,1.8,3.12,3.51,2.67,5.59s-2.82,2.77-4.5,3.94a8.63,8.63,0,0,0-3,9.6,10.72,10.72,0,0,0,7.77,6.77A14.26,14.26,0,0,0,197.42,153c0,3.2,3.45,5.65,6.64,5.38s5.9-2.6,7.61-5.31a23.23,23.23,0,0,0,3.14-13,69.41,69.41,0,0,0-2.07-13.4"/><path class="cls-6" d="M216.34,156.59s-.17-.08-.47-.29l-1.3-.94c-1.11-.84-2.72-2.05-4.59-3.69a33.55,33.55,0,0,1-5.85-6.49,19.76,19.76,0,0,1-3.43-10.12,13.92,13.92,0,0,1,.87-5.52,13.69,13.69,0,0,1,2.8-4.4,40,40,0,0,1,6.88-5.39,41,41,0,0,0,4.65-3.55c.51-.46.89-.85,1.14-1.12a2.54,2.54,0,0,1,.4-.38s-.1.17-.33.45a10.28,10.28,0,0,1-1.07,1.19,34,34,0,0,1-4.58,3.71,42.53,42.53,0,0,0-6.74,5.42,13.12,13.12,0,0,0-2.67,4.25,13.63,13.63,0,0,0-.83,5.32,19.46,19.46,0,0,0,3.31,9.87,34.39,34.39,0,0,0,5.7,6.49c1.83,1.66,3.4,2.92,4.47,3.8l1.23,1A2.77,2.77,0,0,1,216.34,156.59Z"/><path class="cls-6" d="M201.64,130.49c-.09,0-.61-1.05-1.93-2.46A12.67,12.67,0,0,0,186,124.68c-1.81.64-2.79,1.38-2.84,1.29a2.38,2.38,0,0,1,.65-.54,10.92,10.92,0,0,1,2.06-1.1A12.36,12.36,0,0,1,200,127.78a10.56,10.56,0,0,1,1.32,1.92A2.58,2.58,0,0,1,201.64,130.49Z"/><path class="cls-6" d="M185.59,136c-.06,0,.31-1,1.66-1.83a7,7,0,0,1,2.56-.93,16.59,16.59,0,0,1,3.29-.18A23,23,0,0,1,199,134a7.76,7.76,0,0,1,2.28.92,23.42,23.42,0,0,1-2.38-.56,28.63,28.63,0,0,0-5.8-.76,11.24,11.24,0,0,0-5.65.9A8,8,0,0,0,185.59,136Z"/><path class="cls-6" d="M182.15,152.32c0-.1,1.43-.07,3.68-.5A21.13,21.13,0,0,0,200,141.94c1.18-2,1.65-3.31,1.74-3.28a3.73,3.73,0,0,1-.27,1,18,18,0,0,1-1.15,2.49,20.05,20.05,0,0,1-14.41,10.06,17.72,17.72,0,0,1-2.73.22A3.72,3.72,0,0,1,182.15,152.32Z"/><path class="cls-6" d="M202.64,130.17s.61.54,1.87,1.23a11.56,11.56,0,0,0,5.86,1.29,13.6,13.6,0,0,0,4.08-.79,15.32,15.32,0,0,0,4.16-2.36,24.46,24.46,0,0,0,6.58-8.76,89.32,89.32,0,0,0,3.8-10.45,61.31,61.31,0,0,1,3.32-8.52,26.2,26.2,0,0,1,3.33-5.18,14.18,14.18,0,0,1,1.14-1.23,2.87,2.87,0,0,1,.44-.39s-.53.6-1.42,1.74a28.31,28.31,0,0,0-3.16,5.23,64,64,0,0,0-3.19,8.5A85.23,85.23,0,0,1,225.66,121a24.32,24.32,0,0,1-6.76,8.9,15,15,0,0,1-4.3,2.39,13.25,13.25,0,0,1-4.22.75,11.2,11.2,0,0,1-6-1.47,6.68,6.68,0,0,1-.81-.54,6.41,6.41,0,0,1-.55-.45A3.35,3.35,0,0,1,202.64,130.17Z"/><path class="cls-6" d="M232,111.63s-.36.61-.82,1.77a17.73,17.73,0,0,0-1,5.2,43.32,43.32,0,0,1-.89,7.91A16.52,16.52,0,0,1,224,134.7a15.8,15.8,0,0,1-8.93,3.85,16.57,16.57,0,0,1-7.87-1.21,15.65,15.65,0,0,1-4.56-2.84,10.72,10.72,0,0,1-1-1c-.22-.25-.33-.39-.31-.4s.49.5,1.47,1.29a16.86,16.86,0,0,0,4.57,2.65,16.63,16.63,0,0,0,7.69,1.07,15.5,15.5,0,0,0,8.63-3.76,16.28,16.28,0,0,0,5.12-7.93,45.76,45.76,0,0,0,1-7.82,16.91,16.91,0,0,1,1.18-5.24,7.83,7.83,0,0,1,.71-1.28A1.92,1.92,0,0,1,232,111.63Z"/><path class="cls-6" d="M291.25,137.55c0-.05.34-.32.87-.93a9.29,9.29,0,0,0,1.75-2.93,12,12,0,0,0,.71-5,16.16,16.16,0,0,0-1.71-6c-2-4-4.7-7.07-6.48-9.41a24.32,24.32,0,0,1-1.95-2.92,5.18,5.18,0,0,1-.56-1.16,7.25,7.25,0,0,1,.73,1.06c.45.68,1.14,1.65,2.07,2.79a48.74,48.74,0,0,1,6.66,9.42,16.12,16.12,0,0,1,1.72,6.15,11.93,11.93,0,0,1-.84,5.16,8.85,8.85,0,0,1-2,2.94,5.51,5.51,0,0,1-.73.61A1,1,0,0,1,291.25,137.55Z"/><path class="cls-6" d="M288.29,143.4a14.78,14.78,0,0,0,2.47-3.58,11.33,11.33,0,0,0,1-4.56,14.21,14.21,0,0,0-1.16-5.61,47.89,47.89,0,0,0-2.7-5.17c-.86-1.59-1.62-3-2.23-4.25s-1.07-2.23-1.37-2.93a4.32,4.32,0,0,1-.41-1.12,7,7,0,0,1,.59,1l1.52,2.85c.65,1.2,1.43,2.62,2.32,4.18a43.59,43.59,0,0,1,2.76,5.22,14.15,14.15,0,0,1,1.16,5.81A11.5,11.5,0,0,1,291.1,140a10.29,10.29,0,0,1-1.89,2.66,6.63,6.63,0,0,1-.66.59C288.39,143.35,288.3,143.41,288.29,143.4Z"/><path class="cls-3" d="M216.26,117.48c6.85-11.69,16.43-22.56,29.61-25.71a48.56,48.56,0,0,1,38,6.37v-23L267.43,22l-12.82-6.76-30.28,17.3-7.84,63.87Z"/><g class="cls-7"><path class="cls-8" d="M216.26,117.48c6.85-11.69,16.43-22.56,29.61-25.71a48.56,48.56,0,0,1,38,6.37v-23L267.43,22l-12.82-6.76-30.28,17.3-7.84,63.87Z"/></g><path class="cls-2" d="M283.24,75.93a4,4,0,0,1-.73-.34c-.47-.23-1.13-.62-2-1a45.64,45.64,0,0,0-7.86-2.94,51.3,51.3,0,0,0-12.3-1.77,63.61,63.61,0,0,0-7.34.27,37.91,37.91,0,0,0-7.74,1.41,51.92,51.92,0,0,0-13.57,6.8,47.65,47.65,0,0,0-9.24,8.29,37.1,37.1,0,0,0-4.65,7c-.38.87-.69,1.56-.93,2.09a4.8,4.8,0,0,1-.35.72,3.8,3.8,0,0,1,.26-.76c.19-.49.45-1.22.84-2.14a35,35,0,0,1,4.54-7.12,46.59,46.59,0,0,1,9.25-8.45A51.3,51.3,0,0,1,245.08,71a37.88,37.88,0,0,1,7.84-1.42,62.31,62.31,0,0,1,7.4-.24,50.53,50.53,0,0,1,12.39,1.9,41.09,41.09,0,0,1,7.85,3.11c.9.44,1.55.86,2,1.12A5.16,5.16,0,0,1,283.24,75.93Z"/><path class="cls-2" d="M263.23,69.77c-.14,0-2.29-12.11-4.79-27.1S254,15.5,254.16,15.48s2.29,12.11,4.79,27.1S263.37,69.74,263.23,69.77Z"/><path class="cls-2" d="M243.16,72c-.14,0,.09-11.52.51-25.72s.88-25.7,1-25.7-.09,11.52-.51,25.72S243.31,72,243.16,72Z"/><path class="cls-2" d="M226.08,81.52a2.11,2.11,0,0,1,0-.55c0-.42,0-.93.06-1.57.07-1.36.2-3.33.39-5.77.38-4.86,1-11.57,2-19s2-14.06,2.8-18.87c.41-2.4.78-4.35,1.05-5.68.13-.62.24-1.13.32-1.54a2.08,2.08,0,0,1,.15-.53,2.28,2.28,0,0,1,0,.55c-.06.41-.14.92-.23,1.55-.22,1.42-.52,3.35-.89,5.71-.75,4.82-1.71,11.49-2.64,18.87s-1.65,14.08-2.12,18.94c-.23,2.37-.42,4.31-.55,5.75-.07.63-.12,1.14-.17,1.56A1.93,1.93,0,0,1,226.08,81.52Z"/><path class="cls-2" d="M266.15,73.65a11,11,0,0,1,0,2.32c-.12,1.62-.26,3.49-.41,5.56s-.3,3.94-.42,5.56a10.8,10.8,0,0,1-.29,2.3,9.41,9.41,0,0,1-.08-2.31c0-1.44.11-3.41.27-5.59s.37-4.14.56-5.56A10,10,0,0,1,266.15,73.65Z"/><path class="cls-3" d="M170.72,301.06c-1.26-1.84-4.65-3.48-6.87-3.72-7.68-.84-14.68,2.47-20.74,7.28l-1.19,2.16c-3.26,2.54-6.66,5.45-7.67,9.46A58.85,58.85,0,0,0,132.86,329a9.43,9.43,0,0,0,2.59,6.08,8.43,8.43,0,0,0,5.62,2.73,20.55,20.55,0,0,0,11.71-2.63,32.17,32.17,0,0,0,9.18-7.9,45,45,0,0,0,9.36-20C171.72,305.18,171.92,302.83,170.72,301.06Z"/><g class="cls-9"><path d="M170.72,301.06c-1.26-1.84-4.65-3.48-6.87-3.72-7.68-.84-14.68,2.47-20.74,7.28l-1.19,2.16c-3.26,2.54-6.66,5.45-7.67,9.46A58.85,58.85,0,0,0,132.86,329a9.43,9.43,0,0,0,2.59,6.08,8.43,8.43,0,0,0,5.62,2.73,20.55,20.55,0,0,0,11.71-2.63,32.17,32.17,0,0,0,9.18-7.9,45,45,0,0,0,9.36-20C171.72,305.18,171.92,302.83,170.72,301.06Z"/></g><path class="cls-3" d="M169.89,188c-1.21.4-61.14,85.34-62.74,91s-10.39,19.11,2,31.74a247.52,247.52,0,0,0,24.5,21.73c-2.78-21.41,18.29-38.67,33-34.19l-11.25-7.63,25.71-34.15"/><path class="cls-3" d="M294.42,205.77s9.43,11.79,11.79,19.43c2,6.52,12.69,36.68,12.69,36.68l19.47,48.25s-2.95,4.26-3.67,7.88c-.28,1.43-2.75,23.6-8.65,33l-31.23-14-3.93-27.95L285.51,285l5.56-64.85Z"/><path class="cls-3" d="M206.77,175.77s8-7.39,10.22-8.43c0,0,2.54,8.67,10,12.77s12.27,8.53,12.27,9.11V200S208.69,191.62,206.77,175.77Z"/><path class="cls-3" d="M211.88,230.45l59.4-3.59-2.75-33.93L266,187.18l-4-7.21a11.38,11.38,0,0,1-2.81,6.58,22.64,22.64,0,0,1-12.07,6.38l-1.17,7L215.8,187.54s-3.92,41-3.92,41.94"/><path class="cls-2" d="M247.05,192.93a2.23,2.23,0,0,1,0,.46c0,.34-.12.78-.2,1.35-.19,1.22-.46,3-.82,5.25v.09h-.1l-24.43.75-4,.12-2.09.06a6.16,6.16,0,0,0-2,.26,4.54,4.54,0,0,0-2.83,2.84,5.34,5.34,0,0,0-.23,2.13c0,.75,0,1.51,0,2.27.13,6.12.27,12.6.41,19.3.46,18.78.75,35.79.66,48.1,0,6.16-.1,11.14-.18,14.58-.05,1.7-.08,3-.11,4,0,.43,0,.77,0,1a1.6,1.6,0,0,1,0,.35,1.35,1.35,0,0,1,0-.35c0-.26,0-.6,0-1,0-.94,0-2.27,0-4,0-3.48,0-8.45,0-14.58,0-12.3-.35-29.3-.81-48.08-.13-6.71-.26-13.19-.39-19.31l0-2.28A5.81,5.81,0,0,1,210,204a5,5,0,0,1,3.13-3.13,6.86,6.86,0,0,1,2.17-.28l2.08,0,4-.1,24.44-.53-.11.09c.4-2.26.71-4,.92-5.23l.26-1.34A3.3,3.3,0,0,1,247.05,192.93Z"/><circle class="cls-2" cx="217.25" cy="213.08" r="2.54"/><path class="cls-2" d="M231.45,210.35c0,.15-2.86.52-6.34,1.33s-6.23,1.73-6.28,1.59a22.76,22.76,0,0,1,6.16-2.09A23.32,23.32,0,0,1,231.45,210.35Z"/><path class="cls-2" d="M227.19,215.39a41.93,41.93,0,0,1-4.44-.93,40.8,40.8,0,0,1-4.44-.93,13.52,13.52,0,0,1,4.55.42A13.25,13.25,0,0,1,227.19,215.39Z"/><circle class="cls-2" cx="217.25" cy="241.8" r="2.54"/><path class="cls-2" d="M231.45,239.07c0,.15-2.86.52-6.34,1.34s-6.23,1.72-6.28,1.58A23.6,23.6,0,0,1,225,239.9,23.32,23.32,0,0,1,231.45,239.07Z"/><path class="cls-2" d="M227.19,244.11a39.11,39.11,0,0,1-4.44-.93,40.8,40.8,0,0,1-4.44-.93,13.84,13.84,0,0,1,4.55.42A13.25,13.25,0,0,1,227.19,244.11Z"/><circle class="cls-2" cx="217.25" cy="270.52" r="2.54"/><path class="cls-2" d="M231.45,267.79c0,.15-2.86.53-6.34,1.34s-6.23,1.73-6.28,1.58a32.71,32.71,0,0,1,12.62-2.92Z"/><path class="cls-2" d="M227.19,272.83a36.65,36.65,0,0,1-4.44-.93,38.15,38.15,0,0,1-4.44-.93,13.84,13.84,0,0,1,4.55.42A13.53,13.53,0,0,1,227.19,272.83Z"/><path class="cls-2" d="M177.45,264.23a3.72,3.72,0,0,1,.14-.73c.12-.51.29-1.2.5-2.05.44-1.78,1.1-4.36,1.85-7.55s1.58-7,2.23-11.3a78,78,0,0,0,.92-14,51.74,51.74,0,0,0-2.38-13.82,40.58,40.58,0,0,0-4.94-10.31,33.29,33.29,0,0,0-5-5.88c-.64-.65-1.23-1.06-1.58-1.39a4.43,4.43,0,0,1-.54-.5,3.25,3.25,0,0,1,.6.42,18.84,18.84,0,0,1,1.66,1.32,31.39,31.39,0,0,1,5.17,5.83,39.77,39.77,0,0,1,5.1,10.37,50.85,50.85,0,0,1,2.44,13.94,76.15,76.15,0,0,1-1,14.12C182,247,181.1,250.8,180.3,254s-1.51,5.75-2,7.51c-.24.84-.44,1.52-.59,2A4.7,4.7,0,0,1,177.45,264.23Z"/><path class="cls-2" d="M176.52,263.35a7.63,7.63,0,0,1-.34-1.33c-.19-.86-.41-2.12-.64-3.69a80.28,80.28,0,0,1-.79-12.33,79.19,79.19,0,0,1,1.14-12.3c.28-1.56.54-2.81.75-3.67a6.27,6.27,0,0,1,.38-1.32,7.49,7.49,0,0,1-.18,1.36c-.15.87-.36,2.13-.58,3.68a92.78,92.78,0,0,0-.35,24.54c.18,1.56.34,2.83.47,3.7A6,6,0,0,1,176.52,263.35Z"/><path class="cls-2" d="M119.65,289.41a11,11,0,0,1,1.55-.39,21.57,21.57,0,0,0,4-1.62c1.63-.83,3.49-2,5.59-3.27a22.07,22.07,0,0,1,7.38-3.06,12.48,12.48,0,0,1,7.86,1.28,24.59,24.59,0,0,1,5.3,3.82,33.24,33.24,0,0,1,3,3.18,9,9,0,0,1,1,1.29,11.62,11.62,0,0,1-1.12-1.15,42.76,42.76,0,0,0-3.12-3,25.4,25.4,0,0,0-5.27-3.66,12.13,12.13,0,0,0-7.56-1.21,22.2,22.2,0,0,0-7.23,3c-2.1,1.22-4,2.38-5.67,3.18a19,19,0,0,1-4.14,1.49c-.51.11-.92.13-1.18.17S119.65,289.43,119.65,289.41Z"/><path class="cls-2" d="M140.36,268.6a3.89,3.89,0,0,1,.95.37,9.52,9.52,0,0,1,1.07.53c.41.24.88.48,1.36.82A22.16,22.16,0,0,1,147,272.9a23.49,23.49,0,0,1,5.57,8.38,22.25,22.25,0,0,1,1.13,4,15.7,15.7,0,0,1,.23,1.57A9.22,9.22,0,0,1,154,288a3.37,3.37,0,0,1,0,1c-.1,0-.13-1.45-.64-3.71a24.55,24.55,0,0,0-1.21-3.86,28.8,28.8,0,0,0-2.32-4.39,27.64,27.64,0,0,0-3.15-3.83,24.58,24.58,0,0,0-3.1-2.62C141.64,269.29,140.32,268.69,140.36,268.6Z"/><g class="cls-9"><path d="M153.51,287.79a24.45,24.45,0,0,0-21.06-14.55,7.31,7.31,0,0,0-3.56.56,3.08,3.08,0,0,0-1.82,2.89,8.86,8.86,0,0,1,.28,1.75c-.15,1.34-1.8,1.81-3.09,2.18a13,13,0,0,0-6.43,4.19c-.87,1-1.57,2.62-.73,3.69.68.88,2,.88,3.1.68,4.12-.72,7.79-2.94,11.55-4.76s8-3.29,12.08-2.37c4.51,1,7.86,4.71,10.89,8.2"/></g><path class="cls-2" d="M285.51,285a2.27,2.27,0,0,1-.37.44L284,286.58c-.5.51-1.12,1.13-1.87,1.8s-1.58,1.49-2.56,2.3c-1.93,1.67-4.33,3.53-7.09,5.47a99.11,99.11,0,0,1-9.39,5.67,97.23,97.23,0,0,1-10,4.47c-3.17,1.16-6.07,2.07-8.54,2.7-1.23.35-2.36.57-3.35.79s-1.84.39-2.55.5l-1.61.27a2.24,2.24,0,0,1-.57.05,2.78,2.78,0,0,1,.55-.16l1.6-.36c.69-.14,1.54-.32,2.52-.58s2.1-.5,3.31-.87c2.45-.66,5.33-1.61,8.47-2.79a93,93,0,0,0,19.3-10.09c2.77-1.9,5.18-3.72,7.13-5.35,1-.79,1.84-1.57,2.6-2.23s1.41-1.25,1.92-1.74l1.21-1.11A3.23,3.23,0,0,1,285.51,285Z"/><path class="cls-2" d="M294.82,219.2a2.59,2.59,0,0,1-.07.67c-.07.49-.17,1.13-.28,1.92-.28,1.72-.65,4.11-1.11,7-.92,5.94-2.13,14.15-3.37,23.23s-2.32,17.27-3.13,23.28l-.94,7.05c-.12.79-.21,1.43-.28,1.92a3,3,0,0,1-.13.66,2.83,2.83,0,0,1,0-.67c0-.5.1-1.14.18-1.93.19-1.73.45-4.13.78-7.08.69-6,1.72-14.21,3-23.3S292,234.69,293,228.76c.52-3,.94-5.36,1.28-7,.15-.78.28-1.41.38-1.89A3.65,3.65,0,0,1,294.82,219.2Z"/><path class="cls-2" d="M261,318.07a4.12,4.12,0,0,1,.54-.95c.38-.6.94-1.45,1.65-2.49,1.43-2.09,3.46-4.93,5.79-8s4.54-5.77,6.17-7.7c.81-1,1.48-1.73,2-2.25a4.43,4.43,0,0,1,.78-.78,5,5,0,0,1-.62.91c-.51.64-1.12,1.43-1.84,2.35-1.55,2-3.7,4.73-6,7.79s-4.4,5.85-5.9,7.88l-1.78,2.39A4.53,4.53,0,0,1,261,318.07Z"/><path class="cls-2" d="M325.36,297.25a11,11,0,0,1-1.61-.66c-1-.44-2.5-1.07-4.37-1.72a43,43,0,0,0-15.17-2.55,12.22,12.22,0,0,0-4.23.87,11.23,11.23,0,0,0-3.33,2.25,17.41,17.41,0,0,0-3.75,5.75,45.48,45.48,0,0,0-1.58,4.42,11.42,11.42,0,0,1-.57,1.64,12,12,0,0,1,.37-1.69,38.31,38.31,0,0,1,1.44-4.51,17.16,17.16,0,0,1,3.76-5.95,11.21,11.21,0,0,1,3.46-2.38,12.45,12.45,0,0,1,4.41-.92,40.65,40.65,0,0,1,15.31,2.72,43.62,43.62,0,0,1,4.34,1.89c.5.24.88.46,1.14.6Z"/><path class="cls-2" d="M317.87,281.55c0,.11-1.57.06-4,.49a26.15,26.15,0,0,0-4.24,1.12,29.39,29.39,0,0,0-4.83,2.32,28.64,28.64,0,0,0-4.27,3.26,25.77,25.77,0,0,0-2.93,3.26c-1.5,2-2.17,3.42-2.27,3.38a4.38,4.38,0,0,1,.43-1,10.54,10.54,0,0,1,.62-1.14c.26-.42.54-.93.92-1.44a23.61,23.61,0,0,1,2.9-3.39,26.66,26.66,0,0,1,4.32-3.35,27.08,27.08,0,0,1,4.95-2.33,23.6,23.6,0,0,1,4.34-1c.63-.11,1.21-.12,1.71-.17a9.56,9.56,0,0,1,1.29,0A4.8,4.8,0,0,1,317.87,281.55Z"/><path class="cls-3" d="M325.91,344.92a19.72,19.72,0,0,0-11.41-15.08c-4.77-2.13-11.35-2.62-15.88,0S288,338.88,289.26,344l10.39,17.46a16.51,16.51,0,0,0,18.53.58A18,18,0,0,0,325.91,344.92Z"/><g class="cls-9"><path d="M325.91,344.92a19.72,19.72,0,0,0-11.41-15.08c-4.77-2.13-11.35-2.62-15.88,0S288,338.88,289.26,344l10.39,17.46a16.51,16.51,0,0,0,18.53.58A18,18,0,0,0,325.91,344.92Z"/></g><path class="cls-2" d="M322.68,357.65a21,21,0,0,1,1-1.95,20.06,20.06,0,0,0,1.79-5.66,18.17,18.17,0,0,0-.76-8.68,21.25,21.25,0,0,0-1-2.36,19.76,19.76,0,0,0-1.35-2.28,19,19,0,0,0-3.73-4.11,18.31,18.31,0,0,0-4.76-2.83,19.27,19.27,0,0,0-13.71,0,20.47,20.47,0,0,0-5.24,2.8c-1.13.84-1.71,1.38-1.75,1.34a2.34,2.34,0,0,1,.4-.42c.28-.24.65-.66,1.22-1.09a19.53,19.53,0,0,1,5.24-3,19.55,19.55,0,0,1,14-.09,18.55,18.55,0,0,1,4.91,2.91,19.33,19.33,0,0,1,3.83,4.23,22.28,22.28,0,0,1,1.37,2.34,21,21,0,0,1,1,2.42,18.25,18.25,0,0,1,.68,8.9,19,19,0,0,1-2,5.69c-.34.63-.67,1.08-.87,1.39A2.44,2.44,0,0,1,322.68,357.65Z"/><path class="cls-2" d="M294.1,333.11c-.15,0-1.36-6.83-2.72-15.3s-2.34-15.35-2.2-15.37,1.36,6.82,2.72,15.29S294.24,333.08,294.1,333.11Z"/><g class="cls-9"><path d="M287.32,293.13l5.31-.37A24.46,24.46,0,0,1,308,282.17a9.49,9.49,0,0,1,4.43-.09,4.33,4.33,0,0,1,3.14,2.89,2.87,2.87,0,0,1-2,3.47,11,11,0,0,1,6.94,5.5c.3.57.52,1.35.07,1.81a1.61,1.61,0,0,1-1.2.32c-2.45,0-4.88-.54-7.33-.66a11,11,0,0,0-7,1.65c-2,1.44-3.08,3.76-4,6a121.38,121.38,0,0,0-7.4,25.12c-1.22-4.87-1.34-10-2.23-14.62-1.27-6.55-2.5-13.25-4-20.44"/></g><g class="cls-9"><path d="M172.15,337.29c6.61,7.06,15.53,10.35,25.08,11.91s19.3,1,29,.46c2.38-.14,5.21-.55,6.24-2.7.74-1.53.23-3.34-.36-4.92-4.25-11.27-12.68-20.37-20.91-29.17-3-3.22-6.22-6.56-10.43-7.86-4.63-1.42-9.89-.16-14.28-2.21-5.28-2.45-7.43-8.67-9.06-14.25L174,277c.74,12.54.61,22.6.61,22.6s-3.46,23.16-3,28.41S172.15,337.29,172.15,337.29Z"/></g><path class="cls-2" d="M238,194.34a7.13,7.13,0,0,1-1.31-.29c-.84-.21-2-.59-3.5-1.1a57.83,57.83,0,0,1-20.43-12.69c-1.11-1.08-2-2-2.53-2.65a5.74,5.74,0,0,1-.84-1.05,9.21,9.21,0,0,1,1,.91c.6.62,1.5,1.48,2.64,2.52a64.64,64.64,0,0,0,20.3,12.61c1.43.56,2.61,1,3.43,1.25A6.16,6.16,0,0,1,238,194.34Z"/><path class="cls-2" d="M265.86,188.78a2.37,2.37,0,0,1-.38.75,15.87,15.87,0,0,1-1.29,1.85,23.47,23.47,0,0,1-12.35,8,16.64,16.64,0,0,1-2.22.44,2.41,2.41,0,0,1-.83,0c0-.09,1.15-.28,3-.83a26.8,26.8,0,0,0,6.64-3.11,27.17,27.17,0,0,0,5.53-4.81C265.14,189.72,265.79,188.73,265.86,188.78Z"/><path class="cls-2" d="M270.49,195a17.46,17.46,0,0,1-8.15,9.11,58.88,58.88,0,0,0,4.51-4.16A57.76,57.76,0,0,0,270.49,195Z"/><path class="cls-4" d="M218,313.86l.63-.13c2.21-.43,9.57-1.77,10.76-.58,1.39,1.4,11.36,11.19,11.36,11.19s-1.92,3.15-8.22,0S218,313.86,218,313.86Z"/><path class="cls-2" d="M203.9,294h0a5,5,0,0,1,6.88,1.22l30.39,40.3-7.79,5.68-30.69-39.92A5,5,0,0,1,203.9,294Z"/><path class="cls-4" d="M134.41,321s36.09,5.85,41.06,6.25,18.69,14.91,22.66,16.3,14.72,1.2,14.72,1.2,19.48,1,20.08,0,1.79-.81,0-4.59a38.67,38.67,0,0,0-4-6.56s5,6.17,6.37,6.37,4.37.55,4.17-2.11-5.37-13.6-5.37-13.6-2.18-5.11-6.16-6.23-21.28-9.48-21.28-9.48H188.19l-21.58-10.26s-13.06-4.19-25.49,9.51a26.78,26.78,0,0,0-5.41,9.38Z"/><path class="cls-5" d="M237.6,332.46a4.53,4.53,0,0,1-.54-1c-.35-.8-.78-1.78-1.28-2.94s-1.17-2.76-1.85-4.38a9.52,9.52,0,0,0-3.15-4.6,15.22,15.22,0,0,0-2.59-1.42l-2.55-1.14c-1.63-.72-3.12-1.34-4.36-1.86l-3-1.23a4.92,4.92,0,0,1-1.06-.5,5.58,5.58,0,0,1,1.14.31c.71.24,1.75.6,3,1.08s2.77,1.06,4.42,1.76l2.57,1.12a14.46,14.46,0,0,1,2.69,1.46,9.75,9.75,0,0,1,3.29,4.86c.65,1.63,1.23,3.12,1.74,4.41s.82,2.18,1.13,3A5.76,5.76,0,0,1,237.6,332.46Z"/><path class="cls-5" d="M219.45,322.45a8.8,8.8,0,0,1,1.91,1.47,41.66,41.66,0,0,1,4,4.19,40.5,40.5,0,0,1,3.42,4.72,8.87,8.87,0,0,1,1.12,2.14,15.38,15.38,0,0,1-1.43-1.94c-.85-1.21-2.06-2.86-3.51-4.58s-2.85-3.21-3.9-4.26A14.7,14.7,0,0,1,219.45,322.45Z"/><path class="cls-5" d="M229.77,345a2.28,2.28,0,0,1-.76-.3,13.88,13.88,0,0,1-1.9-1.16,32.67,32.67,0,0,1-5.27-5.07c-1.87-2.15-3.54-4.11-4.72-5.54a18.12,18.12,0,0,1-1.85-2.4,16.84,16.84,0,0,1,2.12,2.15c1.26,1.38,3,3.3,4.84,5.45a40.68,40.68,0,0,0,5.1,5.11C228.78,344.4,229.81,344.93,229.77,345Z"/><path class="cls-5" d="M219.05,345a8.33,8.33,0,0,1-1.86-.94,44.35,44.35,0,0,1-4.16-2.79,48.41,48.41,0,0,1-3.82-3.24,8.39,8.39,0,0,1-1.43-1.52c.11-.12,2.48,2,5.57,4.34S219.14,344.85,219.05,345Z"/><path class="cls-4" d="M278.26,360s-3.17-4.9-3.61-6.65,0-10.08-5.84-8.76v.6c.15.71,0,17.65,0,17.65Z"/><path class="cls-3" d="M203.44,368.85s-5.4,49.75,52.84,48.3c47.48-1.19,46.65-47.47,46.65-47.47Z"/><ellipse class="cls-3" cx="252.31" cy="369.32" rx="54.27" ry="13.12"/><ellipse class="cls-10" cx="253.12" cy="368.85" rx="49.81" ry="8.29"/><path class="cls-2" d="M304.74,373.07l-.22.16-.67.42c-.59.37-1.49.88-2.67,1.49a54.43,54.43,0,0,1-10.52,3.94,131.29,131.29,0,0,1-16.38,3.06,157.94,157.94,0,0,1-20.38,1c-7.23-.06-14.13-.3-20.38-.85a114.83,114.83,0,0,1-16.47-2.56,74.14,74.14,0,0,1-10.72-3.34c-1.24-.47-2.17-.92-2.81-1.21l-.71-.33-.24-.13a1.09,1.09,0,0,1,.26.08l.74.29c.65.25,1.58.67,2.83,1.11a80.48,80.48,0,0,0,10.74,3.17,119.94,119.94,0,0,0,16.42,2.45c6.24.51,13.12.74,20.35.8a164.63,164.63,0,0,0,20.31-1,134.14,134.14,0,0,0,16.34-2.94A55.73,55.73,0,0,0,301.09,375c1.19-.57,2.1-1.05,2.7-1.39l.7-.38Z"/><path class="cls-4" d="M271.49,367.73s5.94-19.91,8-22.56c1.69-2.19,13.67-11.24,17.77-14.32a10,10,0,0,1,3.39-1.65c4.07-1.07,8.14-1.79,14.84,1.11a17,17,0,0,1,9.14,9.86l-22.35,13.89-.87,9.4-18-4.58a5,5,0,0,0-.53-2.75S277.17,370,271.49,367.73Z"/><path class="cls-11" d="M249.92,353.59c-2.27-3-4.16-5.89-5.66-8.33s-2.57-4.52-3.28-6a15.38,15.38,0,0,0-1.17-2.22,15.3,15.3,0,0,0,.89,2.35,63.33,63.33,0,0,0,3.08,6.11,97.26,97.26,0,0,0,5.56,8.48c2.24,3.09,4.87,6.37,7.66,9.76,3.9,4.68,7.5,9.05,10.43,12.89l.81,0c-2.93-4-6.62-8.52-10.63-13.35C254.82,359.89,252.19,356.64,249.92,353.59Z"/><path class="cls-11" d="M235.64,339.33a15.94,15.94,0,0,0,.94,2.32c.65,1.47,1.59,3.6,2.7,6.25A210.69,210.69,0,0,1,246.81,369c.78,2.81,1.61,5.54,2.59,8.07h.8c-1-2.56-1.82-5.35-2.64-8.28a171.23,171.23,0,0,0-7.77-21.14c-1.18-2.63-2.2-4.73-2.93-6.17A16.44,16.44,0,0,0,235.64,339.33Z"/><path class="cls-11" d="M237.6,336.94a15.57,15.57,0,0,0,1.07,2.29c.74,1.44,1.83,3.53,3.2,6.09,2.75,5.11,6.6,12.15,11.29,19.68,2.72,4.38,5.45,8.4,8,11.9l.84,0c-2.54-3.61-5.34-7.76-8.14-12.29-4.68-7.5-8.6-14.49-11.47-19.53-1.39-2.43-2.55-4.44-3.42-6A15.39,15.39,0,0,0,237.6,336.94Z"/><path class="cls-11" d="M281.33,371.13A33.16,33.16,0,0,0,272.48,359a80.44,80.44,0,0,0-11-8c-3.6-2.27-7-4.33-9.91-6.42A69.47,69.47,0,0,1,239,333.08c-1.31-1.53-2.28-2.77-2.92-3.61-.3-.4-.54-.71-.74-1a1.33,1.33,0,0,0-.27-.32,1.62,1.62,0,0,0,.21.36c.17.27.4.6.67,1,.61.88,1.53,2.15,2.82,3.72A66.51,66.51,0,0,0,251.25,345c2.93,2.14,6.3,4.23,9.87,6.52a81.5,81.5,0,0,1,10.88,8,32.57,32.57,0,0,1,8.62,11.9,23.63,23.63,0,0,1,1.33,4.23l.78-.09A25.11,25.11,0,0,0,281.33,371.13Z"/><path class="cls-11" d="M279.53,374.42a34.51,34.51,0,0,0-5.34-9.11,57.81,57.81,0,0,0-9.3-9c-3.59-2.84-7.18-5.31-10.38-7.62s-6-4.46-8.28-6.41a61.38,61.38,0,0,1-5.08-4.89,22.27,22.27,0,0,0-1.77-1.91,2.42,2.42,0,0,0,.36.58c.25.36.65.88,1.18,1.53a49.56,49.56,0,0,0,4.94,5.11c2.23,2,5,4.23,8.22,6.57s6.76,4.84,10.32,7.66a60.07,60.07,0,0,1,9.23,8.81,35.77,35.77,0,0,1,5.38,8.86c.18.44.33.85.48,1.26l.52,0C279.86,375.37,279.72,374.91,279.53,374.42Z"/><path class="cls-11" d="M253.31,369.79c-3.84-7-7.07-13.52-9.36-18.24l-2.7-5.61a13.35,13.35,0,0,0-1.06-2,12.57,12.57,0,0,0,.78,2.15c.56,1.36,1.4,3.31,2.47,5.71,2.17,4.79,5.33,11.34,9.17,18.39,1.31,2.39,2.6,4.68,3.85,6.84h.86C256,374.72,254.68,372.31,253.31,369.79Z"/><path class="cls-11" d="M261.3,360.81A206.57,206.57,0,0,1,246,344.06c-1.83-2.24-3.27-4.1-4.28-5.37a13.46,13.46,0,0,0-1.61-1.95,15.35,15.35,0,0,0,1.37,2.13c.93,1.33,2.3,3.24,4.09,5.54a170.29,170.29,0,0,0,15.14,17c3.16,3.13,6.37,5.89,9.06,8.6a41.84,41.84,0,0,1,5.25,6.27l.66-.05a39,39,0,0,0-5.39-6.72C267.63,366.7,264.44,363.92,261.3,360.81Z"/><path class="cls-11" d="M244.88,374.58c-1.33-4-2.23-7.87-3.07-11.38-1.62-7-3.13-12.74-4.74-16.47a29.15,29.15,0,0,0-2.87-5.59s0,.14.16.38l.56,1.08c.47.95,1.15,2.36,1.87,4.24,1.51,3.75,2.93,9.42,4.47,16.48.82,3.52,1.69,7.4,3,11.46.26.77.55,1.56.84,2.35h.72C245.48,376.27,245.17,375.42,244.88,374.58Z"/><path class="cls-2" d="M285.18,362.51a.64.64,0,0,1,.24,0,6.77,6.77,0,0,1,.7,0c.61.05,1.51.15,2.66.32a60.42,60.42,0,0,1,9.61,2.12,21.76,21.76,0,0,1,3,1.33,4.14,4.14,0,0,1,1.36,1.19,2.28,2.28,0,0,1,.28,1.89,2.58,2.58,0,0,1-1.3,1.48,11.41,11.41,0,0,1-1.73.92,28,28,0,0,1-3.81,1.32,119,119,0,0,1-17.56,3.38,207,207,0,0,1-32.43.89c-4.15-.16-7.5-.35-9.82-.5l-2.67-.18-.69-.07a1.48,1.48,0,0,1-.24,0,.73.73,0,0,1,.24,0h.7l2.67.09,9.82.33a221.8,221.8,0,0,0,32.36-1,120.85,120.85,0,0,0,17.49-3.32,27.71,27.71,0,0,0,3.76-1.29,9.79,9.79,0,0,0,1.67-.87,2.24,2.24,0,0,0,1.13-1.21,1.86,1.86,0,0,0-.22-1.55,3.61,3.61,0,0,0-1.22-1.07,21.62,21.62,0,0,0-2.93-1.33,64.41,64.41,0,0,0-9.53-2.27c-1.14-.2-2-.33-2.63-.42S285.18,362.53,285.18,362.51Z"/><path class="cls-5" d="M290,350.2c.09.12-1.77,1.57-3.9,3.54s-3.72,3.71-3.84,3.61a17.62,17.62,0,0,1,3.49-4A17.24,17.24,0,0,1,290,350.2Z"/><path class="cls-5" d="M289.59,358.09a11.08,11.08,0,0,0-3.21-.66,10.46,10.46,0,0,0-3.19.8c0-.05.22-.36.78-.68a5,5,0,0,1,2.4-.64,5.1,5.1,0,0,1,2.42.54C289.36,357.75,289.63,358,289.59,358.09Z"/></g><g id="Shelves"><path class="cls-6" d="M108.19,151.69c-.58.46-32.29,14.7-32.29,14.7s8.73,18.54,25.67,10.28C117,169.13,108.19,151.69,108.19,151.69Z"/><path class="cls-6" d="M107.84,49.29c.72,0,1.3,24.62,1.3,55s-.58,55-1.3,55-1.31-24.62-1.31-55S107.12,49.29,107.84,49.29Z"/><path class="cls-6" d="M85.28,123.56C84.69,124,53,138.25,53,138.25s8.73,18.54,25.68,10.28C94.13,141,85.28,123.56,85.28,123.56Z"/><path class="cls-6" d="M84.92,47.42c.72,0,1.3,18.74,1.3,41.85s-.58,41.85-1.3,41.85-1.3-18.73-1.3-41.85S84.2,47.42,84.92,47.42Z"/><path class="cls-6" d="M57.52,95.8c-.59.45-32.3,14.69-32.3,14.69S34,129,50.9,120.77C66.37,113.23,57.52,95.8,57.52,95.8Z"/><path class="cls-6" d="M57.16,50.25c.72,0,1.31,11.89,1.31,26.56s-.59,26.55-1.31,26.55-1.3-11.89-1.3-26.55S56.44,50.25,57.16,50.25Z"/><circle class="cls-6" cx="145.56" cy="124.35" r="32.4"/><polygon class="cls-6" points="144.35 95.57 141.81 53.91 153.75 53.91 150.44 95.57 144.35 95.57"/><path class="cls-2" d="M159.19,147.08l-.21.14-.66.38c-.29.17-.64.39-1.08.6l-1.54.7a26.82,26.82,0,0,1-10.52,1.93,27.39,27.39,0,0,1-15-4.78,24.07,24.07,0,0,1-6.55-6.77,27.77,27.77,0,0,1-4.14-19.45,24.17,24.17,0,0,1,3.22-8.85,27.46,27.46,0,0,1,11.78-10.5A27.09,27.09,0,0,1,144.85,98h1.69c.49,0,.9.08,1.23.11l.75.08.26,0a.66.66,0,0,1-.26,0l-.76,0c-.33,0-.74-.05-1.23-.05l-1.67,0a27.42,27.42,0,0,0-21.78,13.06,23.89,23.89,0,0,0-3.13,8.68A27.48,27.48,0,0,0,124,139a23.9,23.9,0,0,0,6.39,6.65,27.42,27.42,0,0,0,25.22,3.05l1.54-.65c.45-.2.8-.4,1.1-.55l.68-.33A.67.67,0,0,1,159.19,147.08Z"/><polygon class="cls-6" points="15.66 0 27.14 41.5 75.72 41.5 87.2 0 15.66 0"/><path class="cls-2" d="M84.92,8.23c0,.14-15,.26-33.49.26s-33.49-.12-33.49-.26S32.93,8,51.43,8,84.92,8.08,84.92,8.23Z"/><path class="cls-2" d="M93.83,10.7H83.89l1.59-4.34h8.35A2.17,2.17,0,0,1,96,8.53h0A2.17,2.17,0,0,1,93.83,10.7Z"/><path class="cls-2" d="M9,10.7h10L17.31,6.36H9A2.17,2.17,0,0,0,6.78,8.53h0A2.17,2.17,0,0,0,9,10.7Z"/><rect class="cls-3" x="3.38" y="40.94" width="181.47" height="12.97"/></g><g id="Kitchen_tools" data-name="Kitchen tools"><path class="cls-3" d="M419.62,225.63a5.41,5.41,0,0,0-7,3.07l-8.05,21.56h0l10,3.68,8.12-21.36A5.4,5.4,0,0,0,419.62,225.63Z"/><path class="cls-12" d="M419.4,232.45a2.3,2.3,0,1,1-2.29-2.29A2.29,2.29,0,0,1,419.4,232.45Z"/><path class="cls-12" d="M413.7,246.59a2.3,2.3,0,1,1-2.3-2.29A2.3,2.3,0,0,1,413.7,246.59Z"/><polygon class="cls-13" points="404.59 250.26 389.08 290.72 408.17 290.48 423.74 257.05 404.59 250.26"/><rect class="cls-3" x="365.51" y="290.72" width="53.5" height="61.53"/><path class="cls-8" d="M419,306.05c0,.14-12,.26-26.75.26s-26.75-.12-26.75-.26,12-.26,26.75-.26S419,305.9,419,306.05Z"/><path class="cls-8" d="M419,312.67c0,.14-12,.26-26.75.26s-26.75-.12-26.75-.26,12-.26,26.75-.26S419,312.53,419,312.67Z"/><path class="cls-8" d="M419,319.29c0,.15-12,.27-26.75.27s-26.75-.12-26.75-.27,12-.26,26.75-.26S419,319.15,419,319.29Z"/><path class="cls-8" d="M419,325.92c0,.14-12,.26-26.75.26s-26.75-.12-26.75-.26,12-.26,26.75-.26S419,325.77,419,325.92Z"/><path class="cls-8" d="M419,332.54c0,.15-12,.26-26.75.26s-26.75-.11-26.75-.26,12-.26,26.75-.26S419,332.4,419,332.54Z"/><path class="cls-8" d="M419,339.17c0,.14-12,.26-26.75.26s-26.75-.12-26.75-.26,12-.26,26.75-.26S419,339,419,339.17Z"/><path class="cls-6" d="M334.07,256.85l35.77,2.86s1-17.37-15.74-19.21S334.07,256.85,334.07,256.85Z"/><path class="cls-6" d="M379.65,290.72c-.68.24-4.4-8.68-8.3-19.91s-6.52-20.53-5.84-20.77,4.39,8.68,8.3,19.91S380.33,290.48,379.65,290.72Z"/></g><g id="Food"><path class="cls-6" d="M381.79,408.56a4.66,4.66,0,0,1-.71.15l-2.05.34-1.48.23c-.55.07-1.14.12-1.78.18-1.27.11-2.73.3-4.34.32l-2.53.09c-.88,0-1.8,0-2.75,0-1.9,0-3.92-.19-6-.36a81.89,81.89,0,0,1-26.68-7.31c-1.91-.94-3.75-1.8-5.38-2.78-.83-.47-1.64-.89-2.39-1.36l-2.13-1.37c-1.38-.84-2.53-1.74-3.57-2.49-.52-.38-1-.72-1.44-1.06l-1.16-1-1.59-1.34a4.26,4.26,0,0,1-.53-.49,3.45,3.45,0,0,1,.6.41l1.65,1.26,1.18.91c.44.33.93.66,1.46,1,1.05.72,2.21,1.59,3.6,2.41l2.14,1.33c.75.46,1.56.87,2.38,1.34,1.64.95,3.47,1.79,5.38,2.72A84.69,84.69,0,0,0,360.15,409c2.11.17,4.12.38,6,.4.95,0,1.86.08,2.74.06l2.52,0c1.6,0,3.05-.16,4.33-.24.63-.05,1.23-.08,1.77-.14l1.49-.18,2.05-.24A3.65,3.65,0,0,1,381.79,408.56Z"/><path class="cls-6" d="M339.21,404.61c-7.5-1-17.3,1.9-22.92,7a73.91,73.91,0,0,0,22.92-7"/><path class="cls-6" d="M339.59,404.7c2.75-7.05-1.31-17-1.31-17-.79-1.34-.44,9.17,1.31,17"/><path class="cls-6" d="M327.75,399.1c2-5.18-.9-12.45-.9-12.45-.57-1-.34,6.72.9,12.45"/><path class="cls-6" d="M350.19,407.16c2-5.18-.91-12.45-.91-12.45-.57-1-.34,6.72.91,12.45"/><path class="cls-6" d="M328,399.21c-5.59-.74-12.88,1.42-17.05,5.2a54.89,54.89,0,0,0,17.05-5.2"/><path class="cls-6" d="M351.33,408c-7.93.11-17.63,4.61-22.68,10.73A77.29,77.29,0,0,0,351.33,408"/><path class="cls-3" d="M381.55,370.14a16.16,16.16,0,0,0-28.33,2.64,18.67,18.67,0,0,0,.23,14.27,25.55,25.55,0,0,0,9.34,11c10.57,7.2,25.9,6.88,35.72-1.31,3.65-3,6.58-7.2,7.25-11.9a14.81,14.81,0,0,0-21.91-15"/><path class="cls-6" d="M381.59,370.11a5.64,5.64,0,0,0-6-4.12l3.54,4.21a5.52,5.52,0,0,0-4.35,3.41c-.16.44-.21,1,.2,1.26a1.1,1.1,0,0,0,.88-.09l4.3-1.79a14.78,14.78,0,0,0,2.56,6.67,17.51,17.51,0,0,0,1.63-6.71l4.74,2.11a7.11,7.11,0,0,0-2.23-3.52,11.83,11.83,0,0,0,4-1.55c.37-.23.77-.62.61-1s-.52-.39-.85-.42a15.67,15.67,0,0,0-9.05,1.88"/><path class="cls-6" d="M381.28,371.89a31,31,0,0,0-1.18-14.34c1.13-.25,2.52-.42,3.26.48a3.07,3.07,0,0,1,.48,1.92,33.71,33.71,0,0,1-2.54,13.22"/><path class="cls-8" d="M358.22,389.1a3.63,3.63,0,0,1-.74-.74,13.37,13.37,0,0,1-1.59-2.39,14.64,14.64,0,0,1,2.9-17.52,13.14,13.14,0,0,1,2.27-1.75,3.44,3.44,0,0,1,.94-.46,30,30,0,0,0-2.95,2.47,14.89,14.89,0,0,0-2.83,17.1A29.61,29.61,0,0,0,358.22,389.1Z"/><path class="cls-8" d="M363,392.7c-.05.14-.8,0-1.56-.57s-1.15-1.2-1-1.28.65.36,1.35.86S363,392.57,363,392.7Z"/><path class="cls-6" d="M162,315.26c-.44.1,2.79,16.32,2.79,16.32h8.26l3.65-15.67A26.06,26.06,0,0,0,162,315.26Z"/><path class="cls-11" d="M157.05,406.57s-12.16-34.05-10.46-43.3,5.35-11.19,8.27-14.11,5.35-5.35,6.08-8.27,0-14.59,0-14.59-2.19-3.41-1.46-4.62,18.73,0,18.73,0a8.18,8.18,0,0,1-1.46,4.13s-.48,13.62.25,15.08,11.92,13.87,13.62,20.19-6.72,45.49-6.72,45.49Z"/><path class="cls-2" d="M157.05,406.57l.47,0,1.37,0,5.28,0,19.73-.08-.16.13c1-5,2.15-10.57,3.29-16.74s2.33-12.91,3.16-20.14c.19-1.8.36-3.64.4-5.5a9.27,9.27,0,0,0-1.15-5.4,65.08,65.08,0,0,0-6.49-9.82c-1.22-1.6-2.5-3.19-3.79-4.79-.64-.81-1.29-1.6-1.92-2.45a7.36,7.36,0,0,1-.47-.68,3.33,3.33,0,0,1-.2-.83,14.43,14.43,0,0,1-.14-1.59c-.19-4.21-.06-8.47.06-12.8v-.07l0-.06a8.89,8.89,0,0,0,.55-1,7.72,7.72,0,0,0,.86-3l.24.26c-4.1-.26-8.16-.47-12.13-.53a36.18,36.18,0,0,0-5.83.23,1.46,1.46,0,0,0-.52.17,1,1,0,0,0-.12.53,4.26,4.26,0,0,0,.3,1.32,15,15,0,0,0,1.26,2.5l0,.06v.06c.18,3.11.31,6.17.32,9.19a41.83,41.83,0,0,1-.17,4.48,8.9,8.9,0,0,1-1.63,4.13,24.78,24.78,0,0,1-2.77,3.31c-1,1-2,2-3,2.95a31,31,0,0,0-2.88,2.85,15.48,15.48,0,0,0-2.14,3.27,26.62,26.62,0,0,0-2.19,7.18,17.15,17.15,0,0,0,0,3.58c.08,1.18.24,2.33.4,3.46A125,125,0,0,0,149.85,383c2,7.45,3.88,13.31,5.17,17.33l1.52,4.6.39,1.19c.09.27.12.41.12.41s-.06-.13-.16-.39-.25-.67-.44-1.18c-.37-1-.91-2.57-1.59-4.58-1.35-4-3.29-9.85-5.33-17.29-1-3.73-2.05-7.85-2.8-12.39-.17-1.14-.33-2.3-.42-3.49a17.35,17.35,0,0,1,0-3.67,26.74,26.74,0,0,1,2.21-7.32,15.89,15.89,0,0,1,2.19-3.36,33.19,33.19,0,0,1,2.91-2.9c1-.93,2-1.93,2.95-2.94a25,25,0,0,0,2.72-3.25,8.47,8.47,0,0,0,1.54-3.92,43,43,0,0,0,.16-4.42c0-3-.15-6.06-.33-9.15l0,.12a15.49,15.49,0,0,1-1.32-2.6,5.13,5.13,0,0,1-.33-1.5,1.45,1.45,0,0,1,.23-.84,1.38,1.38,0,0,1,.81-.36,37,37,0,0,1,5.95-.25c4,.06,8,.27,12.16.53h.26l0,.25a8.27,8.27,0,0,1-.91,3.26,9.78,9.78,0,0,1-.59,1l0-.14c-.12,4.31-.25,8.59-.07,12.75a15.45,15.45,0,0,0,.14,1.54,3.82,3.82,0,0,0,.15.68c.13.2.26.4.42.61.62.82,1.27,1.62,1.91,2.43,1.29,1.6,2.57,3.2,3.79,4.8a64.74,64.74,0,0,1,6.53,9.92,9.79,9.79,0,0,1,1.19,5.61c0,1.89-.22,3.74-.42,5.55-.84,7.25-2.07,14-3.21,20.16s-2.31,11.79-3.38,16.74l0,.13h-.14l-19.8-.09-5.26,0-1.34,0Z"/><path class="cls-3" d="M181.57,403a194.63,194.63,0,0,0,6.1-34.77c.11-1.34.11-2.89-.91-3.77-1.24-1.09-3.13-.51-4.7,0a28.32,28.32,0,0,1-14.27.76c-4.61-.95-9.18-3.06-13.83-2.29a4.41,4.41,0,0,0-3.05,1.61c-.75,1.12-.57,2.6-.36,3.93,1.83,11.43,5.56,24.57,8.59,34.54Z"/><path class="cls-8" d="M184.62,365.9a4.9,4.9,0,0,1-.87,1,22.26,22.26,0,0,1-2.76,2.22,24.57,24.57,0,0,1-22.36,2.81,21.43,21.43,0,0,1-3.22-1.47,5.63,5.63,0,0,1-1.08-.7c0-.1,1.62.88,4.42,1.82a25.51,25.51,0,0,0,22-2.77C183.27,367.16,184.55,365.82,184.62,365.9Z"/></g></g></svg>