<svg xmlns="http://www.w3.org/2000/svg" viewBox="0 0 418.88 389.03"><defs><style>.cls-1{fill:#b3f7ff;}.cls-2{fill:#4f9967;}.cls-22,.cls-26,.cls-3{fill:#444463;}.cls-4{fill:#67e56a;}.cls-5{fill:#58cc58;}.cls-6{fill:#a1f973;}.cls-7{fill:#efe5d0;}.cls-8{fill:#e2d0b0;}.cls-9{fill:#c4b090;}.cls-10{fill:#ffd876;}.cls-11{fill:#ffcf4a;}.cls-12{fill:#ffb133;}.cls-13{fill:#ccc2b2;}.cls-14{fill:#f4586b;}.cls-15{fill:#ff7e71;}.cls-16{fill:#ffad91;}.cls-17{fill:#9fdaff;}.cls-18{fill:#c2ebff;}.cls-19{fill:#fff;}.cls-20{fill:none;stroke:#444463;stroke-miterlimit:10;}.cls-21{fill:#7badc6;}.cls-22{font-size:11.57px;}.cls-22,.cls-26{font-family:Lato-Black, Lato Black;font-weight:800;}.cls-23{fill:#55557c;}.cls-24{fill:#7dc0e2;}.cls-25{fill:#b2a89a;}.cls-26{writing-mode:tb;text-orientation:upright;glyph-orientation-vertical:0deg;font-size:14px;}</style></defs><g id="Capa_2" data-name="Capa 2"><g id="OBJECTS"><path class="cls-1" d="M362.42,65.19,279.19,15.6a110.78,110.78,0,0,0-126.28,9L43.54,112.91A110.78,110.78,0,0,0,9.86,239.12h0a111,111,0,0,0,5.24,11.51A22.28,22.28,0,0,0,43.18,285a110.79,110.79,0,0,0,65.17,24.8l172.34,7.45A110.77,110.77,0,0,0,386.91,251l20.26-46.19A110.75,110.75,0,0,0,362.42,65.19Z"/><circle class="cls-1" cx="346.24" cy="26.99" r="17.71"/><circle class="cls-1" cx="62.28" cy="73.84" r="5.71" transform="translate(-29.86 102.85) rotate(-67.33)"/><path class="cls-2" d="M80.23,308.45H338.65A60.32,60.32,0,0,1,399,368.78v2.38a0,0,0,0,1,0,0H19.91a0,0,0,0,1,0,0v-2.38A60.32,60.32,0,0,1,80.23,308.45Z"/><rect class="cls-3" y="370.55" width="418.88" height="18.48" rx="8.89"/><path class="cls-4" d="M377.62,340.47a12.92,12.92,0,0,1-25.83,0c0-7.14,5.78-24.71,12.92-24.71S377.62,333.33,377.62,340.47Z"/><path class="cls-5" d="M353.29,346.5a12.91,12.91,0,0,0,23.91-2.8C373.55,347,365.81,347.4,353.29,346.5Z"/><path class="cls-6" d="M364.71,315.76c-6.94,0-12.6,16.63-12.9,24.1,6.16-1.13,21.93-5,21.69-15.15C371.2,319.76,368.11,315.76,364.71,315.76Z"/><rect class="cls-7" x="352" y="347.72" width="25.41" height="22.75"/><rect class="cls-8" x="356.7" y="351.93" width="16.01" height="14.33"/><path class="cls-9" d="M356.7,366.26l16-14.33h-16S356.6,366.37,356.7,366.26Z"/><path class="cls-4" d="M407.21,340.47a12.92,12.92,0,0,1-25.83,0c0-7.14,5.78-24.71,12.91-24.71S407.21,333.33,407.21,340.47Z"/><path class="cls-5" d="M382.87,346.5a12.91,12.91,0,0,0,23.92-2.8C403.13,347,395.39,347.4,382.87,346.5Z"/><path class="cls-6" d="M394.29,315.76c-6.94,0-12.6,16.63-12.9,24.1,6.16-1.13,21.94-5,21.7-15.15C400.78,319.76,397.69,315.76,394.29,315.76Z"/><rect class="cls-7" x="381.59" y="347.72" width="25.41" height="22.75"/><rect class="cls-8" x="386.29" y="351.93" width="16.01" height="14.33"/><path class="cls-9" d="M386.29,366.26l16-14.33h-16S386.19,366.37,386.29,366.26Z"/><path class="cls-4" d="M36.1,340.47a12.92,12.92,0,0,1-25.83,0c0-7.14,5.78-24.71,12.91-24.71S36.1,333.33,36.1,340.47Z"/><path class="cls-5" d="M11.76,346.5a12.91,12.91,0,0,0,23.92-2.8C32,347,24.28,347.4,11.76,346.5Z"/><path class="cls-6" d="M23.18,315.76c-6.94,0-12.6,16.63-12.9,24.1,6.16-1.13,21.94-5,21.7-15.15C29.67,319.76,26.58,315.76,23.18,315.76Z"/><rect class="cls-7" x="10.48" y="347.72" width="25.41" height="22.75"/><rect class="cls-8" x="15.18" y="351.93" width="16.01" height="14.33"/><path class="cls-9" d="M15.18,366.26l16-14.33h-16S15.08,366.37,15.18,366.26Z"/><path class="cls-4" d="M65.69,340.47a12.92,12.92,0,0,1-25.84,0c0-7.14,5.79-24.71,12.92-24.71S65.69,333.33,65.69,340.47Z"/><path class="cls-5" d="M41.35,346.5a12.91,12.91,0,0,0,23.91-2.8C61.61,347,53.87,347.4,41.35,346.5Z"/><path class="cls-6" d="M52.77,315.76c-6.94,0-12.6,16.63-12.9,24.1,6.16-1.13,21.93-5,21.7-15.15C59.26,319.76,56.17,315.76,52.77,315.76Z"/><rect class="cls-7" x="40.06" y="347.72" width="25.41" height="22.75"/><rect class="cls-8" x="44.76" y="351.93" width="16.01" height="14.33"/><path class="cls-9" d="M44.76,366.26l16-14.33h-16S44.66,366.37,44.76,366.26Z"/><rect class="cls-10" x="71.11" y="185.05" width="276.66" height="186.37"/><rect class="cls-11" x="78.85" y="228.06" width="30.85" height="15.43"/><rect class="cls-12" x="255.39" y="213.92" width="30.85" height="15.43"/><rect class="cls-11" x="179.97" y="255.06" width="30.85" height="15.43"/><rect class="cls-12" x="311.1" y="290.2" width="30.85" height="15.43"/><rect class="cls-12" x="71.13" y="257.63" width="14.86" height="15.43"/><rect class="cls-11" x="332.81" y="257.63" width="14.85" height="15.43"/><rect class="cls-11" x="162.41" y="320.62" width="14.86" height="15.43"/><polygon class="cls-12" points="347.77 201.92 71.11 205.35 71.11 185.05 347.77 185.05 347.77 201.92"/><rect class="cls-7" x="71.11" y="357.33" width="276.66" height="14.08"/><rect class="cls-8" x="71.11" y="367.85" width="276.66" height="3.56"/><polygon class="cls-13" points="356.91 195.93 61.97 195.93 56.66 162.26 362.21 162.26 356.91 195.93"/><polygon class="cls-7" points="303.11 108.81 115.77 108.81 56.66 162.29 362.22 162.29 303.11 108.81"/><polygon class="cls-14" points="61.97 195.93 100.31 195.93 100.31 162.26 56.66 162.26 61.97 195.93"/><rect class="cls-14" x="143.9" y="162.26" width="43.75" height="33.68"/><rect class="cls-14" x="231.23" y="162.26" width="43.75" height="33.68"/><polygon class="cls-14" points="318.56 162.26 318.56 195.93 356.91 195.93 362.21 162.26 318.56 162.26"/><path class="cls-15" d="M303.11,108.81h-2.53c-6.46.09-23.33.28-24.27,0h0l42.26,53.37H362.1Z"/><path class="cls-15" d="M222.78,108.78l8.45,53.4H275l-25.4-53.4Z"/><polygon class="cls-15" points="143.9 162.18 187.64 162.18 196.08 108.78 169.28 108.78 143.9 162.18"/><path class="cls-15" d="M56.56,162.18h43.75l42.27-53.4H115.79Z"/><path class="cls-16" d="M70.68,149.45c10.68,2.11,22.55,4.21,34.95,6l14.88-18.8a231.74,231.74,0,0,1-26-8.71Z"/><path class="cls-16" d="M153,143l-7.94,16.69a280.91,280.91,0,0,0,43-.14l2.33-14.72A252.81,252.81,0,0,1,153,143Z"/><path class="cls-16" d="M227.94,141.41l1.7,10.75c11.79-2.88,23.9-6.34,35.78-10.07l-3.79-8A316.9,316.9,0,0,1,227.94,141.41Z"/><path class="cls-16" d="M311.45,116.35c-6.59,2.93-14,6-22.1,8.94l5.5,7c8.58-3,16.75-6.06,24.28-8.94Z"/><rect class="cls-3" x="98.56" y="220.78" width="71.99" height="150.64"/><rect class="cls-17" x="104.97" y="226.78" width="59.16" height="69.06"/><rect class="cls-17" x="104.97" y="301.41" width="59.16" height="69.06"/><polygon class="cls-18" points="160.87 295.84 164.13 287.32 164.13 228.3 119.26 295.84 160.87 295.84"/><polygon class="cls-18" points="158.73 301.41 115.56 301.41 104.97 317.34 104.97 370.47 132.25 370.47 158.73 301.41"/><rect class="cls-19" x="147.73" y="304.23" width="13.28" height="3.54" rx="1.77"/><polyline class="cls-20" points="115.59 257.2 134.23 242.36 155.18 256.67"/><path class="cls-19" d="M138.41,243a4,4,0,1,1-4-4A4,4,0,0,1,138.41,243Z"/><rect class="cls-21" x="111.23" y="257.83" width="43.49" height="26.14"/><rect class="cls-14" x="113.56" y="255.49" width="43.49" height="26.14"/><text class="cls-22" transform="translate(119.13 272.77)">OPEN</text><path class="cls-23" d="M98.36,245.41a1.93,1.93,0,0,0-1.93,1.92V261a1.93,1.93,0,0,0,3.86,0V247.33A1.93,1.93,0,0,0,98.36,245.41Z"/><path class="cls-23" d="M98.36,331.26a1.94,1.94,0,0,0-1.93,1.93v13.63a1.93,1.93,0,0,0,3.86,0V333.19A1.94,1.94,0,0,0,98.36,331.26Z"/><rect class="cls-7" x="194.12" y="335.52" width="141.8" height="5.47"/><path class="cls-12" d="M335.91,341s-64.45,4.69-94.87,4.9-46.92-4.9-46.92-4.9Z"/><rect class="cls-3" x="196.26" y="220.78" width="135.41" height="114.84"/><rect class="cls-17" x="202.83" y="226.35" width="122.27" height="103.7"/><path class="cls-24" d="M325.1,298.35c-34.83-.32-77.94,4.23-122.27,21.09v10.61H325.1Z"/><polygon class="cls-18" points="205.5 330.05 259.03 330.05 307.96 226.35 286.4 226.35 205.5 330.05"/><polygon class="cls-18" points="321.2 226.35 312.8 226.35 273.18 330.05 287.64 330.05 321.2 226.35"/><rect class="cls-19" x="303.2" y="308.15" width="21.89" height="21.89"/><rect class="cls-7" x="306.43" y="312.97" width="15.03" height="5.63"/><path class="cls-3" d="M320.71,311.11H306.6a.28.28,0,0,1-.28-.28h0a.28.28,0,0,1,.28-.27h14.11a.27.27,0,0,1,.28.27h0A.27.27,0,0,1,320.71,311.11Z"/><path class="cls-3" d="M320.71,321.41H306.6a.29.29,0,0,1-.28-.28h0a.29.29,0,0,1,.28-.28h14.11a.28.28,0,0,1,.28.28h0A.28.28,0,0,1,320.71,321.41Z"/><path class="cls-3" d="M320.71,325.52H306.6a.29.29,0,0,1-.28-.28h0a.29.29,0,0,1,.28-.28h14.11a.28.28,0,0,1,.28.28h0A.28.28,0,0,1,320.71,325.52Z"/><path class="cls-3" d="M306.6,323.46h7.06a.28.28,0,0,0,0-.55H306.6a.28.28,0,1,0,0,.55Z"/><path class="cls-3" d="M313.66,327H306.6a.28.28,0,1,0,0,.55h7.06a.28.28,0,0,0,0-.55Z"/><rect class="cls-3" x="143.81" y="83.65" width="6" height="26"/><rect class="cls-3" x="206.44" y="83.65" width="6" height="26"/><rect class="cls-3" x="269.07" y="83.65" width="6" height="26"/><path class="cls-23" d="M276.48,110.59H142.4a3.4,3.4,0,0,1-3.4-3.4h0a3.4,3.4,0,0,1,3.4-3.41H276.48a3.4,3.4,0,0,1,3.4,3.41h0A3.4,3.4,0,0,1,276.48,110.59Z"/><path class="cls-12" d="M282.93,91.8H136a21.44,21.44,0,0,1-21.43-21.43h0A21.44,21.44,0,0,1,136,48.94h147a21.43,21.43,0,0,1,21.42,21.43h0A21.43,21.43,0,0,1,282.93,91.8Z"/><path class="cls-12" d="M282.93,91.8H136a21.44,21.44,0,0,1-21.43-21.43h0A21.44,21.44,0,0,1,136,48.94h147a21.43,21.43,0,0,1,21.42,21.43h0A21.43,21.43,0,0,1,282.93,91.8Z"/><path class="cls-11" d="M282.93,48.94H136a21.43,21.43,0,0,0-19.63,12.85,21.41,21.41,0,0,1,18.2-10.13h147a21.43,21.43,0,0,1,21.43,21.42h0a21.38,21.38,0,0,1-1.8,8.59,21.32,21.32,0,0,0,3.22-11.3h0A21.43,21.43,0,0,0,282.93,48.94Z"/><path class="cls-7" d="M136,85.05a14.68,14.68,0,1,1,0-29.36h147a14.68,14.68,0,1,1,0,29.36Z"/><path class="cls-13" d="M174,60.8c31.17,0,78.2-1.19,118-2a14.59,14.59,0,0,0-9.05-3.15H136a14.7,14.7,0,0,0-14.68,14.68,14.49,14.49,0,0,0,1.4,6.2C121.79,59.7,133.91,60.8,174,60.8Z"/><path class="cls-25" d="M167.24,71.74a6.7,6.7,0,0,0-1.71-1.21,16,16,0,0,0-2-.83c-.67-.24-1.33-.45-2-.64a12.21,12.21,0,0,1-1.7-.63,3.85,3.85,0,0,1-1.21-.83,1.61,1.61,0,0,1-.46-1.19,2.25,2.25,0,0,1,.76-1.8,3.45,3.45,0,0,1,2.33-.67,5,5,0,0,1,1.61.24,8.7,8.7,0,0,1,1.25.53l1,.54a1.69,1.69,0,0,0,.81.24,1.16,1.16,0,0,0,.7-.2,2.21,2.21,0,0,0,.52-.59l1.38-2.58a7.59,7.59,0,0,0-1.46-1.06,11.24,11.24,0,0,0-1.75-.81,12,12,0,0,0-2-.51,13.64,13.64,0,0,0-2.14-.17,9.55,9.55,0,0,0-3.5.6,8,8,0,0,0-2.58,1.6,6.76,6.76,0,0,0-1.59,2.29,6.68,6.68,0,0,0-.54,2.62,7.5,7.5,0,0,0,.46,2.82,5.68,5.68,0,0,0,1.21,1.91,5.92,5.92,0,0,0,1.7,1.23,15,15,0,0,0,2,.79c.67.21,1.32.41,1.95.58a11.12,11.12,0,0,1,1.7.61,3.49,3.49,0,0,1,1.21.87,2,2,0,0,1,.46,1.36,2.52,2.52,0,0,1-.84,2.11,3.62,3.62,0,0,1-2.34.67,5.6,5.6,0,0,1-1.94-.31,9.47,9.47,0,0,1-1.46-.69L156,77.94a1.87,1.87,0,0,0-1-.32,1.38,1.38,0,0,0-.7.19,1.7,1.7,0,0,0-.52.47l-1.64,2.6a8.39,8.39,0,0,0,1.66,1.28,13.35,13.35,0,0,0,4.28,1.64,11.89,11.89,0,0,0,2.27.23,10.1,10.1,0,0,0,3.64-.61,7.74,7.74,0,0,0,2.69-1.7,7.08,7.08,0,0,0,1.67-2.52,8.38,8.38,0,0,0,.58-3.1,6.54,6.54,0,0,0-.46-2.56A5.87,5.87,0,0,0,167.24,71.74Z"/><polygon class="cls-25" points="194.05 69.84 184.33 69.84 184.33 59.84 178.75 59.84 178.75 83.77 184.33 83.77 184.33 73.65 194.05 73.65 194.05 83.77 199.64 83.77 199.64 59.84 194.05 59.84 194.05 69.84"/><path class="cls-25" d="M230.91,63.1A11.69,11.69,0,0,0,227,60.52a14.18,14.18,0,0,0-10.18,0,11.58,11.58,0,0,0-3.93,2.58A11.3,11.3,0,0,0,210.36,67a13.41,13.41,0,0,0,0,9.66,11.38,11.38,0,0,0,6.46,6.47,14.25,14.25,0,0,0,10.18,0,11.4,11.4,0,0,0,3.91-2.58,11.63,11.63,0,0,0,2.53-3.89,13.5,13.5,0,0,0,0-9.64A11.59,11.59,0,0,0,230.91,63.1ZM228.19,75a6.91,6.91,0,0,1-1.32,2.41,5.58,5.58,0,0,1-2.11,1.5,8.1,8.1,0,0,1-5.71,0,5.47,5.47,0,0,1-2.12-1.5A6.6,6.6,0,0,1,215.61,75a11.36,11.36,0,0,1,0-6.4,6.6,6.6,0,0,1,1.32-2.41,5.6,5.6,0,0,1,2.12-1.51,8.1,8.1,0,0,1,5.71,0,5.72,5.72,0,0,1,2.11,1.51,6.91,6.91,0,0,1,1.32,2.41,11.36,11.36,0,0,1,0,6.4Z"/><path class="cls-25" d="M261.68,64.57A6.37,6.37,0,0,0,260,62.09a8.2,8.2,0,0,0-3-1.66,13.93,13.93,0,0,0-4.35-.6h-8.44V83.77h5.55v-8h2.89a13.73,13.73,0,0,0,4.3-.6,8.34,8.34,0,0,0,3-1.67,6.61,6.61,0,0,0,1.76-2.56,9.16,9.16,0,0,0,.57-3.29A8.43,8.43,0,0,0,261.68,64.57Zm-5.94,6a4.1,4.1,0,0,1-3.13,1h-2.89V64h2.89a5.78,5.78,0,0,1,1.82.26,3.41,3.41,0,0,1,1.26.75,2.91,2.91,0,0,1,.75,1.16,4.2,4.2,0,0,1,.25,1.49A4.13,4.13,0,0,1,255.74,70.54Z"/><path class="cls-3" d="M169,70.6a6.46,6.46,0,0,0-1.71-1.21,16.67,16.67,0,0,0-2-.83c-.67-.24-1.33-.45-2-.64a13.57,13.57,0,0,1-1.7-.64,3.84,3.84,0,0,1-1.21-.82,1.65,1.65,0,0,1-.46-1.2,2.28,2.28,0,0,1,.76-1.8,3.5,3.5,0,0,1,2.33-.66,5,5,0,0,1,1.61.24,7.7,7.7,0,0,1,1.25.53l1,.53a1.69,1.69,0,0,0,.81.24,1.16,1.16,0,0,0,.7-.19,2.27,2.27,0,0,0,.52-.6L170.33,61a7.59,7.59,0,0,0-1.46-1.06,10.39,10.39,0,0,0-1.75-.81,12,12,0,0,0-2-.51,13.64,13.64,0,0,0-2.14-.17,9.55,9.55,0,0,0-3.5.6,7.78,7.78,0,0,0-2.58,1.6,6.82,6.82,0,0,0-1.59,2.28,6.73,6.73,0,0,0-.54,2.63,7.5,7.5,0,0,0,.46,2.82,5.67,5.67,0,0,0,1.2,1.9,6.46,6.46,0,0,0,1.7,1.24,14.28,14.28,0,0,0,2,.78c.67.22,1.32.41,1.95.59a10.14,10.14,0,0,1,1.7.61,3.49,3.49,0,0,1,1.21.87,2,2,0,0,1,.46,1.36,2.53,2.53,0,0,1-.84,2.11,3.69,3.69,0,0,1-2.35.67,5.34,5.34,0,0,1-1.93-.32,7.92,7.92,0,0,1-1.46-.69l-1.13-.69a1.94,1.94,0,0,0-1-.31,1.29,1.29,0,0,0-.7.19,1.58,1.58,0,0,0-.52.47l-1.64,2.59A8.43,8.43,0,0,0,155.53,81a13.17,13.17,0,0,0,2,1,14.18,14.18,0,0,0,2.25.65,11.89,11.89,0,0,0,2.27.23,10.1,10.1,0,0,0,3.64-.62,7.66,7.66,0,0,0,2.69-1.69,7.26,7.26,0,0,0,1.67-2.52,8.39,8.39,0,0,0,.58-3.11,6.53,6.53,0,0,0-.46-2.55A5.64,5.64,0,0,0,169,70.6Z"/><polygon class="cls-3" points="195.8 68.7 186.08 68.7 186.08 58.69 180.5 58.69 180.5 82.63 186.08 82.63 186.08 72.51 195.8 72.51 195.8 82.63 201.39 82.63 201.39 58.69 195.8 58.69 195.8 68.7"/><path class="cls-3" d="M232.66,62a11.72,11.72,0,0,0-3.91-2.59,14.25,14.25,0,0,0-10.18,0,11.71,11.71,0,0,0-3.93,2.57,11.44,11.44,0,0,0-2.53,3.88,13.41,13.41,0,0,0,0,9.66A11.46,11.46,0,0,0,218.57,82a14.25,14.25,0,0,0,10.18,0,11.28,11.28,0,0,0,3.91-2.59,11.59,11.59,0,0,0,2.53-3.88,13.5,13.5,0,0,0,0-9.64A11.59,11.59,0,0,0,232.66,62Zm-2.72,11.9a6.91,6.91,0,0,1-1.32,2.41,5.58,5.58,0,0,1-2.11,1.5,8.1,8.1,0,0,1-5.71,0,5.47,5.47,0,0,1-2.12-1.5,6.6,6.6,0,0,1-1.32-2.41,10.33,10.33,0,0,1-.46-3.21,10.2,10.2,0,0,1,.46-3.19,6.6,6.6,0,0,1,1.32-2.41,5.6,5.6,0,0,1,2.12-1.51,8,8,0,0,1,5.71,0,5.72,5.72,0,0,1,2.11,1.51,6.91,6.91,0,0,1,1.32,2.41,10.5,10.5,0,0,1,.46,3.19A10.63,10.63,0,0,1,229.94,73.86Z"/><path class="cls-3" d="M263.43,63.42a6.45,6.45,0,0,0-1.73-2.48,8.33,8.33,0,0,0-3-1.65,13.93,13.93,0,0,0-4.35-.6h-8.44V82.63h5.55v-8h2.89a13.73,13.73,0,0,0,4.3-.6,8.34,8.34,0,0,0,3-1.67,6.55,6.55,0,0,0,1.75-2.56,9,9,0,0,0,.58-3.29A8.48,8.48,0,0,0,263.43,63.42Zm-5.94,6a4.1,4.1,0,0,1-3.13,1h-2.89V62.85h2.89a5.78,5.78,0,0,1,1.82.26,3.41,3.41,0,0,1,1.26.75,2.91,2.91,0,0,1,.75,1.16,4.77,4.77,0,0,1-.7,4.38Z"/><polygon class="cls-23" points="357.99 235.11 357.99 229.78 349.69 229.78 349.69 220.52 347.47 220.52 347.47 290.3 349.69 290.3 349.69 280.22 357.99 280.22 357.99 274.89 349.69 274.89 349.69 235.11 357.99 235.11"/><rect class="cls-15" x="354.88" y="220.07" width="29.33" height="70.52" rx="5.63"/><path class="cls-16" d="M354.88,254.89v14.46c12.12-7.08,22.1-19.71,29.33-31.23V225.7a5.63,5.63,0,0,0-3.91-5.36C375.13,231.37,366.52,246.29,354.88,254.89Z"/><path class="cls-14" d="M360.51,290.59h18.07a5.63,5.63,0,0,0,5.63-5.63V246.38c-8.46,17.73-18.81,32.69-29.33,31.62v7A5.63,5.63,0,0,0,360.51,290.59Z"/><text class="cls-26" transform="translate(369.47 227.85)">OPEN</text></g></g></svg>