<svg xmlns="http://www.w3.org/2000/svg" xmlns:xlink="http://www.w3.org/1999/xlink" viewBox="0 0 2795.34 2793.25"><defs><style>.cls-1{fill:none;}.cls-2{isolation:isolate;}.cls-3{fill:#f4f7fa;}.cls-4{fill:url(#linear-gradient);}.cls-10,.cls-49,.cls-5{fill:#fff;}.cls-5{opacity:0.16;mix-blend-mode:screen;}.cls-6{fill:url(#linear-gradient-2);}.cls-7{fill:url(#linear-gradient-3);}.cls-8{fill:#d8dee8;}.cls-9{clip-path:url(#clip-path);}.cls-11{fill:url(#linear-gradient-4);}.cls-12{fill:url(#linear-gradient-5);}.cls-13{clip-path:url(#clip-path-2);}.cls-14{fill:url(#linear-gradient-6);}.cls-15{fill:#97a6b7;}.cls-16{clip-path:url(#clip-path-3);}.cls-17,.cls-18,.cls-19{opacity:0.53;}.cls-17{fill:url(#linear-gradient-7);}.cls-18{fill:url(#linear-gradient-8);}.cls-19{fill:url(#linear-gradient-9);}.cls-20{fill:url(#linear-gradient-10);}.cls-21{fill:url(#linear-gradient-11);}.cls-22{fill:url(#linear-gradient-12);}.cls-23{fill:url(#linear-gradient-13);}.cls-24,.cls-45,.cls-49{opacity:0.3;}.cls-24,.cls-45,.cls-47,.cls-53{mix-blend-mode:multiply;}.cls-25{fill:url(#linear-gradient-14);}.cls-26{fill:url(#linear-gradient-15);}.cls-27{fill:url(#linear-gradient-16);}.cls-28{fill:url(#linear-gradient-17);}.cls-29{fill:url(#linear-gradient-18);}.cls-30{fill:url(#linear-gradient-19);}.cls-31{fill:url(#linear-gradient-20);}.cls-32{fill:url(#linear-gradient-21);}.cls-33{fill:url(#linear-gradient-22);}.cls-34{fill:url(#linear-gradient-23);}.cls-35{fill:url(#linear-gradient-24);}.cls-36{fill:url(#linear-gradient-25);}.cls-37{fill:url(#linear-gradient-26);}.cls-38{fill:url(#linear-gradient-27);}.cls-39{fill:url(#linear-gradient-28);}.cls-40{fill:url(#linear-gradient-29);}.cls-41{fill:url(#linear-gradient-30);}.cls-42{fill:url(#linear-gradient-31);}.cls-43{fill:url(#linear-gradient-32);}.cls-44{fill:url(#linear-gradient-33);}.cls-45{fill:url(#linear-gradient-34);}.cls-46{fill:url(#linear-gradient-35);}.cls-47,.cls-53{opacity:0.6;}.cls-47{fill:url(#linear-gradient-36);}.cls-48{fill:url(#linear-gradient-37);}.cls-49{mix-blend-mode:overlay;}.cls-50{fill:url(#linear-gradient-38);}.cls-51{fill:url(#linear-gradient-39);}.cls-52{fill:url(#linear-gradient-40);}.cls-53{fill:url(#linear-gradient-41);}.cls-54{fill:url(#linear-gradient-42);}</style><linearGradient id="linear-gradient" x1="524.1" y1="884.82" x2="1530.47" y2="884.82" gradientTransform="matrix(-0.98, 0.21, 0.21, 0.98, 2942.35, -100.43)" gradientUnits="userSpaceOnUse"><stop offset="0" stop-color="#e38ddd"/><stop offset="1" stop-color="#9571f6"/></linearGradient><linearGradient id="linear-gradient-2" x1="790.6" y1="634.63" x2="1796.96" y2="634.63" gradientTransform="matrix(-1, 0.03, 0.03, 1, 3571.73, 764.47)" gradientUnits="userSpaceOnUse"><stop offset="0" stop-color="#ff9085"/><stop offset="1" stop-color="#fb6fbb"/></linearGradient><linearGradient id="linear-gradient-3" x1="225.44" y1="1366.24" x2="954.19" y2="1366.24" gradientTransform="matrix(1, 0, 0, 1, 0, 0)" xlink:href="#linear-gradient-2"/><clipPath id="clip-path"><polygon class="cls-1" points="281.77 2301.22 281.77 429.9 954.19 384.71 954.19 2347.77 281.77 2301.22"/></clipPath><linearGradient id="linear-gradient-4" x1="1741.34" y1="165.1" x2="2320.91" y2="1463.05" gradientUnits="userSpaceOnUse"><stop offset="0" stop-color="#fcb148"/><stop offset="0.05" stop-color="#fdba46"/><stop offset="0.14" stop-color="#ffc244"/><stop offset="0.32" stop-color="#ffc444"/><stop offset="0.48" stop-color="#fdb946"/><stop offset="0.78" stop-color="#f99c4d"/><stop offset="0.87" stop-color="#f8924f"/><stop offset="1" stop-color="#f8924f"/></linearGradient><linearGradient id="linear-gradient-5" x1="1683.06" y1="870.17" x2="2527.5" y2="3045.24" gradientTransform="translate(3752.41 2735.32) rotate(-180)" xlink:href="#linear-gradient-2"/><clipPath id="clip-path-2"><rect class="cls-1" x="968.07" y="976.48" width="1747.36" height="781.02" transform="translate(3208.74 -474.76) rotate(90)"/></clipPath><linearGradient id="linear-gradient-6" x1="750.5" y1="1365" x2="1673.25" y2="1370.6" gradientTransform="matrix(1, 0, 0, 1, 0, 0)" xlink:href="#linear-gradient-2"/><clipPath id="clip-path-3"><polygon class="cls-1" points="954.19 2347.77 954.19 384.71 1451.24 493.31 1451.24 2240.81 954.19 2347.77"/></clipPath><linearGradient id="linear-gradient-7" x1="1835.12" y1="1410.89" x2="1848.38" y2="1410.89" gradientUnits="userSpaceOnUse"><stop offset="0" stop-color="#311944"/><stop offset="1" stop-color="#a03976"/></linearGradient><linearGradient id="linear-gradient-8" x1="611.34" y1="1367.88" x2="624.61" y2="1367.88" xlink:href="#linear-gradient-7"/><linearGradient id="linear-gradient-9" x1="281.21" y1="1041.73" x2="2232.26" y2="1041.73" xlink:href="#linear-gradient-7"/><linearGradient id="linear-gradient-10" x1="413.72" y1="1422.52" x2="1930.01" y2="1422.52" gradientUnits="userSpaceOnUse"><stop offset="0" stop-color="#aa80f9"/><stop offset="1" stop-color="#6165d7"/></linearGradient><linearGradient id="linear-gradient-11" x1="414.03" y1="1274.6" x2="1920.42" y2="1274.6" xlink:href="#linear-gradient-10"/><linearGradient id="linear-gradient-12" x1="413.43" y1="1347.8" x2="1929.95" y2="1347.8" xlink:href="#linear-gradient-10"/><linearGradient id="linear-gradient-13" x1="410.77" y1="352.91" x2="854.86" y2="1496.76" xlink:href="#linear-gradient-10"/><linearGradient id="linear-gradient-14" x1="251.76" y1="414.64" x2="695.85" y2="1558.49" xlink:href="#linear-gradient-10"/><linearGradient id="linear-gradient-15" x1="583.24" y1="1230.34" x2="294.82" y2="1668.12" xlink:href="#linear-gradient-10"/><linearGradient id="linear-gradient-16" x1="1888.64" y1="847.09" x2="2090.72" y2="1367.61" gradientTransform="matrix(1, 0, 0, 1, 0, 0)" xlink:href="#linear-gradient-2"/><linearGradient id="linear-gradient-17" x1="1816.28" y1="875.18" x2="2018.36" y2="1395.7" gradientTransform="matrix(1, 0, 0, 1, 0, 0)" xlink:href="#linear-gradient-2"/><linearGradient id="linear-gradient-18" x1="1967.12" y1="1246.37" x2="1835.87" y2="1445.58" gradientTransform="translate(466.46 -497.89) rotate(16.85)" xlink:href="#linear-gradient-2"/><linearGradient id="linear-gradient-19" x1="3829.17" y1="2514.14" x2="4170.28" y2="2514.14" gradientTransform="matrix(-1, 0, 0, 1, 5434.34, 0)" gradientUnits="userSpaceOnUse"><stop offset="0" stop-color="#444b8c"/><stop offset="1" stop-color="#26264f"/></linearGradient><linearGradient id="linear-gradient-20" x1="3474.11" y1="2437.95" x2="3657.31" y2="2437.95" gradientTransform="matrix(-1, 0, 0, 1, 5434.34, 0)" gradientUnits="userSpaceOnUse"><stop offset="0" stop-color="#311944"/><stop offset="1" stop-color="#6b3976"/></linearGradient><linearGradient id="linear-gradient-21" x1="3435.53" y1="2437.95" x2="3618.72" y2="2437.95" xlink:href="#linear-gradient-20"/><linearGradient id="linear-gradient-22" x1="4348.56" y1="2559.25" x2="4572.99" y2="2559.25" xlink:href="#linear-gradient-20"/><linearGradient id="linear-gradient-23" x1="4301.29" y1="2559.25" x2="4525.72" y2="2559.25" xlink:href="#linear-gradient-20"/><linearGradient id="linear-gradient-24" x1="3923.58" y1="2634.88" x2="4144.52" y2="2634.88" xlink:href="#linear-gradient-20"/><linearGradient id="linear-gradient-25" x1="3877.04" y1="2634.88" x2="4097.98" y2="2634.88" xlink:href="#linear-gradient-20"/><linearGradient id="linear-gradient-26" x1="4056.46" y1="2626.76" x2="3955.3" y2="2637.7" gradientTransform="matrix(-1, 0, 0, 1, 5434.34, 0)" gradientUnits="userSpaceOnUse"><stop offset="0.01" stop-color="#d8dee8"/><stop offset="1" stop-color="#f4f7fa"/></linearGradient><linearGradient id="linear-gradient-27" x1="2932.34" y1="2418.31" x2="3413.57" y2="2418.31" xlink:href="#linear-gradient-19"/><linearGradient id="linear-gradient-28" x1="3112.8" y1="2406.59" x2="3685.17" y2="2406.59" xlink:href="#linear-gradient-19"/><linearGradient id="linear-gradient-29" x1="3046.57" y1="2498.37" x2="3229.77" y2="2498.37" xlink:href="#linear-gradient-20"/><linearGradient id="linear-gradient-30" x1="3007.99" y1="2498.37" x2="3191.18" y2="2498.37" xlink:href="#linear-gradient-20"/><linearGradient id="linear-gradient-31" x1="3185.87" y1="2510.67" x2="3043.69" y2="2491.54" xlink:href="#linear-gradient-26"/><linearGradient id="linear-gradient-32" x1="2766.46" y1="1989.16" x2="3535.7" y2="1989.16" gradientTransform="matrix(-1, 0, 0, 1, 5434.34, 0)" gradientUnits="userSpaceOnUse"><stop offset="0" stop-color="#ffc444"/><stop offset="1" stop-color="#f36f56"/></linearGradient><linearGradient id="linear-gradient-33" x1="3535.7" y1="1989.16" x2="4122.65" y2="1989.16" xlink:href="#linear-gradient-32"/><linearGradient id="linear-gradient-34" x1="2766.46" y1="1997.56" x2="3464.63" y2="1997.56" xlink:href="#linear-gradient-32"/><linearGradient id="linear-gradient-35" x1="3610.27" y1="2260.06" x2="4653.09" y2="2260.06" xlink:href="#linear-gradient-26"/><linearGradient id="linear-gradient-36" x1="4124.93" y1="2278.7" x2="3643.7" y2="3040.64" xlink:href="#linear-gradient-26"/><linearGradient id="linear-gradient-37" x1="3888.79" y1="2075.76" x2="4451.76" y2="2075.76" xlink:href="#linear-gradient-19"/><linearGradient id="linear-gradient-38" x1="4470.4" y1="2319.69" x2="4464.93" y2="2640.51" xlink:href="#linear-gradient-19"/><linearGradient id="linear-gradient-39" x1="4173.32" y1="2303.98" x2="4335.56" y2="2590.16" gradientTransform="matrix(-1, 0, 0, 1, 5434.34, 0)" xlink:href="#linear-gradient-4"/><linearGradient id="linear-gradient-40" x1="4067.03" y1="2542.77" x2="4653.09" y2="2542.77" xlink:href="#linear-gradient-19"/><linearGradient id="linear-gradient-41" x1="4220.87" y1="2569.8" x2="4653.09" y2="2569.8" xlink:href="#linear-gradient-19"/><linearGradient id="linear-gradient-42" x1="3676.1" y1="2099.57" x2="3940.67" y2="2099.57" xlink:href="#linear-gradient-19"/></defs><g class="cls-2"><g id="Capa_2" data-name="Capa 2"><g id="Illustration"><path class="cls-3" d="M2754.23,1187.32c-75.76-495.93-386.41-1105.21-1000.12-1169,0,0-465.95-56.67-925.29,29.23-272.61,51-511.65,202.74-662.91,420.85S-35.87,952.5,25.45,1206.07c39.82,164.69,66.73,335.14,59.35,504.37-12.86,294.53-5.46,569.45,280.37,745.1C620.39,2612.37,941.59,2750.7,1248,2774.92c208.24,16.47,441.78-10.17,642.48-64.39C2913.34,2434.23,2830,1683.25,2754.23,1187.32Z"/><path class="cls-4" d="M1962.45,1683.45c-41-5.07-110.11-13.6-168.27-65.71-105.75-94.73-106.8-272-65.27-392.12,35.66-103.18,121.35-181.11,292.73-337,161.4-146.79,221-170.83,224.27-243.85,4.61-104.09-112-160.53-88.39-281.15,2.83-14.48,12.54-64.19,52.06-89.16,67.65-42.75,175.15,17,229,65.55,52,46.8,115.11,138,94.73,224.29-14.77,62.49-60.83,69.26-61.2,124.43-.37,55.5,46.14,65.38,81.73,150.4,14.22,34,42.76,102.14,22.15,168.69-26.65,86.06-111.35,91.5-115,159.84-2.64,49.37,40.71,62.67,49.43,117.77,11.48,72.55-49.68,137.89-101.29,191.59C2348.38,1540.28,2184.39,1710.87,1962.45,1683.45Z"/><path class="cls-5" d="M2242.85,300.33C2209.1,335.81,2348,434.41,2348.89,602c1,180.3-158.35,330.46-232,399.85-125.62,118.4-190.73,112.14-262.77,231.28-28.51,47.15-87.91,145.38-55.86,258.19,3,10.48,37.93,126.83,140.85,164.15,116.74,42.34,232.17-49.19,331.64-128,60.1-47.65,180.16-142.84,155.2-215.24-15.25-44.25-81.19-69.8-131.31-70.81-71.54-1.44-120.65,46.89-129.26,36.28-7.75-9.56,24.63-58,74.22-99.09,99.21-82.26,165.86-51.27,237.23-123.5,8.66-8.76,76.2-79.13,60.77-162.12-8.91-47.87-45.64-101.18-86.16-103-45.83-2-76.73,62.65-88.76,55.37-11.52-6.95,9.73-70.34,39.89-129.91,44.3-87.54,70.91-93.91,83.25-146.11,18.84-79.64-22.88-150.23-29-160.29C2399.25,314.71,2271.71,270,2242.85,300.33Z"/><path class="cls-6" d="M2011,2098.32c-39.43-12.43-105.81-33.36-153.55-95.16-86.8-112.35-55.66-286.86,7-397.45,53.8-95,152.21-156.08,349-278.25,185.36-115.06,248.38-127.88,264.81-199.09,23.41-101.53-81-178.19-35.9-292.53,5.41-13.72,24-60.85,67.38-78.23,74.28-29.76,169.14,48.53,213.34,106,42.63,55.46,88.14,156.65,52.44,237.76-25.86,58.77-72.39,57.07-82.76,111.25-10.44,54.52,33.5,72.68,53.08,162.74,7.81,36,23.51,108.21-8.84,169.92-41.83,79.79-126.11,69.77-142.11,136.3-11.56,48.07,28.66,69,27.23,124.79-1.88,73.42-73.87,126.58-134.38,170C2416.47,2027.57,2224.25,2165.56,2011,2098.32Z"/><path class="cls-5" d="M2537.74,789.06c-39.63,28.77,79.05,150.94,49.53,315.9-31.75,177.48-215.69,296.23-300.69,351.11-145,93.63-207.93,75.65-300.39,179.74-36.6,41.19-112.84,127-101.79,243.76,1,10.85,14.28,131.61,108.71,187,107.12,62.82,237.25-6.23,349.38-65.73,67.75-36,203.1-107.78,191.69-183.5-7-46.29-67.18-83.37-116.28-93.46-70.09-14.41-127.15,24.21-133.7,12.21-5.89-10.81,34.74-52.54,91-84,112.48-62.88,172.4-20.3,255.7-78.39,10.1-7,89.3-64,89.18-148.4-.07-48.69-26.52-107.78-66-116.92-44.69-10.34-86.81,47.68-97.33,38.34-10.06-8.93,22.34-67.4,62.81-120.51,59.45-78,86.77-79.49,108.39-128.58,33-74.9,4.76-151.88.55-162.89C2688.94,831.59,2571.63,764.47,2537.74,789.06Z"/><polygon class="cls-7" points="954.19 2446.29 225.44 2390.86 225.44 340.16 954.19 286.18 954.19 2446.29"/><polygon class="cls-8" points="296.03 1087.94 296.03 1959.44 281.77 1959.44 281.77 2182.49 954.19 2182.49 954.19 1087.94 296.03 1087.94"/><g class="cls-9"><path class="cls-10" d="M1172.31,136.72S1173,608.48,1278.81,825s145.59,427.39,66,550.84S954.19,1311,954.19,1311,807.45,1414.49,741.11,1636s-497.54,406.14-590.42,343.69S97.62,245.37,97.62,245.37Z"/><path class="cls-10" d="M130.79,2106.84s261.29,121.85,459,9.26,364.38-314.92,364.38-314.92,201.09,123.22,309.12,116.34S1451.24,1564,1451.24,1564s178.81-88.86,258.42-269.17,324-376.66,457.74-417.79,212.28,35.65,212.28,35.65l-33.17,1571.59L281.77,2592.44Z"/><path class="cls-11" d="M1307.52,195.4s-70.45,323.24,0,408.92,124.13,330.9,143.72,397.36,172.18,211.91,251.78,79.47,199-229,258.73-273.6,437.83-90.35,457.73-123.85,33.17-413.62,33.17-413.62Z"/></g><rect class="cls-12" x="1451.24" y="406.87" width="849.93" height="1921.59" transform="translate(3752.41 2735.32) rotate(180)"/><polygon class="cls-8" points="2232.26 2240.67 2232.26 493.31 1451.24 493.31 1216.87 1153.14 1451.24 2240.67 2232.26 2240.67"/><g class="cls-13"><path class="cls-10" d="M1172.31,136.72S1173,608.48,1278.81,825s145.59,427.39,66,550.84S954.19,1311,954.19,1311,807.45,1414.49,741.11,1636s-497.54,406.14-590.42,343.69S97.62,245.37,97.62,245.37Z"/><path class="cls-10" d="M130.79,2106.84s261.29,121.85,459,9.26,364.38-314.92,364.38-314.92,201.09,123.22,309.12,116.34S1451.24,1564,1451.24,1564s178.81-88.86,258.42-269.17,324-376.66,457.74-417.79,212.28,35.65,212.28,35.65l-33.17,1571.59L281.77,2592.44Z"/><path class="cls-10" d="M1307.52,195.4s-70.45,323.24,0,408.92,124.13,330.9,143.72,397.36,172.18,211.91,251.78,79.47,199-229,258.73-273.6,437.83-90.35,457.73-123.85,33.17-413.62,33.17-413.62Z"/></g><polygon class="cls-14" points="1451.24 2328.46 954.19 2446.29 954.19 286.18 1451.24 406.87 1451.24 493.31 1358.2 678 1329.77 2204.14 1451.24 2240.67 1451.24 2328.46"/><polygon class="cls-15" points="1451.24 1947.95 1451.24 515.76 1276.22 455.85 1189.41 436.67 1174.43 434.91 1174.43 1308.69 954.19 1308.69 954.19 1947.95 1451.24 1947.95"/><g class="cls-16"><path class="cls-8" d="M1172.31,136.72S1173,608.48,1278.81,825s145.59,427.39,66,550.84S954.19,1311,954.19,1311,807.45,1414.49,741.11,1636s-497.54,406.14-590.42,343.69S97.62,245.37,97.62,245.37Z"/><path class="cls-8" d="M130.79,2106.84s261.29,121.85,459,9.26,364.38-314.92,364.38-314.92,201.09,123.22,309.12,116.34S1451.24,1564,1451.24,1564s178.81-88.86,258.42-269.17,324-376.66,457.74-417.79,212.28,35.65,212.28,35.65l-33.17,1571.59L281.77,2592.44Z"/><path class="cls-8" d="M1307.52,195.4s-70.45,323.24,0,408.92,124.13,330.9,143.72,397.36,172.18,211.91,251.78,79.47,199-229,258.73-273.6,437.83-90.35,457.73-123.85,33.17-413.62,33.17-413.62Z"/></g><rect class="cls-17" x="1835.12" y="493.32" width="13.27" height="1835.14"/><rect class="cls-18" x="611.34" y="407.31" width="13.27" height="1921.15"/><polygon class="cls-19" points="2232.26 1107.46 1450.46 1107.46 1449.71 1107.28 953.69 989.39 282.33 1046.1 281.21 1032.87 954.69 975.99 955.72 976.24 1452.02 1094.2 2232.26 1094.2 2232.26 1107.46"/><path class="cls-20" d="M429.15,1444.1a15.42,15.42,0,0,1-9.19-27.81s6-4.41,16.33-12.25a15.42,15.42,0,0,1,18.58,24.62c-10.54,8-16.55,12.41-16.55,12.41A15.32,15.32,0,0,1,429.15,1444.1Z"/><path class="cls-21" d="M1749.63,1504.23c-9.15,0-19.63-1.31-32.05-4a15.42,15.42,0,1,1,6.53-30.14c14.89,3.22,26.74,4.08,33.83,2.56a15.42,15.42,0,0,1,7.21,30l-.48.12A71.13,71.13,0,0,1,1749.63,1504.23Zm50.39-14.34a15.42,15.42,0,0,1-6.63-29.35,172.53,172.53,0,0,0,31.84-19.73,15.42,15.42,0,0,1,19,24.33,203.89,203.89,0,0,1-37.55,23.26A15.49,15.49,0,0,1,1800,1489.89Zm-118.55-.53a15.49,15.49,0,0,1-4.94-.81c-12-4-25.17-9-39.21-14.58a15.42,15.42,0,1,1,11.48-28.63c13.51,5.42,26.16,10.12,37.6,14a15.43,15.43,0,0,1-4.93,30Zm-76.18-30.23a15.42,15.42,0,0,1-6.22-1.32c-11.94-5.27-24.6-11.06-37.62-17.19a15.42,15.42,0,1,1,13.15-27.9c12.79,6,25.22,11.7,36.93,16.88a15.42,15.42,0,0,1-6.24,29.53Zm259-18.86a15.42,15.42,0,0,1-11.59-25.58,240.22,240.22,0,0,0,22.83-30.88,15.42,15.42,0,1,1,26.15,16.36,271.73,271.73,0,0,1-25.78,34.84A15.4,15.4,0,0,1,1864.32,1440.27Zm-333.21-16a15.41,15.41,0,0,1-6.82-1.59c-11.87-5.86-24.25-12.09-36.81-18.52a15.42,15.42,0,1,1,14.06-27.45c12.42,6.35,24.67,12.52,36.41,18.31a15.42,15.42,0,0,1-6.84,29.25ZM478.11,1407a15.42,15.42,0,0,1-9.41-27.65c9.71-7.47,20.56-15.87,32.26-25a15.42,15.42,0,0,1,19,24.3c-11.77,9.2-22.69,17.66-32.46,25.17A15.32,15.32,0,0,1,478.11,1407Zm980-20a15.38,15.38,0,0,1-7.18-1.78q-18.14-9.56-36.29-19.38a15.42,15.42,0,0,1,14.67-27.13q18,9.72,36,19.23a15.42,15.42,0,0,1-7.2,29.06Zm-915.52-30.43A15.42,15.42,0,0,1,533,1329c10.28-8.17,20.94-16.72,31.82-25.54a15.42,15.42,0,1,1,19.42,24c-11,8.88-21.69,17.49-32,25.72A15.31,15.31,0,0,1,542.62,1356.52Zm843.44-8.52a15.33,15.33,0,0,1-7.45-1.93q-18.12-10-35.89-20a15.42,15.42,0,0,1,15.13-26.88q17.64,9.94,35.68,19.91a15.42,15.42,0,0,1-7.47,28.92Zm-71.42-40.21a15.34,15.34,0,0,1-7.66-2q-18.2-10.44-35.57-20.57a15.42,15.42,0,1,1,15.53-26.64q17.25,10,35.39,20.46a15.42,15.42,0,0,1-7.69,28.8ZM606.23,1305a15.42,15.42,0,0,1-9.84-27.3c10.72-8.87,21.23-17.67,31.25-26.16A15.42,15.42,0,0,1,647.58,1275c-10.11,8.57-20.72,17.46-31.53,26.4A15.34,15.34,0,0,1,606.23,1305Zm637.59-38.46a15.3,15.3,0,0,1-7.85-2.16c-12.32-7.31-24.12-14.36-35.28-21.09a15.42,15.42,0,1,1,15.93-26.41c11.09,6.69,22.82,13.71,35.08,21a15.42,15.42,0,0,1-7.88,28.69ZM668.65,1252a15.42,15.42,0,0,1-10.15-27c10.64-9.29,20.86-18.37,30.39-27a15.42,15.42,0,0,1,20.71,22.86c-9.67,8.76-20,18-30.81,27.38A15.4,15.4,0,0,1,668.65,1252Zm505-27.85a15.36,15.36,0,0,1-8.07-2.29c-12.8-7.88-24.57-15.23-35-21.83a15.42,15.42,0,0,1,16.52-26c10.29,6.53,21.93,13.8,34.61,21.6a15.42,15.42,0,0,1-8.09,28.56ZM729.26,1197a15.42,15.42,0,0,1-10.64-26.59c10.41-9.92,20.09-19.45,28.77-28.34a15.42,15.42,0,0,1,22.06,21.55c-8.93,9.15-18.88,19-29.56,29.12A15.37,15.37,0,0,1,729.26,1197Zm375.28-17a15.36,15.36,0,0,1-8.63-2.65c-6.57-4.45-13.27-9-20.08-13.72q-6.81-4.66-13.75-9.42a15.42,15.42,0,1,1,17.38-25.47q7,4.75,13.82,9.46c6.76,4.64,13.4,9.2,19.92,13.61a15.42,15.42,0,0,1-8.66,28.19Zm-318.32-41.8a15.42,15.42,0,0,1-11.66-25.51c4.43-5.12,8.51-10.06,12.13-14.69a169.72,169.72,0,0,1,15.51-17.29,15.42,15.42,0,0,1,21.42,22.19A136.68,136.68,0,0,0,811,1117c-3.93,5-8.34,10.36-13.09,15.86A15.37,15.37,0,0,1,786.22,1138.16Zm250.47-4a15.39,15.39,0,0,1-8.33-2.45c-12.47-8-23.66-14.83-34.21-20.79a15.42,15.42,0,1,1,15.18-26.85c11.06,6.25,22.75,13.35,35.72,21.7a15.42,15.42,0,0,1-8.36,28.39Zm-71.43-39.74a15.38,15.38,0,0,1-6.22-1.31,233.11,233.11,0,0,0-36.12-12.78,15.42,15.42,0,0,1,7.62-29.89,264,264,0,0,1,41,14.45,15.42,15.42,0,0,1-6.23,29.53Zm-118.7-10.09a15.43,15.43,0,0,1-6.14-29.58,121.57,121.57,0,0,1,45.47-9.78,15.42,15.42,0,0,1,.77,30.83,89.65,89.65,0,0,0-34,7.25A15.23,15.23,0,0,1,846.56,1084.34Z"/><path class="cls-22" d="M1907,1372.78A15.44,15.44,0,0,1,1893,1351.1a183.65,183.65,0,0,0,6.85-17.44,15.42,15.42,0,0,1,29.46,9.11,207.19,207.19,0,0,1-8.11,20.84A15.43,15.43,0,0,1,1907,1372.78Z"/><path class="cls-23" d="M908.62,513c0,188.43-264,532.28-383.44,678.24a74.35,74.35,0,0,1-115,0C290.68,1045.28,26.7,701.43,26.7,513c0-243.53,197.42-441,441-441S908.62,269.47,908.62,513Z"/><circle class="cls-10" cx="467.66" cy="513" r="245.93" transform="translate(-225.77 480.94) rotate(-45)"/><g class="cls-24"><path class="cls-25" d="M465.71,1010.19C493.69,826,615.35,767,594.47,593c-24.08-200.63-201.73-254.07-206-432.63a283.72,283.72,0,0,1,10.59-83C188.1,110.32,26.7,292.81,26.7,513c0,188.43,264,532.28,383.44,678.24A74.13,74.13,0,0,0,479,1217.61C457.58,1136.91,456.93,1068,465.71,1010.19Z"/></g><circle class="cls-26" cx="467.66" cy="1405.77" r="90.13"/><path class="cls-27" d="M2115.19,919.94c0,85.75-120.13,242.22-174.49,308.64a33.83,33.83,0,0,1-52.35,0c-54.36-66.42-174.49-222.89-174.49-308.64,0-110.82,89.84-200.66,200.67-200.66S2115.19,809.12,2115.19,919.94Z"/><circle class="cls-10" cx="1914.53" cy="919.94" r="111.91" transform="translate(737.93 2688.37) rotate(-82.03)"/><g class="cls-24"><path class="cls-28" d="M1913.64,1146.19c12.73-83.84,68.09-110.68,58.59-189.84-11-91.3-91.8-115.62-93.75-196.87a129,129,0,0,1,4.83-37.78c-96,15-169.45,98-169.45,198.24,0,85.75,120.13,242.22,174.49,308.64a33.74,33.74,0,0,0,31.32,12C1909.94,1203.86,1909.64,1172.5,1913.64,1146.19Z"/></g><circle class="cls-29" cx="1914.53" cy="1326.2" r="41.01" transform="translate(-302.16 611.7) rotate(-16.85)"/><polygon class="cls-30" points="1576.01 2621.69 1264.07 2608.93 1350.43 2406.59 1551.4 2418.45 1605.17 2506.39 1576.01 2621.69"/><path class="cls-31" d="M1868.63,2300.06c2.08,0,4.13.14,6.17.34l32.42-.34-.19,12.7c31.4,21.87,53.2,69.68,53.2,125.19,0,57.7-23.55,107.09-57,127.66l-.15,10.23h-34.49c-50.59,0-91.6-61.73-91.6-137.89S1818,2300.06,1868.63,2300.06Z"/><ellipse class="cls-32" cx="1907.22" cy="2437.95" rx="91.6" ry="137.89"/><path class="cls-33" d="M973.57,2404.77c2.54,0,5.06.16,7.56.39l39.71-.39-.23,14.23c38.47,24.5,65.17,78.07,65.17,140.25,0,64.64-28.85,120-69.78,143l-.19,11.46H973.57c-62,0-112.22-69.17-112.22-154.49S911.59,2404.77,973.57,2404.77Z"/><ellipse class="cls-34" cx="1020.84" cy="2559.25" rx="112.22" ry="154.49"/><path class="cls-35" d="M1400.29,2476.5c2.51,0,5,.16,7.45.4l39.09-.4-.23,14.59c37.88,25.12,64.16,80,64.16,143.79,0,66.26-28.4,123-68.69,146.62l-.19,11.75h-41.59c-61,0-110.47-70.9-110.47-158.37S1339.28,2476.5,1400.29,2476.5Z"/><ellipse class="cls-36" cx="1446.83" cy="2634.88" rx="110.47" ry="158.38"/><ellipse class="cls-8" cx="1462.36" cy="2634.88" rx="62.06" ry="88.98"/><ellipse class="cls-37" cx="1452.97" cy="2634.88" rx="52.67" ry="82.61"/><path class="cls-38" d="M2502,2300.06v164.85a71.66,71.66,0,0,1-80.39,71.12l-400.84-49.23V2300.06Z"/><path class="cls-39" d="M2321.54,2277.17l-110.05,171a97.58,97.58,0,0,1-70.41,44.07L1777,2536l-27.86-184.1Z"/><path class="cls-40" d="M2296.17,2360.48a60.47,60.47,0,0,1,6.18.35l32.41-.35-.19,12.7c31.4,21.87,53.2,69.69,53.2,125.2,0,57.69-23.55,107.09-57,127.66l-.15,10.23h-34.49c-50.58,0-91.59-61.74-91.59-137.89S2245.59,2360.48,2296.17,2360.48Z"/><ellipse class="cls-41" cx="2334.76" cy="2498.37" rx="91.6" ry="137.89"/><ellipse class="cls-8" cx="2347.63" cy="2498.37" rx="51.46" ry="77.47"/><ellipse class="cls-42" cx="2339.85" cy="2498.37" rx="43.67" ry="71.92"/><path class="cls-43" d="M1898.65,2406.59,2646.41,2303a24.87,24.87,0,0,0,21.47-24.65V1619.56a24.87,24.87,0,0,0-24.11-24.87l-745.12-23Z"/><path class="cls-44" d="M1311.69,2360.48l587,46.11V1571.73l-557.8,29.45a30.78,30.78,0,0,0-29.16,30.73Z"/><path class="cls-45" d="M2168.43,1891.37c108.69-137,324.76-35.91,433.83-189.58a422.25,422.25,0,0,0,53.59-103.43,24.79,24.79,0,0,1,12,21.2v658.82a24.88,24.88,0,0,1-21.47,24.65l-676.69,93.72c42.72-46.69,85.62-106.35,116.68-180.92C2154.59,2052.11,2097.46,1980.83,2168.43,1891.37Z"/><path class="cls-46" d="M1785.19,1917.19c20.26,90.9,67.5,353.1,14.78,634.89a50.62,50.62,0,0,1-41.83,40.53L1576,2621.69s-1.82-172.43-89.31-183.74-169.53,70.72-175,212.9c0,0-189.57,25.52-475.76-40.1,0,0-38.28-8.2-54.68-51.5l12.92-198.31a60.89,60.89,0,0,1,21-42.11l168.46-145.56s153.12-216.92,204.16-258.84c0,0,27.34-43.75,247.91-49.22,151.9-3.77,256.49,6.3,306.89,12.93A50.38,50.38,0,0,1,1785.19,1917.19Z"/><path class="cls-47" d="M803.86,2331.81l8.38,9.16c-3.65,102.08-25.77,138.16,161.33,157.41s181.36-137.9,181.36-137.9l245.36-107,204.88-322.64c40.67-32.76,111.72-41.71,159.9-43.78a50.23,50.23,0,0,1,20.12,30.14c20.25,90.9,67.5,353.1,14.78,634.89a50.62,50.62,0,0,1-41.83,40.53L1576,2621.69s-1.82-172.43-89.31-183.74-169.53,70.72-175,212.9c0,0-189.57,25.52-475.76-40.1,0,0-38.28-8.2-54.68-51.5l12.92-198.31A61,61,0,0,1,803.86,2331.81Z"/><path class="cls-48" d="M1402.8,2206.41a32.51,32.51,0,0,1-31.7,15.35l-388.52-47.63,1-.86s127.07-180,188.28-243.75l358.25,21.55a16.4,16.4,0,0,1,13,24.9Z"/><path class="cls-49" d="M1171.46,2085.42c105.79-41.58,193.68,7.7,266.43-50.45,28-22.38,44.66-53.44,54.51-86.17l37.71,2.27a16.4,16.4,0,0,1,13,24.9L1402.8,2206.41a32.51,32.51,0,0,1-31.7,15.35l-322.39-39.52C1091.05,2127.22,1134.63,2099.9,1171.46,2085.42Z"/><path class="cls-50" d="M828.11,2358.11a6.92,6.92,0,0,1,6.93-6.18c96.81.85,218.55,21.22,258.85,28.45a13.5,13.5,0,0,1,10.84,16.29c-7.88,33.63-21,56.38-30.58,69.58a37.88,37.88,0,0,1-27.68,15.51c-30.46,2.39-98,6.46-130.79-1.34-29.14-6.94-57-20.76-72-29a32.1,32.1,0,0,1-16.42-23.09C823.57,2404.59,826.58,2371.66,828.11,2358.11Z"/><path class="cls-51" d="M1301.83,2367.45a10.35,10.35,0,0,0-5.67-14.31c-8.55-3.17-20.27-6.82-27.08-6-8.92,1.05-84.39,20.65-118.91,29.69a23.06,23.06,0,0,0-17.3,23.67c1.54,23.5,10.41,60.72,50.77,64.9C1239.66,2471.17,1275.06,2421.77,1301.83,2367.45Z"/><path class="cls-52" d="M938.92,2506.39c146.86,20.51,176.66-29.89,176.66-29.89,34.75,5.17,84.16-1.64,112.15-6.52,10.67-1.85,21,3.21,27,12.25,4.47,6.76,12.59,13.6,27.35,16.15,24.1,4.15,65.14-5,85.25-10.19-29.26,40.15-49.74,92.19-52.44,162.45,0,0-192.76,25.73-479-39.89,0,0-38.28-8.2-54.68-51.5l8.43-129.32C804.68,2452.88,843.9,2493.12,938.92,2506.39Z"/><path class="cls-53" d="M1177.78,2531.9a27.18,27.18,0,0,1,29.75,27.76c-.77,34.89,2.79,71.4,5.94,96.06-83.15.19-214.66-7.62-377.54-45,0,0-38.28-8.2-54.68-51.5l4.91-75.37C903.5,2550.41,1101,2539.34,1177.78,2531.9Z"/><path class="cls-54" d="M1722.55,1969.91l-52.76,12.77a71.84,71.84,0,0,0-42.38,29.22l-130.62,190.53c-8.92,13,2.6,30.23,18,27l226.33-47.88a20.37,20.37,0,0,0,16.18-19.05c1.42-32.65,2.93-110-9.86-176.41A20.49,20.49,0,0,0,1722.55,1969.91Z"/></g></g></g></svg>