<svg xmlns="http://www.w3.org/2000/svg" viewBox="0 0 404.53 340.83"><defs><style>.cls-1{fill:#407bff;}.cls-11,.cls-18,.cls-2,.cls-24,.cls-25,.cls-26,.cls-4,.cls-5,.cls-7{fill:#fff;}.cls-2{opacity:0.9;}.cls-3,.cls-6,.cls-7{opacity:0.1;}.cls-4{opacity:0.7;}.cls-14,.cls-5{opacity:0.5;}.cls-8{fill:#263238;}.cls-9{fill:#ffc3bd;}.cls-10,.cls-12,.cls-22,.cls-25{opacity:0.2;}.cls-10,.cls-15{isolation:isolate;}.cls-11,.cls-20{opacity:0.8;}.cls-13,.cls-26{opacity:0.6;}.cls-15,.cls-24{opacity:0.3;}.cls-16{fill:#ed847e;}.cls-17{fill:#2e353a;}.cls-19{fill:#de5753;}.cls-21{fill:none;stroke:#407bff;stroke-miterlimit:10;}.cls-23{fill:#e8bfbf;}</style></defs><g id="Capa_2" data-name="Capa 2"><g id="Background_Simple" data-name="Background Simple"><path class="cls-1" d="M92.6,38.27C70.72,59.34,56.19,87.11,46.89,116,40.57,135.66,36.52,157,42,176.82s22.89,37.64,43.52,37.84c15.77.16,30.23-9.71,39.84-22.21s15.27-27.49,21.3-42.06,12.79-29.29,24-40.38,26.56-17.91,42.1-21.65C223.72,85.74,236.38,84.83,245,92c10.66,8.8,9.89,26.09,2.75,37.93-10.73,17.78-31.29,26.53-47.95,38.93-30.43,22.65-48.94,60.47-48.16,98.4.24,11.91,3.1,25.15,13,31.82,10.31,7,24.74,4,35-3.09s17.55-17.51,25.89-26.75c23.05-25.54,54.09-42.15,81.87-62.44s54-47.11,59.49-81.07c4.61-28.57-6.84-58.38-26.67-79.46S293,12.27,264.68,6.18C209.26-5.75,135.56-3.1,92.6,38.27Z"/><path class="cls-2" d="M92.6,38.27C70.72,59.34,56.19,87.11,46.89,116,40.57,135.66,36.52,157,42,176.82s22.89,37.64,43.52,37.84c15.77.16,30.23-9.71,39.84-22.21s15.27-27.49,21.3-42.06,12.79-29.29,24-40.38,26.56-17.91,42.1-21.65C223.72,85.74,236.38,84.83,245,92c10.66,8.8,9.89,26.09,2.75,37.93-10.73,17.78-31.29,26.53-47.95,38.93-30.43,22.65-48.94,60.47-48.16,98.4.24,11.91,3.1,25.15,13,31.82,10.31,7,24.74,4,35-3.09s17.55-17.51,25.89-26.75c23.05-25.54,54.09-42.15,81.87-62.44s54-47.11,59.49-81.07c4.61-28.57-6.84-58.38-26.67-79.46S293,12.27,264.68,6.18C209.26-5.75,135.56-3.1,92.6,38.27Z"/></g><g id="Character_2" data-name="Character 2"><path class="cls-1" d="M384.85,283.27l5.08-80.86A52.16,52.16,0,0,0,337.87,147h0A52.16,52.16,0,0,0,285.8,196.2l-5.33,94.44H377A7.87,7.87,0,0,0,384.85,283.27Z"/><path class="cls-3" d="M385,280.34l4.9-77.93A52.16,52.16,0,0,0,337.87,147h0A52.16,52.16,0,0,0,285.8,196.2l-5.33,94.44h93.59A11,11,0,0,0,385,280.34Z"/><path class="cls-1" d="M369.19,290.64l5.54-88.23A52.17,52.17,0,0,0,322.67,147h0A52.15,52.15,0,0,0,270.6,196.2l-5.33,94.44Z"/><path class="cls-1" d="M370.85,305.83h1.33a1.51,1.51,0,0,0,1.42-1.35l2-13.83h-8.11l2,13.83A1.52,1.52,0,0,0,370.85,305.83Z"/><path class="cls-4" d="M370.85,305.83h1.33a1.51,1.51,0,0,0,1.42-1.35l2-13.83h-8.11l2,13.83A1.52,1.52,0,0,0,370.85,305.83Z"/><path class="cls-1" d="M240.2,305.83h1.2a1.45,1.45,0,0,0,1.3-1.35l1.78-13.83h-7.36l1.79,13.83A1.44,1.44,0,0,0,240.2,305.83Z"/><path class="cls-5" d="M240.2,305.83h1.2a1.45,1.45,0,0,0,1.3-1.35l1.78-13.83h-7.36l1.79,13.83A1.44,1.44,0,0,0,240.2,305.83Z"/><path class="cls-1" d="M277.81,305.83H279a1.44,1.44,0,0,0,1.29-1.35l1.78-13.83h-7.35l1.78,13.83A1.44,1.44,0,0,0,277.81,305.83Z"/><path class="cls-4" d="M277.81,305.83H279a1.44,1.44,0,0,0,1.29-1.35l1.78-13.83h-7.35l1.78,13.83A1.44,1.44,0,0,0,277.81,305.83Z"/><path class="cls-1" d="M330.35,305.83h1.33a1.53,1.53,0,0,0,1.43-1.35l2-13.83H327l2,13.83A1.51,1.51,0,0,0,330.35,305.83Z"/><path class="cls-5" d="M330.35,305.83h1.33a1.53,1.53,0,0,0,1.43-1.35l2-13.83H327l2,13.83A1.51,1.51,0,0,0,330.35,305.83Z"/><path class="cls-1" d="M286.32,257.32H250.76L248.41,223l-.51-7.36h0l-.23-3.39a22.84,22.84,0,0,0-.35-2.65c0-.19-.08-.4-.12-.59a2,2,0,0,0-.11-.42,20.43,20.43,0,0,0-5.41-9.2,17.47,17.47,0,0,0-11.11-5H264c.36,0,.73,0,1.1,0a17.31,17.31,0,0,1,12.11,5,20.44,20.44,0,0,1,5.42,9.2,2,2,0,0,1,.11.42,22.57,22.57,0,0,1,.47,3.24l.23,3.39h0Z"/><path class="cls-3" d="M286.32,257.32H250.76L248.41,223l-.51-7.36h0l-.23-3.39a22.84,22.84,0,0,0-.35-2.65c0-.19-.08-.4-.12-.59a2,2,0,0,0-.11-.42,20.43,20.43,0,0,0-5.41-9.2,17.47,17.47,0,0,0-11.11-5H264c.36,0,.73,0,1.1,0a17.31,17.31,0,0,1,12.11,5,20.44,20.44,0,0,1,5.42,9.2,2,2,0,0,1,.11.42,22.57,22.57,0,0,1,.47,3.24l.23,3.39h0Z"/><g class="cls-6"><path d="M314.5,239.06h14.29c3.47,0,6.28,2.2,6.28,4.91v8.45c0,2.71-2.81,4.9-6.28,4.9H314.5Z"/></g><rect class="cls-1" x="250.76" y="239.06" width="73.74" height="18.27" rx="5.42" transform="translate(575.27 496.38) rotate(180)"/><path class="cls-1" d="M404.53,214.63a20.26,20.26,0,0,1-16.81,20L384,283.33c-.32,4.14-3.33,7.32-6.93,7.32H337.89c3.6,0,6.6-3.18,6.92-7.32l2-26,1.72-22.72A20.18,20.18,0,0,0,363,223.94a11,11,0,0,0,.53-1.09,20,20,0,0,0,1.74-8.22,20.81,20.81,0,0,0-.42-4.13c-.11-.54-.25-1.08-.4-1.61a20.55,20.55,0,0,0-3.36-6.59h0a20.31,20.31,0,0,0-16.06-7.91h39.22a19.9,19.9,0,0,1,9.05,2.14,20.11,20.11,0,0,1,7,5.77h0A20.21,20.21,0,0,1,404.53,214.63Z"/><path class="cls-3" d="M404.53,214.63a20.26,20.26,0,0,1-16.81,20L384,283.33c-.32,4.14-3.33,7.32-6.93,7.32H337.89c3.6,0,6.6-3.18,6.92-7.32l2-26,1.72-22.72A20.18,20.18,0,0,0,363,223.94a11,11,0,0,0,.53-1.09,20,20,0,0,0,1.74-8.22,20.81,20.81,0,0,0-.42-4.13c-.11-.54-.25-1.08-.4-1.61a20.55,20.55,0,0,0-3.36-6.59h0a20.31,20.31,0,0,0-16.06-7.91h39.22a19.9,19.9,0,0,1,9.05,2.14,20.11,20.11,0,0,1,7,5.77h0A20.21,20.21,0,0,1,404.53,214.63Z"/><path class="cls-1" d="M365.31,214.64c0,10-6.59,18.34-15.24,20l-3.34,48.73c-.29,4.14-3,7.32-6.28,7.32H235.71c-3.26,0-6-3.18-6.28-7.32l-3.35-48.81c-8.48-1.78-14.89-10-14.89-19.88a21.56,21.56,0,0,1,3.39-11.71,18.9,18.9,0,0,1,6.78-6.41,16.69,16.69,0,0,1,8.2-2.15,17.44,17.44,0,0,1,12.12,5,20.48,20.48,0,0,1,5.41,9.2,2.18,2.18,0,0,1,.11.44,22.23,22.23,0,0,1,.47,3.23l.24,3.39h0l2.85,41.64H325.4l3.09-45c.44-6.36,3.54-11.66,7.84-14.17a17,17,0,0,1,9.51-3.69,10,10,0,0,1,1.1,0,16.63,16.63,0,0,1,8,2,1.55,1.55,0,0,1,.22.12,18.84,18.84,0,0,1,6.36,5.77h0A21.63,21.63,0,0,1,365.31,214.64Z"/><path class="cls-7" d="M323.67,290.65h-88c-3.26,0-6-3.18-6.28-7.32l-3.35-48.81c-8.48-1.78-14.89-10-14.89-19.88a21.56,21.56,0,0,1,3.39-11.71,18.9,18.9,0,0,1,6.78-6.41,16.69,16.69,0,0,1,8.2-2.15,17.44,17.44,0,0,1,12.12,5,20.48,20.48,0,0,1,5.41,9.2,2.18,2.18,0,0,1,.11.44,22.23,22.23,0,0,1,.47,3.23l.24,3.39h0l2.85,41.64H325.4Z"/><path class="cls-8" d="M312.26,152.08c-1.74,1-3.33,1.83-5,2.68s-3.31,1.63-5,2.41c-3.36,1.53-6.76,3-10.26,4.27a112.83,112.83,0,0,1-10.76,3.4,68.84,68.84,0,0,1-11.56,2.07l-.83.08-.39,0c-3.53-.41-6.66-1.05-9.8-1.7s-6.25-1.39-9.33-2.18-6.14-1.6-9.2-2.48-6.09-1.79-9.12-2.82l1.39-6.94c6.29.4,12.57,1,18.79,1.65l9.29.93c3.06.3,6.19.56,8.93.66l-1.21,0a67.13,67.13,0,0,0,9.26-2.34c3.13-1,6.27-2.14,9.39-3.48s6.23-2.72,9.31-4.19c1.58-.72,3.11-1.48,4.61-2.23s3.1-1.55,4.47-2.26Z"/><path class="cls-3" d="M312.26,152.08c-1.74,1-3.33,1.83-5,2.68s-3.31,1.63-5,2.41c-3.36,1.53-6.76,3-10.26,4.27a112.83,112.83,0,0,1-10.76,3.4,68.84,68.84,0,0,1-11.56,2.07l-.83.08-.39,0c-3.53-.41-6.66-1.05-9.8-1.7s-6.25-1.39-9.33-2.18-6.14-1.6-9.2-2.48-6.09-1.79-9.12-2.82l1.39-6.94c6.29.4,12.57,1,18.79,1.65l9.29.93c3.06.3,6.19.56,8.93.66l-1.21,0a67.13,67.13,0,0,0,9.26-2.34c3.13-1,6.27-2.14,9.39-3.48s6.23-2.72,9.31-4.19c1.58-.72,3.11-1.48,4.61-2.23s3.1-1.55,4.47-2.26Z"/><path class="cls-9" d="M231.13,147.07a17,17,0,0,0-4.84-2.37l-2.59,10.11,7.76,3.26.88-1.08A6.88,6.88,0,0,0,231.13,147.07Z"/><polygon class="cls-9" points="223.7 154.81 226.29 144.7 219.05 140.75 216.87 147.87 223.7 154.81"/><path class="cls-10" d="M287.91,162.31h.28l.12,0c3.82-.41,15.05-2.3,23.17-10.31-1.21-2.33-2.87-4.15-4.9-4.56C301,146.43,294.12,150.44,287.91,162.31Z"/><path class="cls-1" d="M294.48,214.63c9.58-25.87,3.28-49.66,4.48-62.83a15,15,0,0,1,12.14-13.38c6.54-1.26,14.63-2.68,22.34-3.72a15.08,15.08,0,0,1,17.14,15.18c-.67,39-13.17,64.75-13.17,64.75l-20.2-.09Z"/><path class="cls-11" d="M294.48,214.63c9.58-25.87,3.28-49.66,4.48-62.83a15,15,0,0,1,12.14-13.38c6.54-1.26,14.63-2.68,22.34-3.72a15.08,15.08,0,0,1,17.14,15.18c-.67,39-13.17,64.75-13.17,64.75l-20.2-.09Z"/><g id="character-2--inject-102"><polygon class="cls-9" points="217.86 302.9 215.3 319.73 223.43 319.73 228.78 302.9 217.86 302.9"/><path class="cls-8" d="M214.26,316l10.87-.26a.61.61,0,0,1,.68.6l0,8a1.83,1.83,0,0,1-1.79,1.63c-3.78,0-5.58-.14-10.36,0a122.2,122.2,0,0,1-15.22-1c-3.87-.66-2.82-4.29-1.07-4.35,7.9-.29,12.32-1.94,15.16-4A2.92,2.92,0,0,1,214.26,316Z"/><polygon class="cls-12" points="216.83 309.65 217.86 302.9 228.78 302.9 226.15 311.32 216.83 309.65"/><path class="cls-1" d="M289.47,208.57s-66.15.66-67.18,21.61c-1.46,30.12-6.55,76-6.55,76l12.47,3.43s17.8-45.53,18.49-69.06c18.61-3.7,66.44,0,72.06-12.22a32.72,32.72,0,0,0,2.12-19.8Z"/><path class="cls-13" d="M289.47,208.57s-66.15.66-67.18,21.61c-1.46,30.12-6.55,76-6.55,76l12.47,3.43s17.8-45.53,18.49-69.06c18.61-3.7,66.44,0,72.06-12.22a32.72,32.72,0,0,0,2.12-19.8Z"/><polygon class="cls-9" points="276.06 309.41 280.47 320.83 289.39 320.83 286.32 308.82 276.06 309.41"/><polygon class="cls-12" points="287.15 312.06 285.42 303.27 274.15 304.67 277.04 312.31 287.15 312.06"/><path class="cls-8" d="M278.06,317.05h11.38a.7.7,0,0,1,.75.64h0l.55,8.53A1.76,1.76,0,0,1,289,328c-4-.07-5.86-.29-10.87-.29-3.07,0-9.29.3-13.54.3s-4.13-4-2.34-4.31c8.1-1.62,11.23-3.85,14.08-6A3,3,0,0,1,278.06,317.05Z"/><path class="cls-1" d="M307.29,208.57s-60,4.07-58.52,25c1.61,22.92,25.64,76.07,25.64,76.07h12.13s-8.06-48.23-11.72-71.59c16.92,0,56.13,2.55,61.77-9.7a32.79,32.79,0,0,0,2.1-19.8Z"/><path class="cls-14" d="M307.29,208.57s-60,4.07-58.52,25c1.61,22.92,25.64,76.07,25.64,76.07h12.13s-8.06-48.23-11.72-71.59c16.92,0,56.13,2.55,61.77-9.7a32.79,32.79,0,0,0,2.1-19.8Z"/></g><path class="cls-9" d="M316.38,123.78c1.38,5.34,1.81,12-5.65,14.75-2.07,3.3-3.08,6.78,4.89,5.54a24.54,24.54,0,0,0,16.09-9.1c-4.77-4.18-3.9-17-2.69-24.23Z"/><path class="cls-8" d="M315.53,133.5c-6.85,1.17-12.48,6.47-15.5,12.72s-3.75,13.37-3.69,20.32.85,13.87.66,20.81c-.21,8-2.14,13.67-4.9,21.21,0,1.79,2.71,2.8,5,3.27,4.78-10.43,7.92-20.41,7.59-31.87-.25-8.32-.36-17.8,1-26s11.17-18.91,10.7-20.39Z"/><path class="cls-15" d="M322.2,127.7a6.65,6.65,0,0,1-5.06,1.22,23,23,0,0,0-.28-3.88l8.28-6.8a18.73,18.73,0,0,1,.35,2.68A7.57,7.57,0,0,1,322.2,127.7Z"/><path class="cls-9" d="M309.82,92.2c-8.75,5-8.84,18.94-6.14,27a12.12,12.12,0,0,0,21.23,3.56c4.28-5.41,3.66-10.87,3.45-20.27S318.58,87.26,309.82,92.2Z"/><path class="cls-10" d="M312.64,117.34c-2.82,1.21-5.91,2.78-8.76,2.44a12.11,12.11,0,0,0,21,3c3.5-4.43,4.61-7.43,3.58-15.51C323,113.7,318.67,114.76,312.64,117.34Z"/><path class="cls-8" d="M321.1,95.32a8,8,0,0,0,.89,9.57c.79.83,1.76,1.47,2.52,2.33a6.8,6.8,0,0,1,1.72,4.85,5,5,0,0,1,4.75-4.22q-1.78,5.49-3.56,11a15.22,15.22,0,0,0,8.68-12C336.86,99.79,328.1,84.57,321.1,95.32Z"/><path class="cls-8" d="M300.68,95.85a6.13,6.13,0,0,0-1.39,2.61,2.44,2.44,0,0,0,1,2.58,3.65,3.65,0,0,0,2.38.12l8-1.39c4.58-.8,9.16-1.59,13.68-2.67,2-.49,4.31-1.25,5.11-3.18,2.59-6.25-8.47-7.06-12.17-6.89C311,87.34,304.62,91,300.68,95.85Z"/><path class="cls-9" d="M329.78,106.28c-2.62.59-3.74,4.36-3.67,6.78,0,2.75,2,4.54,4.32,2.88a8.47,8.47,0,0,0,3.28-5.28C334.18,108.07,332.41,105.69,329.78,106.28Z"/><path class="cls-16" d="M311.27,115.83a3.25,3.25,0,0,1-2.73.41c1-2.25.88-1.75,1.19-5.59Z"/><path class="cls-8" d="M315.88,103.31c-.75-.84-2.8-1.16-3.91-1h0a.44.44,0,0,1-.49-.36.48.48,0,0,1,.38-.53c1.4-.21,3.73.21,4.68,1.26h0a.45.45,0,0,1,0,.63.53.53,0,0,1-.2.13A.44.44,0,0,1,315.88,103.31Z"/><path class="cls-8" d="M302.94,105.23h0a.44.44,0,0,1-.12-.6,4.69,4.69,0,0,1,3.43-2.35h0a.41.41,0,0,1,.42.41.47.47,0,0,1-.43.49,3.75,3.75,0,0,0-2.7,1.9.46.46,0,0,1-.36.22A.35.35,0,0,1,302.94,105.23Z"/><path class="cls-17" d="M310.48,119.9a37.77,37.77,0,0,1,2.65,3.84c.21-.08.42-.16.62-.26,2.82-1.22,3.62-2.92,3.66-4.43a6.42,6.42,0,0,0-1.07-3.37c-1,1.73-3.53,3.11-4.91,3.78C310.86,119.75,310.48,119.9,310.48,119.9Z"/><path class="cls-18" d="M311.43,119.46l.41.56a.84.84,0,0,0,1,.27c2.08-1,3.46-2,4-3.13a.79.79,0,0,0,0-.67,6.08,6.08,0,0,0-.46-.81C315.33,117.41,312.81,118.79,311.43,119.46Z"/><path class="cls-19" d="M313.75,123.48c2.82-1.22,3.62-2.92,3.66-4.43a8.19,8.19,0,0,0-2.79,2.11A4,4,0,0,0,313.75,123.48Z"/><path class="cls-8" d="M306.15,108.4c-.49.09-.76.79-.62,1.54s.67,1.29,1.16,1.19.76-.78.62-1.53S306.64,108.31,306.15,108.4Z"/><path class="cls-8" d="M314.73,107c-.49.09-.76.79-.62,1.54s.67,1.29,1.16,1.19.76-.79.62-1.54S315.22,106.89,314.73,107Z"/><polygon class="cls-2" points="302.37 112.42 308.68 111 308.79 113.68 302.92 115.08 302.37 112.42"/><g class="cls-20"><polygon class="cls-2" points="310.6 110.58 311.36 113.05 319.45 111.3 318.97 108.46 310.6 110.58"/></g><polygon class="cls-8" points="308.72 111.99 308.68 111 310.6 110.58 310.89 111.51 308.72 111.99"/><path class="cls-8" d="M306.42,213.48s11.39,4.41,14,5.27a32.84,32.84,0,0,0,9.37,2.15,11.5,11.5,0,0,0,8.87-3.31c2.72-2.9,3.57-7.3,4.28-11.43Q346,188,349.19,169.78c1-6,3.63-15,3.41-18.39-.41-6.3-4.42-13.74-14.63-17.83-4-1.59-7.89-1-11.23,3-2,2.38-7.82,8.12-9.25,18.23-1.14,8.1-2.92,18.59-2.81,26.82C314.82,192.43,310.52,206.07,306.42,213.48Z"/><path class="cls-8" d="M352.05,148.06c1.16,10.54-4.67,37.11-5.79,38.71-4.78,15.41-17.91,7.1-19.81,6.39-3.31-1.22-6.68-3.61-9.83-5.2-6.11-3-11.9-5.48-17.58-9.25l3.2-6.32c6.23,2.12,23.86,6.68,26.77,7.39,1.26.33,6.17,2.9,6.12-.49.69-1.13,1.65-23.14,3.76-30.92a6.64,6.64,0,0,1,1.23-2.39l.19-.24a6.74,6.74,0,0,1,11.74,2.32Z"/><path class="cls-7" d="M352.05,148.06c1.16,10.54-4.67,37.11-5.79,38.71-4.78,15.41-17.91,7.1-19.81,6.39-3.31-1.22-6.68-3.61-9.83-5.2-6.11-3-11.9-5.48-17.58-9.25l3.2-6.32c6.23,2.12,23.86,6.68,26.77,7.39,1.26.33,6.17,2.9,6.12-.49.69-1.13,1.65-23.14,3.76-30.92a6.64,6.64,0,0,1,1.23-2.39l.19-.24a6.74,6.74,0,0,1,11.74,2.32Z"/><polygon class="cls-8" points="299.74 187.86 270.14 187.86 266.76 149.24 296.36 149.24 299.74 187.86"/><polygon class="cls-5" points="299.74 187.86 270.14 187.86 266.76 149.24 296.36 149.24 299.74 187.86"/><polygon class="cls-1" points="298.69 187.67 269.09 187.67 265.71 149.05 295.31 149.05 298.69 187.67"/><polygon class="cls-11" points="298.69 187.67 269.09 187.67 265.71 149.05 295.31 149.05 298.69 187.67"/><polygon class="cls-1" points="286.95 151.46 274.5 151.46 274.08 146.63 286.52 146.63 286.95 151.46"/><polygon class="cls-1" points="274.08 146.63 275.3 146.21 288.19 146.21 288.37 148.26 287.41 149.38 287.35 151.05 286.95 151.46 286.52 146.63 274.08 146.63"/><polygon class="cls-14" points="274.08 146.63 275.3 146.21 288.19 146.21 288.37 148.26 287.41 149.38 287.35 151.05 286.95 151.46 286.52 146.63 274.08 146.63"/><path class="cls-9" d="M304.6,174.48l.67,3.61c-1.6,4.17-10.77,3.07-10.77,3.07l0-10.67,8.09,1.88A2.7,2.7,0,0,1,304.6,174.48Z"/><polygon class="cls-9" points="294.48 170.49 294.53 181.18 286.4 181.38 284.54 171.98 294.48 170.49"/><path class="cls-1" d="M325.4,257.32l3.09-45c.44-6.36,3.54-11.66,7.84-14.17a17,17,0,0,1,9.51-3.69,10,10,0,0,1,1.1,0,16.63,16.63,0,0,1,8,2,1.55,1.55,0,0,1,.22.12,18.84,18.84,0,0,1,6.36,5.77h0a21.63,21.63,0,0,1,3.8,12.34c0,10-6.59,18.34-15.24,20l-3.34,48.73c-.29,4.14-3,7.32-6.28,7.32H323.67Z"/><path class="cls-7" d="M325.4,257.32l3.09-45c.44-6.36,3.54-11.66,7.84-14.17a17,17,0,0,1,9.51-3.69,10,10,0,0,1,1.1,0,16.63,16.63,0,0,1,8,2,1.55,1.55,0,0,1,.22.12,18.84,18.84,0,0,1,6.36,5.77h0a21.63,21.63,0,0,1,3.8,12.34c0,10-6.59,18.34-15.24,20l-3.34,48.73c-.29,4.14-3,7.32-6.28,7.32H323.67Z"/></g><g id="Text_Balloon" data-name="Text Balloon"><path class="cls-21" d="M172.8,48V89.77a4,4,0,0,1-4,4H126l-15.3,11.83a2.92,2.92,0,0,1-4.68-2.34V93.72h-2.39a4,4,0,0,1-4-4V48a3.94,3.94,0,0,1,4-3.92h65.26A3.93,3.93,0,0,1,172.8,48Z"/><rect class="cls-1" x="124.53" y="38.15" width="8.17" height="1"/><path class="cls-1" d="M94.48,49.93h-1V45a6.87,6.87,0,0,1,6.87-6.86h18.23v1H100.35A5.88,5.88,0,0,0,94.48,45Z"/><path class="cls-1" d="M152.27,74.66a3.15,3.15,0,0,1-3.16-3.38v0c1.07-12.19,10.73-13.31,11.94-27.17.35-4-1.11-5.5-3.9-5.5s-4.51,1.51-4.86,5.5l-.2,2.28A4.13,4.13,0,0,1,148,50.11h0a4.12,4.12,0,0,1-4.11-4.48l.09-1c.78-8.92,5.61-14,14.14-14s12.46,5.1,11.68,14C168.5,59.12,158,61.35,157.05,71.55a.76.76,0,0,1,0,.15,3.18,3.18,0,0,1-3.16,3Zm4.33,8.48v0A4.21,4.21,0,0,1,152.4,87h0a4.2,4.2,0,0,1-4.19-4.57v0a4.2,4.2,0,0,1,4.2-3.84h0A4.21,4.21,0,0,1,156.6,83.14Z"/><path class="cls-1" d="M141,64.87H118a2,2,0,1,1,0-4h23a2,2,0,0,1,0,4Z"/><path class="cls-1" d="M137.82,72.79H118a2,2,0,0,1,0-4h19.78a2,2,0,0,1,0,4Z"/><path class="cls-1" d="M134.64,80.7H118a2,2,0,0,1,0-4h16.6a2,2,0,0,1,0,4Z"/></g><g id="Character_1" data-name="Character 1"><path class="cls-1" d="M87.58,243.88H73c-3.56,0-6.44,2.24-6.44,5v8.64c0,2.78,2.88,5,6.44,5H87.58Z"/><path class="cls-1" d="M19.68,284.56,14.6,203.7a52.15,52.15,0,0,1,52.05-55.42h0a52.16,52.16,0,0,1,52.08,49.22l5.32,94.44H27.53A7.87,7.87,0,0,1,19.68,284.56Z"/><path class="cls-3" d="M19.49,281.63,14.6,203.7a52.15,52.15,0,0,1,52.05-55.42h0a52.16,52.16,0,0,1,52.08,49.22l5.32,94.44H30.47A11,11,0,0,1,19.49,281.63Z"/><path class="cls-1" d="M35.34,291.94,29.8,203.7a52.15,52.15,0,0,1,52.06-55.42h0a52.16,52.16,0,0,1,52.07,49.22l5.33,94.44Z"/><path class="cls-1" d="M33.68,307.13H32.35a1.54,1.54,0,0,1-1.43-1.36l-2-13.83h8.11l-2,13.83A1.52,1.52,0,0,1,33.68,307.13Z"/><path class="cls-4" d="M33.68,307.13H32.35a1.54,1.54,0,0,1-1.43-1.36l-2-13.83h8.11l-2,13.83A1.52,1.52,0,0,1,33.68,307.13Z"/><path class="cls-1" d="M164.33,307.13h-1.21a1.45,1.45,0,0,1-1.29-1.36l-1.78-13.83h7.35l-1.78,13.83A1.45,1.45,0,0,1,164.33,307.13Z"/><path class="cls-5" d="M164.33,307.13h-1.21a1.45,1.45,0,0,1-1.29-1.36l-1.78-13.83h7.35l-1.78,13.83A1.45,1.45,0,0,1,164.33,307.13Z"/><path class="cls-1" d="M126.72,307.13h-1.21a1.45,1.45,0,0,1-1.29-1.36l-1.79-13.83h7.36L128,305.77A1.46,1.46,0,0,1,126.72,307.13Z"/><path class="cls-4" d="M126.72,307.13h-1.21a1.45,1.45,0,0,1-1.29-1.36l-1.79-13.83h7.36L128,305.77A1.46,1.46,0,0,1,126.72,307.13Z"/><path class="cls-1" d="M74.18,307.13H72.85a1.53,1.53,0,0,1-1.43-1.36l-2-13.83h8.11l-2,13.83A1.52,1.52,0,0,1,74.18,307.13Z"/><path class="cls-5" d="M74.18,307.13H72.85a1.53,1.53,0,0,1-1.43-1.36l-2-13.83h8.11l-2,13.83A1.52,1.52,0,0,1,74.18,307.13Z"/><path class="cls-1" d="M118.21,258.61h35.56l2.35-34.28.5-7.36h0l.24-3.39a22.84,22.84,0,0,1,.34-2.65c0-.19.09-.39.13-.58a2.09,2.09,0,0,1,.11-.43,20.48,20.48,0,0,1,5.41-9.2,17.45,17.45,0,0,1,11.1-5H140.51c-.37,0-.73,0-1.1,0a17.4,17.4,0,0,0-12.12,5,20.48,20.48,0,0,0-5.41,9.2,2.09,2.09,0,0,0-.11.43,22.43,22.43,0,0,0-.47,3.23l-.23,3.39h0Z"/><path class="cls-3" d="M118.21,258.61h35.56l2.35-34.28.5-7.36h0l.24-3.39a22.84,22.84,0,0,1,.34-2.65c0-.19.09-.39.13-.58a2.09,2.09,0,0,1,.11-.43,20.48,20.48,0,0,1,5.41-9.2,17.45,17.45,0,0,1,11.1-5H140.51c-.37,0-.73,0-1.1,0a17.4,17.4,0,0,0-12.12,5,20.48,20.48,0,0,0-5.41,9.2,2.09,2.09,0,0,0-.11.43,22.43,22.43,0,0,0-.47,3.23l-.23,3.39h0Z"/><g class="cls-6"><path d="M90,240.35H75.74c-3.47,0-6.28,2.2-6.28,4.91v8.45c0,2.71,2.81,4.91,6.28,4.91H90Z"/></g><rect class="cls-1" x="80.02" y="240.35" width="73.74" height="18.27" rx="5.42"/><path class="cls-1" d="M0,215.93a20.26,20.26,0,0,0,16.81,20l3.68,48.72c.32,4.14,3.32,7.32,6.92,7.32H66.64c-3.6,0-6.6-3.18-6.92-7.32l-2-26L56,235.9a20.25,20.25,0,0,1-14.54-10.66c-.19-.36-.36-.73-.52-1.1a20.11,20.11,0,0,1-1.32-12.34c.11-.55.25-1.09.39-1.61a20.72,20.72,0,0,1,3.37-6.6h0a20.33,20.33,0,0,1,7-5.77,20.11,20.11,0,0,1,9-2.14H20.26a20.16,20.16,0,0,0-6,.91,20.21,20.21,0,0,0-10.07,7h0A20.21,20.21,0,0,0,0,215.93Z"/><path class="cls-3" d="M0,215.93a20.26,20.26,0,0,0,16.81,20l3.68,48.72c.32,4.14,3.32,7.32,6.92,7.32H66.64c-3.6,0-6.6-3.18-6.92-7.32l-2-26L56,235.9a20.25,20.25,0,0,1-14.54-10.66c-.19-.36-.36-.73-.52-1.1a20.11,20.11,0,0,1-1.32-12.34c.11-.55.25-1.09.39-1.61a20.72,20.72,0,0,1,3.37-6.6h0a20.33,20.33,0,0,1,7-5.77,20.11,20.11,0,0,1,9-2.14H20.26a20.16,20.16,0,0,0-6,.91,20.21,20.21,0,0,0-10.07,7h0A20.21,20.21,0,0,0,0,215.93Z"/><path class="cls-1" d="M39.22,215.93c0,10,6.59,18.34,15.24,20l3.34,48.73c.29,4.15,3,7.32,6.28,7.32H168.82c3.26,0,6-3.17,6.28-7.32l3.35-48.8c8.47-1.78,14.88-10,14.88-19.89A21.56,21.56,0,0,0,190,204.22a19.06,19.06,0,0,0-6.78-6.41,16.84,16.84,0,0,0-8.2-2.14,17.38,17.38,0,0,0-12.12,5,20.53,20.53,0,0,0-5.42,9.2,3,3,0,0,0-.1.43,21.12,21.12,0,0,0-.47,3.23l-.24,3.39h0l-2.85,41.64H79.13l-3.09-45c-.45-6.36-3.54-11.66-7.84-14.17a17.14,17.14,0,0,0-9.51-3.69c-.37,0-.73,0-1.1,0a16.63,16.63,0,0,0-8,2l-.23.11A19.13,19.13,0,0,0,43,203.58h0A21.56,21.56,0,0,0,39.22,215.93Z"/><path class="cls-7" d="M80.85,291.94h88c3.26,0,6-3.17,6.28-7.32l3.35-48.8c8.47-1.78,14.88-10,14.88-19.89A21.56,21.56,0,0,0,190,204.22a19.06,19.06,0,0,0-6.78-6.41,16.84,16.84,0,0,0-8.2-2.14,17.38,17.38,0,0,0-12.12,5,20.53,20.53,0,0,0-5.42,9.2,3,3,0,0,0-.1.43,21.12,21.12,0,0,0-.47,3.23l-.24,3.39h0l-2.85,41.64H79.13Z"/><polygon class="cls-9" points="107.63 309.15 116.16 311.51 123.82 291.46 115.29 289.1 107.63 309.15"/><path class="cls-8" d="M120,308.85a4.45,4.45,0,0,0-2.73-1.66l-8.79-1.71a.81.81,0,0,0-.95.54l-2.71,8a1.76,1.76,0,0,0,1.07,2.24l.06,0c3.24,1.28,5.43.84,10.49,1.82,3.13.61,9.68,2.68,14.06,2.5s4.37-4.51,2.53-4.83C126.47,314.75,121.47,310.83,120,308.85Z"/><g class="cls-22"><polygon points="123.82 291.47 119.87 301.81 111.34 299.44 115.28 289.1 123.82 291.47"/></g><path class="cls-1" d="M95.35,215.4s51.36-.28,49.76,16.92c-1.08,11.62-6.66,23.83-11,35.62-6.31,17.09-11.78,32-11.78,32l-11.7-4.05s10.51-49.42,17.59-54.48H84.79c-14.37,0-20.58-15.78-6.59-34.18C86.75,207.22,95.35,215.4,95.35,215.4Z"/><path class="cls-13" d="M95.35,215.4s51.36-.28,49.76,16.92c.8,10.69-22.79,67.6-22.79,67.6l-11.7-4.05s10.51-49.42,17.59-54.48H84.79c-14.37,0-20.58-15.78-6.59-34.18C86.75,207.22,95.35,215.4,95.35,215.4Z"/><path class="cls-8" d="M131.57,184.13c-6.32,5.78-18.73-7.89-20.73-9.51-4.28-3.49-16.86-15.24-16.2-19.32,2-12,21.68,5,27.37,16.72Z"/><path class="cls-1" d="M76.26,148c-3.17.67-6.6-.47-8.83,1.88s-3.16,5.65-3.48,8.87a59,59,0,0,0,.7,13.46q1,8.13,2.09,16.25a48.32,48.32,0,0,1-.51,13.37v0a2.15,2.15,0,0,0,1.22,2.33s24.59.84,31.74.57c3.8-.14,1.19-10.14,2.36-16,.26-1.3,2.8-6.64,3.18-8,1.76-6.45.59-10.89-1-17.37-1.19-4.71-1.68-11.5-4.08-12C95.33,150.49,85.08,146.14,76.26,148Z"/><path class="cls-11" d="M76.26,148c-3.17.67-6.6-.47-8.83,1.88s-3.16,5.65-3.48,8.87a59,59,0,0,0,.7,13.46q1,8.13,2.09,16.25a48.32,48.32,0,0,1-.51,13.37v0a2.15,2.15,0,0,0,1.22,2.33s24.59.84,31.74.57c3.8-.14,1.19-10.14,2.36-16,.26-1.3,2.8-6.64,3.18-8,1.76-6.45.59-10.89-1-17.37-1.19-4.71-1.68-11.5-4.08-12C95.33,150.49,85.08,146.14,76.26,148Z"/><path class="cls-8" d="M72.75,152.64c-.33-.5-9-7.78-10.55.63C60,165,64.54,176.5,64.54,176.5s1,12.67,4.72,13.94,7.18,1.58,8.42-.59a12.87,12.87,0,0,0,1.24-5.41S78.48,161.38,72.75,152.64Z"/><path class="cls-23" d="M78.74,132c.89,5.39,1.64,15.24-2.21,18.71,0,0,9.41,4.93,15.59,13.53a8.15,8.15,0,0,0,2.86-9.1,7.94,7.94,0,0,0-4-4.78c-3.65-2-3.3-5.78-2.3-9.32Z"/><path class="cls-10" d="M80,141.1l3.51,1.35a11.51,11.51,0,0,0,4.72.76h0a7.52,7.52,0,0,0,0,3.34,6.74,6.74,0,0,1-7-2.24A11.59,11.59,0,0,1,80,141.1Z"/><polygon class="cls-9" points="167.1 291.91 176.66 291.91 166.65 267.94 160.17 278.94 167.1 291.91"/><path class="cls-8" d="M175.87,289.64l-11.21-2.54a.77.77,0,0,0-.94.5l-3.13,8.62a1.72,1.72,0,0,0,1.18,2.13l0,0c3.93.82,5.86,1,10.79,2.14,3,.68,10.72,2.7,14.91,3.65s5.29-3.15,3.62-3.93c-7.48-3.46-11.53-6.77-13.7-9.59A2.7,2.7,0,0,0,175.87,289.64Z"/><g class="cls-22"><polygon points="166.65 267.94 170.91 278.15 162.31 282.95 160.17 278.95 166.65 267.94"/></g><path class="cls-8" d="M66,204.29l-1,3.26c-.13.25.16.51.58.53l37,1.12c.34,0,.61-.14.64-.35l.43-3.28c0-.22-.25-.42-.61-.44L66.68,204A.67.67,0,0,0,66,204.29Z"/><path class="cls-1" d="M112.32,231c-12.17,5.19-25.37,10.37-32.55,10.37-14.38,0-27.15-10.38-13.54-34,8.56,0,23.43.24,23.43.24s28-8,48.38-5.64a23,23,0,0,1,19.89,18.37c5.16,26,13.11,54.12,13.11,54.12l-10.23,7S144.86,248,135.68,221.33C130.82,222.89,121.89,227,112.32,231Z"/><path class="cls-14" d="M157.93,220.4A23,23,0,0,0,138,202c-20.34-2.32-48.38,5.64-48.38,5.64s-14.87-.27-23.43-.24c-13.83,23.52-.84,34,13.54,34,7.18,0,20.38-5.18,32.55-10.37,9.57-4.08,18.5-8.15,23.36-9.71,9.18,26.62,25.13,60.16,25.13,60.16l10.23-7S163.09,246.38,157.93,220.4Z"/><path class="cls-1" d="M145.11,232.33a95.28,95.28,0,0,1-1.5,9.95c-.05-.11-.09-.21-.13-.32s0-.05,0-.08a1.79,1.79,0,0,0-.13-.32c-2.72-6.76-5.38-13.69-7.63-20.22l.07,0h0C141.61,223.84,145.58,227.35,145.11,232.33Z"/><path class="cls-13" d="M145.11,232.33a95.28,95.28,0,0,1-1.5,9.95c-.05-.11-.09-.21-.13-.32s0-.05,0-.08a1.79,1.79,0,0,0-.13-.32c-2.72-6.76-5.38-13.69-7.63-20.22l.07,0h0C141.61,223.84,145.58,227.35,145.11,232.33Z"/><path class="cls-23" d="M72.18,126.77c3,8.45,4.1,12.09,9.72,15.26,8.47,4.78,18.17-.78,17.75-10-.38-8.25-5.23-20.69-14.63-21.69a12.24,12.24,0,0,0-13.52,10.8A12.37,12.37,0,0,0,72.18,126.77Z"/><path class="cls-8" d="M87.37,125.67c.21.73.74,1.17,1.2,1s.64-.8.46-1.51-.73-1.16-1.2-1S87.17,125,87.37,125.67Z"/><path class="cls-8" d="M95.22,123.2c.21.73.74,1.16,1.2,1s.64-.8.46-1.51-.74-1.16-1.19-1S95,122.5,95.22,123.2Z"/><path class="cls-8" d="M95.48,121.79l1.54-1S96.55,122.38,95.48,121.79Z"/><path class="cls-16" d="M92.41,124.79a19.51,19.51,0,0,0,3.78,3.76,3.1,3.1,0,0,1-2.37,1.15Z"/><path class="cls-8" d="M66.66,132.4a25.41,25.41,0,0,1,1.39,4.71,6.53,6.53,0,0,1-5.55,6.8,6.26,6.26,0,0,0,7.23-3.27,8.53,8.53,0,0,1-4.28,4.62,9.07,9.07,0,0,0,7.25-3.49c-.47,1.22-1,2.43-1.42,3.65a15.67,15.67,0,0,0,5.65-5.92c.53-1,.93-2.3.23-3.18s-1.81-.82-2.83-.84-2.25-.26-2.62-1.21.31-1.9,1.05-2.55,1.63-1.25,1.9-2.2a4.14,4.14,0,0,0-.14-2.06q-.69-2.76-1.36-5.53a5.74,5.74,0,0,0-.69-1.85c-2-3-4.23,1.4-5,2.89A13.11,13.11,0,0,0,66.66,132.4Z"/><path class="cls-23" d="M71.59,135.05a7.06,7.06,0,0,0,4.64,2.69c2.45.3,3.31-2,2.33-4.09-.89-1.91-3.23-4.37-5.54-3.72S70.21,133.21,71.59,135.05Z"/><path class="cls-8" d="M87.5,119.63a.47.47,0,0,1-.37.38c-2,.38-3.16,2.79-3.16,2.81a.45.45,0,1,1-.82-.36c.09-.09,1.33-2.86,3.81-3.34a.46.46,0,0,1,.52.36A.26.26,0,0,1,87.5,119.63Z"/><path class="cls-8" d="M92.84,117.63a.49.49,0,0,0-.38.1c-.11.12-.48.33-.27.44,1.22.63,2.91,1.64,4.21,1.43.22,0,.74-.23.63-.38a.62.62,0,0,0-.6-.2c-1,.14-2.41-.83-3.37-1.33A.9.9,0,0,0,92.84,117.63Z"/><path class="cls-8" d="M87.64,124.26l1.55-1S88.7,124.85,87.64,124.26Z"/><path class="cls-8" d="M87.5,106.64c-3.41-.62-3.85-.84-7.31-.63a17.41,17.41,0,0,0-9.69,3.36,15.8,15.8,0,0,0-5.29,8.46A24.45,24.45,0,0,0,65,127.91a6.56,6.56,0,0,0,1.94,4.22,25.65,25.65,0,0,1,.91-5.31,8.64,8.64,0,0,1,3-4.41,4.59,4.59,0,0,0,1.6-1.42,5.83,5.83,0,0,0,.36-1.82,5.62,5.62,0,0,1,2.34-3.43,19.74,19.74,0,0,1,3.77-1.94C83,112,87.63,111,91.51,108.51A18.37,18.37,0,0,0,87.5,106.64Z"/><path class="cls-8" d="M70.05,120a6.66,6.66,0,0,0,3.57,2.22c1.66.38,5.81.28,6.06-.15s-1.23-5.09-2.91-5.37a11.34,11.34,0,0,0,4.06,2.52,13.26,13.26,0,0,0,5.2,0c.88-.2-1.09-3.84-2.52-4.88,4.31.9,8.87,1.93,12,5s4.48,7.93,4.32,12.46a6.2,6.2,0,0,0,2.31-4.92,18.37,18.37,0,0,1-1.27,14.27c4.58-3.76,6.3-10.33,5.09-16.13s-5-10.85-9.61-14.56c-4-3.17-8.76-5.54-13.83-5.65C75.87,104.63,63.55,112.19,70.05,120Z"/><path class="cls-23" d="M75.44,146.76c0-.33.08-.77.12-1.23A4.28,4.28,0,0,0,72.08,141h0a1.77,1.77,0,0,1-1.36-1.16c-.77-2.24-1.07-2.92-1.81-5.12-2-.49-4.41.26-6.5.48a18.22,18.22,0,0,0-.12,7.64,3.38,3.38,0,0,0,.64,1.56,27.27,27.27,0,0,0,6.24,3.84C71,148.76,73.51,146.94,75.44,146.76Z"/><path class="cls-23" d="M69.38,148.26s-5.51,35.55.17,41c3.33,3.18,6.21,1.42,8-.57a7.09,7.09,0,0,0,1.74-5.47l-3.87-36.43S71.62,144.54,69.38,148.26Z"/><path class="cls-23" d="M128.58,180.34a15.1,15.1,0,0,0,4.66-7.48,14.54,14.54,0,0,0,.2-3.1c-.05-6.44-1.87-18.25-1.87-18.25l-5.23-1.73s-1.63,9-2,13.92c-.07,1-.18,2.12-.3,3.32-.23,2.2-.51,4.62-.76,6.63Z"/><path class="cls-8" d="M131.57,184.13c1.61-1.47,1.88-3.25,2.71-7,.79-3.58-.1-8-.84-7.33a.72.72,0,0,0-.2.31c-1.27,3-6.21.37-7.61-1.13a10.21,10.21,0,0,1-1.58-1.92,1.61,1.61,0,0,1,0-1.82c-1.52-.63-2.74,5.35-2,6.82l.38,1.11a15.47,15.47,0,0,0,2.74,4.94l2.75,3.31Z"/><path class="cls-23" d="M126.2,150.55l-.62-9.13a38.67,38.67,0,0,0,5,1.94c2.54.87,6-.66,5.2,1a69.5,69.5,0,0,1-4.26,7.16Z"/><path class="cls-23" d="M125.58,141.42l3.89-9.16,5.12,3.14c1.41,3,1.24,8.95,1.24,8.95S128.74,144.67,125.58,141.42Z"/><path class="cls-8" d="M91.81,134.37c.13.65.6,1.11,1,1s.65-.69.51-1.34-.6-1.11-1-1S91.67,133.75,91.81,134.37Z"/><path class="cls-1" d="M79.13,258.61l-3.09-45c-.45-6.36-3.54-11.66-7.84-14.17a17.14,17.14,0,0,0-9.51-3.69c-.37,0-.73,0-1.1,0a16.63,16.63,0,0,0-8,2l-.23.11A19.13,19.13,0,0,0,43,203.58h0a21.56,21.56,0,0,0-3.8,12.34c0,10,6.59,18.34,15.24,20l3.34,48.73c.29,4.15,3,7.32,6.28,7.32H80.85Z"/><path class="cls-7" d="M79.13,258.61l-3.09-45c-.45-6.36-3.54-11.66-7.84-14.17a17.14,17.14,0,0,0-9.51-3.69c-.37,0-.73,0-1.1,0a16.63,16.63,0,0,0-8,2l-.23.11A19.13,19.13,0,0,0,43,203.58h0a21.56,21.56,0,0,0-3.8,12.34c0,10,6.59,18.34,15.24,20l3.34,48.73c.29,4.15,3,7.32,6.28,7.32H80.85Z"/></g><g id="Table"><ellipse class="cls-8" cx="198.66" cy="332.25" rx="33.54" ry="8.58"/><ellipse class="cls-24" cx="198.66" cy="330.82" rx="33.54" ry="7.15"/><polygon class="cls-8" points="201.43 330.81 195.89 330.81 189.49 261.79 207.83 261.79 201.43 330.81"/><path class="cls-8" d="M207.83,261.79c0,2-4.1,3.64-9.17,3.64s-9.17-1.63-9.17-3.64,4.11-3.64,9.17-3.64S207.83,259.78,207.83,261.79Z"/><path class="cls-4" d="M207.83,261.79c0,2-4.1,3.64-9.17,3.64s-9.17-1.63-9.17-3.64,4.11-3.64,9.17-3.64S207.83,259.78,207.83,261.79Z"/><path class="cls-4" d="M86.54,262.87a3.1,3.1,0,0,1,1.07-2.16c7.75,7.8,56.92,13.81,116.42,13.81s108.67-6,116.43-13.81a3.1,3.1,0,0,1,1.07,2.16c0,8.81-52.61,16-117.5,16S86.54,271.68,86.54,262.87Z"/><path class="cls-4" d="M87.61,264.86c7.75-7.8,56.92-13.8,116.42-13.8s108.67,6,116.43,13.8c-7.76,7.8-56.93,13.81-116.43,13.81S95.36,272.66,87.61,264.86Z"/><path class="cls-4" d="M86.54,262.56c0-8.82,52.6-16,117.49-16s117.5,7.14,117.5,16a3.06,3.06,0,0,1-1.07,2.15c-7.76-7.8-56.93-13.8-116.43-13.8s-108.67,6-116.42,13.8A3.06,3.06,0,0,1,86.54,262.56Z"/><path class="cls-8" d="M249.35,254.79l-49.16-.93a1,1,0,0,1-.89-1.12h0a1,1,0,0,1,.94-1.08l49.16.93a1,1,0,0,1,.9,1.12h0A1,1,0,0,1,249.35,254.79Z"/><path class="cls-25" d="M249.35,254.79l-49.16-.93a1,1,0,0,1-.89-1.12h0a1,1,0,0,1,.94-1.08l49.16.93a1,1,0,0,1,.9,1.12h0A1,1,0,0,1,249.35,254.79Z"/><path class="cls-8" d="M273.22,251.2l-23.5,3.55a1,1,0,0,1-1-.95h0a1.1,1.1,0,0,1,.81-1.23L273,249a1,1,0,0,1,1,.95h0A1.1,1.1,0,0,1,273.22,251.2Z"/><polygon class="cls-8" points="273.01 249.02 223.33 249.02 200.24 251.66 248.06 252.56 273.01 249.02"/><polygon class="cls-26" points="273.01 249.02 223.33 249.02 200.24 251.66 248.06 252.56 273.01 249.02"/><path class="cls-5" d="M273.22,251.2l-23.5,3.55a1,1,0,0,1-1-.95h0a1.1,1.1,0,0,1,.81-1.23L273,249a1,1,0,0,1,1,.95h0A1.1,1.1,0,0,1,273.22,251.2Z"/><path class="cls-1" d="M248.06,252.56l-45.84-.86a3.55,3.55,0,0,1-3.11-3.56l-1.38-27.68c-.1-1.93,1.15-3.48,2.76-3.45l45.84.87a3.56,3.56,0,0,1,3.12,3.56l1.38,27.67C250.92,251,249.68,252.59,248.06,252.56Z"/><path class="cls-25" d="M248.06,252.56l-45.84-.86a3.55,3.55,0,0,1-3.11-3.56l-1.38-27.68c-.1-1.93,1.15-3.48,2.76-3.45l45.84.87a3.56,3.56,0,0,1,3.12,3.56l1.38,27.67C250.92,251,249.68,252.59,248.06,252.56Z"/><path class="cls-1" d="M246.72,252.42l-45.84-.87a3.56,3.56,0,0,1-3.12-3.56l-1.38-27.67c-.09-1.93,1.15-3.48,2.77-3.45l45.83.86a3.56,3.56,0,0,1,3.12,3.56L249.48,249C249.58,250.9,248.33,252.45,246.72,252.42Z"/><path class="cls-26" d="M246.72,252.42l-45.84-.87a3.56,3.56,0,0,1-3.12-3.56l-1.38-27.67c-.09-1.93,1.15-3.48,2.77-3.45l45.83.86a3.56,3.56,0,0,1,3.12,3.56L249.48,249C249.58,250.9,248.33,252.45,246.72,252.42Z"/><path class="cls-18" d="M216.86,234.19a5.41,5.41,0,0,0,5.29,4.86,4.39,4.39,0,0,0,4.44-4.86,5.43,5.43,0,0,0-5.29-4.87A4.39,4.39,0,0,0,216.86,234.19Z"/></g></g></svg>