<svg xmlns="http://www.w3.org/2000/svg" viewBox="0 0 558.39 407.36"><defs><style>.cls-1{fill:#ebebeb;}.cls-2{fill:#263238;}.cls-3{fill:#e8505b;}.cls-4{opacity:0.3;}.cls-5{fill:#455a64;}.cls-6{fill:#fff;}.cls-7{fill:#fafafa;}.cls-8{fill:#ffbe9d;}.cls-9{opacity:0.5;}.cls-10{fill:#eb996e;}.cls-11{opacity:0.2;}.cls-12{opacity:0.4;}</style></defs><g id="Capa_2" data-name="Capa 2"><g id="Background_Simple" data-name="Background Simple"><path class="cls-1" d="M541.18,81.26l-1.71-3.88C520,33.1,477.56,2.83,429.26.19a124.26,124.26,0,0,0-13.51,0C372.5,2.44,331.41,27.35,310.39,64c-12.36,21.57-18.84,47.59-38.47,63.22-25.55,20.36-63,15.46-95.62,9.52s-79-16.45-104.5,4c-15.94,12.81-31.93,39.33-34.29,59.38C27.91,282,62.06,306.37,105.13,342.55c41.89,35.19,123.85,36,178.76,33.78,76.94-3.15,154-32.1,206-87S565.35,152.61,541.18,81.26Z"/></g><g id="Plant"><path class="cls-2" d="M23,385.76a1.6,1.6,0,0,1,.14-.34l.45-.95a24.48,24.48,0,0,0,1.31-3.83,33.62,33.62,0,0,0-.11-14.78,79.36,79.36,0,0,0-2.74-9.92c-1.16-3.52-2.51-7.26-3.61-11.3a43.89,43.89,0,0,1-1.78-13c.17-4.59,1.53-9.18,3-13.75s3-9,3.5-13.54a20.62,20.62,0,0,0-2.49-12.5c-2-3.65-4.47-6.77-6.33-10a34.7,34.7,0,0,1-3.81-9.62,35.7,35.7,0,0,1-.24-14.9,27.46,27.46,0,0,1,1.55-5.26,1.61,1.61,0,0,1-.09.35c-.08.25-.18.58-.32,1a38.11,38.11,0,0,0-1,3.94,36.29,36.29,0,0,0,.38,14.78,34.81,34.81,0,0,0,3.83,9.5c1.86,3.19,4.36,6.3,6.38,10a21.05,21.05,0,0,1,2.56,12.76c-.47,4.57-2,9.07-3.51,13.64s-2.84,9.1-3,13.62a43.18,43.18,0,0,0,1.74,12.86c1.08,4,2.41,7.76,3.56,11.3a78.52,78.52,0,0,1,2.69,10,33.25,33.25,0,0,1,0,14.89,22.07,22.07,0,0,1-1.41,3.82l-.49.94A1.73,1.73,0,0,1,23,385.76Z"/><path class="cls-3" d="M16.91,285s-3.79-12.1,3-19.19a.41.41,0,0,1,.71.2C21,268,21.45,274.13,16.91,285Z"/><path class="cls-2" d="M19.18,269.87a12,12,0,0,1-.26,2.23c-.25,1.54-.54,3.35-.86,5.35s-.6,3.8-.85,5.34a12.79,12.79,0,0,1-.4,2.21,9.1,9.1,0,0,1,.07-2.25c.12-1.39.37-3.29.71-5.38s.71-4,1-5.33A9.92,9.92,0,0,1,19.18,269.87Z"/><path class="cls-3" d="M21.36,313.59S23.67,301.12,33,298a.42.42,0,0,1,.54.52C32.92,300.49,30.47,306.08,21.36,313.59Z"/><path class="cls-2" d="M30.45,301.25a10.15,10.15,0,0,1-1.27,1.86l-3.26,4.31-3.24,4.33a12.2,12.2,0,0,1-1.39,1.76,9.15,9.15,0,0,1,1.11-1.95c.76-1.17,1.86-2.74,3.14-4.42S28,304,28.92,302.9A10.69,10.69,0,0,1,30.45,301.25Z"/><path class="cls-3" d="M18.84,344.89s-1.41-12.61,6.61-18.27a.42.42,0,0,1,.67.34C26.09,329,25.38,335.06,18.84,344.89Z"/><path class="cls-2" d="M24,330.44a11.3,11.3,0,0,1-.68,2.14c-.54,1.46-1.17,3.18-1.86,5.08s-1.32,3.62-1.86,5.08a11.69,11.69,0,0,1-.81,2.09,9.39,9.39,0,0,1,.49-2.19c.39-1.34,1-3.16,1.73-5.15s1.45-3.76,2-5A9.73,9.73,0,0,1,24,330.44Z"/><path class="cls-3" d="M25.86,376.37s-1-12.66,7.26-18a.42.42,0,0,1,.66.37C33.68,360.74,32.75,366.77,25.86,376.37Z"/><path class="cls-2" d="M31.49,362.11a10.59,10.59,0,0,1-.75,2.11c-.59,1.45-1.28,3.14-2,5s-1.44,3.57-2,5a11.84,11.84,0,0,1-.89,2.07,9,9,0,0,1,.58-2.18c.43-1.32,1.1-3.12,1.9-5.08s1.59-3.71,2.18-5A10.36,10.36,0,0,1,31.49,362.11Z"/><path class="cls-3" d="M11.47,274.4S.22,268.52,0,258.71a.42.42,0,0,1,.66-.37C2.33,259.5,7,263.48,11.47,274.4Z"/><path class="cls-2" d="M2.34,262.08a11.12,11.12,0,0,1,1.4,1.76l3.17,4.38,3.18,4.37a12.53,12.53,0,0,1,1.28,1.85,9.27,9.27,0,0,1-1.55-1.64c-.89-1.07-2.06-2.58-3.3-4.3S4.21,265.19,3.46,264A9.86,9.86,0,0,1,2.34,262.08Z"/><path class="cls-3" d="M23.54,300.4s-11.58-5.18-12.4-15a.42.42,0,0,1,.64-.4C13.52,286.09,18.38,289.78,23.54,300.4Z"/><path class="cls-2" d="M13.68,288.66a11.66,11.66,0,0,1,1.51,1.67c1,1.21,2.14,2.62,3.43,4.18l3.44,4.18a11.87,11.87,0,0,1,1.39,1.76,9,9,0,0,1-1.64-1.54c-1-1-2.22-2.45-3.56-4.09s-2.51-3.16-3.33-4.28A10.17,10.17,0,0,1,13.68,288.66Z"/><path class="cls-3" d="M16.88,329.41s-7.95-9.89-4.22-19a.42.42,0,0,1,.74-.07C14.47,312.1,17.12,317.6,16.88,329.41Z"/><path class="cls-2" d="M13.45,314.47a11.8,11.8,0,0,1,.58,2.17c.33,1.52.71,3.31,1.14,5.28l1.17,5.29a12.08,12.08,0,0,1,.43,2.2,9.24,9.24,0,0,1-.76-2.12c-.39-1.33-.86-3.19-1.3-5.26s-.79-4-1-5.33A9.69,9.69,0,0,1,13.45,314.47Z"/><path class="cls-3" d="M24.76,363.55s-11.5-5.38-12.15-15.18a.42.42,0,0,1,.64-.39C15,349.06,19.77,352.84,24.76,363.55Z"/><path class="cls-2" d="M15.09,351.64a11.45,11.45,0,0,1,1.48,1.7l3.36,4.24,3.37,4.23a11.85,11.85,0,0,1,1.36,1.78A9.21,9.21,0,0,1,23.05,362c-.94-1-2.18-2.49-3.49-4.15s-2.46-3.2-3.26-4.33A10.2,10.2,0,0,1,15.09,351.64Z"/><path class="cls-2" d="M47.65,313.66a1.23,1.23,0,0,1,0,.28c0,.22,0,.49,0,.81,0,.77-.08,1.79-.13,3.08-.15,2.7-.36,6.47-.6,11h0c-.82,4.59-3.16,9.68-6.3,14.62-2.3,3.64-4.72,7-6.8,10a72.85,72.85,0,0,0-5.1,8.43,35.4,35.4,0,0,0-2.38,6.18c-.21.76-.36,1.35-.44,1.76a5,5,0,0,1-.17.61,2.92,2.92,0,0,1,.07-.63c.06-.41.18-1,.36-1.78a32.85,32.85,0,0,1,2.26-6.29,68,68,0,0,1,5-8.53c2.07-3.1,4.47-6.41,6.76-10,3.13-4.92,5.45-9.93,6.3-14.45v0c.32-4.51.58-8.27.77-11,.1-1.28.19-2.3.25-3.06l.08-.81A1,1,0,0,1,47.65,313.66Z"/><path class="cls-3" d="M40.81,342.52s4.86-11.72-1.26-19.4a.43.43,0,0,0-.74.15C38.27,325.23,37.27,331.25,40.81,342.52Z"/><path class="cls-2" d="M39.92,327.21a10.92,10.92,0,0,1,.39,2.22c.17,1.37.36,3.28.51,5.39s.22,4,.22,5.42a9.56,9.56,0,0,1-.13,2.25,11.84,11.84,0,0,1-.2-2.24c-.11-1.55-.23-3.38-.36-5.39s-.27-3.85-.38-5.4A10.32,10.32,0,0,1,39.92,327.21Z"/><g class="cls-4"><path d="M40.81,342.52s4.86-11.72-1.26-19.4a.43.43,0,0,0-.74.15C38.27,325.23,37.27,331.25,40.81,342.52Z"/></g><path class="cls-3" d="M25.73,370.75s3.9-12.07-2.82-19.22a.42.42,0,0,0-.73.2C21.8,353.72,21.29,359.81,25.73,370.75Z"/><path class="cls-2" d="M23.6,355.57a9.16,9.16,0,0,1,.57,2.18c.28,1.35.63,3.24.95,5.33s.55,4,.66,5.38a9.56,9.56,0,0,1,0,2.25,11.44,11.44,0,0,1-.38-2.21l-.8-5.35c-.3-2-.58-3.81-.81-5.35A11.71,11.71,0,0,1,23.6,355.57Z"/><g class="cls-4"><path d="M25.73,370.75s3.9-12.07-2.82-19.22a.42.42,0,0,0-.73.2C21.8,353.72,21.29,359.81,25.73,370.75Z"/></g><path class="cls-3" d="M47,328.2s10.4-7.28,9.35-17a.42.42,0,0,0-.7-.28C54.14,312.25,50.07,316.79,47,328.2Z"/><g class="cls-4"><path d="M47,328.2s10.4-7.28,9.35-17a.42.42,0,0,0-.7-.28C54.14,312.25,50.07,316.79,47,328.2Z"/></g><path class="cls-2" d="M54.47,314.8a10,10,0,0,1-.86,2.08c-.6,1.26-1.46,3-2.46,4.83s-2,3.52-2.72,4.69a9.56,9.56,0,0,1-1.32,1.83,11.8,11.8,0,0,1,1-2c.75-1.36,1.62-3,2.59-4.74s1.83-3.39,2.58-4.76A12.12,12.12,0,0,1,54.47,314.8Z"/><path class="cls-3" d="M29.92,358.78s12.54-1.95,15.89-11.18a.41.41,0,0,0-.5-.55C43.36,347.61,37.69,349.89,29.92,358.78Z"/><g class="cls-4"><path d="M29.92,358.78s12.54-1.95,15.89-11.18a.41.41,0,0,0-.5-.55C43.36,347.61,37.69,349.89,29.92,358.78Z"/></g><path class="cls-2" d="M42.52,350.05a9.83,9.83,0,0,1-1.69,1.48c-1.08.87-2.61,2-4.33,3.25s-3.33,2.3-4.51,3a10,10,0,0,1-2,1.06,11.74,11.74,0,0,1,1.8-1.34l4.42-3.12,4.41-3.14A10.36,10.36,0,0,1,42.52,350.05Z"/><polygon class="cls-5" points="17.96 381.85 14.3 406.47 37.09 406.47 34.14 381.85 17.96 381.85"/><path class="cls-2" d="M35.05,389.48a89,89,0,0,1-9.19.24,89,89,0,0,1-9.19-.24,89,89,0,0,1,9.19-.24A89,89,0,0,1,35.05,389.48Z"/><path class="cls-2" d="M35.5,391.44c0,.13-4.25.24-9.49.24s-9.49-.11-9.49-.24,4.25-.24,9.49-.24S35.5,391.31,35.5,391.44Z"/></g><g id="Speech_Bubble" data-name="Speech Bubble"><path class="cls-2" d="M33.69,143.56s.16.13.44.41.67.7,1.23,1.21a23.26,23.26,0,0,0,5.45,3.67,19.82,19.82,0,0,0,2.07.86l1.14.4,1.23.31a25.12,25.12,0,0,0,2.63.48c.47,0,.94.06,1.42.1a9,9,0,0,0,1.47,0,22.21,22.21,0,0,0,12.56-4.11l.08,0h.09L74.63,149l-.22.39-6.14-7.05-.13-.14.11-.17a22,22,0,0,0,4.12-10.27,22,22,0,0,0-25.83-24.5,21.13,21.13,0,0,0-6.27,2.14A21.48,21.48,0,0,0,35.2,113a22.2,22.2,0,0,0-6.66,18.7,22.26,22.26,0,0,0,2,6.73l.6,1.23c.2.38.43.71.62,1a13.24,13.24,0,0,0,1.05,1.57l.7.93a2.37,2.37,0,0,1,.22.33,2.72,2.72,0,0,1-.26-.29l-.74-.91a11.33,11.33,0,0,1-1.1-1.54c-.2-.32-.44-.65-.65-1l-.63-1.23a22.45,22.45,0,0,1,16.14-31.8,22.52,22.52,0,0,1,26.43,25,24.39,24.39,0,0,1-1.48,5.61,25.06,25.06,0,0,1-2.75,4.89V142l6.13,7.06.45.51-.67-.13-11.13-2.15.16,0a22.48,22.48,0,0,1-12.81,4.12,10.52,10.52,0,0,1-1.49,0c-.49,0-1-.06-1.43-.11a23,23,0,0,1-2.67-.52l-1.24-.32L42.79,150a20.2,20.2,0,0,1-2.09-.89,23.06,23.06,0,0,1-5.43-3.79c-.54-.54-.92-1-1.19-1.27Z"/><polygon class="cls-2" points="50.23 124.25 54 123.01 57.76 121.76 56.95 125.64 56.15 129.52 54.11 127.7 45.3 137.59 43.48 135.97 52.28 126.07 50.23 124.25"/></g><g id="Bullseye"><circle class="cls-3" cx="155.08" cy="56.98" r="49.14"/><path class="cls-6" d="M155.08,97.88A40.91,40.91,0,1,1,196,57,40.95,40.95,0,0,1,155.08,97.88Zm0-74.81A33.91,33.91,0,1,0,189,57,33.94,33.94,0,0,0,155.08,23.07Z"/><path class="cls-6" d="M154.81,71A15.07,15.07,0,1,1,169.87,55.9,15.08,15.08,0,0,1,154.81,71Zm0-23.13a8.07,8.07,0,1,0,8.06,8.07A8.08,8.08,0,0,0,154.81,47.83Z"/><polygon class="cls-5" points="154.81 55.9 135.77 55.9 139.09 61.77 94.27 82.31 95.78 84.83 140.75 64.53 143.83 70.36 154.81 55.9"/><path class="cls-2" d="M94.27,82.31l-.48-.46a9.1,9.1,0,0,0-8.9-2.22L67,84.83l10,4.38L73,99.84l16.77-6a9.1,9.1,0,0,0,6-9h0Z"/></g><g id="Graphics"><rect class="cls-7" x="390.63" y="16.72" width="123.8" height="116.87" rx="4.94"/><path class="cls-2" d="M509.5,133.59a9,9,0,0,0,1.2-.18,4.91,4.91,0,0,0,2.83-2,4.79,4.79,0,0,0,.82-2.44c0-1,0-2,0-3.18,0-2.31,0-5,0-8,0-12-.05-29.29-.08-50.67,0-10.7,0-22.42,0-35q0-4.73,0-9.59a7.08,7.08,0,0,0-.23-2.36,4.75,4.75,0,0,0-1.24-2,4.63,4.63,0,0,0-2.05-1.14,9.18,9.18,0,0,0-2.43-.16H487.6l-92,0a4.7,4.7,0,0,0-4.42,3.14,8.48,8.48,0,0,0-.27,2.92V61.55c0,15.4,0,30.24,0,44.39q0,10.61,0,20.66c0,.83,0,1.7,0,2.49a4.71,4.71,0,0,0,4.79,4.28h9.59l35,0,50.67.08,13.77,0,3.59,0,1.22,0-1.22,0-3.59,0-13.77.05-50.67.08-35,0h-9.59a5.16,5.16,0,0,1-4.37-2.26,5.24,5.24,0,0,1-.87-2.42c-.05-.87,0-1.68,0-2.53q0-10,0-20.66c0-14.15,0-29,0-44.39,0-7.69,0-15.53,0-23.48V21.51a4.89,4.89,0,0,1,.29-1.56,5.22,5.22,0,0,1,4.91-3.49l92,0h21.92a5.13,5.13,0,0,1,1.29.17,5.08,5.08,0,0,1,2.24,1.25,5.23,5.23,0,0,1,1.36,2.16,7.66,7.66,0,0,1,.25,2.5q0,4.86,0,9.59c0,12.57,0,24.29,0,35,0,21.38-.07,38.69-.09,50.67,0,3,0,5.64,0,8,0,1.15,0,2.21,0,3.19a4.93,4.93,0,0,1-3.77,4.49A4,4,0,0,1,509.5,133.59Z"/><rect class="cls-3" x="412.24" y="63.52" width="6.67" height="57.34"/><rect class="cls-3" x="442.57" y="58.86" width="6.67" height="62"/><rect class="cls-3" x="473.99" y="50.99" width="6.67" height="69.87"/><rect class="cls-2" x="459.23" y="92.94" width="6.67" height="27.92"/><rect class="cls-5" x="420.01" y="57.37" width="6.67" height="63.49"/><rect class="cls-5" x="450.89" y="44.07" width="6.67" height="76.79"/><rect class="cls-2" x="491.2" y="44.07" width="6.67" height="76.79"/><rect class="cls-5" x="482.9" y="28.91" width="6.67" height="91.95"/><rect class="cls-2" x="428.18" y="80.57" width="6.67" height="40.29"/><path class="cls-2" d="M507.42,124.34c0,.14-23.81.26-53.18.26s-53.19-.12-53.19-.26,23.81-.26,53.19-.26S507.42,124.19,507.42,124.34Z"/><rect class="cls-2" x="397.96" y="110.66" width="4.07" height="1.53"/><rect class="cls-2" x="397.96" y="90.25" width="4.07" height="1.53"/><rect class="cls-2" x="397.96" y="51.85" width="4.07" height="1.53"/><rect class="cls-2" x="397.96" y="32.55" width="4.07" height="1.53"/><rect class="cls-2" x="398.17" y="71.05" width="4.07" height="1.53"/><rect class="cls-6" x="178.13" y="59.44" width="230.35" height="179.27"/><path class="cls-2" d="M408.47,238.71c0-1.78-.08-71.08-.21-179.27l.21.22-230.32,0h0l.26-.26c0,64.62,0,125.74,0,179.27l-.23-.23,230.34.23L178.13,239h-.24v-.24c0-53.53,0-114.65,0-179.27v-.26h.28l230.32,0h.22v.21C408.56,167.63,408.48,236.93,408.47,238.71Z"/><path class="cls-2" d="M246.2,216.75c-.14,0-.26-18.09-.26-40.4s.12-40.4.26-40.4.26,18.09.26,40.4S246.34,216.75,246.2,216.75Z"/><path class="cls-2" d="M339,216.75c-.14,0-.26-18.09-.26-40.4s.12-40.4.26-40.4.26,18.09.26,40.4S339.15,216.75,339,216.75Z"/><path class="cls-2" d="M277.88,216.75c-.14,0-.26-23.12-.26-51.64s.12-51.66.26-51.66.26,23.12.26,51.66S278,216.75,277.88,216.75Z"/><path class="cls-2" d="M213.66,216.75c-.15,0-.26-23.12-.26-51.64s.11-51.66.26-51.66.26,23.12.26,51.66S213.8,216.75,213.66,216.75Z"/><path class="cls-2" d="M375.44,216.75c-.14,0-.26-23.12-.26-51.64s.12-51.66.26-51.66.26,23.12.26,51.66S375.58,216.75,375.44,216.75Z"/><path class="cls-2" d="M305.67,216.75c-.14,0-.26-26.7-.26-59.63s.12-59.64.26-59.64.26,26.7.26,59.64S305.81,216.75,305.67,216.75Z"/><path class="cls-2" d="M247,136a.76.76,0,1,1-.76-.76A.76.76,0,0,1,247,136Z"/><path class="cls-2" d="M278.64,113.45a.76.76,0,1,1-.76-.75A.76.76,0,0,1,278.64,113.45Z"/><path class="cls-3" d="M277.88,116.15a2.7,2.7,0,1,1,2.7-2.7A2.7,2.7,0,0,1,277.88,116.15Zm0-5.14a2.45,2.45,0,1,0,2.45,2.44A2.44,2.44,0,0,0,277.88,111Z"/><circle class="cls-2" cx="305.67" cy="97.48" r="0.76"/><path class="cls-2" d="M339.77,136.71A.76.76,0,1,1,339,136,.76.76,0,0,1,339.77,136.71Z"/><path class="cls-2" d="M376.22,113.45a.76.76,0,1,1-.76-.75A.76.76,0,0,1,376.22,113.45Z"/><path class="cls-2" d="M214.41,114.21a.75.75,0,0,1-.75.76.76.76,0,1,1,0-1.52A.75.75,0,0,1,214.41,114.21Z"/><path class="cls-3" d="M382.62,150c0,.09-.84.21-2.3.83a16.63,16.63,0,0,0-5.47,4.21c-2.06,2.24-4.11,5.36-6.7,8.88a44.37,44.37,0,0,1-4.58,5.34,25.4,25.4,0,0,1-3,2.48,21.14,21.14,0,0,1-3.6,2,20.31,20.31,0,0,1-8.65,1.47,23.54,23.54,0,0,1-4.65-.57,12.28,12.28,0,0,1-4.53-2,14.41,14.41,0,0,1-3.54-3.68c-1-1.4-1.84-2.88-2.68-4.38-1.67-3-3.4-6-5.36-9.08s-3.73-6.34-5.73-9.53a47.34,47.34,0,0,0-7-9,20.33,20.33,0,0,0-4.66-3.31,19.28,19.28,0,0,0-2.66-1.09c-.46-.12-.94-.2-1.41-.31l-.71-.15a5.83,5.83,0,0,0-.72-.06,20,20,0,0,0-11.45,2.43,29.66,29.66,0,0,0-8.75,8.17,90.2,90.2,0,0,0-6.29,10.1c-3.81,6.9-8,13.48-13.57,18.4a23.17,23.17,0,0,1-9.44,5.26A18.12,18.12,0,0,1,250,177a20,20,0,0,1-5-.93,33.82,33.82,0,0,1-8.38-4.4c-2.48-1.71-4.75-3.48-6.95-5.08a37.91,37.91,0,0,0-6.57-4,22,22,0,0,0-6.53-1.87,16.12,16.12,0,0,0-5.87.36,10.43,10.43,0,0,0-1.27.4,7.64,7.64,0,0,0-1.18.47,14.16,14.16,0,0,0-2.08,1.14,21.77,21.77,0,0,0-3.14,2.48c-.78.87-1.5,1.56-2,2.2a14.09,14.09,0,0,1-1.55,1.9,14.8,14.8,0,0,1,1.31-2.09c.44-.68,1.14-1.41,1.89-2.33a21.56,21.56,0,0,1,3.14-2.67,15.51,15.51,0,0,1,2.13-1.25,7.94,7.94,0,0,1,1.23-.51,9.34,9.34,0,0,1,1.32-.46,16.63,16.63,0,0,1,6.15-.51,22.63,22.63,0,0,1,6.84,1.83,38.36,38.36,0,0,1,6.81,4c2.25,1.59,4.53,3.33,7,5a32.49,32.49,0,0,0,8.11,4.15,18,18,0,0,0,4.64.83,16.51,16.51,0,0,0,4.82-.56,21.85,21.85,0,0,0,8.83-5c5.3-4.75,9.42-11.2,13.18-18.06a89.94,89.94,0,0,1,6.39-10.29,31,31,0,0,1,9.22-8.6,21.53,21.53,0,0,1,12.38-2.62c.26,0,.53,0,.79.07l.78.17c.52.12,1,.21,1.55.35a19.09,19.09,0,0,1,2.91,1.19,21.78,21.78,0,0,1,5,3.58,47.33,47.33,0,0,1,7.18,9.31c2,3.24,3.8,6.5,5.69,9.55s3.71,6.17,5.34,9.17,3.28,5.91,5.77,7.68a10.88,10.88,0,0,0,4.08,1.82,22.7,22.7,0,0,0,4.4.59,19.35,19.35,0,0,0,8.18-1.29,20.06,20.06,0,0,0,3.43-1.83,23.92,23.92,0,0,0,2.89-2.33,42.77,42.77,0,0,0,4.57-5.15c2.64-3.43,4.79-6.54,6.95-8.77a16.06,16.06,0,0,1,5.8-4.08,10,10,0,0,1,1.79-.48A2.47,2.47,0,0,1,382.62,150Z"/><rect class="cls-2" x="212.9" y="82.99" width="37.29" height="2.07"/><rect class="cls-2" x="212.9" y="87.85" width="18.43" height="2.07"/><rect class="cls-2" x="178.13" y="54.22" width="230.35" height="14.4"/></g><g id="Character_2" data-name="Character 2"><polygon class="cls-8" points="512.68 351.2 546.16 392.2 554.64 381.84 529.33 345.17 512.68 351.2"/><path class="cls-3" d="M545.45,393.2l-1-.93,9.75-11.47,4.2,3.84-.59.72c-2.63,3.19-13.6,16-16.09,17.5C538.94,404.48,545.45,393.2,545.45,393.2Z"/><g class="cls-9"><path class="cls-6" d="M554.62,388.55a5.27,5.27,0,0,1-1-3.57,5.06,5.06,0,0,1,1.58-3.31l3.07,2.83Z"/></g><g class="cls-9"><path class="cls-6" d="M542.43,398.86s-2.08,4.15-1.16,4.24,12.5-12.47,17.12-18.46l-.26-.21L544.75,399.2S543.05,398.25,542.43,398.86Z"/></g><path class="cls-2" d="M558.28,384.25a1.21,1.21,0,0,1-.15.21l-.47.57-1.76,2.08c-1.49,1.75-3.59,4.13-6,6.71s-4.58,4.87-6.19,6.51l-1.93,1.92-.53.51c-.12.12-.19.18-.2.17l.17-.19.51-.54,1.89-2c1.59-1.66,3.77-4,6.15-6.54s4.48-4.95,6-6.67l1.8-2,.5-.56Z"/><path class="cls-2" d="M544.92,399.35a4,4,0,0,0-2.69-.53,2,2,0,0,1,1.43-.15A2,2,0,0,1,544.92,399.35Z"/><path class="cls-2" d="M546.26,394.59c0,.05-.34,0-.74,0s-.72-.18-.71-.23a1.71,1.71,0,0,1,.75.05C546,394.44,546.27,394.54,546.26,394.59Z"/><path class="cls-2" d="M546.62,393.26c0,.05-.28.12-.62.15s-.63,0-.63,0,.27-.12.61-.15S546.61,393.21,546.62,393.26Z"/><path class="cls-2" d="M546.1,391.74s-.17.32-.46.64-.55.56-.59.52.17-.32.45-.64S546.06,391.71,546.1,391.74Z"/><path class="cls-2" d="M545.54,390.87a1.51,1.51,0,0,1-.4.82,1.61,1.61,0,0,1-.7.58s.26-.32.56-.7S545.49,390.85,545.54,390.87Z"/><path class="cls-2" d="M545,394.08a2.73,2.73,0,0,1-.66.7,5.89,5.89,0,0,1-.85.6,3.48,3.48,0,0,1-.58.27.56.56,0,0,1-.38,0,.38.38,0,0,1-.18-.37,1.75,1.75,0,0,1,1.85-1.25,1.67,1.67,0,0,1,.69.2.65.65,0,0,1,.21.16,2.81,2.81,0,0,0-.9-.24,1.76,1.76,0,0,0-.95.25,1.45,1.45,0,0,0-.72.89c0,.19.15.27.34.21a2.28,2.28,0,0,0,.53-.24,5.85,5.85,0,0,0,.86-.55C544.69,394.32,544.94,394.06,545,394.08Z"/><path class="cls-2" d="M544.83,394.29s-.28,0-.57-.37a1.63,1.63,0,0,1-.34-.67,1,1,0,0,1,.18-.92.39.39,0,0,1,.53.08,1.14,1.14,0,0,1,.21.41,3.07,3.07,0,0,1,.12.73,1.39,1.39,0,0,1-.09.67s0-.26,0-.66a3.37,3.37,0,0,0-.15-.68c-.06-.24-.27-.55-.46-.41a.85.85,0,0,0-.13.75,1.54,1.54,0,0,0,.27.62A3.12,3.12,0,0,0,544.83,394.29Z"/><path class="cls-2" d="M555.06,381.7s-.32.29-.72.84a4.75,4.75,0,0,0-.9,2.45,5,5,0,0,0,.54,2.55c.32.6.62.91.6.93s-.09-.06-.23-.2a4.76,4.76,0,0,1-.48-.67,4.56,4.56,0,0,1,.37-5.14,4.09,4.09,0,0,1,.57-.59A1,1,0,0,1,555.06,381.7Z"/><path class="cls-2" d="M552.29,389a8.14,8.14,0,0,1-1.34,1.74,8.28,8.28,0,0,1-1.62,1.48s.68-.71,1.49-1.6S552.25,388.92,552.29,389Z"/><path class="cls-2" d="M554.26,386.78s.1.2.19.43.21.4.17.43-.22-.1-.33-.36S554.21,386.78,554.26,386.78Z"/><path class="cls-2" d="M554,385s.1.17.11.39,0,.4-.08.4-.09-.17-.1-.39S554,385,554,385Z"/><path class="cls-2" d="M554.61,383.45s-.11.19-.2.4-.11.41-.17.41-.11-.22,0-.48S554.58,383.41,554.61,383.45Z"/><path class="cls-2" d="M555.15,382.42c.05,0,.05.13,0,.26s-.13.21-.17.19-.05-.14,0-.26S555.11,382.4,555.15,382.42Z"/><polygon class="cls-8" points="455.97 384.48 453.02 402.61 468.53 402.61 472.09 387.85 455.97 384.48"/><path class="cls-3" d="M453.52,403l.05-1.38,15.05-.07-.18,5.69-.93,0c-4.13.09-21,.13-23.76-.81C440.71,405.41,453.52,403,453.52,403Z"/><g class="cls-9"><path class="cls-6" d="M463,406.93a5.17,5.17,0,0,1,2-3.12,5,5,0,0,1,3.53-1l-.15,4.18Z"/></g><g class="cls-9"><path class="cls-6" d="M447.25,404.4s-4.5,1.12-4,1.88,17.61,1.35,25.16,1v-.34l-19.92-.53S448.12,404.47,447.25,404.4Z"/></g><path class="cls-2" d="M468.66,406.9a.72.72,0,0,1-.25,0l-.74,0-2.73,0c-2.3,0-5.47,0-9-.16s-6.67-.3-9-.46l-2.71-.21-.74-.07-.25,0h.25l.74,0,2.72.15c2.29.13,5.47.29,9,.41s6.68.18,9,.21l2.73,0,.74,0Z"/><path class="cls-2" d="M448.5,406.6a5.64,5.64,0,0,0-.46-1.31,6.53,6.53,0,0,0-.89-1.08,2.06,2.06,0,0,1,1.05,1A2,2,0,0,1,448.5,406.6Z"/><path class="cls-2" d="M453,404.52s-.24-.24-.45-.59-.34-.66-.29-.68.24.24.45.59S453,404.49,453,404.52Z"/><path class="cls-2" d="M454.23,403.92s-.27-.13-.52-.37-.42-.46-.39-.5.27.13.52.37S454.26,403.89,454.23,403.92Z"/><path class="cls-2" d="M455,402.54a3.43,3.43,0,1,1-.78-.11A1.77,1.77,0,0,1,455,402.54Z"/><path class="cls-2" d="M455.34,401.55a1.4,1.4,0,0,1-.88.22,1.38,1.38,0,0,1-.89-.15,4.73,4.73,0,0,1,.88,0A5.77,5.77,0,0,1,455.34,401.55Z"/><path class="cls-2" d="M452.53,403.2a2.86,2.86,0,0,1-1,0,6.28,6.28,0,0,1-1-.26,2.72,2.72,0,0,1-.58-.27.51.51,0,0,1-.23-.3.38.38,0,0,1,.16-.38,1.75,1.75,0,0,1,2.16.59,1.66,1.66,0,0,1,.29.65c0,.17,0,.26,0,.26a2.77,2.77,0,0,0-.41-.83,1.72,1.72,0,0,0-.8-.56,1.48,1.48,0,0,0-1.15,0c-.16.11-.1.29.06.4a2.84,2.84,0,0,0,.53.25,6.42,6.42,0,0,0,1,.29C452.17,403.15,452.53,403.17,452.53,403.2Z"/><path class="cls-2" d="M452.28,403.24a1,1,0,0,1-.09-.67,1.54,1.54,0,0,1,.29-.7,1,1,0,0,1,.82-.46.38.38,0,0,1,.28.45,1.12,1.12,0,0,1-.18.43,3.07,3.07,0,0,1-.47.56,1.34,1.34,0,0,1-.57.37s.2-.16.48-.46a3.53,3.53,0,0,0,.42-.56c.14-.2.24-.56,0-.61s-.49.2-.65.38a1.72,1.72,0,0,0-.29.62A3.13,3.13,0,0,0,452.28,403.24Z"/><path class="cls-2" d="M468.5,402.8a10.56,10.56,0,0,0-1.1,0,4.77,4.77,0,0,0-2.45.91,4.86,4.86,0,0,0-1.58,2.07c-.25.64-.29,1.07-.32,1.06a1,1,0,0,1,0-.3,4,4,0,0,1,.19-.8,4.53,4.53,0,0,1,4.14-3.07,4.45,4.45,0,0,1,.82.05A1.09,1.09,0,0,1,468.5,402.8Z"/><path class="cls-2" d="M461.19,405.42a8.46,8.46,0,0,1-2.19.12,8.3,8.3,0,0,1-2.18-.27s1,.05,2.19.09S461.19,405.37,461.19,405.42Z"/><path class="cls-2" d="M464.12,405.5s-.08.21-.19.43-.17.41-.22.41-.07-.24.06-.49S464.09,405.46,464.12,405.5Z"/><path class="cls-2" d="M465.28,404.17s-.07.18-.23.34-.32.24-.35.2.06-.18.22-.34S465.24,404.13,465.28,404.17Z"/><path class="cls-2" d="M466.88,403.59c0,.05-.21,0-.43.11s-.39.19-.43.15.1-.24.37-.32S466.9,403.55,466.88,403.59Z"/><path class="cls-2" d="M468,403.34s-.07.12-.19.16-.24,0-.26,0,.07-.12.2-.16S468,403.29,468,403.34Z"/><path class="cls-3" d="M514.85,167.78l-25.44,2.16s-7.63.18-15.89,19.54l-5.73,11.26,11.15,7.11h0l.47,7,1,28.35,47.16-3.47c-1.06-6.44-6.09-14.9-7.78-20.34,1.72-4.28,11.68-21.76,11.67-30.75,0-19.22-16.63-20.88-16.63-20.88"/><path class="cls-7" d="M503.63,208.07a8.55,8.55,0,0,0-3.32-.32,15.94,15.94,0,0,0-3.54.93,22.94,22.94,0,0,1-4.39,1.31,14.83,14.83,0,0,1-8.22-1A14.07,14.07,0,0,1,482,207.8c-.49-.35-.73-.57-.71-.6s1.11.72,3.06,1.47a15.66,15.66,0,0,0,8,.81,26.36,26.36,0,0,0,4.32-1.25,13.92,13.92,0,0,1,3.65-.84,6.62,6.62,0,0,1,2.53.27A2,2,0,0,1,503.63,208.07Z"/><path class="cls-7" d="M476.61,200.08c-.12.11-1.3-1.09-3.11-2s-3.45-1.27-3.43-1.43a8.37,8.37,0,0,1,6.54,3.47Z"/><path class="cls-7" d="M490.42,216.87a9.85,9.85,0,0,1,0-1.52c0-.49,0-1.08.12-1.77s.13-1.49.28-2.35a50.69,50.69,0,0,1,1.28-6,73.44,73.44,0,0,1,2.43-7.12,121.08,121.08,0,0,1,5.89-12.32c.83-1.53,1.52-2.77,2-3.61a8.82,8.82,0,0,1,.81-1.29,8.2,8.2,0,0,1-.63,1.39l-1.86,3.68c-1.57,3.11-3.75,7.41-5.74,12.34-1,2.47-1.8,4.86-2.45,7.06a56.75,56.75,0,0,0-1.38,5.95c-.17.85-.25,1.63-.35,2.32s-.17,1.27-.21,1.76A7.33,7.33,0,0,1,490.42,216.87Z"/><path class="cls-7" d="M479.22,192.31a3.92,3.92,0,0,1,.27-.94c.21-.59.55-1.43,1-2.46a50.28,50.28,0,0,1,4.28-7.63,49.18,49.18,0,0,1,5.54-6.77c.79-.8,1.44-1.42,1.92-1.83a3.94,3.94,0,0,1,.77-.6c.06.06-.93,1-2.42,2.68a63.62,63.62,0,0,0-5.38,6.81,65.41,65.41,0,0,0-4.38,7.5C479.84,191.07,479.3,192.34,479.22,192.31Z"/><path class="cls-7" d="M508.14,189.53c0,.05-.43-.22-1.26-.4a8.25,8.25,0,0,0-3.57.25,20,20,0,0,1-5.41.91,12.57,12.57,0,0,1-6.23-2.49c-2-1.36-3.65-2.85-5.36-3.93a11.16,11.16,0,0,0-4.95-1.87,7.08,7.08,0,0,0-3.52.47c-.78.34-1.15.66-1.18.62s.08-.1.25-.25a3.9,3.9,0,0,1,.85-.55,6.72,6.72,0,0,1,3.64-.66,11.19,11.19,0,0,1,5.16,1.84c1.77,1.08,3.48,2.57,5.41,3.9a12.4,12.4,0,0,0,6,2.44,20.6,20.6,0,0,0,5.29-.79,7.88,7.88,0,0,1,3.69-.09,3.79,3.79,0,0,1,.94.4C508.05,189.45,508.15,189.52,508.14,189.53Z"/><path class="cls-2" d="M479.41,214.87a16.86,16.86,0,0,0-.08-4.16,35.35,35.35,0,0,0-1.06-4.41,37,37,0,0,1-1.29-5.47,10.87,10.87,0,0,1,.64-5.62,13.39,13.39,0,0,1,2.58-3.83,27,27,0,0,1,2.22-2.15,4.85,4.85,0,0,1,.9-.7c.07.07-1.14,1.15-2.85,3.09a14.15,14.15,0,0,0-2.41,3.77,10.56,10.56,0,0,0-.56,5.37,41.49,41.49,0,0,0,1.23,5.41,29.23,29.23,0,0,1,1,4.49,12.3,12.3,0,0,1,0,3.11A4.17,4.17,0,0,1,479.41,214.87Z"/><path class="cls-2" d="M480.42,243.22S469,278.1,464.68,311.83,455,391.94,455,391.94l15.64.32,28.95-90.53L529.08,260l-2.92-25.42Z"/><polyline class="cls-2" points="481.76 247.47 492.61 336.87 536.78 381.67 546.48 368.28 515.17 318.63 522.22 240.46 480.03 248.47"/><path class="cls-5" d="M511.89,286.2a2,2,0,0,1-.25.5,13.37,13.37,0,0,1-.87,1.34,35.53,35.53,0,0,1-3.93,4.35,65.66,65.66,0,0,0-6,6.2,28,28,0,0,0-4.55,9.43c-1,3.6-2,7.06-2.66,10.25s-1.14,6.11-1.9,8.48-1.45,4.23-1.84,5.55-.57,2.06-.61,2.05a1.91,1.91,0,0,1,.06-.55c.07-.36.18-.88.35-1.55.33-1.35,1-3.25,1.69-5.61s1.11-5.26,1.78-8.46,1.58-6.69,2.63-10.32a28,28,0,0,1,4.67-9.57,63.86,63.86,0,0,1,6.13-6.17,39,39,0,0,0,4-4.2C511.46,286.84,511.85,286.18,511.89,286.2Z"/><path class="cls-5" d="M515.55,318a39.31,39.31,0,0,0-3.24,2.69,34,34,0,0,0-2.51,3.39,7.21,7.21,0,0,1,2.13-3.74A7.38,7.38,0,0,1,515.55,318Z"/><path class="cls-5" d="M515,318.59a25.86,25.86,0,0,1-3.34.28,27.9,27.9,0,0,1-3.33.37,7.1,7.1,0,0,1,3.28-.89A7.29,7.29,0,0,1,515,318.59Z"/><polygon class="cls-3" points="444.54 207.25 442.1 217.94 474.33 219.93 444.54 207.25"/><g class="cls-4"><polygon points="444.54 207.25 442.1 217.94 474.33 219.93 444.54 207.25"/></g><path class="cls-5" d="M553.48,238.17a59,59,0,0,0-5.09-3.49c-.55-.12-3.79,2.47-3.79,2.47s1.08-4.46-.86-6.72-5-2.34-8.67,0S524,233.94,524,233.94l-2.36-3.63c-1.18-1.81-2.61-1.11-7.46-1s-17.88-6.89-17.88-6.89-7.19-5.2-15.87-11.58l2-2.49a3.51,3.51,0,0,0-.59-4.92h0a3.51,3.51,0,0,0-4.92.59l-.23.29a2.51,2.51,0,0,0-4.25-2.63l-.95,1.21a2.51,2.51,0,0,0-4.32-1.91c-5.11-3.83-9.76-7.38-12.83-9.86-10.92-8.84-13.59-25.18-13.59-25.18-4.05,1-4,3.56-4.05,6.4,0,.73,0,1.37,0,1.94a16.11,16.11,0,0,0-9.71-.37,14.87,14.87,0,0,0-6.7,4.18,4.12,4.12,0,1,0-1.4,1.57,2.69,2.69,0,0,0,.33-.26,13.53,13.53,0,0,0-1.85,3.48,13.12,13.12,0,0,0,2.46,12.8l1.51.45c-.79.33-1.72.54-2.89.92-2.7.87-5.15,1.61-4.9,5.77,0,0,16.39-2.32,28.08,5.48,3.17,2.11,7.75,5.34,12.72,8.93l-.22.29a2.52,2.52,0,0,0,2.73,4l-.91,1.16a2.52,2.52,0,0,0,3.57,3.51l-.23.29a3.5,3.5,0,0,0,5.51,4.33l2.95-3.77c8.9,6.55,16.28,12.07,16.28,12.07s10.56,10.34,11.9,15,1.1,6.23,3.18,6.82l4.16,1.17s1.16,7.48,0,11.65-.16,7.1,2.57,8.28,6.67-1.18,6.67-1.18-1.5,3.87-1.23,4.35A58.12,58.12,0,0,0,516,289l19-26.09-.83,1.19Z"/><path class="cls-2" d="M436.64,171.3a7.06,7.06,0,0,1,.06,1.37,24.75,24.75,0,0,1-.24,3.73,9.31,9.31,0,0,1-.74,2.51,4.76,4.76,0,0,1-2.07,2.22c-1.9,1.05-4.4,1-6.18,2.45a3.71,3.71,0,0,0-1.22,2.93c0,1.1.17,2.18.17,3.25a5.3,5.3,0,0,1-.73,2.94,6.52,6.52,0,0,1-1.84,1.89,25.84,25.84,0,0,1-3.28,1.81,3.72,3.72,0,0,1-1.32.38s.46-.18,1.24-.57a36.45,36.45,0,0,0,3.15-1.92,6.29,6.29,0,0,0,1.68-1.82,4.82,4.82,0,0,0,.62-2.71c0-1-.21-2.09-.2-3.26a4.19,4.19,0,0,1,1.39-3.31,8,8,0,0,1,3.26-1.5,14.45,14.45,0,0,0,3-1,4.42,4.42,0,0,0,1.91-2,9.36,9.36,0,0,0,.76-2.38,32.63,32.63,0,0,0,.4-3.68A6.84,6.84,0,0,1,436.64,171.3Z"/><path class="cls-2" d="M456.24,221.74a27.72,27.72,0,0,1,2.24-2.72c1.41-1.66,3.34-4,5.37-6.58s3.78-5.07,5-6.86a30.5,30.5,0,0,1,2.07-2.85s-.12.32-.42.85-.75,1.29-1.34,2.21c-1.17,1.84-2.88,4.33-4.92,7s-4,4.92-5.51,6.51c-.74.8-1.36,1.43-1.8,1.86S456.26,221.77,456.24,221.74Z"/><path class="cls-2" d="M476.84,204a4.5,4.5,0,0,1-.6.95c-.42.58-1,1.41-1.81,2.43-1.54,2-3.71,4.85-6.13,7.91s-4.63,5.83-6.26,7.81a26,26,0,0,1-2.74,3.12,5.82,5.82,0,0,1,.62-.93l1.83-2.42c1.55-2,3.72-4.83,6.14-7.9s4.63-5.83,6.25-7.81l1.94-2.34A5.59,5.59,0,0,1,476.84,204Z"/><path class="cls-2" d="M467.19,227.59a19.91,19.91,0,0,1,2-2.43c1.26-1.47,3-3.52,4.78-5.86s3.35-4.52,4.45-6.12a22,22,0,0,1,1.84-2.55,16.2,16.2,0,0,1-1.53,2.75,75.37,75.37,0,0,1-4.35,6.24c-1.81,2.35-3.58,4.38-4.92,5.79A17.89,17.89,0,0,1,467.19,227.59Z"/><path class="cls-2" d="M546.19,234.61s-.1.18-.32.49l-1,1.34-3.8,4.89c-3.2,4.12-7.59,9.84-12.32,16.26s-8.88,12.31-11.87,16.59c-1.46,2.1-2.66,3.82-3.54,5.07l-1,1.38a2.56,2.56,0,0,1-.37.45,2.2,2.2,0,0,1,.28-.51l.9-1.43c.78-1.23,1.94-3,3.4-5.17,2.91-4.34,7-10.27,11.75-16.69s9.17-12.12,12.45-16.18c1.64-2,3-3.67,3.93-4.79l1.09-1.27A3.43,3.43,0,0,1,546.19,234.61Z"/><path class="cls-8" d="M431.49,198.57c-.22-.84,0-1.7.86-1.79h0a1.33,1.33,0,0,1,.9.93l2.25,7.72h0l-1.11-5.76c-.22-.84.13-1.67.81-1.58.37,0,.73.58.83.95l1.8,6.45-.8-4.25c-.21-1,0-1.37.49-1.46s.88.47,1,.83l1.41,4.71c.75.59,3.18,2.4,3.23,4.28,0,.1.27.24.32.31l.69.2-1,4.1s-6.53-4.54-8.19-6.07a6.46,6.46,0,0,1-2-3.31Z"/><path class="cls-2" d="M485.48,128.82c-2.6,2.32-3.18,6.14-3.1,9.62s.64,7-.29,10.39c-.43,1.56-1.18,3-1.59,4.58a5.82,5.82,0,0,0,.44,4.67c1.36,2,4.19,2.29,6.63,2.35l5.5.14a1.74,1.74,0,0,0,2.2-2.1,135.07,135.07,0,0,0-3-29.18"/><path class="cls-8" d="M511.65,132l0,2.5L511.09,172c0,4.35-3.84,7.76-8.5,7.66h0c-4.7-.1-8.52-3.74-8.53-8.13,0-4.61-.12-9.47-.12-9.47s-5.94-1-7.17-8.74c-.61-3.86-.42-10.18-.1-15.35a8.2,8.2,0,0,1,9-7.63Z"/><path class="cls-2" d="M488.26,142.37a1,1,0,0,0,1,1,1,1,0,0,0,1-.9,1,1,0,0,0-1-1A1,1,0,0,0,488.26,142.37Z"/><path class="cls-2" d="M488.05,141.25c.12.13.87-.42,1.94-.42s1.86.54,2,.41-.07-.3-.41-.55a2.78,2.78,0,0,0-1.57-.48,2.59,2.59,0,0,0-1.55.5C488.1,141,488,141.2,488.05,141.25Z"/><path class="cls-2" d="M499,142.37a1,1,0,0,0,1,1,1,1,0,0,0,1-.9,1,1,0,0,0-1-1A1,1,0,0,0,499,142.37Z"/><path class="cls-2" d="M498.56,141.45c.13.13.88-.42,1.95-.42s1.85.54,2,.4-.07-.29-.41-.54a2.74,2.74,0,0,0-1.58-.48,2.64,2.64,0,0,0-1.55.5C498.62,141.16,498.5,141.39,498.56,141.45Z"/><path class="cls-2" d="M494.68,149.39a7,7,0,0,0-1.74-.32c-.27,0-.53-.08-.58-.26a1.37,1.37,0,0,1,.19-.81c.25-.67.52-1.36.81-2.08a35.62,35.62,0,0,0,1.81-5.45,35.52,35.52,0,0,0-2.25,5.29c-.27.73-.53,1.42-.77,2.09a1.53,1.53,0,0,0-.14,1.07.66.66,0,0,0,.45.4,2.06,2.06,0,0,0,.46.07A7.43,7.43,0,0,0,494.68,149.39Z"/><path class="cls-10" d="M493.94,162.05a19.7,19.7,0,0,0,10.39-2.77s-2.52,5.33-10.28,4.6Z"/><path class="cls-10" d="M495.13,152a1.94,1.94,0,0,1,1.73-.72,1.74,1.74,0,0,1,1.22.65,1.12,1.12,0,0,1,.08,1.28,1.29,1.29,0,0,1-1.4.35,4.07,4.07,0,0,1-1.37-.81,1.3,1.3,0,0,1-.3-.32.35.35,0,0,1,0-.4"/><path class="cls-2" d="M497.83,150.13c-.17,0-.18,1.15-1.17,2s-2.23.7-2.24.86.28.23.8.24a2.85,2.85,0,0,0,1.87-.65,2.52,2.52,0,0,0,.9-1.66C498,150.41,497.91,150.12,497.83,150.13Z"/><path class="cls-2" d="M521.46,149.79a54.4,54.4,0,0,1-.87-6.75,28.13,28.13,0,0,0-4.2-12.45,18.68,18.68,0,0,0-6.29-5.93,6.06,6.06,0,0,0,3.54-3.8,4.86,4.86,0,1,0-8.21,2.06,13.58,13.58,0,0,0-6.49.41c-.21,0-.41,0-.61,0-2.57.16-5.23-.21-7.68.6a10.1,10.1,0,0,0-5.93,4.66c-1.32,2.56-1.05,5.61-.76,8.47a3,3,0,0,0,.88,2.21,3,3,0,0,0,1.77.39l5.37,0a6.82,6.82,0,0,0,3.64-.65,2.77,2.77,0,0,0,1.16-1.49,4.17,4.17,0,0,0,2.22,2,10.32,10.32,0,0,0,4.79.25,10.06,10.06,0,0,0,3.1-.69q.21,7.55.4,15.1a4.49,4.49,0,0,0,.54,2.43,4.14,4.14,0,0,0,3.24,1.39,7.7,7.7,0,0,0,4.81-.82,3.64,3.64,0,0,0,1.7-3.51,4.65,4.65,0,0,0,7.42,1.7A9.42,9.42,0,0,1,521.46,149.79Z"/><path class="cls-5" d="M498.66,123.81a20.45,20.45,0,0,0-3.59,0,11.2,11.2,0,0,0-9.95,12,20.48,20.48,0,0,0,.65,3.53,3.51,3.51,0,0,1-.43-.89,10,10,0,0,1-.59-2.62A11.2,11.2,0,0,1,495,123.44a9.94,9.94,0,0,1,2.69.1A2.82,2.82,0,0,1,498.66,123.81Z"/><path class="cls-5" d="M492.5,139.1s-.16-.2-.36-.61a10,10,0,0,1-.61-1.84,11.6,11.6,0,0,1,.38-6.34,11.44,11.44,0,0,1,3.73-5.15,9.26,9.26,0,0,1,1.63-1c.42-.2.66-.28.67-.25s-.86.52-2.07,1.57a11.88,11.88,0,0,0-4,11.14C492.16,138.15,492.59,139.07,492.5,139.1Z"/><path class="cls-5" d="M496.3,134.25a3.56,3.56,0,0,1-.69-1.56,8.89,8.89,0,0,1-.06-4.12,8.67,8.67,0,0,1,1.83-3.68c.69-.81,1.25-1.17,1.29-1.12a14.22,14.22,0,0,1-1,1.34,10.13,10.13,0,0,0-1.62,3.58,10.46,10.46,0,0,0-.08,3.92A13.88,13.88,0,0,1,496.3,134.25Z"/><path class="cls-7" d="M531.92,186.89c-.06.06-.9-.92-2.56-2.12a17.3,17.3,0,0,0-15.15-2.65c-2,.57-3.09,1.21-3.13,1.13a2.61,2.61,0,0,1,.76-.5,13.7,13.7,0,0,1,2.26-1,16.73,16.73,0,0,1,8.09-.61,16.55,16.55,0,0,1,7.39,3.32,13.53,13.53,0,0,1,1.8,1.68C531.77,186.6,532,186.87,531.92,186.89Z"/><path class="cls-3" d="M465.52,211.93l-4.77,16.29s23.58,9.55,37.12,9.39c12.68-.16,16.55-4.26,21.5-12.53,5.76-9.65,10.21-21.78,11.27-28.55,0,0,7.16-31.19-20.15-28.41l-.74,24.4s-3,10-3.24,10.57c-2,5.4-4.68,13.3-7.23,14.25S465.52,211.93,465.52,211.93Z"/><path class="cls-2" d="M465.52,211.93a3.44,3.44,0,0,1,.68.07l1.93.31c1.68.3,4.11.77,7.12,1.41s6.6,1.46,10.64,2.18a65.85,65.85,0,0,0,13.38,1.18l-.24.17c.52-1.34,1.05-2.75,1.57-4.19,3.58-10.07,6.37-19.36,8.68-26,1.13-3.32,2.1-6,2.81-7.82.35-.92.65-1.62.85-2.1a6.35,6.35,0,0,1,.32-.71,4.06,4.06,0,0,1-.23.75q-.27.8-.75,2.13c-.65,1.85-1.56,4.53-2.65,7.86-2.22,6.65-4.95,15.95-8.54,26.05-.52,1.44-1.06,2.86-1.57,4.2l-.07.16h-.17a65.61,65.61,0,0,1-13.47-1.24c-4.06-.76-7.63-1.63-10.64-2.3s-5.41-1.21-7.07-1.56l-1.92-.4A5.19,5.19,0,0,1,465.52,211.93Z"/><path class="cls-2" d="M460.75,228.22a3.87,3.87,0,0,1,.77.24l2.17.74c1.9.63,4.65,1.5,8.09,2.46s7.56,2,12.14,3.15a80.41,80.41,0,0,0,15.07,2.6,28,28,0,0,0,4-.11,16.08,16.08,0,0,0,3.77-.78,18.35,18.35,0,0,0,6.21-3.76,38.48,38.48,0,0,0,7.47-9.93c1.72-3.12,2.91-5.75,3.75-7.57.39-.87.71-1.57.95-2.09a6.14,6.14,0,0,1,.36-.72,3.8,3.8,0,0,1-.26.76c-.19.49-.48,1.21-.87,2.14-.78,1.84-1.92,4.5-3.61,7.66a38.12,38.12,0,0,1-7.47,10.11,18.83,18.83,0,0,1-6.36,3.89,17.35,17.35,0,0,1-3.89.81,29,29,0,0,1-4.07.11,77.21,77.21,0,0,1-15.16-2.66c-4.58-1.16-8.7-2.25-12.13-3.26s-6.18-1.93-8.06-2.62c-.93-.35-1.66-.63-2.14-.84A3.86,3.86,0,0,1,460.75,228.22Z"/><g class="cls-11"><path d="M478.8,214.52l14,.32a7.87,7.87,0,0,0,3.28-.39,7.73,7.73,0,0,0,3.24-3.42Q503,205,506,198.56s-3.69,11.73-6,16.84a2.67,2.67,0,0,1-3.27,1.68A62.92,62.92,0,0,1,478.8,214.52Z"/></g><g class="cls-11"><path d="M521,222.83s-4.72,18-16.84,17.62-23.61-5.56-23.61-5.56l.54-.56s20.59,4.44,26.32,1.65C518.26,230.68,521,222.83,521,222.83Z"/></g><path class="cls-8" d="M461.23,226.58l-3.82,0c-3.48-.34-5.42-.4-6.39-1.32-1.3-1.24.48-2.45.48-2.45s-2.51-.87-2.28-2.4c.17-1,1.36-1.16,1.36-1.16s-2.22-.87-2.66-1.79c-.6-1.26,1-1.93,1-1.93-3-1.87-2.75-3.71-2.05-3.9s3.06.9,3.06.9c2,.57,7.42,2.23,5.41-.77s-2.43-6.06-2-7a1.13,1.13,0,0,1,2.07.52,13.46,13.46,0,0,0,1.42,3.35,8.6,8.6,0,0,0,1.82,2.29c.85.76,1.6,1.37,2.26,1.88l3.4,3.28Z"/><path class="cls-7" d="M526.43,212.14c0,.08-1.28-.5-3.36-1.21a37.13,37.13,0,0,0-8.36-1.78,38,38,0,0,0-8.56.22c-2.17.32-3.5.66-3.52.58a3.33,3.33,0,0,1,.91-.34,23.61,23.61,0,0,1,2.55-.6,32.66,32.66,0,0,1,8.66-.38,32.15,32.15,0,0,1,8.45,2,22,22,0,0,1,2.4,1.06A3.22,3.22,0,0,1,526.43,212.14Z"/><path class="cls-7" d="M498.61,237.49a7.23,7.23,0,0,0,.72-2.93,9.14,9.14,0,0,0-.6-3.21,22.73,22.73,0,0,0-1.88-3.6,28,28,0,0,1-2-3.65,9.81,9.81,0,0,1-.79-3.33,6.14,6.14,0,0,1,.33-2.28,2.06,2.06,0,0,1,.4-.74,8.42,8.42,0,0,0-.36,3,10.15,10.15,0,0,0,.86,3.16,30.38,30.38,0,0,0,2,3.57,21.24,21.24,0,0,1,1.88,3.71,8.94,8.94,0,0,1,.52,3.38,5.48,5.48,0,0,1-.59,2.24C498.85,237.29,498.63,237.51,498.61,237.49Z"/><path class="cls-7" d="M472.71,231.3a11.08,11.08,0,0,1,.21-2.43,57.94,57.94,0,0,1,1.17-5.78,56.29,56.29,0,0,1,1.72-5.64,9.32,9.32,0,0,1,1-2.24,13.24,13.24,0,0,1-.63,2.35c-.43,1.44-1,3.43-1.57,5.65s-1,4.25-1.3,5.72A12.24,12.24,0,0,1,472.71,231.3Z"/><path class="cls-7" d="M525.07,172.38a4.63,4.63,0,0,1,.27,1,9.3,9.3,0,0,1,0,3,20.56,20.56,0,0,1-1.18,4.55c-.61,1.73-1.4,3.64-2.05,5.84-1.36,4.39-2.31,9.78-3.67,15.72a66.57,66.57,0,0,1-2.74,9.16,33.13,33.13,0,0,1-5.08,8.93,22.71,22.71,0,0,1-8.07,6.36,19.74,19.74,0,0,1-9.42,1.62,43.29,43.29,0,0,1-8.54-1.48c-2.62-.69-5-1.43-7.22-2.16-4.36-1.46-7.81-2.89-10.16-3.94-1.17-.52-2.08-.95-2.68-1.25l-.69-.35a1,1,0,0,1-.23-.13l.25.08.71.3,2.72,1.17c2.37,1,5.83,2.36,10.2,3.77,2.18.7,4.6,1.42,7.21,2.09a43.07,43.07,0,0,0,8.45,1.42,19.45,19.45,0,0,0,9.19-1.6,22.16,22.16,0,0,0,7.87-6.23,32.36,32.36,0,0,0,5-8.79,66,66,0,0,0,2.75-9.09c1.38-5.9,2.37-11.31,3.79-15.7.68-2.21,1.5-4.14,2.13-5.84a21.62,21.62,0,0,0,1.25-4.48A10.91,10.91,0,0,0,525.07,172.38Z"/></g><g id="Character_1" data-name="Character 1"><path class="cls-8" d="M202.27,148.75a2.7,2.7,0,0,1,0,2.56L181.3,188.69a13.23,13.23,0,0,1-17.73,4.48l-11.71-6.63L160,172.48l8.69,5.24,21-27.79a26.72,26.72,0,0,0,.31-4.66,6.93,6.93,0,0,0-.44-2.34,10.62,10.62,0,0,0-1.29-2.68.92.92,0,0,1,.8-1.55c.8.2,2.46,2.1,3.22,5s2.67-1.39,3.39-2.92,3.18-6.16,3.82-6.32c.95-.22,1.36.76.61,2.27s-2.71,6.21-1.88,6.55c0,0,1.47.34,1.83,1.25Z"/><path class="cls-10" d="M199.68,144a6.17,6.17,0,0,1-.43,1.77l-.59,1.86c-.12.36-.25.72-.37,1.09a1.6,1.6,0,0,1-.34.64.77.77,0,0,1-.87.11,2.77,2.77,0,0,1-.58-.38,1.12,1.12,0,0,1-.43-.63,2.41,2.41,0,0,1,.26-1.26l.72-1.81a6.09,6.09,0,0,1,.79-1.64,6.83,6.83,0,0,1-.44,1.76l-.62,1.86a2.33,2.33,0,0,0-.22,1c0,.22.44.5.73.66s.23.05.3,0a1.44,1.44,0,0,0,.22-.45l.4-1.08c.24-.63.47-1.24.7-1.83A6.73,6.73,0,0,1,199.68,144Z"/><path class="cls-10" d="M200.45,147.11a5.63,5.63,0,0,1-.37,1.6c-.17.56-.35,1.12-.53,1.7l-.16.49a1.1,1.1,0,0,1-.38.56.81.81,0,0,1-.78,0,2.56,2.56,0,0,1-.53-.35,1.34,1.34,0,0,1-.44-.54,1.13,1.13,0,0,1,0-.7c.12-.4.25-.69.37-1q.33-.84.66-1.65a5.46,5.46,0,0,1,.72-1.47,5,5,0,0,1-.38,1.6c-.18.55-.36,1.11-.55,1.68-.1.31-.24.67-.32,1a.58.58,0,0,0,.28.71c.29.24.61.4.7.3s.26-.51.38-.8q.33-.84.63-1.65A5.29,5.29,0,0,1,200.45,147.11Z"/><path class="cls-10" d="M201.84,148.86a5.58,5.58,0,0,1-.37,1.61l-.53,1.69-.16.49a1.1,1.1,0,0,1-.38.56.81.81,0,0,1-.78,0,2.86,2.86,0,0,1-.53-.35,1.28,1.28,0,0,1-.44-.54,1.13,1.13,0,0,1,0-.7c.12-.39.25-.69.37-1,.22-.56.44-1.1.66-1.64a5,5,0,0,1,.73-1.48,5.6,5.6,0,0,1-.39,1.6l-.55,1.69c-.1.31-.24.66-.32,1a.6.6,0,0,0,.28.72c.29.23.61.4.7.29s.26-.51.38-.8q.33-.84.63-1.65A5.29,5.29,0,0,1,201.84,148.86Z"/><path class="cls-10" d="M195.53,152.53a13.55,13.55,0,0,0-.37-3.05,14.32,14.32,0,0,0-1.47-2.7c0-.05.37.12.79.55a5.2,5.2,0,0,1,1.38,4.3C195.76,152.22,195.59,152.55,195.53,152.53Z"/><path class="cls-2" d="M129.25,100.24a8.84,8.84,0,0,0-9.84-1.78c-1.49.7-2.78,1.83-4.37,2.24-1.9.5-3.89-.1-5.84-.34s-4.26,0-5.33,1.69c-.69,1.06-.72,2.51-1.62,3.4-1.24,1.24-3.32.74-5,1.23a4.67,4.67,0,0,0-3.16,3.71,5.56,5.56,0,0,0,1.59,4.68,8.45,8.45,0,0,1,2,2.14c.54,1.16.13,2.52-.08,3.78s0,2.85,1.11,3.41a1.73,1.73,0,0,0,2.42-2.08l24.23-7.76c3.65,0,4.8-3.29,5.38-4.43A8.84,8.84,0,0,0,129.25,100.24Z"/><path class="cls-8" d="M100.38,108.66l.05,2.62.53,39.21c.06,4.56,4,8.13,8.9,8h0c4.92-.11,8.92-3.92,8.93-8.52,0-4.83.12-9.91.12-9.91s6.22-1,7.51-9.15c.64-4,.44-10.65.1-16.06a8.57,8.57,0,0,0-9.46-8Z"/><path class="cls-2" d="M124.85,119.49a1,1,0,0,1-1,1.05,1,1,0,0,1-1.07-.94,1,1,0,0,1,1-1A1,1,0,0,1,124.85,119.49Z"/><path class="cls-2" d="M125.08,118.33c-.13.13-.92-.45-2-.45s-1.94.56-2.06.43.07-.31.43-.57a2.86,2.86,0,0,1,1.65-.51,2.71,2.71,0,0,1,1.62.52C125,118,125.14,118.26,125.08,118.33Z"/><path class="cls-2" d="M113.65,119.49a1,1,0,0,1-1,1.05,1,1,0,0,1-1.07-.94,1,1,0,0,1,1-1A1,1,0,0,1,113.65,119.49Z"/><path class="cls-2" d="M114.07,118.53c-.13.14-.92-.44-2-.44s-2,.56-2.07.43.07-.31.43-.57a2.91,2.91,0,0,1,1.65-.51,2.76,2.76,0,0,1,1.63.52C114,118.23,114.14,118.47,114.07,118.53Z"/><path class="cls-2" d="M118.14,126.84a7.85,7.85,0,0,1,1.82-.33c.28,0,.55-.09.6-.28a1.42,1.42,0,0,0-.19-.85l-.85-2.18a37,37,0,0,1-1.89-5.69A39,39,0,0,1,120,123l.81,2.19a1.67,1.67,0,0,1,.15,1.12.75.75,0,0,1-.47.42,1.92,1.92,0,0,1-.49.07A7.44,7.44,0,0,1,118.14,126.84Z"/><path class="cls-10" d="M118.91,140.09a20.67,20.67,0,0,1-10.87-2.9s2.64,5.58,10.76,4.82Z"/><path class="cls-2" d="M114.84,127.61c.18,0,.19,1.21,1.23,2.07s2.33.73,2.34.9-.29.24-.84.25a3,3,0,0,1-1.95-.68,2.6,2.6,0,0,1-1-1.73C114.62,127.91,114.76,127.61,114.84,127.61Z"/><path class="cls-2" d="M114.36,114.15c-.11.3-1.23.16-2.54.31s-2.38.52-2.55.25.11-.42.53-.71a4.39,4.39,0,0,1,3.88-.43C114.17,113.76,114.41,114,114.36,114.15Z"/><path class="cls-2" d="M124.67,115.08c-.2.26-1,0-1.9,0s-1.71.17-1.89-.09,0-.39.39-.63a2.76,2.76,0,0,1,3,.1C124.65,114.7,124.76,115,124.67,115.08Z"/><path class="cls-2" d="M126.79,111.28s-4.15,2.17-9.71-.39c-3.65-1.68-7.87-2.42-8.77-1.67s-1,4.46-4.51,5.66c0,0,.47,7.05-2.35,6.89s-2.4-14.33-2.4-14.33l7.77-.42,7.48-1.65,7.12.77,5.53,1.33Z"/><path class="cls-2" d="M98.86,105.42c0-.1.62-.35,1.4-.07s1.14.89,1,1-.52-.32-1.18-.55S98.88,105.54,98.86,105.42Z"/><path class="cls-2" d="M101.2,103c.13,0,.09.84.23,1.79s.56,1.66.46,1.73-.72-.59-.88-1.66A2.77,2.77,0,0,1,101.2,103Z"/><path class="cls-8" d="M101.61,118.86c-.11-.06-4.69-1.61-4.74,3.13s4.72,3.8,4.72,3.67S101.61,118.86,101.61,118.86Z"/><path class="cls-10" d="M100.17,123.85s-.09.06-.23.12a.79.79,0,0,1-.61,0,2,2,0,0,1-.93-1.84,2.72,2.72,0,0,1,.25-1.17.92.92,0,0,1,.62-.63.43.43,0,0,1,.49.23c.06.13,0,.23,0,.24s.11-.08.07-.28a.57.57,0,0,0-.18-.3.64.64,0,0,0-.46-.12,1.16,1.16,0,0,0-.87.72,2.85,2.85,0,0,0-.3,1.32,2.16,2.16,0,0,0,1.18,2.06.89.89,0,0,0,.76-.12C100.16,124,100.18,123.86,100.17,123.85Z"/><path class="cls-3" d="M120.19,150.26c3.48.2,9.32.67,20.85,7.41,2.52,1.48,28.39,18.85,28.39,18.85L158,191.18l-21.1-11.89,2.85,25.26,3.16,30-51.11-.65L90.5,203.77l-.43-20.51-3.24,27.38-20.21-1.92,5.57-36.08a24,24,0,0,1,5.33-12c3.47-4.06,7.91-6.53,13-8.36a42.12,42.12,0,0,1,9.53-1.74l-.17-6s9.09.85,11.51,6.69c0,0,3-6.9,8.86-7.47Z"/><path class="cls-7" d="M106.52,232.62a7.73,7.73,0,0,1-1.4-3,27.3,27.3,0,0,1-.86-8.94c.06-1.89.21-3.94.3-6.13a54.56,54.56,0,0,0-.13-6.95,132.49,132.49,0,0,0-2.75-15.8,95.11,95.11,0,0,1-2.36-16.08c-.12-5,.3-9.47.07-13.17A27,27,0,0,0,97.71,154c-.76-1.92-1.42-2.89-1.31-3s.9.8,1.86,2.71a24.54,24.54,0,0,1,2.23,8.72c.38,3.79.07,8.3.27,13.19a102.9,102.9,0,0,0,2.45,15.82,117.76,117.76,0,0,1,2.65,16,53,53,0,0,1,0,7.13q-.27,3.3-.5,6.12a30.67,30.67,0,0,0,.35,8.73C106.15,231.5,106.64,232.56,106.52,232.62Z"/><path class="cls-7" d="M127.58,234.07a12.82,12.82,0,0,1-.52-3.23c-.23-2.13-.55-5.14-1-8.83-.79-7.45-2-17.74-3.64-29-.83-5.66-1.7-11-2.54-15.92s-1.64-9.29-2.08-13a63.44,63.44,0,0,1-.53-8.92,11,11,0,0,1,.32-3.27c.24,0,.09,4.66,1.3,12,.58,3.69,1.48,8.06,2.41,12.94s1.83,10.27,2.67,15.94c1.68,11.35,2.68,21.69,3.19,29.18.26,3.75.4,6.79.45,8.89A13.69,13.69,0,0,1,127.58,234.07Z"/><path class="cls-7" d="M126.44,151.19a25.24,25.24,0,0,1,.5,3.23,68.51,68.51,0,0,0,2.19,8.6c.54,1.8,1.15,3.79,1.66,6a51,51,0,0,1,1.09,7.08c.45,5,.39,10.51.7,16.24.58,11.47,1.7,21.82,2.46,29.33.38,3.75.68,6.79.85,8.89a13.73,13.73,0,0,1,.12,3.29,13.11,13.11,0,0,1-.72-3.21c-.36-2.08-.83-5.1-1.35-8.84-1-7.48-2.34-17.85-2.92-29.39-.31-5.77-.21-11.27-.57-16.19a54,54,0,0,0-.93-6.93c-.44-2.14-1-4.13-1.45-6a49.62,49.62,0,0,1-1.73-8.82A9.22,9.22,0,0,1,126.44,151.19Z"/><path class="cls-7" d="M118.38,150.9c-.45-.08-.51-1.39-.88-2.73s-1-2.5-.66-2.79c.17-.13.54,0,1,.39a4.38,4.38,0,0,1,1.19,4.29C118.84,150.62,118.59,150.93,118.38,150.9Z"/><path class="cls-7" d="M102.25,151.42c-.19.08-.54-.21-.79-.85a4.37,4.37,0,0,1-.06-2.64,4.32,4.32,0,0,1,1.41-2.22c.55-.42,1-.49,1.12-.33.25.36-.63,1.42-1,3S102.66,151.24,102.25,151.42Z"/><path class="cls-7" d="M118.23,233.61c-.14,0,.11-1.17,0-3.23a31.62,31.62,0,0,0-2-8.49c-.6-1.76-1.31-3.69-1.92-5.83s-1.16-4.45-1.62-6.9c-.94-4.89-1.56-10.31-2.28-16-1.42-11.33-2.62-21.6-3.41-29-.39-3.72-.68-6.74-.85-8.83a12.73,12.73,0,0,1-.1-3.26,13.65,13.65,0,0,1,.7,3.19c.36,2.06.81,5.06,1.35,8.76,1.07,7.41,2.44,17.66,3.86,29,.72,5.66,1.3,11.07,2.14,15.9.42,2.42.91,4.71,1.46,6.81s1.19,4,1.72,5.85a27.66,27.66,0,0,1,1.54,8.81A7.24,7.24,0,0,1,118.23,233.61Z"/><path class="cls-7" d="M97.37,232.48c-.22,0-.6-3.09-1.17-8.09S94.84,212.47,94,204.81s-1.37-14.61-1.6-19.66-.2-8.17,0-8.18.57,3.09,1.09,8.1,1.26,12,2.06,19.58,1.43,14.6,1.71,19.64S97.58,232.47,97.37,232.48Z"/><path class="cls-7" d="M70.12,208.94c-.21-.05.37-3.33,1.49-8.59s2.76-12.51,4.67-20.49c1-4,1.91-7.77,2.75-11.23a35.46,35.46,0,0,1,3.13-9,12.39,12.39,0,0,1,4.5-4.71c1.37-.75,2.24-.84,2.26-.75s-.75.4-1.93,1.26a13.29,13.29,0,0,0-3.86,4.73,38.54,38.54,0,0,0-2.7,8.86L77.8,180.23c-1.91,8-3.73,15.18-5.12,20.37S70.33,209,70.12,208.94Z"/><path class="cls-7" d="M94,158.24c.08.1-.47.61-1,1.82a26.52,26.52,0,0,0-1.85,5.38c-.29,1.19-.6,2.49-.93,3.88s-.58,2.89-.91,4.49a29.75,29.75,0,0,1-1.41,5,52.7,52.7,0,0,1-2.35,5c-.86,1.67-1.72,3.27-2.39,4.84a23.53,23.53,0,0,0-1.32,4.73,65.48,65.48,0,0,0-.86,8.46c-.21,4.87-.14,7.9-.37,7.92s-.66-3-.74-7.94a54.93,54.93,0,0,1,.55-8.69,23.5,23.5,0,0,1,1.33-5.07c.7-1.68,1.56-3.3,2.41-5s1.67-3.27,2.31-4.86a30.48,30.48,0,0,0,1.44-4.74c.36-1.57.67-3.09,1-4.5s.75-2.68,1.13-3.87a20.8,20.8,0,0,1,2.38-5.39C93.21,158.56,94,158.16,94,158.24Z"/><path class="cls-7" d="M164.81,181.81c-.08.18-2.05-.48-4.95-2.1a63.07,63.07,0,0,1-10.57-7.5c-1.93-1.72-3.48-3.52-5-5a29.37,29.37,0,0,0-4.36-3.57c-2.68-1.75-4.71-2.15-4.64-2.42,0-.09.54-.11,1.46.08a13.55,13.55,0,0,1,3.74,1.39,24.41,24.41,0,0,1,4.78,3.47c1.66,1.45,3.28,3.25,5.1,4.88a103.3,103.3,0,0,0,10.11,7.72C163.14,180.61,164.9,181.6,164.81,181.81Z"/><path class="cls-7" d="M160,188.54c-.13.18-1.53-.58-3.74-1.89s-5.23-3.12-8.54-5.22a79.48,79.48,0,0,1-8.2-5.84c-2-1.66-3.06-2.86-2.93-3s1.47.71,3.59,2.12,5.09,3.32,8.38,5.41,6.26,4.08,8.32,5.63S160.16,188.37,160,188.54Z"/><path class="cls-2" d="M89,153.46s.12,0,.32.1a5.86,5.86,0,0,1,.86.42,9.52,9.52,0,0,1,2.62,2.36,12.4,12.4,0,0,1,2.2,4.75,17.27,17.27,0,0,1,.15,6.4,35.73,35.73,0,0,1-1.57,6.18c-.63,1.86-1.24,3.5-1.73,4.89s-.85,2.53-1.08,3.32a10.42,10.42,0,0,1-.39,1.22,5.13,5.13,0,0,1,.2-1.27c.18-.81.49-2,.93-3.38.85-2.83,2.46-6.62,3.14-11a17.2,17.2,0,0,0-.1-6.22,12.45,12.45,0,0,0-2-4.63A11.53,11.53,0,0,0,89,153.46Z"/><path class="cls-2" d="M137.52,184.9a5.11,5.11,0,0,1-.21-1.21c-.11-.89-.26-2-.42-3.33-.36-2.92-.82-6.75-1.34-11s-1-8.07-1.33-11c-.16-1.33-.3-2.45-.4-3.33a5.16,5.16,0,0,1-.1-1.23A6.58,6.58,0,0,1,134,155c.15.78.34,1.91.56,3.31.44,2.8,1,6.68,1.48,11s.94,8.18,1.19,11c.13,1.41.22,2.56.26,3.35A6.79,6.79,0,0,1,137.52,184.9Z"/><path class="cls-2" d="M109.65,148.88a2.42,2.42,0,0,0-1.71.22,2.87,2.87,0,0,0-1.2,1.4,6.65,6.65,0,0,0-.39,1.09l-.15.6a1.6,1.6,0,0,1-.32.7.69.69,0,0,1-.45.22A1.06,1.06,0,0,1,105,153l-.58-.28-1.07-.53-1.8-.91a7.14,7.14,0,0,1-1.6-1,6.24,6.24,0,0,1,1.75.64l1.85.81,1.08.5.56.26c.17.07.24.06.32,0a3.93,3.93,0,0,0,.37-1.09,7.2,7.2,0,0,1,.44-1.15,3.14,3.14,0,0,1,1.46-1.52,2.13,2.13,0,0,1,1.42-.16C109.53,148.72,109.66,148.86,109.65,148.88Z"/><path class="cls-2" d="M120.33,149.89a28.68,28.68,0,0,1-4,3.28l-.32.24L116,153a5.16,5.16,0,0,0-.09-.52,6.08,6.08,0,0,0-1.47-3.48,5.79,5.79,0,0,0-1.35-.85s.73-.11,1.58.59a4,4,0,0,1,1.12,1.49,8.9,8.9,0,0,1,.62,2.16c0,.18.06.36.09.52l-.4-.15A28.4,28.4,0,0,1,120.33,149.89Z"/><path class="cls-2" d="M86,209.76a16.86,16.86,0,0,1-2.44-.69c-1.5-.46-3.56-1.07-5.88-1.65s-4.42-1-6-1.32a15.28,15.28,0,0,1-2.48-.55,10.86,10.86,0,0,1,2.54.2,57.88,57.88,0,0,1,11.88,3A9.73,9.73,0,0,1,86,209.76Z"/><path class="cls-2" d="M70.87,203.45a11.07,11.07,0,0,1,2.42.5c1.47.38,3.49,1,5.68,1.75,1.1.38,2.13.77,3.07,1.14A16.2,16.2,0,0,1,84.49,208c1.37.83,1.68,1.89,1.61,1.88a5.69,5.69,0,0,0-1.79-1.57,20.16,20.16,0,0,0-2.44-1l-3.07-1.1c-2.18-.76-4.17-1.41-5.61-1.88A12.88,12.88,0,0,1,70.87,203.45Z"/><path class="cls-2" d="M159.58,187.3a7.85,7.85,0,0,1,.85-1.94,43.65,43.65,0,0,1,2.66-4.38,45.35,45.35,0,0,1,3.12-4,7.46,7.46,0,0,1,1.51-1.5c.11.1-2,2.55-4.22,5.83S159.71,187.37,159.58,187.3Z"/><path class="cls-2" d="M158.07,184.93a5.76,5.76,0,0,1,.88-1.75,21.45,21.45,0,0,1,6.7-6.62,6.32,6.32,0,0,1,1.75-.87,59.73,59.73,0,0,0-5.12,4.16A57.24,57.24,0,0,0,158.07,184.93Z"/><path class="cls-2" d="M122.14,236.29a4,4,0,0,1-.14-.8c-.07-.58-.17-1.35-.29-2.31-.24-2.06-.58-5-1-8.51-.83-7.19-2-17.12-3.35-28.07s-2.69-20.86-3.77-28c-.55-3.57-1-6.47-1.32-8.46-.15-1-.28-1.73-.37-2.3a5.42,5.42,0,0,1-.09-.81,4.21,4.21,0,0,1,.2.79l.46,2.28c.4,2,.89,4.88,1.49,8.45,1.16,7.14,2.56,17,3.92,28s2.45,20.9,3.19,28.1c.35,3.56.63,6.46.83,8.53.08,1,.15,1.74.2,2.32S122.15,236.29,122.14,236.29Z"/><path class="cls-2" d="M115.58,173.87c-.06,0-.13-.42.35-.8a1,1,0,0,1,1-.09,1.09,1.09,0,0,1,.6,1.15,1.05,1.05,0,0,1-1,.83.87.87,0,0,1-.86-.63.82.82,0,0,1,.07-.68c.09-.13.19-.16.21-.14s-.13.32.06.69a.49.49,0,0,0,.49.28.61.61,0,0,0,.52-.45.65.65,0,0,0-.31-.63.62.62,0,0,0-.62,0C115.74,173.57,115.66,173.89,115.58,173.87Z"/><path class="cls-2" d="M118.6,191.29c-.06,0-.13-.42.35-.79a1,1,0,0,1,1-.1,1.13,1.13,0,0,1,.6,1.15,1.06,1.06,0,0,1-1,.83.86.86,0,0,1-.86-.62.81.81,0,0,1,.07-.68c.1-.14.19-.17.21-.15s-.13.32.06.69a.48.48,0,0,0,.49.28.58.58,0,0,0,.52-.44.64.64,0,0,0-.31-.63.63.63,0,0,0-.62,0C118.77,191,118.68,191.31,118.6,191.29Z"/><path class="cls-3" d="M111,402.22l-.2-8.91-16.69.28.16,13,1,.05c4.61.18,23.45.59,26.51-.39C125.18,405.18,111,402.22,111,402.22Z"/><g class="cls-12"><path class="cls-6" d="M117.91,403.91s5,1.36,4.39,2.18-19.66,1.13-28.08.53l0-.37,22.23-.16S116.94,404,117.91,403.91Z"/></g><path class="cls-2" d="M94,406.24l.29,0,.82,0,3,.09c2.56.05,6.1.07,10,0s7.46-.19,10-.32l3-.18.82-.06.29,0H122l-.82,0-3,.11c-2.56.1-6.1.2-10,.26s-7.45.06-10,0H94Z"/><path class="cls-2" d="M116.47,406.35a6.84,6.84,0,0,1,.54-1.46,6.68,6.68,0,0,1,1-1.18,2.29,2.29,0,0,0-1.19,1.08A2.22,2.22,0,0,0,116.47,406.35Z"/><path class="cls-2" d="M111.51,403.93a2.16,2.16,0,0,0,.51-.65,1.92,1.92,0,0,0,.35-.76c-.05,0-.28.26-.52.65S111.46,403.9,111.51,403.93Z"/><path class="cls-2" d="M110.14,403.23s.3-.14.59-.4.48-.51.44-.55-.3.14-.58.4S110.11,403.19,110.14,403.23Z"/><path class="cls-2" d="M109.26,401.67a2,2,0,0,0,.88.1,1.83,1.83,0,0,0,.87-.11,2,2,0,0,0-.87-.09A1.93,1.93,0,0,0,109.26,401.67Z"/><path class="cls-2" d="M109,400.56a1.7,1.7,0,0,0,1,.27,1.66,1.66,0,0,0,1-.15,4.87,4.87,0,0,0-1-.05A6.43,6.43,0,0,0,109,400.56Z"/><path class="cls-2" d="M112.05,402.46a3.1,3.1,0,0,0,1.07,0,6.82,6.82,0,0,0,1.14-.27,3.54,3.54,0,0,0,.65-.28.61.61,0,0,0,.26-.34.44.44,0,0,0-.17-.43,2,2,0,0,0-2.42.62,1.82,1.82,0,0,0-.34.72.71.71,0,0,0,0,.29,3.13,3.13,0,0,1,.48-.92,1.86,1.86,0,0,1,.91-.61,1.65,1.65,0,0,1,1.27.06c.18.13.11.33-.07.44a3.56,3.56,0,0,1-.6.27,8.25,8.25,0,0,1-1.1.31C112.46,402.42,112.05,402.43,112.05,402.46Z"/><path class="cls-2" d="M112.33,402.51a1.1,1.1,0,0,0,.11-.75,1.77,1.77,0,0,0-.31-.78,1.07,1.07,0,0,0-.9-.53.44.44,0,0,0-.32.5,1.15,1.15,0,0,0,.19.48,3.2,3.2,0,0,0,.52.64,1.55,1.55,0,0,0,.62.42s-.22-.19-.52-.52a3.93,3.93,0,0,1-.46-.64c-.15-.22-.26-.63,0-.68s.55.23.71.44a1.75,1.75,0,0,1,.32.7A4.31,4.31,0,0,1,112.33,402.51Z"/><path class="cls-2" d="M94.25,401.67s.48-.05,1.23,0a5.24,5.24,0,0,1,4.43,3.42c.26.71.3,1.19.33,1.19s0-.13,0-.34a4.28,4.28,0,0,0-.2-.9,5.08,5.08,0,0,0-4.55-3.51,4,4,0,0,0-.91,0A.92.92,0,0,0,94.25,401.67Z"/><path class="cls-2" d="M95.87,394.7a58.88,58.88,0,0,0,0,6.86,27.27,27.27,0,0,0,.09-3.43A32.25,32.25,0,0,0,95.87,394.7Z"/><path class="cls-2" d="M102.34,404.73a9.81,9.81,0,0,0,2.44.2,9.33,9.33,0,0,0,2.44-.23c0-.06-1.09,0-2.44,0S102.35,404.67,102.34,404.73Z"/><path class="cls-2" d="M99.07,404.78s.1.23.21.47.18.47.24.47.08-.27-.06-.55S99.11,404.74,99.07,404.78Z"/><path class="cls-2" d="M97.82,403.26s.07.21.24.39.35.28.39.24-.07-.22-.24-.39S97.86,403.22,97.82,403.26Z"/><path class="cls-2" d="M96,402.59c0,.06.24.05.48.13s.43.21.47.17-.1-.26-.41-.36S96,402.54,96,402.59Z"/><path class="cls-2" d="M94.78,402.28c0,.05.08.14.22.19s.27,0,.29,0-.08-.13-.22-.18S94.8,402.23,94.78,402.28Z"/><g class="cls-4"><polygon points="94.26 401.22 110.93 400.68 110.87 398.67 94.11 400.17 94.26 401.22"/></g><path class="cls-3" d="M149.64,402.39l-.24-8.9-16.69.36.23,13,1,0c4.61.16,23.45.47,26.51-.52C163.89,405.28,149.64,402.39,149.64,402.39Z"/><g class="cls-12"><path class="cls-6" d="M156.61,404.05s5,1.33,4.4,2.16-19.66,1.23-28.07.67v-.37l22.23-.28S155.64,404.11,156.61,404.05Z"/></g><path class="cls-2" d="M132.69,406.5l.29,0,.82,0,3,.07c2.56,0,6.11,0,10,0s7.45-.23,10-.37l3-.19.82-.06.29,0h-.29l-.83,0-3,.13c-2.56.1-6.1.23-10,.31s-7.45.1-10,.09h-4.15Z"/><path class="cls-2" d="M155.18,406.49a7.06,7.06,0,0,1,.54-1.46,6.41,6.41,0,0,1,1-1.18,2.68,2.68,0,0,0-1.55,2.64Z"/><path class="cls-2" d="M150.21,404.1a2.13,2.13,0,0,0,.51-.66c.23-.38.39-.72.34-.75s-.28.26-.51.65S150.16,404.07,150.21,404.1Z"/><path class="cls-2" d="M148.84,403.41s.3-.14.58-.41.48-.51.44-.55-.3.14-.58.41S148.8,403.37,148.84,403.41Z"/><path class="cls-2" d="M148,401.85a1.85,1.85,0,0,0,.88.09,2.08,2.08,0,0,0,.87-.1,1.93,1.93,0,0,0-.88-.1A2.18,2.18,0,0,0,148,401.85Z"/><path class="cls-2" d="M147.64,400.75a1.69,1.69,0,0,0,1,.26,1.72,1.72,0,0,0,1-.15,4.87,4.87,0,0,0-1-.05A4.66,4.66,0,0,0,147.64,400.75Z"/><path class="cls-2" d="M150.74,402.63a3.3,3.3,0,0,0,1.07,0,6.06,6.06,0,0,0,1.14-.28,3.54,3.54,0,0,0,.65-.28.58.58,0,0,0,.26-.34.41.41,0,0,0-.18-.42,2,2,0,0,0-2.75,1.35.6.6,0,0,0,0,.29,2.92,2.92,0,0,1,.47-.93,1.83,1.83,0,0,1,.9-.61,1.63,1.63,0,0,1,1.28.06c.17.12.11.32-.08.44a4,4,0,0,1-.59.27,8.25,8.25,0,0,1-1.1.31C151.15,402.59,150.74,402.59,150.74,402.63Z"/><path class="cls-2" d="M151,402.68a1,1,0,0,0,.11-.75,1.8,1.8,0,0,0-.31-.78,1.1,1.1,0,0,0-.91-.53.44.44,0,0,0-.32.5,1.31,1.31,0,0,0,.2.48,3.2,3.2,0,0,0,.52.64,1.55,1.55,0,0,0,.62.42s-.22-.19-.52-.52a3.41,3.41,0,0,1-.46-.64c-.16-.22-.26-.62,0-.68s.55.23.72.44a1.93,1.93,0,0,1,.32.69A4.44,4.44,0,0,1,151,402.68Z"/><path class="cls-2" d="M132.94,401.93s.47-.06,1.23,0a5.22,5.22,0,0,1,4.44,3.39c.27.71.31,1.19.35,1.18a1.19,1.19,0,0,0,0-.33,4.28,4.28,0,0,0-.2-.9,5.21,5.21,0,0,0-1.74-2.45,5.26,5.26,0,0,0-2.83-1,4.71,4.71,0,0,0-.92.05A.82.82,0,0,0,132.94,401.93Z"/><path class="cls-2" d="M134.52,395a30,30,0,0,0-.07,3.43,26.85,26.85,0,0,0,.13,3.43,30,30,0,0,0,.07-3.43A29.09,29.09,0,0,0,134.52,395Z"/><path class="cls-2" d="M141.05,405a9.41,9.41,0,0,0,2.44.19,9.92,9.92,0,0,0,2.44-.25c0-.06-1.1,0-2.44.05S141.05,404.89,141.05,405Z"/><path class="cls-2" d="M137.78,405s.09.23.21.48.18.47.24.46.08-.26-.06-.55S137.81,405,137.78,405Z"/><path class="cls-2" d="M136.51,403.5s.08.21.25.39.35.27.39.23-.07-.21-.25-.38S136.55,403.46,136.51,403.5Z"/><path class="cls-2" d="M134.74,402.84c0,.06.23.05.48.13s.42.21.47.17-.11-.27-.41-.36S134.72,402.79,134.74,402.84Z"/><path class="cls-2" d="M133.47,402.53c0,.06.08.14.22.19s.27,0,.29,0-.08-.14-.22-.19S133.49,402.48,133.47,402.53Z"/><g class="cls-4"><polygon points="132.95 401.48 149.61 400.86 149.54 398.85 132.79 400.43 132.95 401.48"/></g><polygon class="cls-2" points="90.99 231.21 90.99 399.95 117.29 399.95 119.62 253.6 128.85 399.95 155.15 399.95 143.38 234.06 90.99 231.21"/><path class="cls-5" d="M121.86,232.48a14.3,14.3,0,0,1,.22,2.71c.07,1.68.14,4,.18,6.56,0,1.27,0,2.49,0,3.61a6.48,6.48,0,0,1-.55,3,3.43,3.43,0,0,1-1.49,1.53,1.45,1.45,0,0,1-.8.22s.28-.1.69-.37a3.44,3.44,0,0,0,1.28-1.5,6.63,6.63,0,0,0,.41-2.84c0-1.12,0-2.33-.08-3.6,0-2.57,0-4.88,0-6.56A14.32,14.32,0,0,1,121.86,232.48Z"/><path class="cls-5" d="M117.14,234.39c0,.05-.35.26-.36.81a.83.83,0,0,0,.37.75,1,1,0,0,0,1.06-.06.68.68,0,0,0,.05-1.19,1.18,1.18,0,0,0-1.06-.23v-.18c.22.1.32.17.31.2s-.14,0-.38,0l-.21,0,.19-.14a1.36,1.36,0,0,1,1.43.1,1.15,1.15,0,0,1,.54.86,1.12,1.12,0,0,1-.57,1,1.51,1.51,0,0,1-1.63,0,1.13,1.13,0,0,1-.45-1.12,1,1,0,0,1,.42-.68C117,234.37,117.13,234.37,117.14,234.39Z"/><path class="cls-8" d="M135.79,201.49c-.69-.9-9,.53-9,.53l3-2.3c-1.54-2.74-6.88.58-8.58,2.18a3.11,3.11,0,0,0-.84,1.65l-33.52,7.07-18.71-1.9s-.37,3.22-1.31,9.31c-.89,5.76,8.58,11.4,14.44,10.58,5.36-.76,38.12-10.07,43.7-11.66h0l.81-.24,0,0c1.81-.62,6.13-2.17,6.58-3,.57-1,.42-8.75.42-8.75l3.08-1.36A2.22,2.22,0,0,0,135.79,201.49Z"/></g></g></svg>