<svg xmlns="http://www.w3.org/2000/svg" viewBox="0 0 424.73 237.27"><defs><style>.cls-1{fill:#165c7f;opacity:0.5;}.cls-2{fill:#c7dbe5;}.cls-3{fill:#a7bad8;}.cls-4{fill:#2b2f3f;}.cls-5{fill:#1d6c93;}.cls-14,.cls-6{fill:#fff;}.cls-7{fill:#cecece;}.cls-8{fill:#afafaf;}.cls-9{fill:#d7d9db;}.cls-10{fill:#3e96cc;}.cls-11{fill:#ffed6e;}.cls-12{fill:#145b7a;}.cls-13{fill:#cbd2d8;}.cls-14{opacity:0.2;}.cls-15{fill:#464f60;}.cls-16{fill:#a2a9bc;}.cls-17{fill:#343847;}.cls-18{fill:#4098cd;}.cls-19{fill:#ff5e4c;}.cls-20{fill:#46c596;}.cls-21{fill:#dfe82d;}.cls-22{fill:#e58507;}.cls-23{fill:#d16666;}.cls-24{fill:#5b6b69;}.cls-25,.cls-28{fill:#3d3e43;}.cls-26{fill:#ecd4b3;}.cls-27{fill:#e0a177;}.cls-28{opacity:0.4;}</style></defs><g id="Capa_2" data-name="Capa 2"><g id="OBJECTS"><ellipse class="cls-1" cx="212.36" cy="220.9" rx="212.36" ry="16.37"/><path class="cls-2" d="M319.71,3.7l-12-3.56a3.47,3.47,0,0,0-4.31,2.35l-1.54,5.23a42.64,42.64,0,0,0-13.88,1.47L285.33,4.4A3.45,3.45,0,0,0,280.63,3l-11,6a3.47,3.47,0,0,0-1.39,4.7l2.61,4.79a42.7,42.7,0,0,0-8.77,10.85l-5.23-1.54a3.46,3.46,0,0,0-4.31,2.34l-3.56,12a3.47,3.47,0,0,0,2.35,4.31l5.23,1.55A42.61,42.61,0,0,0,258,61.92l-4.79,2.61a3.45,3.45,0,0,0-1.39,4.7l6,11a3.47,3.47,0,0,0,4.7,1.39L267.31,79a42.7,42.7,0,0,0,10.85,8.77L276.62,93A3.47,3.47,0,0,0,279,97.35l12,3.56a3.47,3.47,0,0,0,4.31-2.35l1.55-5.23a42.61,42.61,0,0,0,13.87-1.47l2.6,4.79A3.48,3.48,0,0,0,318,98l11-6a3.47,3.47,0,0,0,1.39-4.7l-2.61-4.79a42.7,42.7,0,0,0,8.77-10.85l5.23,1.54a3.46,3.46,0,0,0,4.31-2.34l3.56-12a3.47,3.47,0,0,0-2.35-4.31L342.14,53a42.61,42.61,0,0,0-1.47-13.87l4.79-2.6a3.48,3.48,0,0,0,1.39-4.71l-6-11a3.46,3.46,0,0,0-4.7-1.4L331.36,22a42.7,42.7,0,0,0-10.85-8.77L322.05,8A3.47,3.47,0,0,0,319.71,3.7Zm-15.41,30a17.54,17.54,0,1,1-21.79,11.86A17.54,17.54,0,0,1,304.3,33.7Z"/><path class="cls-3" d="M306.51,26.22A25.34,25.34,0,1,0,323.64,57.7,25.35,25.35,0,0,0,306.51,26.22ZM304.3,33.7a17.54,17.54,0,1,1-21.79,11.86A17.54,17.54,0,0,1,304.3,33.7Z"/><path class="cls-2" d="M220,6.16l-7.07-2.08a2,2,0,0,0-2.53,1.38l-.91,3.07a24.9,24.9,0,0,0-8.14.86L199.8,6.58A2,2,0,0,0,197,5.76l-6.47,3.52a2,2,0,0,0-.81,2.77l1.53,2.81a24.77,24.77,0,0,0-5.15,6.37l-3.07-.91a2,2,0,0,0-2.54,1.38l-2.08,7.06a2,2,0,0,0,1.38,2.53l3.07.91a25,25,0,0,0,.86,8.15l-2.81,1.53a2,2,0,0,0-.82,2.76l3.52,6.47a2,2,0,0,0,2.77.82l2.81-1.53a25,25,0,0,0,6.37,5.15l-.91,3.07a2,2,0,0,0,1.38,2.53l7.06,2.09a2,2,0,0,0,2.54-1.38l.9-3.07a25.24,25.24,0,0,0,8.15-.86l1.53,2.81a2,2,0,0,0,2.76.81L225.47,58a2,2,0,0,0,.82-2.76l-1.53-2.81a25,25,0,0,0,5.15-6.37L233,47a2,2,0,0,0,2.53-1.37l2.09-7.07A2,2,0,0,0,236.22,36l-3.07-.91a25.18,25.18,0,0,0-.86-8.14l2.81-1.53a2,2,0,0,0,.81-2.76l-3.52-6.48a2,2,0,0,0-2.76-.81l-2.81,1.53a24.94,24.94,0,0,0-6.37-5.15l.9-3.07A2,2,0,0,0,220,6.16Zm-9,17.62a10.3,10.3,0,1,1-12.79,7A10.29,10.29,0,0,1,210.93,23.78Z"/><path class="cls-3" d="M212.23,19.39a14.87,14.87,0,1,0,10.05,18.48A14.87,14.87,0,0,0,212.23,19.39Zm-1.3,4.39a10.3,10.3,0,1,1-12.79,7A10.29,10.29,0,0,1,210.93,23.78Z"/><path class="cls-4" d="M309.33,63.38V169.89H119.38V63.38a7.82,7.82,0,0,1,7.82-7.82H301.5A7.83,7.83,0,0,1,309.33,63.38Z"/><rect class="cls-5" x="127.69" y="64.5" width="173.32" height="105.39"/><polygon class="cls-6" points="239.2 207.63 189.51 207.63 194.96 189.32 234.31 189.32 239.2 207.63"/><path class="cls-6" d="M309.33,169.89v11.6a7.84,7.84,0,0,1-7.83,7.83H127.2a7.83,7.83,0,0,1-7.82-7.83v-11.6Z"/><polygon class="cls-7" points="194.96 189.32 193.19 195.25 235.89 195.25 234.31 189.32 194.96 189.32"/><path class="cls-7" d="M245.94,216.78H182.76a4.57,4.57,0,0,1-4.57-4.57h0a4.58,4.58,0,0,1,4.57-4.58h63.18a4.58,4.58,0,0,1,4.58,4.58h0A4.57,4.57,0,0,1,245.94,216.78Z"/><polygon class="cls-8" points="236.16 146.78 187.71 98.56 193.82 92.36 242.28 140.58 236.16 146.78"/><path class="cls-9" d="M178.69,89.81a.93.93,0,0,0-1.57.76c.39,3.81.86,6.39,3.3,8.81a10,10,0,1,0,14-14.22c-2.23-2.19-4.52-2.21-8.34-2.51a.93.93,0,0,0-.73,1.58l3.8,3.75a.92.92,0,0,1,0,1.31l-4.79,4.86a.94.94,0,0,1-1.31,0Z"/><path class="cls-9" d="M244.53,155.18a.93.93,0,0,1-.75,1.58c-3.8-.35-6.4-.77-8.84-3.19a10,10,0,1,1,14-14.21c2.23,2.2,2.28,4.49,2.63,8.3a.93.93,0,0,1-1.57.75l-3.81-3.75a.91.91,0,0,0-1.3,0l-4.8,4.86a.93.93,0,0,0,0,1.3Z"/><path class="cls-10" d="M232,112.28c-5.49,2.39-13.06,5.62-16.55,14.19L207,118c8.58-3.46,11.83-11,14.24-16.51S239,85,242,83.33a4.16,4.16,0,0,1,.54-.23c2.89-1,6,1.86,6,1.86s2.87,3.14,1.84,6a3.54,3.54,0,0,1-.23.53C248.56,94.53,237.5,109.89,232,112.28Z"/><path class="cls-11" d="M250.42,91a4.68,4.68,0,0,0-4.87.69c-2.39,1.92-3.86.14-3.86.14s-1.77-1.47.16-3.86a4.65,4.65,0,0,0,.7-4.86c2.89-1,6,1.86,6,1.86S251.45,88.1,250.42,91Z"/><path class="cls-11" d="M215.47,126.48l-4.69,3.86a2.29,2.29,0,0,1-3.1-.15l-4.44-4.45a2.3,2.3,0,0,1-.14-3.1L207,118Z"/><path class="cls-12" d="M227,111.25c-.76.54-3.48-1.34-3.48-1.34s-1.87-2.72-1.33-3.48c5.05-7.09,13.55-14.73,15.22-15.08s3.51,1.2,3.51,1.2,1.54,1.87,1.2,3.52S234.14,106.22,227,111.25Z"/><path class="cls-11" d="M234,102.71c-4.07,4.07-8.11,6.64-9,5.74s1.68-4.92,5.76-9,8.12-6.64,9-5.75S238.11,98.64,234,102.71Z"/><polygon class="cls-13" points="186.52 150.13 183.14 146.74 184.96 145.63 204.08 126.58 206.79 129.3 187.68 148.35 186.52 150.13"/><polygon class="cls-13" points="185.29 151.23 182.04 147.97 183.14 146.74 186.52 150.13 185.29 151.23"/><polygon class="cls-10" points="182.07 153.96 179.34 151.23 182.04 147.97 185.29 151.23 182.07 153.96"/><path class="cls-12" d="M244.72,90.88a1.47,1.47,0,1,1,0-2.08A1.48,1.48,0,0,1,244.72,90.88Z"/><polygon class="cls-14" points="301.01 64.51 301.01 99.67 230.78 169.89 127.7 169.89 127.7 158.33 221.52 64.51 301.01 64.51"/><polygon class="cls-14" points="197.81 64.51 127.7 134.62 127.7 92.7 155.89 64.51 197.81 64.51"/><path class="cls-7" d="M218.62,182.17a2.88,2.88,0,0,1-.42,0,3,3,0,0,1-2.84-2.91,2.91,2.91,0,0,1,1.59-2.64.74.74,0,0,0,0-1.34,2.43,2.43,0,0,0-1-.23h-.52l.52-2.68c0-.24-.29-.45-.71-.45h-1.63c-.43,0-.76.21-.71.45l.52,2.68h-.53a2.56,2.56,0,0,0-2.28,1.41l-1,2a2.53,2.53,0,0,0-.27,1.15v4.84a2.53,2.53,0,0,0,1,2l.3.23a2.55,2.55,0,0,0,1.55.53h4.48a2.6,2.6,0,0,0,1.56-.53l.3-.23a2.56,2.56,0,0,0,1-2V182.9A.74.74,0,0,0,218.62,182.17Z"/><rect class="cls-15" x="22.45" y="18.74" width="89.23" height="198.04" rx="7.41"/><path class="cls-16" d="M111.68,180.47v28.89a7.42,7.42,0,0,1-7.41,7.42H29.87a7.41,7.41,0,0,1-7.41-7.42V180.47a16.44,16.44,0,0,0,16.45,16.45H95.22A16.45,16.45,0,0,0,111.68,180.47Z"/><rect class="cls-17" x="27.48" y="37.78" width="80.25" height="30.06" rx="4.69"/><rect class="cls-15" x="30.61" y="44.99" width="73.31" height="8.98" rx="3.13"/><path class="cls-7" d="M42.72,51.11H35.51a1.91,1.91,0,0,1-1.91-1.9h0a1.91,1.91,0,0,1,1.91-1.91h7.21a1.9,1.9,0,0,1,1.9,1.91h0A1.9,1.9,0,0,1,42.72,51.11Z"/><path class="cls-18" d="M89.53,49.36a2.4,2.4,0,1,1-2.4-2.4A2.41,2.41,0,0,1,89.53,49.36Z"/><circle class="cls-18" cx="96.41" cy="49.36" r="2.4"/><path class="cls-6" d="M102.73,29.11H82.54a2.45,2.45,0,0,1-2.45-2.45h0a2.45,2.45,0,0,1,2.45-2.45h20.19a2.45,2.45,0,0,1,2.45,2.45h0A2.45,2.45,0,0,1,102.73,29.11Z"/><rect class="cls-17" x="26.53" y="104.84" width="80.93" height="12.92" rx="3.33"/><rect class="cls-6" x="90.51" y="108.65" width="9.86" height="4.96" rx="0.55"/><rect class="cls-17" x="91.33" y="109.39" width="8.21" height="1.47" rx="0.46"/><rect class="cls-6" x="78.09" y="108.65" width="9.86" height="4.96" rx="0.55"/><rect class="cls-17" x="78.92" y="109.39" width="8.21" height="1.47" rx="0.46"/><path class="cls-19" d="M66,113.59a2.4,2.4,0,1,1,2.39-2.39A2.4,2.4,0,0,1,66,113.59Zm0-4a1.56,1.56,0,1,0,1.55,1.56A1.56,1.56,0,0,0,66,109.64Z"/><path class="cls-20" d="M72.57,113.59A2.4,2.4,0,1,1,75,111.2,2.4,2.4,0,0,1,72.57,113.59Zm0-4a1.56,1.56,0,1,0,1.56,1.56A1.56,1.56,0,0,0,72.57,109.64Z"/><path class="cls-6" d="M63.73,192.23H59.65a1.94,1.94,0,0,1-1.94-1.94h0a1.94,1.94,0,0,1,1.94-1.94h4.08a1.94,1.94,0,0,1,1.94,1.94h0A1.94,1.94,0,0,1,63.73,192.23Z"/><path class="cls-6" d="M74.49,192.23H70.41a1.94,1.94,0,0,1-1.94-1.94h0a1.94,1.94,0,0,1,1.94-1.94h4.08a1.94,1.94,0,0,1,1.94,1.94h0A1.94,1.94,0,0,1,74.49,192.23Z"/><circle class="cls-17" cx="67.54" cy="147.85" r="13.47"/><circle class="cls-6" cx="67.54" cy="147.85" r="8.86" transform="translate(-49.24 34.78) rotate(-21.37)"/><path class="cls-17" d="M67.54,153.72a5.5,5.5,0,0,1-3.64-9.63,1,1,0,0,1,1.37,1.55,3.44,3.44,0,1,0,4.55,0,1,1,0,0,1,1.36-1.55,5.5,5.5,0,0,1-3.64,9.63Z"/><path class="cls-17" d="M67.54,147.66h0a1,1,0,0,1-1-1V143a1,1,0,0,1,1-1h0a1,1,0,0,1,1,1v3.61A1,1,0,0,1,67.54,147.66Z"/><rect class="cls-20" x="256.94" y="113.75" width="146.28" height="103.03" rx="3.63"/><rect class="cls-21" x="332.78" y="198.81" width="61.43" height="3.8"/><rect class="cls-22" x="355.43" y="199.03" width="2.29" height="1.38"/><rect class="cls-22" x="355.43" y="201.01" width="2.29" height="1.38"/><rect class="cls-22" x="356.22" y="200.21" width="0.72" height="1.04"/><rect class="cls-6" x="328.47" y="199.03" width="4.31" height="3.36"/><rect class="cls-6" x="394.21" y="199.03" width="4.31" height="3.36"/><rect class="cls-22" x="333.83" y="200.08" width="20.58" height="1.3"/><rect class="cls-22" x="358.67" y="200.08" width="34.5" height="1.3"/><rect class="cls-21" x="332.78" y="193.26" width="61.43" height="3.8"/><rect class="cls-22" x="355.43" y="193.48" width="2.29" height="1.38"/><rect class="cls-22" x="355.43" y="195.47" width="2.29" height="1.38"/><rect class="cls-22" x="356.22" y="194.67" width="0.72" height="1.04"/><rect class="cls-6" x="328.47" y="193.48" width="4.31" height="3.36"/><rect class="cls-6" x="394.21" y="193.48" width="4.31" height="3.36"/><rect class="cls-22" x="333.83" y="194.54" width="20.58" height="1.3"/><rect class="cls-22" x="358.67" y="194.54" width="34.5" height="1.3"/><rect class="cls-21" x="332.78" y="187.72" width="61.43" height="3.8"/><rect class="cls-22" x="355.43" y="187.94" width="2.29" height="1.38"/><rect class="cls-22" x="355.43" y="189.93" width="2.29" height="1.38"/><rect class="cls-22" x="356.22" y="189.13" width="0.72" height="1.04"/><rect class="cls-6" x="328.47" y="187.94" width="4.31" height="3.36"/><rect class="cls-6" x="394.21" y="187.94" width="4.31" height="3.36"/><rect class="cls-22" x="333.83" y="189" width="20.58" height="1.3"/><rect class="cls-22" x="358.67" y="189" width="34.5" height="1.3"/><rect class="cls-21" x="332.78" y="182.18" width="61.43" height="3.8"/><rect class="cls-22" x="355.43" y="182.4" width="2.29" height="1.38"/><rect class="cls-22" x="355.43" y="184.38" width="2.29" height="1.38"/><rect class="cls-22" x="356.22" y="183.59" width="0.72" height="1.04"/><rect class="cls-6" x="328.47" y="182.4" width="4.31" height="3.36"/><rect class="cls-6" x="394.21" y="182.4" width="4.31" height="3.36"/><rect class="cls-22" x="333.83" y="183.46" width="20.58" height="1.3"/><rect class="cls-22" x="358.67" y="183.46" width="34.5" height="1.3"/><rect class="cls-21" x="337.24" y="208" width="26.52" height="5.94"/><rect class="cls-23" x="338.53" y="208.7" width="1.71" height="1.79"/><rect class="cls-23" x="338.53" y="211.46" width="1.71" height="1.79"/><rect class="cls-23" x="341.32" y="208.7" width="1.71" height="1.79"/><rect class="cls-23" x="341.32" y="211.46" width="1.71" height="1.79"/><rect class="cls-23" x="344.12" y="208.7" width="1.71" height="1.79"/><rect class="cls-23" x="344.12" y="211.46" width="1.71" height="1.79"/><rect class="cls-23" x="346.92" y="208.7" width="1.71" height="1.79"/><rect class="cls-23" x="346.92" y="211.46" width="1.71" height="1.79"/><rect class="cls-23" x="349.71" y="208.7" width="1.71" height="1.79"/><rect class="cls-23" x="349.71" y="211.46" width="1.71" height="1.79"/><rect class="cls-23" x="352.51" y="208.7" width="1.71" height="1.79"/><rect class="cls-23" x="352.51" y="211.46" width="1.71" height="1.79"/><rect class="cls-23" x="355.31" y="208.7" width="1.71" height="1.79"/><rect class="cls-23" x="355.31" y="211.46" width="1.71" height="1.79"/><rect class="cls-23" x="358.1" y="208.7" width="1.71" height="1.79"/><rect class="cls-23" x="358.1" y="211.46" width="1.71" height="1.79"/><rect class="cls-23" x="360.9" y="208.7" width="1.71" height="1.79"/><rect class="cls-23" x="360.9" y="211.46" width="1.71" height="1.79"/><rect class="cls-21" x="368.59" y="208" width="26.52" height="5.94"/><rect class="cls-23" x="369.88" y="208.7" width="1.71" height="1.79"/><rect class="cls-23" x="369.88" y="211.46" width="1.71" height="1.79"/><rect class="cls-23" x="372.68" y="208.7" width="1.71" height="1.79"/><rect class="cls-23" x="372.68" y="211.46" width="1.71" height="1.79"/><rect class="cls-23" x="375.47" y="208.7" width="1.71" height="1.79"/><rect class="cls-23" x="375.47" y="211.46" width="1.71" height="1.79"/><rect class="cls-23" x="378.27" y="208.7" width="1.71" height="1.79"/><rect class="cls-23" x="378.27" y="211.46" width="1.71" height="1.79"/><rect class="cls-23" x="381.07" y="208.7" width="1.71" height="1.79"/><rect class="cls-23" x="381.07" y="211.46" width="1.71" height="1.79"/><rect class="cls-23" x="383.86" y="208.7" width="1.71" height="1.79"/><rect class="cls-23" x="383.86" y="211.46" width="1.71" height="1.79"/><rect class="cls-23" x="386.66" y="208.7" width="1.71" height="1.79"/><rect class="cls-23" x="386.66" y="211.46" width="1.71" height="1.79"/><rect class="cls-23" x="389.46" y="208.7" width="1.71" height="1.79"/><rect class="cls-23" x="389.46" y="211.46" width="1.71" height="1.79"/><rect class="cls-23" x="392.25" y="208.7" width="1.71" height="1.79"/><rect class="cls-23" x="392.25" y="211.46" width="1.71" height="1.79"/><rect class="cls-24" x="254.88" y="150.99" width="14.88" height="3.33" transform="translate(414.98 -109.66) rotate(90)"/><rect class="cls-25" x="262.62" y="145.92" width="0.96" height="1.01" transform="translate(409.52 -116.67) rotate(90)"/><rect class="cls-25" x="261.07" y="145.92" width="0.96" height="1.01" transform="translate(407.97 -115.12) rotate(90)"/><rect class="cls-25" x="262.62" y="147.49" width="0.96" height="1.01" transform="translate(411.09 -115.11) rotate(90)"/><rect class="cls-25" x="261.07" y="147.49" width="0.96" height="1.01" transform="translate(409.54 -113.55) rotate(90)"/><rect class="cls-25" x="262.62" y="149.06" width="0.96" height="1.01" transform="translate(412.66 -113.54) rotate(90)"/><rect class="cls-25" x="261.07" y="149.06" width="0.96" height="1.01" transform="translate(411.11 -111.99) rotate(90)"/><rect class="cls-25" x="262.62" y="150.63" width="0.96" height="1.01" transform="translate(414.23 -111.97) rotate(90)"/><rect class="cls-25" x="261.07" y="150.63" width="0.96" height="1.01" transform="translate(412.68 -110.42) rotate(90)"/><rect class="cls-25" x="262.62" y="152.2" width="0.96" height="1.01" transform="translate(415.8 -110.4) rotate(90)"/><rect class="cls-25" x="261.07" y="152.2" width="0.96" height="1.01" transform="translate(414.25 -108.85) rotate(90)"/><rect class="cls-25" x="262.62" y="153.77" width="0.96" height="1.01" transform="translate(417.37 -108.83) rotate(90)"/><rect class="cls-25" x="261.07" y="153.77" width="0.96" height="1.01" transform="translate(415.82 -107.28) rotate(90)"/><rect class="cls-25" x="262.62" y="155.34" width="0.96" height="1.01" transform="translate(418.94 -107.26) rotate(90)"/><rect class="cls-25" x="261.07" y="155.34" width="0.96" height="1.01" transform="translate(417.39 -105.71) rotate(90)"/><rect class="cls-25" x="262.62" y="156.91" width="0.96" height="1.01" transform="translate(420.51 -105.69) rotate(90)"/><rect class="cls-25" x="261.07" y="156.91" width="0.96" height="1.01" transform="translate(418.96 -104.14) rotate(90)"/><rect class="cls-25" x="262.62" y="158.47" width="0.96" height="1.01" transform="translate(422.08 -104.12) rotate(90)"/><rect class="cls-25" x="261.07" y="158.47" width="0.96" height="1.01" transform="translate(420.52 -102.57) rotate(90)"/><path class="cls-6" d="M399.58,147.53a1.95,1.95,0,1,1-1.95-1.95A2,2,0,0,1,399.58,147.53Z"/><circle class="cls-6" cx="359.53" cy="125.79" r="1.95"/><circle class="cls-6" cx="371.7" cy="125.79" r="1.95"/><path class="cls-6" d="M381.89,147.53a1.48,1.48,0,1,1-1.48-1.48A1.47,1.47,0,0,1,381.89,147.53Z"/><path class="cls-6" d="M381.89,152a1.48,1.48,0,1,1-1.48-1.47A1.48,1.48,0,0,1,381.89,152Z"/><path class="cls-6" d="M381.89,156.46a1.48,1.48,0,1,1-1.48-1.47A1.48,1.48,0,0,1,381.89,156.46Z"/><path class="cls-6" d="M381.89,160.93a1.48,1.48,0,1,1-1.48-1.48A1.47,1.47,0,0,1,381.89,160.93Z"/><path class="cls-6" d="M399.58,158.5a1.95,1.95,0,1,1-1.95-1.95A2,2,0,0,1,399.58,158.5Z"/><rect class="cls-21" x="389.78" y="138.91" width="4.02" height="30.47"/><rect class="cls-22" x="390.53" y="139.57" width="2.52" height="2.06"/><rect class="cls-22" x="390.53" y="142.96" width="2.52" height="2.06"/><rect class="cls-22" x="390.53" y="146.35" width="2.52" height="2.06"/><rect class="cls-22" x="390.53" y="149.73" width="2.52" height="2.06"/><rect class="cls-22" x="390.53" y="153.12" width="2.52" height="2.06"/><rect class="cls-22" x="390.53" y="156.5" width="2.52" height="2.06"/><rect class="cls-22" x="390.53" y="159.89" width="2.52" height="2.06"/><rect class="cls-22" x="390.53" y="163.28" width="2.52" height="2.06"/><rect class="cls-22" x="390.53" y="166.66" width="2.52" height="2.06"/><rect class="cls-21" x="363.64" y="123.11" width="4.02" height="17" transform="translate(234.04 497.25) rotate(-90)"/><rect class="cls-23" x="357.58" y="130.57" width="2.52" height="2.06" transform="translate(227.24 490.45) rotate(-90)"/><rect class="cls-23" x="360.97" y="130.57" width="2.52" height="2.06" transform="translate(230.62 493.84) rotate(-90)"/><rect class="cls-23" x="364.35" y="130.57" width="2.52" height="2.06" transform="translate(234.01 497.22) rotate(-90)"/><rect class="cls-23" x="367.74" y="130.57" width="2.52" height="2.06" transform="translate(237.39 500.61) rotate(-90)"/><rect class="cls-23" x="371.13" y="130.57" width="2.52" height="2.06" transform="translate(240.78 503.99) rotate(-90)"/><rect class="cls-24" x="383.77" y="159.9" width="3.84" height="6.25"/><rect class="cls-6" x="387.62" y="160.42" width="1.02" height="0.56"/><rect class="cls-6" x="387.62" y="161.59" width="1.02" height="0.56"/><rect class="cls-6" x="387.62" y="163.91" width="1.02" height="0.56"/><rect class="cls-6" x="387.62" y="162.75" width="1.02" height="0.56"/><rect class="cls-6" x="387.62" y="165.08" width="1.02" height="0.56"/><rect class="cls-6" x="382.76" y="160.42" width="1.02" height="0.56"/><rect class="cls-6" x="382.76" y="161.59" width="1.02" height="0.56"/><rect class="cls-6" x="382.76" y="163.91" width="1.02" height="0.56"/><rect class="cls-6" x="382.76" y="162.75" width="1.02" height="0.56"/><rect class="cls-6" x="382.76" y="165.08" width="1.02" height="0.56"/><rect class="cls-6" x="386.58" y="158.87" width="0.56" height="1.02"/><rect class="cls-6" x="384.25" y="158.87" width="0.56" height="1.02"/><rect class="cls-6" x="385.41" y="158.87" width="0.56" height="1.02"/><rect class="cls-6" x="386.58" y="166.15" width="0.56" height="1.02"/><rect class="cls-6" x="384.25" y="166.15" width="0.56" height="1.02"/><rect class="cls-6" x="385.41" y="166.15" width="0.56" height="1.02"/><rect class="cls-24" x="318.61" y="195.64" width="3.84" height="6.25"/><rect class="cls-6" x="322.46" y="196.16" width="1.02" height="0.56"/><rect class="cls-6" x="322.46" y="197.33" width="1.02" height="0.56"/><rect class="cls-6" x="322.46" y="199.65" width="1.02" height="0.56"/><rect class="cls-6" x="322.46" y="198.49" width="1.02" height="0.56"/><rect class="cls-6" x="322.46" y="200.82" width="1.02" height="0.56"/><rect class="cls-6" x="317.6" y="196.16" width="1.02" height="0.56"/><rect class="cls-6" x="317.6" y="197.33" width="1.02" height="0.56"/><rect class="cls-6" x="317.6" y="199.65" width="1.02" height="0.56"/><rect class="cls-6" x="317.6" y="198.49" width="1.02" height="0.56"/><rect class="cls-6" x="317.6" y="200.82" width="1.02" height="0.56"/><rect class="cls-6" x="321.42" y="194.61" width="0.56" height="1.02"/><rect class="cls-6" x="319.09" y="194.61" width="0.56" height="1.02"/><rect class="cls-6" x="320.26" y="194.61" width="0.56" height="1.02"/><rect class="cls-6" x="321.42" y="201.89" width="0.56" height="1.02"/><rect class="cls-6" x="319.09" y="201.89" width="0.56" height="1.02"/><rect class="cls-6" x="320.26" y="201.89" width="0.56" height="1.02"/><circle class="cls-6" cx="358.84" cy="142.87" r="1.47"/><circle class="cls-6" cx="363.31" cy="142.87" r="1.47"/><path class="cls-6" d="M367.78,141.4a1.47,1.47,0,1,1-1.48,1.47A1.47,1.47,0,0,1,367.78,141.4Z"/><path class="cls-6" d="M372.24,141.4a1.47,1.47,0,1,1-1.47,1.47A1.47,1.47,0,0,1,372.24,141.4Z"/><polygon class="cls-26" points="373.49 145.99 373.49 167.96 349.27 167.96 349.27 165.69 345.11 160.45 345.11 152.67 349.27 148.26 349.27 145.99 373.49 145.99"/><rect class="cls-24" x="373.49" y="145.02" width="4.17" height="23.97"/><path class="cls-6" d="M352.67,173.36h-2.23l-4.71-4.71v-2.16l-1.41-1.4a.53.53,0,0,1,0-.74.54.54,0,0,1,.75,0l1.71,1.71v2.15l4.09,4.1h1.26l2.12-2.93h21.39V161l-1.7-1.7V152.9l1.65-1.65v-6.91a.52.52,0,0,1,.52-.52.52.52,0,0,1,.53.52v7.34L375,153.33v5.5l1.7,1.7v9.9h-21.9Z"/><polygon class="cls-6" points="269.39 212.14 269.39 206.38 270.13 206.38 270.13 205.46 271.6 205.46 272.33 206.19 272.33 213.11 270.16 213.11 270.16 212.14 269.39 212.14"/><polygon class="cls-18" points="271.44 211.89 270.46 211.89 270.46 207.17 270.98 207.17 270.98 211.37 271.44 211.37 271.44 211.89"/><path class="cls-6" d="M288,196.16a5.41,5.41,0,1,1-5.41-5.4A5.41,5.41,0,0,1,288,196.16Z"/><path class="cls-24" d="M286.71,196.16a4.1,4.1,0,1,1-4.1-4.09A4.1,4.1,0,0,1,286.71,196.16Z"/><circle class="cls-6" cx="272.67" cy="200.82" r="1.81"/><rect class="cls-6" x="260.97" y="182.62" width="4.03" height="7.21"/><rect class="cls-18" x="261.69" y="183.57" width="2.59" height="5.31"/><rect class="cls-6" x="260.97" y="171.54" width="4.03" height="7.21"/><rect class="cls-23" x="261.69" y="172.49" width="2.59" height="5.31"/><rect class="cls-6" x="260.82" y="197.63" width="3.71" height="13.28"/><rect class="cls-18" x="261.96" y="198.76" width="1.44" height="11.01"/><rect class="cls-6" x="363.45" y="169.48" width="3.71" height="13.28" transform="translate(541.43 -189.19) rotate(90)"/><rect class="cls-18" x="364.59" y="170.62" width="1.44" height="11.01" transform="translate(541.43 -189.19) rotate(90)"/><path class="cls-6" d="M325.57,212.36h-7.18a2.31,2.31,0,0,1-2.31-2.31h0a2.3,2.3,0,0,1,2.31-2.31h7.18a2.31,2.31,0,0,1,2.31,2.31h0A2.32,2.32,0,0,1,325.57,212.36Z"/><path class="cls-7" d="M325.26,211.48H318.7a1.43,1.43,0,0,1-1.43-1.43h0a1.44,1.44,0,0,1,1.43-1.44h6.56a1.44,1.44,0,0,1,1.43,1.44h0A1.43,1.43,0,0,1,325.26,211.48Z"/><path class="cls-24" d="M320,210.05a.65.65,0,0,1-.65.65.65.65,0,0,1,0-1.3A.65.65,0,0,1,320,210.05Z"/><path class="cls-24" d="M325.27,210.05a.65.65,0,1,1-.65-.65A.65.65,0,0,1,325.27,210.05Z"/><rect class="cls-26" x="321.68" y="147.72" width="15.04" height="5.54"/><rect class="cls-27" x="324.78" y="150.73" width="8.85" height="2.03"/><rect class="cls-27" x="322.74" y="148.1" width="12.91" height="1"/><polygon class="cls-24" points="369.84 148.59 368.87 147.46 366.47 147.46 364.48 148.59 352.18 148.59 352.18 165.27 364.48 165.27 366.47 166.41 368.87 166.41 369.84 165.27 370.2 165.27 370.2 148.59 369.84 148.59"/><polygon class="cls-6" points="365.99 149.62 365.99 148.94 364.48 148.94 364.48 148.24 360.95 148.24 360.95 148.94 358.66 148.94 358.66 149.62 354.52 149.62 354.52 154.63 355.14 154.63 355.14 159.45 354.52 159.45 354.52 164.47 358.66 164.47 358.66 165.14 360.95 165.14 360.95 165.84 364.48 165.84 364.48 165.14 365.99 165.14 365.99 164.47 369.56 164.47 369.56 149.62 365.99 149.62"/><rect class="cls-21" x="386.86" y="173.64" width="8.06" height="4.97"/><rect class="cls-23" x="387.83" y="174.22" width="1.43" height="1.5"/><rect class="cls-23" x="387.83" y="176.53" width="1.43" height="1.5"/><rect class="cls-23" x="390.17" y="174.22" width="1.43" height="1.5"/><rect class="cls-23" x="390.17" y="176.53" width="1.43" height="1.5"/><rect class="cls-23" x="392.51" y="174.22" width="1.43" height="1.5"/><rect class="cls-23" x="392.51" y="176.53" width="1.43" height="1.5"/><rect class="cls-6" x="379.35" y="174.19" width="6.55" height="3.87"/><rect class="cls-18" x="380.34" y="174.99" width="4.59" height="2.27"/><rect class="cls-21" x="386.86" y="129.87" width="8.06" height="4.97"/><rect class="cls-23" x="387.83" y="130.45" width="1.43" height="1.5"/><rect class="cls-23" x="387.83" y="132.76" width="1.43" height="1.5"/><rect class="cls-23" x="390.17" y="130.45" width="1.43" height="1.5"/><rect class="cls-23" x="390.17" y="132.76" width="1.43" height="1.5"/><rect class="cls-23" x="392.51" y="130.45" width="1.43" height="1.5"/><rect class="cls-23" x="392.51" y="132.76" width="1.43" height="1.5"/><rect class="cls-6" x="379.35" y="130.42" width="6.55" height="3.87"/><rect class="cls-18" x="380.34" y="131.21" width="4.59" height="2.27"/><rect class="cls-21" x="386.86" y="123.31" width="8.06" height="4.97"/><rect class="cls-23" x="387.83" y="123.89" width="1.43" height="1.5"/><rect class="cls-23" x="387.83" y="126.2" width="1.43" height="1.5"/><rect class="cls-23" x="390.17" y="123.89" width="1.43" height="1.5"/><rect class="cls-23" x="390.17" y="126.2" width="1.43" height="1.5"/><rect class="cls-23" x="392.51" y="123.89" width="1.43" height="1.5"/><rect class="cls-23" x="392.51" y="126.2" width="1.43" height="1.5"/><rect class="cls-6" x="379.35" y="123.86" width="6.55" height="3.87"/><rect class="cls-18" x="380.34" y="124.66" width="4.59" height="2.27"/><rect class="cls-7" x="332.01" y="129.73" width="9.21" height="6.52"/><rect class="cls-24" x="332.01" y="129.73" width="9.21" height="2.15"/><rect class="cls-18" x="314.35" y="134.17" width="0.77" height="2.28"/><rect class="cls-18" x="314.35" y="137.08" width="0.77" height="2.28"/><rect class="cls-18" x="314.35" y="139.98" width="0.77" height="2.28"/><rect class="cls-18" x="314.35" y="142.89" width="0.77" height="2.28"/><rect class="cls-18" x="314.35" y="145.79" width="0.77" height="2.28"/><rect class="cls-18" x="314.35" y="148.7" width="0.77" height="2.28"/><rect class="cls-18" x="314.35" y="151.6" width="0.77" height="2.28"/><rect class="cls-18" x="314.35" y="154.51" width="0.77" height="2.28"/><rect class="cls-18" x="314.35" y="157.41" width="0.77" height="2.28"/><rect class="cls-18" x="314.35" y="160.32" width="0.77" height="2.28"/><rect class="cls-18" x="314.35" y="163.22" width="0.77" height="2.28"/><rect class="cls-18" x="314.35" y="166.13" width="0.77" height="2.28"/><rect class="cls-18" x="314.35" y="169.04" width="0.77" height="2.28"/><rect class="cls-18" x="314.35" y="171.94" width="0.77" height="2.28"/><rect class="cls-18" x="314.35" y="174.85" width="0.77" height="2.28"/><path class="cls-6" d="M318.69,180v-2.84H319V134.06h-3.86v43.06h.29V180h-1.8v4.61h3.06v-.81h.79v.81h3.06V180Zm-1.23,0v1.85h-.79V180h-.25v-2.84h1.26V180Z"/><polygon class="cls-18" points="316.42 177.12 316.42 179.96 316.67 179.96 316.67 181.81 317.46 181.81 317.46 179.96 317.68 179.96 317.68 177.12 316.42 177.12"/><rect class="cls-18" x="316.26" y="135.51" width="1.57" height="40.17"/><rect class="cls-7" x="332.01" y="137.85" width="9.21" height="6.52"/><rect class="cls-24" x="332.01" y="137.85" width="9.21" height="2.15"/><rect class="cls-7" x="344.74" y="129.73" width="9.21" height="6.52"/><rect class="cls-24" x="344.74" y="129.73" width="9.21" height="2.15"/><rect class="cls-7" x="344.74" y="137.85" width="9.21" height="6.52"/><rect class="cls-24" x="344.74" y="137.85" width="9.21" height="2.15"/><rect class="cls-7" x="324.88" y="134.06" width="3.87" height="11.25"/><rect class="cls-24" x="324.11" y="134.17" width="0.77" height="2.28"/><rect class="cls-24" x="324.11" y="137.08" width="0.77" height="2.28"/><rect class="cls-24" x="324.11" y="139.98" width="0.77" height="2.28"/><rect class="cls-24" x="324.11" y="142.89" width="0.77" height="2.28"/><rect class="cls-24" x="326.02" y="135.51" width="1.57" height="8.35"/><rect class="cls-24" x="326.02" y="140.49" width="1.57" height="0.63"/><rect class="cls-6" x="305.86" y="134.06" width="3.87" height="14.16"/><rect class="cls-18" x="305.09" y="134.17" width="0.77" height="2.28"/><rect class="cls-18" x="305.09" y="137.08" width="0.77" height="2.28"/><rect class="cls-18" x="305.09" y="139.98" width="0.77" height="2.28"/><rect class="cls-18" x="305.09" y="142.89" width="0.77" height="2.28"/><rect class="cls-18" x="305.09" y="145.79" width="0.77" height="2.28"/><rect class="cls-18" x="307.01" y="135.51" width="1.57" height="11.25"/><rect class="cls-6" x="307.01" y="143.12" width="1.57" height="0.72"/><rect class="cls-6" x="296.2" y="134.06" width="3.87" height="14.16"/><rect class="cls-18" x="295.43" y="134.17" width="0.77" height="2.28"/><rect class="cls-18" x="295.43" y="137.08" width="0.77" height="2.28"/><rect class="cls-18" x="295.43" y="139.98" width="0.77" height="2.28"/><rect class="cls-18" x="295.43" y="142.89" width="0.77" height="2.28"/><rect class="cls-18" x="295.43" y="145.79" width="0.77" height="2.28"/><rect class="cls-18" x="297.34" y="135.51" width="1.57" height="11.25"/><rect class="cls-6" x="297.34" y="143.12" width="1.57" height="0.72"/><rect class="cls-18" x="285.36" y="134.17" width="0.77" height="2.28"/><rect class="cls-18" x="285.36" y="137.08" width="0.77" height="2.28"/><rect class="cls-18" x="285.36" y="139.98" width="0.77" height="2.28"/><rect class="cls-18" x="285.36" y="142.89" width="0.77" height="2.28"/><rect class="cls-18" x="285.36" y="145.79" width="0.77" height="2.28"/><rect class="cls-18" x="285.36" y="148.7" width="0.77" height="2.28"/><rect class="cls-18" x="285.36" y="151.6" width="0.77" height="2.28"/><rect class="cls-18" x="285.36" y="154.51" width="0.77" height="2.28"/><rect class="cls-18" x="285.36" y="157.41" width="0.77" height="2.28"/><rect class="cls-18" x="285.36" y="160.32" width="0.77" height="2.28"/><rect class="cls-18" x="285.36" y="163.22" width="0.77" height="2.28"/><rect class="cls-18" x="285.36" y="166.13" width="0.77" height="2.28"/><rect class="cls-18" x="285.36" y="169.04" width="0.77" height="2.28"/><rect class="cls-18" x="285.36" y="171.94" width="0.77" height="2.28"/><rect class="cls-18" x="285.36" y="174.85" width="0.77" height="2.28"/><path class="cls-6" d="M289.7,180v-2.84H290V134.06h-3.86v43.06h.29V180h-1.8v4.61h3.06v-.81h.79v.81h3.06V180Zm-1.23,0v1.85h-.79V180h-.25v-2.84h1.26V180Z"/><polygon class="cls-18" points="287.43 177.12 287.43 179.96 287.68 179.96 287.68 181.81 288.47 181.81 288.47 179.96 288.69 179.96 288.69 177.12 287.43 177.12"/><rect class="cls-18" x="287.27" y="135.51" width="1.57" height="40.17"/><polygon class="cls-6" points="280.99 131.56 280.99 172.49 276.13 172.49 276.13 131.56 277.68 131.56 277.68 133.2 279.45 133.2 279.45 131.56 280.99 131.56"/><rect class="cls-7" x="276.57" y="132.02" width="0.64" height="0.62"/><rect class="cls-7" x="279.89" y="132.02" width="0.64" height="0.62"/><rect class="cls-7" x="276.57" y="163.48" width="0.64" height="0.62"/><rect class="cls-7" x="279.89" y="163.48" width="0.64" height="0.62"/><rect class="cls-7" x="277.78" y="134.06" width="1.57" height="36.7"/><rect class="cls-6" x="277.78" y="163.35" width="1.57" height="0.87"/><polygon class="cls-26" points="271.42 131.56 271.42 172.49 266.57 172.49 266.57 131.56 268.11 131.56 268.11 133.2 269.88 133.2 269.88 131.56 271.42 131.56"/><rect class="cls-27" x="267" y="132.02" width="0.64" height="0.62"/><rect class="cls-27" x="270.32" y="132.02" width="0.64" height="0.62"/><rect class="cls-27" x="267" y="163.48" width="0.64" height="0.62"/><rect class="cls-27" x="270.32" y="163.48" width="0.64" height="0.62"/><rect class="cls-27" x="268.21" y="134.06" width="1.57" height="36.7"/><rect class="cls-26" x="268.21" y="163.35" width="1.57" height="0.87"/><rect class="cls-6" x="260.54" y="129.95" width="4.65" height="8.68"/><path class="cls-7" d="M260.54,136.62h0V132h0a.79.79,0,0,0-.79.78v3.08A.79.79,0,0,0,260.54,136.62Z"/><rect class="cls-6" x="261.45" y="116.69" width="9.97" height="10.29"/><path class="cls-7" d="M270.05,125.54h-7.23v-7.41h7.23ZM264.39,124h4.09V119.7h-4.09Z"/><rect class="cls-6" x="269.8" y="177.98" width="9.97" height="10.29"/><path class="cls-7" d="M278.4,186.82h-7.23v-7.4h7.23Zm-5.65-1.57h4.08V181h-4.08Z"/><rect class="cls-7" x="274.79" y="116.97" width="12.41" height="9.72"/><rect class="cls-24" x="274.79" y="116.97" width="1.66" height="1.66"/><rect class="cls-24" x="285.53" y="116.97" width="1.66" height="1.66"/><rect class="cls-24" x="274.79" y="125.03" width="1.66" height="1.66"/><rect class="cls-24" x="285.53" y="125.03" width="1.66" height="1.66"/><rect class="cls-24" x="276.45" y="118.63" width="9.09" height="6.4"/><rect class="cls-24" x="290.13" y="128.22" width="10.19" height="3.01"/><rect class="cls-24" x="304.84" y="128.22" width="4.49" height="3.01"/><path class="cls-6" d="M296.27,119a2,2,0,1,1-2-2A2,2,0,0,1,296.27,119Z"/><path class="cls-6" d="M300.32,119a2,2,0,1,1-2-2A2,2,0,0,1,300.32,119Z"/><path class="cls-6" d="M296.27,123a2,2,0,1,1-2-2A2,2,0,0,1,296.27,123Z"/><path class="cls-6" d="M300.32,123a2,2,0,1,1-2-2A2,2,0,0,1,300.32,123Z"/><path class="cls-6" d="M302.68,158.61a3.88,3.88,0,1,1-3.88-3.88A3.88,3.88,0,0,1,302.68,158.61Z"/><path class="cls-6" d="M310.59,158.61a3.88,3.88,0,1,1-3.88-3.88A3.88,3.88,0,0,1,310.59,158.61Z"/><path class="cls-6" d="M302.68,166.58a3.88,3.88,0,1,1-3.88-3.88A3.88,3.88,0,0,1,302.68,166.58Z"/><path class="cls-6" d="M310.59,166.58a3.88,3.88,0,1,1-3.88-3.88A3.88,3.88,0,0,1,310.59,166.58Z"/><rect class="cls-24" x="293.5" y="176.33" width="18" height="3.36"/><rect class="cls-24" x="293.5" y="180.4" width="18" height="1.01"/><rect class="cls-24" x="293.5" y="182.12" width="18" height="1"/><rect class="cls-25" x="293.5" y="179.69" width="18" height="0.71"/><rect class="cls-25" x="293.5" y="181.41" width="18" height="0.71"/><rect class="cls-24" x="293.5" y="183.83" width="18" height="1"/><rect class="cls-25" x="293.5" y="183.12" width="18" height="0.71"/><rect class="cls-24" x="293.5" y="185.55" width="18" height="1.65"/><rect class="cls-25" x="293.5" y="184.84" width="18" height="0.71"/><rect class="cls-25" x="293.5" y="187.19" width="18" height="0.74"/><rect class="cls-24" x="293.5" y="187.93" width="18" height="1.65"/><rect class="cls-25" x="293.5" y="189.58" width="18" height="0.74"/><rect class="cls-24" x="293.5" y="190.32" width="18" height="6.28"/><rect class="cls-24" x="333.57" y="112.19" width="6.34" height="10.27"/><rect class="cls-25" x="335.19" y="110.88" width="2.98" height="1.31"/><rect class="cls-6" x="341" y="112.19" width="8.34" height="9.64"/><rect class="cls-26" x="341" y="121.87" width="8.34" height="3.16"/><rect class="cls-6" x="350.43" y="113.45" width="6.38" height="8.17"/><polygon class="cls-7" points="353.09 117.02 352.45 116.38 352.45 114.27 352.03 114.27 352.03 116.38 351.4 117.02 351.02 116.64 351.5 116.16 351.5 113.75 352.98 113.75 352.98 116.16 353.46 116.64 353.09 117.02"/><rect class="cls-24" x="351.88" y="112.86" width="0.72" height="1.15"/><polygon class="cls-7" points="355.89 117.02 355.25 116.38 355.25 114.27 354.83 114.27 354.83 116.38 354.19 117.02 353.82 116.64 354.31 116.16 354.31 113.75 355.78 113.75 355.78 116.16 356.26 116.64 355.89 117.02"/><rect class="cls-24" x="354.68" y="112.86" width="0.72" height="1.15"/><polygon class="cls-7" points="373.41 113.44 367.5 113.44 361.58 113.44 358.74 113.44 358.74 115.81 361.58 115.81 361.58 119.88 367.5 119.88 373.41 119.88 373.41 115.81 376.26 115.81 376.26 113.44 373.41 113.44"/><path class="cls-6" d="M375.13,110.89h-1a.65.65,0,0,1-.65-.65v-.11a.44.44,0,0,0-.44-.44H361.94a.44.44,0,0,0-.44.44v.11a.65.65,0,0,1-.65.65h-1a.44.44,0,0,0-.44.44v2.12h16.15v-2.12A.44.44,0,0,0,375.13,110.89Z"/><path class="cls-6" d="M391.87,110.89h-.82a.6.6,0,0,1-.54-.65v-.11a.41.41,0,0,0-.37-.44h-9.23a.41.41,0,0,0-.36.44v.11a.6.6,0,0,1-.54.65h-.82a.41.41,0,0,0-.37.44v2.12h13.42v-2.12A.41.41,0,0,0,391.87,110.89Z"/><polygon class="cls-7" points="392.83 113.45 378.38 113.45 378.38 115.03 381.51 115.03 381.51 117.09 389.69 117.09 389.69 115.03 392.83 115.03 392.83 113.45"/><rect class="cls-6" x="395.17" y="112.1" width="6.73" height="8.87"/><rect class="cls-26" x="395.17" y="119.66" width="6.73" height="1.31"/><rect class="cls-7" x="322.41" y="170.79" width="16.84" height="6.34"/><rect class="cls-24" x="323.62" y="169.41" width="4.62" height="1.38"/><rect class="cls-24" x="329.45" y="169.41" width="8.81" height="1.38"/><rect class="cls-7" x="297.48" y="202.98" width="15.23" height="6.34"/><rect class="cls-24" x="298.58" y="201.6" width="4.18" height="1.38"/><rect class="cls-24" x="303.85" y="201.6" width="7.97" height="1.38"/><polygon class="cls-6" points="273.98 212.14 273.98 206.38 274.71 206.38 274.71 205.46 276.19 205.46 276.92 206.19 276.92 213.11 274.75 213.11 274.75 212.14 273.98 212.14"/><polygon class="cls-18" points="276.03 211.89 275.05 211.89 275.05 207.17 275.57 207.17 275.57 211.37 276.03 211.37 276.03 211.89"/><polygon class="cls-6" points="278.56 212.14 278.56 206.38 279.3 206.38 279.3 205.46 280.77 205.46 281.5 206.19 281.5 213.11 279.33 213.11 279.34 212.14 278.56 212.14"/><polygon class="cls-18" points="280.62 211.89 279.63 211.89 279.63 207.17 280.16 207.17 280.16 211.37 280.62 211.37 280.62 211.89"/><polygon class="cls-6" points="283.15 212.14 283.15 206.38 283.89 206.38 283.89 205.46 285.36 205.46 286.09 206.19 286.09 213.11 283.92 213.11 283.92 212.14 283.15 212.14"/><polygon class="cls-18" points="285.2 211.89 284.22 211.89 284.22 207.17 284.75 207.17 284.75 211.37 285.2 211.37 285.2 211.89"/><polygon class="cls-6" points="290.73 212.14 290.73 206.38 291.46 206.38 291.46 205.46 292.94 205.46 293.67 206.19 293.67 213.11 291.5 213.11 291.5 212.14 290.73 212.14"/><polygon class="cls-18" points="292.78 211.89 291.8 211.89 291.8 207.17 292.32 207.17 292.32 211.37 292.78 211.37 292.78 211.89"/><rect class="cls-24" x="383.77" y="150" width="3.84" height="6.25"/><rect class="cls-6" x="387.62" y="150.52" width="1.02" height="0.56"/><rect class="cls-6" x="387.62" y="151.69" width="1.02" height="0.56"/><rect class="cls-6" x="387.62" y="154.01" width="1.02" height="0.56"/><rect class="cls-6" x="387.62" y="152.85" width="1.02" height="0.56"/><rect class="cls-6" x="387.62" y="155.18" width="1.02" height="0.56"/><rect class="cls-6" x="382.76" y="150.52" width="1.02" height="0.56"/><rect class="cls-6" x="382.76" y="151.69" width="1.02" height="0.56"/><rect class="cls-6" x="382.76" y="154.01" width="1.02" height="0.56"/><rect class="cls-6" x="382.76" y="152.85" width="1.02" height="0.56"/><rect class="cls-6" x="382.76" y="155.18" width="1.02" height="0.56"/><rect class="cls-6" x="386.58" y="148.98" width="0.56" height="1.02"/><rect class="cls-6" x="384.25" y="148.98" width="0.56" height="1.02"/><rect class="cls-6" x="385.41" y="148.98" width="0.56" height="1.02"/><rect class="cls-6" x="386.58" y="156.26" width="0.56" height="1.02"/><rect class="cls-6" x="384.25" y="156.26" width="0.56" height="1.02"/><rect class="cls-6" x="385.41" y="156.26" width="0.56" height="1.02"/><rect class="cls-24" x="383.77" y="140.1" width="3.84" height="6.25"/><rect class="cls-6" x="387.62" y="140.63" width="1.02" height="0.56"/><rect class="cls-6" x="387.62" y="141.79" width="1.02" height="0.56"/><rect class="cls-6" x="387.62" y="144.12" width="1.02" height="0.56"/><rect class="cls-6" x="387.62" y="142.95" width="1.02" height="0.56"/><rect class="cls-6" x="387.62" y="145.28" width="1.02" height="0.56"/><rect class="cls-6" x="382.76" y="140.63" width="1.02" height="0.56"/><rect class="cls-6" x="382.76" y="141.79" width="1.02" height="0.56"/><rect class="cls-6" x="382.76" y="144.12" width="1.02" height="0.56"/><rect class="cls-6" x="382.76" y="142.95" width="1.02" height="0.56"/><rect class="cls-6" x="382.76" y="145.28" width="1.02" height="0.56"/><rect class="cls-6" x="386.58" y="139.08" width="0.56" height="1.02"/><rect class="cls-6" x="384.25" y="139.08" width="0.56" height="1.02"/><rect class="cls-6" x="385.41" y="139.08" width="0.56" height="1.02"/><rect class="cls-6" x="386.58" y="146.36" width="0.56" height="1.02"/><rect class="cls-6" x="384.25" y="146.36" width="0.56" height="1.02"/><rect class="cls-6" x="385.41" y="146.36" width="0.56" height="1.02"/><rect class="cls-24" x="368.44" y="134.77" width="3.84" height="6.25" transform="translate(232.47 508.26) rotate(-90)"/><rect class="cls-6" x="367.76" y="134.96" width="0.56" height="1.02"/><rect class="cls-6" x="368.92" y="134.96" width="0.56" height="1.02"/><rect class="cls-6" x="371.25" y="134.96" width="0.56" height="1.02"/><rect class="cls-6" x="370.08" y="134.96" width="0.56" height="1.02"/><rect class="cls-6" x="372.41" y="134.96" width="0.56" height="1.02"/><rect class="cls-6" x="367.76" y="139.82" width="0.56" height="1.02"/><rect class="cls-6" x="368.92" y="139.82" width="0.56" height="1.02"/><rect class="cls-6" x="371.25" y="139.82" width="0.56" height="1.02"/><rect class="cls-6" x="370.08" y="139.82" width="0.56" height="1.02"/><rect class="cls-6" x="372.41" y="139.82" width="0.56" height="1.02"/><rect class="cls-6" x="366.21" y="136.46" width="1.02" height="0.56"/><rect class="cls-6" x="366.21" y="138.78" width="1.02" height="0.56"/><rect class="cls-6" x="366.21" y="137.62" width="1.02" height="0.56"/><rect class="cls-6" x="373.49" y="136.46" width="1.02" height="0.56"/><rect class="cls-6" x="373.49" y="138.78" width="1.02" height="0.56"/><rect class="cls-6" x="373.49" y="137.62" width="1.02" height="0.56"/><rect class="cls-24" x="358.95" y="134.77" width="3.84" height="6.25" transform="translate(222.98 498.77) rotate(-90)"/><rect class="cls-6" x="358.27" y="134.96" width="0.56" height="1.02"/><rect class="cls-6" x="359.44" y="134.96" width="0.56" height="1.02"/><rect class="cls-6" x="361.76" y="134.96" width="0.56" height="1.02"/><rect class="cls-6" x="360.6" y="134.96" width="0.56" height="1.02"/><rect class="cls-6" x="362.92" y="134.96" width="0.56" height="1.02"/><rect class="cls-6" x="358.27" y="139.82" width="0.56" height="1.02"/><rect class="cls-6" x="359.44" y="139.82" width="0.56" height="1.02"/><rect class="cls-6" x="361.76" y="139.82" width="0.56" height="1.02"/><rect class="cls-6" x="360.6" y="139.82" width="0.56" height="1.02"/><rect class="cls-6" x="362.92" y="139.82" width="0.56" height="1.02"/><rect class="cls-6" x="356.72" y="136.46" width="1.02" height="0.56"/><rect class="cls-6" x="356.72" y="138.78" width="1.02" height="0.56"/><rect class="cls-6" x="356.72" y="137.62" width="1.02" height="0.56"/><rect class="cls-6" x="364" y="136.46" width="1.02" height="0.56"/><rect class="cls-6" x="364" y="138.78" width="1.02" height="0.56"/><rect class="cls-6" x="364" y="137.62" width="1.02" height="0.56"/><rect class="cls-7" x="305.09" y="116.97" width="12.41" height="9.72"/><rect class="cls-24" x="305.03" y="116.97" width="1.66" height="1.66"/><rect class="cls-24" x="305.03" y="125.03" width="1.66" height="1.66"/><rect class="cls-24" x="315.84" y="116.97" width="1.66" height="1.66"/><rect class="cls-24" x="315.84" y="125.03" width="1.66" height="1.66"/><rect class="cls-24" x="306.75" y="118.63" width="9.09" height="6.4"/><path class="cls-28" d="M309.29,107v6.71H260.53a3.64,3.64,0,0,0-3.63,3.63v71.94h-6.42V110.67a3.64,3.64,0,0,1,3.63-3.63Z"/></g></g></svg>